<?xml version="1.0" encoding="UTF-8" standalone="no"?>
<svg width="60px" height="60px" viewBox="0 0 60 60" version="1.1" xmlns="http://www.w3.org/2000/svg" xmlns:xlink="http://www.w3.org/1999/xlink" xmlns:sketch="http://www.bohemiancoding.com/sketch/ns">
    <!-- Generator: Sketch 3.1.1 (8761) - http://www.bohemiancoding.com/sketch -->
    <title>airbnb</title>
    <desc>Created with Sketch.</desc>
    <defs></defs>
    <g id="Page-1" stroke="none" stroke-width="1" fill="none" fill-rule="evenodd" sketch:type="MSPage">
        <g id="airbnb" sketch:type="MSArtboardGroup" fill="#FFFFFF">
            <path d="M54.0227957,48.5886 C53.6006882,51.7122 51.4913548,54.4152 48.5378065,55.6164 C47.0908387,56.2164 45.524043,56.397 43.9566452,56.2164 C42.4500645,56.0364 40.9428817,55.5558 39.376086,54.6558 C37.2059355,53.4534 35.0357849,51.5922 32.5043441,48.8292 C36.4827527,43.9644 38.8931613,39.5196 39.7975914,35.5566 C40.2196989,33.6942 40.279914,32.0124 40.0992688,30.4506 C39.8584086,28.9494 39.315871,27.5676 38.4716559,26.3664 C36.6031828,23.664 33.4689892,22.1022 29.9729032,22.1022 C26.4768172,22.1022 23.3426237,23.724 21.4741505,26.3664 C20.6299355,27.5676 20.088,28.9494 19.8465376,30.4506 C19.6056774,32.0124 19.6658925,33.7542 20.1482151,35.5566 C21.052043,39.5196 23.5232688,44.0244 27.4414624,48.8886 C24.9702366,51.6522 22.739871,53.514 20.5697204,54.7152 C19.0029247,55.6164 17.4957419,56.097 15.9891613,56.2764 C14.3615484,56.457 12.7941505,56.2164 11.408,55.6764 C8.45445161,54.4752 6.34511828,51.7716 5.92301075,48.6486 C5.74236559,47.1474 5.8627957,45.6462 6.46554839,43.9644 C6.64619355,43.3632 6.94787097,42.7638 7.24894624,42.0426 C7.67105376,41.082 8.15337634,40.0602 8.63509677,39.039 L8.69591398,38.9196 C12.8543656,29.97 17.3150968,20.841 21.9564731,11.9526 L22.1371183,11.5914 C22.6194409,10.6914 23.1011613,9.7308 23.584086,8.8296 C24.0658065,7.8684 24.6083441,6.9672 25.2713118,6.186 C26.5370323,4.7442 28.2248602,3.9636 30.0933333,3.9636 C31.9618065,3.9636 33.6496344,4.7442 34.9153548,6.186 C35.5783226,6.9672 36.1208602,7.8684 36.6031828,8.8296 C37.0855054,9.7308 37.5672258,10.6914 38.0495484,11.5914 L38.2307957,11.9526 C42.8113548,20.901 47.272086,30.03 51.4311398,38.9796 L51.4311398,39.039 C51.9134624,40.0002 52.3349677,41.082 52.8172903,42.0426 C53.1189677,42.7638 53.420043,43.3632 53.6006882,43.9644 C54.0830108,45.5256 54.2636559,47.028 54.0227957,48.5886 L54.0227957,48.5886 Z M29.9729032,45.7656 C26.7182796,41.682 24.6083441,37.8378 23.8851613,34.5954 C23.584086,33.2136 23.5232688,32.0124 23.7045161,30.9312 C23.8249462,29.97 24.1868387,29.1288 24.6685591,28.4076 C25.8138495,26.7876 27.7425376,25.7646 29.9729032,25.7646 C32.2032688,25.7646 34.192172,26.7264 35.2772473,28.4076 C35.7589677,29.1288 36.1208602,29.97 36.2412903,30.9312 C36.4219355,32.0124 36.3617204,33.2736 36.0606452,34.5954 C35.3374624,37.7784 33.2275269,41.622 29.9729032,45.7656 L29.9729032,45.7656 Z M57.1569892,42.6426 C56.855914,41.922 56.5542366,41.1414 56.2531613,40.4808 C55.7708387,39.4002 55.2885161,38.3784 54.8664086,37.4172 L54.8061935,37.3578 C50.6477419,28.3482 46.1870108,19.2192 41.4854194,10.2114 L41.3047742,9.8502 C40.8224516,8.949 40.340129,7.9878 39.8584086,7.0272 C39.2550538,5.9454 38.6523011,4.8054 37.6882581,3.7236 C35.7589677,1.3212 32.9866667,0 30.0331183,0 C27.0193548,0 24.3072688,1.3212 22.3177634,3.6042 C21.4139355,4.6848 20.7509677,5.826 20.1482151,6.9078 C19.6658925,7.8684 19.1835699,8.8296 18.7012473,9.7308 L18.5206022,10.0902 C13.879828,19.0992 9.35888172,28.2288 5.19982796,37.2378 L5.1396129,37.3578 C4.71750538,38.3184 4.2351828,39.339 3.75286022,40.4208 C3.45178495,41.082 3.15010753,41.8026 2.84903226,42.5832 C2.06503226,44.805 1.82417204,46.9074 2.12524731,49.0692 C2.7888172,53.574 5.80258065,57.3582 9.96163441,59.0394 C11.5284301,59.7006 13.156043,60.0006 14.843871,60.0006 C15.3261935,60.0006 15.9289462,59.9406 16.4112688,59.88 C18.400172,59.6394 20.4492903,58.98 22.4381935,57.8382 C24.9100215,56.457 27.2608172,54.4752 29.9126882,51.5922 C32.5645591,54.4752 34.9755699,56.457 37.3865806,57.8382 C39.376086,58.98 41.4252043,59.6394 43.4141075,59.88 C43.8964301,59.9406 44.4991828,60.0006 44.9815054,60.0006 C46.6693333,60.0006 48.3565591,59.7006 49.8637419,59.0394 C54.0830108,57.3582 57.0365591,53.514 57.6995269,49.0692 C58.1818495,46.9668 57.9403871,44.8656 57.1569892,42.6426 L57.1569892,42.6426 Z" id="Fill-1" sketch:type="MSShapeGroup"></path>
        </g>
    </g>
</svg>