<?xml version="1.0" encoding="UTF-8" standalone="no"?>
<svg width="100px" height="100px" viewBox="0 0 100 100" version="1.1" xmlns="http://www.w3.org/2000/svg" xmlns:xlink="http://www.w3.org/1999/xlink" xmlns:sketch="http://www.bohemiancoding.com/sketch/ns">
    <!-- Generator: Sketch 3.0.3 (7891) - http://www.bohemiancoding.com/sketch -->
    <title>amazon</title>
    <desc>Created with Sketch.</desc>
    <defs></defs>
    <g id="Page-1" stroke="none" stroke-width="1" fill="none" fill-rule="evenodd" sketch:type="MSPage">
        <g id="amazon" sketch:type="MSArtboardGroup" fill="#FFFFFF">
            <path d="M62.1093795,59.205171 C56.2989083,63.5831193 47.8748245,65.9107917 40.6203743,65.9107917 C30.4538821,65.9107917 21.2989083,62.0742744 14.3711596,55.6882744 C13.8271806,55.1869296 14.3119973,54.5017227 14.965924,54.8902917 C22.4407931,59.3302399 31.6842486,62.0047917 41.2308455,62.0047917 C47.6711596,62.0047917 54.7507408,60.6402572 61.2648769,57.8192572 C62.2470758,57.3938089 63.0706361,58.4804124 62.1093795,59.205171 Z M64.5277041,56.3873779 C63.7842486,55.4156882 59.6151387,55.9266537 57.7418402,56.1559468 C57.174301,56.2254296 57.0863429,55.7192744 57.5973376,55.3526193 C60.9240392,52.9677572 66.3737774,53.656171 67.0072853,54.4546882 C67.6455052,55.2601537 66.839746,60.8385503 63.7224685,63.5002744 C63.2428874,63.9096882 62.7868664,63.6916193 62.9999554,63.1507227 C63.7010025,61.3623434 65.2711596,57.3590675 64.5277041,56.3873779 Z M57.8732539,38.5051882 L57.8732539,36.187671 C57.8753481,35.8349124 58.135034,35.5997399 58.4491701,35.6008089 L68.6235156,35.5997399 C68.9486465,35.5997399 69.2099031,35.8413261 69.2099031,36.1844641 L69.2099031,38.1722055 C69.2067617,38.5057227 68.9318926,38.9402572 68.4439345,39.6308089 L63.1737774,47.3123951 C65.1297984,47.2653606 67.1994319,47.5652055 68.9769188,48.5849986 C69.3774423,48.8148261 69.4847722,49.1547572 69.5167094,49.4888089 L69.5167094,51.9618606 C69.5167094,52.3023261 69.1512643,52.6967744 68.7669711,52.491533 C65.6360811,50.8169986 61.4800601,50.6342055 58.0172329,52.5123779 C57.6633062,52.7042572 57.2931491,52.3156882 57.2931491,51.9746882 L57.2931491,49.624033 C57.2931491,49.2477572 57.300479,48.6047744 57.6722067,48.0318089 L63.7779659,39.0888434 L58.4617355,39.0883089 C58.1360811,39.0883089 57.8753481,38.8520675 57.8732539,38.5051882 Z M20.761212,52.9789813 L17.665924,52.9789813 C17.3711596,52.9592055 17.1360811,52.7336537 17.1119973,52.4444986 L17.1146151,36.2272227 C17.1146151,35.9022572 17.3816308,35.6435675 17.7119973,35.6435675 L20.5941963,35.6424986 C20.8962905,35.6579986 21.1381753,35.891033 21.1570235,36.187671 L21.1570235,38.3047572 L21.2151387,38.3047572 C21.9664476,36.2571537 23.3821544,35.3009641 25.2884371,35.3009641 C27.2245628,35.3009641 28.4381753,36.2571537 29.3046675,38.3047572 C30.0564999,36.2571537 31.7606884,35.3009641 33.5811073,35.3009641 C34.8816308,35.3009641 36.2973376,35.8472055 37.1638298,37.0759813 C38.1460287,38.4410503 37.944458,40.4202399 37.944458,42.1605158 L37.9413167,52.3953261 C37.9413167,52.7186882 37.674301,52.9789813 37.344458,52.9789813 L34.252835,52.9789813 C33.9423638,52.958671 33.6978612,52.7074641 33.6978612,52.3963951 L33.6968141,43.7987055 C33.6968141,43.1172399 33.7544057,41.410102 33.6099031,40.7617744 C33.3784895,39.6692917 32.6852957,39.3619641 31.7900078,39.3619641 C31.0386989,39.3619641 30.2580706,39.8739986 29.9402696,40.6928261 C29.6229921,41.5127227 29.6512643,42.8767227 29.6512643,43.7987055 L29.6512643,52.3953261 C29.6512643,52.7186882 29.3842486,52.9789813 29.0544057,52.9789813 L25.9627827,52.9789813 C25.6523114,52.958671 25.4072853,52.7074641 25.4072853,52.3963951 L25.4041439,43.7987055 C25.4041439,41.9900158 25.6931491,39.3288261 23.4973376,39.3288261 C21.2722067,39.3288261 21.3591177,41.921602 21.3591177,43.7987055 L21.3580706,52.3953261 C21.3580706,52.7186882 21.0910549,52.9789813 20.761212,52.9789813 Z M77.9685418,35.3009641 C82.5627827,35.3009641 85.0470758,39.3288261 85.0470758,44.4475675 C85.0470758,49.3952744 82.3030968,53.3205158 77.9685418,53.3205158 C73.461212,53.3205158 71.0046675,49.2926537 71.0046675,44.276533 C71.0046675,39.225671 73.4900078,35.3009641 77.9685418,35.3009641 L77.9685418,35.3009641 Z M77.9968141,38.6120848 C75.7146151,38.6120848 75.5701125,41.7847744 75.5701125,43.7644986 C75.5701125,45.7442227 75.5418402,49.9757227 77.9685418,49.9757227 C80.3669711,49.9757227 80.4821544,46.5630503 80.4821544,44.4817744 C80.4821544,43.1172399 80.4245628,41.4785158 80.0193272,40.1813261 C79.6727303,39.055171 78.979013,38.6120848 77.9968141,38.6120848 L77.9968141,38.6120848 Z M91.005191,52.9789813 L87.9208978,52.9789813 C87.6109502,52.958671 87.365924,52.7074641 87.365924,52.3963951 L87.3606884,36.1727055 C87.3868664,35.8760675 87.6434109,35.6435675 87.9554528,35.6435675 L90.8261334,35.6424986 C91.0968141,35.6574641 91.3193272,35.8450675 91.3763952,36.0968089 L91.3763952,38.5773434 L91.4345104,38.5773434 C92.3015261,36.3587055 93.5146151,35.3009641 95.652835,35.3009641 C97.0392224,35.3009641 98.3978612,35.8124641 99.2643533,37.2128089 C100.073254,38.5089296 100.073254,40.6928261 100.073254,42.2631365 L100.073254,52.4685503 C100.039222,52.7555675 99.7858193,52.9789813 99.4800601,52.9789813 L96.3779659,52.9789813 C96.0910549,52.9602744 95.8596413,52.7448779 95.826657,52.4685503 L95.826657,43.6629468 C95.826657,41.8884641 96.0287512,39.2940848 93.8910549,39.2940848 C93.1392224,39.2940848 92.4460287,39.8061193 92.0994319,40.5907399 C91.665924,41.5811365 91.6072853,42.5699296 91.6072853,43.6629468 L91.6072853,52.3953261 C91.6020497,52.7186882 91.335034,52.9789813 91.005191,52.9789813 M49.7633062,45.2343261 C49.7633062,46.4657744 49.792102,47.4909124 49.1837251,48.5860675 C48.6915785,49.4749124 47.9093795,50.0227572 47.0413167,50.0227572 C45.8538821,50.0227572 45.1591177,49.0986365 45.1591177,47.7303606 C45.1591177,45.0392399 47.5240392,44.5501882 49.7633062,44.5501882 L49.7633062,45.2343261 L49.7633062,45.2343261 Z M52.8832015,52.9383606 C52.679013,53.1259641 52.3832015,53.1387917 52.1523114,53.0115848 C51.1245628,52.1393089 50.9402696,51.7363089 50.3779659,50.9062572 C48.679013,52.6727227 47.4758717,53.2034641 45.2748245,53.2034641 C42.6695889,53.2034641 40.6418402,51.5609986 40.6418402,48.2782055 C40.6418402,45.7132227 42.0030968,43.968671 43.9428874,43.114033 C45.621945,42.3609468 47.9680183,42.2246537 49.7633062,42.0188779 L49.7633062,41.6083951 C49.7633062,40.8558434 49.8214214,39.967533 49.3868664,39.3170675 C49.0099031,38.7355503 48.2863429,38.496102 47.6491701,38.496102 C46.4685418,38.496102 45.4193272,39.1134296 45.161212,40.3935158 C45.1078088,40.6783951 44.9041439,40.9600675 44.6240392,40.975033 L41.6235156,40.6431193 C41.3701125,40.5843261 41.0889607,40.3774813 41.1617355,39.9819641 C41.8517879,36.2667744 45.1381753,35.1443606 48.0832015,35.1443606 C49.5894842,35.1443606 51.5580706,35.5543089 52.7455052,36.7178779 C54.2517879,38.154033 54.1062381,40.0696193 54.1062381,42.1567744 L54.1062381,47.0788261 C54.1062381,48.5598779 54.7088559,49.2092744 55.2748245,50.0067227 C55.4727303,50.2948089 55.5167094,50.6363434 55.2643533,50.8463951 C54.6324162,51.3878261 53.5093795,52.384102 52.8910549,52.9453089 L52.8832015,52.9383606 L52.8832015,52.9383606 Z M9.18634286,45.2343261 C9.18634286,46.4657744 9.21566223,47.4909124 8.60780883,48.5860675 C8.11566223,49.4749124 7.33346328,50.0227572 6.46487689,50.0227572 C5.27848946,50.0227572 4.58267794,49.0986365 4.58267794,47.7303606 C4.58267794,45.0392399 6.94812296,44.5501882 9.18634286,44.5501882 L9.18634286,45.2343261 L9.18634286,45.2343261 Z M12.3072853,52.9383606 C12.1030968,53.1259641 11.8067617,53.1387917 11.5763952,53.0115848 C10.5475994,52.1393089 10.3633062,51.7363089 9.80204967,50.9062572 C8.10257323,52.6727227 6.89943186,53.2034641 4.6989083,53.2034641 C2.09314914,53.2034641 0.0659240114,51.5609986 0.0659240114,48.2782055 C0.0659240114,45.7132227 1.426657,43.968671 3.36697113,43.114033 C5.04602872,42.3609468 7.39210202,42.2246537 9.18634286,42.0188779 L9.18634286,41.6083951 C9.18634286,40.8558434 9.2449816,39.967533 8.81095019,39.3170675 C8.43398684,38.7355503 7.70990307,38.496102 7.07325385,38.496102 C5.89262558,38.496102 4.8423638,39.1134296 4.58529574,40.3935158 C4.5318926,40.6783951 4.32822768,40.9600675 4.0475994,40.975033 L1.0475994,40.6431193 C0.794196263,40.5843261 0.51252087,40.3774813 0.585819299,39.9819641 C1.27482453,36.2667744 4.56121197,35.1443606 7.50728527,35.1443606 C9.01304443,35.1443606 10.9821544,35.5543089 12.1695889,36.7178779 C13.6748245,38.154033 13.5303219,40.0696193 13.5303219,42.1567744 L13.5303219,47.0788261 C13.5303219,48.5598779 14.1329397,49.2092744 14.6983847,50.0067227 C14.8957669,50.2948089 14.9407931,50.6363434 14.6884371,50.8463951 C14.0559764,51.3878261 12.9324162,52.384102 12.3146151,52.9453089 L12.3072853,52.9383606 L12.3072853,52.9383606 Z" id="Fill-1" sketch:type="MSShapeGroup"></path>
        </g>
    </g>
</svg>