<?xml version="1.0" encoding="UTF-8" standalone="no"?>
<svg width="100px" height="100px" viewBox="0 0 100 100" version="1.1" xmlns="http://www.w3.org/2000/svg" xmlns:xlink="http://www.w3.org/1999/xlink" xmlns:sketch="http://www.bohemiancoding.com/sketch/ns">
    <!-- Generator: Sketch 3.0.3 (7891) - http://www.bohemiancoding.com/sketch -->
    <title>android</title>
    <desc>Created with Sketch.</desc>
    <defs></defs>
    <g id="Page-1" stroke="none" stroke-width="1" fill="none" fill-rule="evenodd" sketch:type="MSPage">
        <g id="android" sketch:type="MSArtboardGroup" fill="#FFFFFF">
            <g id="Imported-Layers" sketch:type="MSLayerGroup" transform="translate(7.000000, 0.000000)">
                <path d="M55.2493799,18.1336788 C54.009307,18.1378238 53.0076292,19.1440415 53.0037082,20.3626943 C53.0034468,21.5935233 54.0108754,22.5880829 55.2483343,22.5867876 C56.4857933,22.5870466 57.4919149,21.592228 57.4893009,20.3639896 C57.4903465,19.1427461 56.480304,18.1370466 55.2493799,18.1336788" id="Fill-1" sketch:type="MSShapeGroup"></path>
                <path d="M30.8732158,18.1411917 C29.6360182,18.1409326 28.6343404,19.1458549 28.6335562,20.3681347 C28.634079,21.5950777 29.6383708,22.588342 30.8711246,22.5911917 C32.1143343,22.5904145 33.1207173,21.5937824 33.1201945,20.3676166 C33.1186261,19.1458549 32.1143343,18.1401554 30.8732158,18.1411917" id="Fill-2" sketch:type="MSShapeGroup"></path>
                <path d="M86.0007842,39.0215026 C86.0015684,34.5792746 82.3534954,30.9658031 77.8673799,30.9663212 C75.5636778,30.9665803 73.4839939,31.9235751 72.0047416,33.4556995 L72.0031733,32.1950777 C72.0039574,23.3194301 67.1220851,15.0556995 59.1290517,10.1598446 L62.2394286,4.53212435 C62.6315258,3.83160622 62.7214468,3.0238342 62.4979514,2.25906736 C62.2731489,1.48963731 61.7631611,0.855181347 61.0312462,0.457512953 C60.5949726,0.224870466 60.1011915,0.104663212 59.6053191,0.105181347 C58.5045714,0.104404145 57.4874711,0.7 56.9638906,1.65621762 L53.7115745,7.54715026 C50.3259453,6.31683938 46.7494954,5.69093264 43.0198663,5.69274611 C39.3433009,5.69145078 35.7843647,6.31606218 32.4133739,7.54222798 L29.1558298,1.6611399 C28.6238845,0.702590674 27.6133191,0.109585492 26.511003,0.109585492 C26.0020608,0.108549223 25.4988693,0.237564767 25.0869058,0.468911917 C24.3740729,0.84507772 23.8426505,1.50129534 23.6175866,2.26528497 C23.3961824,3.02953368 23.4913313,3.86502591 23.8724498,4.52487047 L26.9846565,10.1554404 C18.9795988,15.0414508 14.0917143,23.3111399 14.0966809,32.2023316 L14.0972036,33.4329016 C14.0645289,33.3994819 14.0331611,33.3647668 13.9997021,33.3316062 C12.4624195,31.8108808 10.4237751,30.9733161 8.24580547,30.9753886 C3.76727052,30.9761658 0.12468693,34.5906736 0.125993921,39.0303109 L0.128346505,63.6981865 C0.128869301,68.142228 3.77223708,71.757772 8.25704559,71.7554404 C10.4310942,71.7546632 12.4754894,70.915285 14.0083283,69.3893782 C14.1165471,69.2821244 14.2205836,69.1720207 14.3220061,69.0598446 L14.3227903,72.4756477 C14.3193921,74.738342 15.2071003,76.861399 16.8183587,78.4559585 C18.4277872,80.0518135 20.5683769,80.9303109 22.8498602,80.9297927 L24.9849605,80.9279793 L24.9867903,91.8147668 C24.9878359,96.2580311 28.634079,99.8699482 33.1144438,99.8704663 C37.5966383,99.8712435 41.2418359,96.253886 41.2426201,91.8119171 L41.2426201,80.9253886 L44.8951368,80.9256477 L44.8953982,91.8139896 C44.8943526,93.9645078 45.7418055,95.9870466 47.2817021,97.5080311 C48.8200304,99.0331606 50.858152,99.8696891 53.0290638,99.8647668 C57.5075988,99.8647668 61.152535,96.2492228 61.1530578,91.8088083 L61.1501824,80.9259067 L63.2993982,80.9233161 C68.0019514,80.9243523 71.8282979,77.1310881 71.8275137,72.4696891 L71.8269909,69.0632124 C73.3161763,70.7088083 75.477155,71.7458549 77.8788815,71.7455959 C82.361076,71.746114 86.0041824,68.1284974 86.0031368,63.6878238 L86.0007842,39.0215026 L86.0007842,39.0215026 Z M14.1978419,63.6971503 C14.2012401,66.9562176 11.5407295,69.5891192 8.2562614,69.5888601 C4.9741459,69.5893782 2.31285106,66.9580311 2.31206687,63.6968912 L2.3078845,39.0303109 C2.30866869,35.7803109 4.96865653,33.138601 8.25077204,33.1401554 C11.5331489,33.1380829 14.1967964,35.7777202 14.1981033,39.0272021 L14.1978419,63.6971503 L14.1978419,63.6971503 Z M63.2988754,78.7572539 L58.9659392,78.7606218 L58.9695988,91.8080311 C58.9701216,95.0595855 56.3077812,97.7036269 53.0240973,97.7015544 C49.7487781,97.7067358 47.0819939,95.0608808 47.0827781,91.8132124 L47.0793799,78.7624352 L39.0555015,78.7637306 L39.0588997,91.8126943 C39.0578541,95.0637306 36.3973435,97.707772 33.1131368,97.707772 C29.8388632,97.707772 27.1736474,95.0658031 27.1741702,91.8168394 L27.169465,78.765285 L22.8511672,78.7634715 C19.3445106,78.7626943 16.5070334,75.9562176 16.5096474,72.4792746 L16.5007599,34.2523316 L69.6367356,34.2435233 L69.6435319,72.4707254 C69.6427477,75.9479275 66.7971672,78.7585492 63.2988754,78.7572539 L63.2988754,78.7572539 Z M16.2819696,32.2036269 C16.2777872,23.0917098 21.7867538,15.1551813 29.9413313,10.9870466 L25.7908511,3.48471503 C25.5673556,3.09326425 25.7147842,2.59274611 26.118383,2.37746114 C26.5146626,2.16010363 27.0162857,2.30440415 27.2348146,2.70388601 L31.4289483,10.2702073 C34.9400486,8.72409326 38.8840243,7.85518135 43.0478359,7.85880829 C47.2223647,7.85388601 51.1671246,8.72668394 54.6936474,10.2813472 L58.8838602,2.69507772 C59.0976839,2.3 59.5974772,2.15569948 60.0021216,2.36813472 C60.4033678,2.58963731 60.5487052,3.08937824 60.3273009,3.48160622 L56.1791733,10.9896373 C64.3212036,15.1676166 69.8204985,23.0875648 69.8191915,32.1981865 L16.2819696,32.2036269 L16.2819696,32.2036269 Z M77.8780973,69.580829 C74.5936292,69.5797927 71.9344255,66.9479275 71.9346869,63.6914508 L71.930766,39.0243523 C71.9299818,35.7709845 74.590231,33.1297927 77.8718237,33.1323834 C81.1542006,33.1316062 83.8147112,35.7681347 83.815234,39.0212435 L83.8194164,63.6888601 C83.8186322,66.9479275 81.15969,69.5803109 77.8780973,69.580829 L77.8780973,69.580829 Z" id="Fill-3" sketch:type="MSShapeGroup"></path>
            </g>
        </g>
    </g>
</svg>