<?xml version="1.0" encoding="UTF-8" standalone="no"?>
<svg width="120px" height="120px" viewBox="0 0 120 120" version="1.1" xmlns="http://www.w3.org/2000/svg" xmlns:xlink="http://www.w3.org/1999/xlink" xmlns:sketch="http://www.bohemiancoding.com/sketch/ns">
    <!-- Generator: Sketch 3.0.4 (8053) - http://www.bohemiancoding.com/sketch -->
    <title>atlassian</title>
    <desc>Created with Sketch.</desc>
    <defs></defs>
    <g id="Page-1" stroke="none" stroke-width="1" fill="none" fill-rule="evenodd" sketch:type="MSPage">
        <g id="atlassian" sketch:type="MSArtboardGroup" fill="#FFFFFF">
            <g id="Imported-Layers" sketch:type="MSLayerGroup" transform="translate(0.000000, 47.000000)">
                <path d="M34.9298113,6.87776471 C34.8676226,6.67725882 34.6839245,6.54114118 34.4763774,6.54114118 L30.0396981,6.54114118 C29.8321509,6.54114118 29.6486038,6.67725882 29.5862642,6.87776471 L23.9883774,24.8664 C23.9427925,25.0129176 23.9687547,25.1722824 24.0584151,25.2963176 C24.1479245,25.4198941 24.2902642,25.493 24.4418113,25.493 L27.4963019,25.493 C27.7071698,25.493 27.8926792,25.3526 27.9524528,25.1475059 L31.8073962,11.9179412 C31.8073962,11.9179412 31.9082264,11.5878941 32.2572075,11.5878941 C32.6122264,11.5878941 32.698566,11.9314 32.698566,11.9317059 L34.4872453,18.2045882 L32.0845283,18.2045882 C31.8713962,18.2045882 31.6842264,18.3480471 31.626717,18.5558941 L30.9373585,21.0395059 C30.8969057,21.1851059 30.9261887,21.3406471 31.016,21.4607059 C31.1058113,21.5810706 31.2461887,21.6515765 31.3950189,21.6515765 L35.4872453,21.6515765 L36.5643774,25.1546941 C36.6262642,25.3559647 36.8101132,25.493 37.0184151,25.493 L40.0742642,25.493 C40.2259623,25.493 40.3683019,25.4198941 40.4578113,25.2963176 C40.5474717,25.1722824 40.573434,25.0129176 40.5278491,24.8664 L34.9298113,6.87776471" id="Fill-1" sketch:type="MSShapeGroup"></path>
                <path d="M48.2383396,22.7209412 C48.2181132,22.5868118 48.1435472,22.4673647 48.0321509,22.3919647 C47.9207547,22.3165647 47.7833962,22.2924 47.653283,22.3252824 C47.157434,22.4500824 46.6824151,22.5190588 46.3157736,22.5190588 C45.6205283,22.5190588 45.3109434,22.2136353 45.3109434,21.5289176 L45.3109434,14.6367765 L48.0386415,14.6367765 C48.3011321,14.6367765 48.5141132,14.4208235 48.5141132,14.1550118 L48.5141132,12.0052706 C48.5141132,11.7393059 48.3011321,11.5238118 48.0386415,11.5238118 L45.3109434,11.5238118 L45.3109434,8.20498824 C45.3109434,8.06565882 45.2513208,7.93305882 45.1476226,7.84175294 C45.0437736,7.75014118 44.9055094,7.70869412 44.7698113,7.72796471 L41.9613585,8.12438824 C41.7263396,8.15742353 41.5512453,8.36114118 41.5512453,8.60141176 L41.5512453,11.5238118 L40.0215849,11.5238118 C39.7587925,11.5238118 39.5459623,11.7393059 39.5459623,12.0052706 L39.5459623,14.1550118 C39.5459623,14.4208235 39.7587925,14.6367765 40.0215849,14.6367765 L41.5512453,14.6367765 L41.5512453,21.9741294 C41.5512453,24.4938353 42.858717,25.7712 45.4366792,25.7712 C46.1702642,25.7712 47.4161509,25.6000588 48.2307925,25.3129882 C48.4472453,25.2369765 48.5793208,25.0155176 48.5450566,24.7865647 L48.2383396,22.7209412" id="Fill-2" sketch:type="MSShapeGroup"></path>
                <path d="M53.4375849,6.19029412 L50.629283,6.19029412 C50.3667925,6.19029412 50.1538113,6.40578824 50.1538113,6.67205882 L50.1538113,25.0112353 C50.1538113,25.2773529 50.3667925,25.493 50.629283,25.493 L53.4375849,25.493 C53.7002264,25.493 53.9132075,25.2773529 53.9132075,25.0112353 L53.9132075,6.67205882 C53.9132075,6.40578824 53.7002264,6.19029412 53.4375849,6.19029412" id="Fill-3" sketch:type="MSShapeGroup"></path>
                <path d="M60.6591698,11.2451529 C59.237283,11.2451529 57.5070189,11.4724235 56.2513208,11.8243412 C56.0173585,11.8894941 55.8700377,12.1230353 55.9086792,12.3651412 L56.237283,14.4309176 C56.2578113,14.5596941 56.3290566,14.6744 56.434566,14.7491882 C56.5397736,14.8238235 56.6707925,14.8519647 56.797434,14.8267294 C57.965434,14.5967059 59.1711698,14.4696118 60.1923019,14.4696118 C62.2193208,14.4696118 62.5435472,14.9032 62.5435472,16.2951176 L62.5435472,17.5084 L59.5329811,17.5084 C56.6558491,17.5084 55.4280755,18.7109765 55.4280755,21.5289176 C55.4280755,24.2249647 56.7740377,25.7712 59.1209057,25.7712 C60.4783396,25.7712 61.8377358,25.3894588 62.9802264,24.6914353 L63.1005283,25.1381765 C63.1569811,25.3475529 63.3446038,25.493 63.5592453,25.493 L65.8273208,25.493 C66.0899623,25.493 66.3029434,25.2773529 66.3029434,25.0112353 L66.3029434,16.3509412 C66.3029434,12.6289647 64.773283,11.2451529 60.6591698,11.2451529 L60.6591698,11.2451529 Z M62.5435472,20.3711529 L62.5435472,22.0467765 C62.0780377,22.2983647 61.234566,22.6582353 60.2197736,22.6582353 C59.3443019,22.6582353 59.0775849,22.3879882 59.0775849,21.5007765 C59.0775849,20.6392588 59.242566,20.3711529 60.274717,20.3711529 L62.5435472,20.3711529 L62.5435472,20.3711529 Z" id="Fill-4" sketch:type="MSShapeGroup"></path>
                <path d="M73.3405283,16.8469294 C71.5978868,16.3919294 71.5978868,16.3735765 71.5978868,15.4046941 C71.5978868,14.7542353 71.6615849,14.4417765 73.0972075,14.4417765 C74.0807547,14.4417765 75.5320755,14.6158235 76.464,14.7776353 C76.5923019,14.7999647 76.7237736,14.768 76.8277736,14.6892353 C76.9322264,14.6107765 77.0003019,14.4922471 77.0161509,14.3616353 L77.2809057,12.1929294 C77.3109434,11.9482235 77.1539623,11.7203412 76.9168302,11.6643647 C75.8392453,11.4098706 74.3397736,11.2451529 73.0972075,11.2451529 C68.7782642,11.2451529 67.893434,12.8969176 67.893434,15.3765529 C67.893434,18.1030353 68.3933585,19.0191529 71.7033962,19.8364706 C73.882566,20.3677882 73.882566,20.7626824 73.882566,21.4174235 C73.882566,22.2772588 73.8098113,22.5745765 72.3830943,22.5745765 C71.234566,22.5745765 69.9050566,22.3936471 68.7356981,22.0775176 C68.6073962,22.0431059 68.4707925,22.0643647 68.3587925,22.1364 C68.2466415,22.2078235 68.1693585,22.3243647 68.1455094,22.4566588 L67.7741887,24.5144824 C67.7313208,24.7523059 67.8685283,24.9849294 68.0952453,25.0594118 C69.370566,25.4787765 71.2016604,25.7712 72.5479245,25.7712 C76.7299623,25.7712 77.5870189,23.9973882 77.5870189,21.3337647 C77.5870189,18.3925529 77.0713962,17.8476235 73.3405283,16.8469294" id="Fill-5" sketch:type="MSShapeGroup"></path>
                <path d="M84.1921509,16.8469294 C82.4496604,16.3919294 82.4496604,16.3735765 82.4496604,15.4046941 C82.4496604,14.7542353 82.5132075,14.4417765 83.9489811,14.4417765 C84.9326792,14.4417765 86.3838491,14.6158235 87.3159245,14.7776353 C87.4439245,14.7999647 87.5753962,14.768 87.6796981,14.6892353 C87.7838491,14.6107765 87.8520755,14.4922471 87.8679245,14.3616353 L88.1326792,12.1929294 C88.1624151,11.9482235 88.0055849,11.7203412 87.7687547,11.6643647 C86.690717,11.4098706 85.1915472,11.2451529 83.9489811,11.2451529 C79.6301887,11.2451529 78.7452075,12.8969176 78.7452075,15.3765529 C78.7452075,18.1030353 79.2449811,19.0191529 82.5553208,19.8364706 C84.7341887,20.3677882 84.7341887,20.7626824 84.7341887,21.4174235 C84.7341887,22.2772588 84.6617358,22.5745765 83.2348679,22.5745765 C82.0860377,22.5745765 80.7568302,22.3936471 79.5874717,22.0775176 C79.4591698,22.0431059 79.322566,22.0643647 79.2104151,22.1364 C79.0982642,22.2078235 79.0211321,22.3243647 78.9971321,22.4566588 L78.6258113,24.5144824 C78.5827925,24.7523059 78.7203019,24.9849294 78.9468679,25.0594118 C80.2223396,25.4787765 82.053434,25.7712 83.3996981,25.7712 C87.5817358,25.7712 88.4386415,23.9973882 88.4386415,21.3337647 C88.4386415,18.3925529 87.9230189,17.8476235 84.1921509,16.8469294" id="Fill-6" sketch:type="MSShapeGroup"></path>
                <path d="M93.2809057,6.18952941 L90.4726038,6.18952941 C90.2101132,6.18952941 89.9971321,6.40517647 89.9971321,6.67114118 L89.9971321,9.18717647 C89.9971321,9.45329412 90.2101132,9.66894118 90.4726038,9.66894118 L93.2809057,9.66894118 C93.5435472,9.66894118 93.7565283,9.45329412 93.7565283,9.18717647 L93.7565283,6.67114118 C93.7565283,6.40517647 93.5435472,6.18952941 93.2809057,6.18952941" id="Fill-7" sketch:type="MSShapeGroup"></path>
                <path d="M93.2809057,11.5238118 L90.4726038,11.5238118 C90.2101132,11.5238118 89.9971321,11.7393059 89.9971321,12.0052706 L89.9971321,25.0112353 C89.9971321,25.2773529 90.2101132,25.493 90.4726038,25.493 L93.2809057,25.493 C93.5435472,25.493 93.7565283,25.2773529 93.7565283,25.0112353 L93.7565283,12.0052706 C93.7565283,11.7393059 93.5435472,11.5238118 93.2809057,11.5238118" id="Fill-8" sketch:type="MSShapeGroup"></path>
                <path d="M100.573283,11.2451529 C99.1512453,11.2451529 97.4209811,11.4724235 96.165283,11.8243412 C95.9314717,11.8894941 95.7838491,12.1230353 95.8224906,12.3651412 L96.1512453,14.4309176 C96.1717736,14.5596941 96.2428679,14.6744 96.3485283,14.7491882 C96.4538868,14.8238235 96.5847547,14.8519647 96.7115472,14.8267294 C97.8790943,14.5967059 99.0848302,14.4696118 100.106264,14.4696118 C102.133283,14.4696118 102.457358,14.9032 102.457358,16.2951176 L102.457358,17.5084 L99.4469434,17.5084 C96.5696604,17.5084 95.3420377,18.7109765 95.3420377,21.5289176 C95.3420377,24.2249647 96.688,25.7712 99.0348679,25.7712 C100.392302,25.7712 101.751547,25.3894588 102.894189,24.6914353 L103.014491,25.1381765 C103.070943,25.3475529 103.258717,25.493 103.473208,25.493 L105.741283,25.493 C106.003774,25.493 106.216906,25.2773529 106.216906,25.0112353 L106.216906,16.3509412 C106.216906,12.6289647 104.687245,11.2451529 100.573283,11.2451529 L100.573283,11.2451529 Z M102.457358,20.3711529 L102.457358,22.0467765 C101.991698,22.2983647 101.148377,22.6582353 100.133736,22.6582353 C99.2582642,22.6582353 98.9913962,22.3879882 98.9913962,21.5007765 C98.9913962,20.6392588 99.1565283,20.3711529 100.188679,20.3711529 L102.457358,20.3711529 L102.457358,20.3711529 Z" id="Fill-9" sketch:type="MSShapeGroup"></path>
                <path d="M116.604377,11.2451529 C115.115623,11.2451529 113.088302,11.7653059 111.375245,12.5798706 L111.170264,11.8699176 C111.110792,11.6646706 110.924981,11.5238118 110.713811,11.5238118 L108.634113,11.5238118 C108.371623,11.5238118 108.158642,11.7393059 108.158642,12.0052706 L108.158642,25.0112353 C108.158642,25.2773529 108.371623,25.493 108.634113,25.493 L111.442566,25.493 C111.705057,25.493 111.918038,25.2773529 111.918038,25.0112353 L111.918038,16.0037647 C112.929509,15.4820824 114.351849,14.9431176 115.203321,14.9431176 C115.835623,14.9431176 116.070792,15.1812471 116.070792,15.8219176 L116.070792,25.0112353 C116.070792,25.2773529 116.283774,25.493 116.546264,25.493 L119.354717,25.493 C119.617208,25.493 119.830189,25.2773529 119.830189,25.0112353 L119.830189,15.4600588 C119.830189,12.6632235 118.744906,11.2451529 116.604377,11.2451529" id="Fill-10" sketch:type="MSShapeGroup"></path>
                <path d="M27.4416604,0.209988235 C27.3189434,0.0432823529 27.1231698,-0.0561294118 26.9186415,-0.0561294118 C26.8128302,-0.0561294118 26.7083774,-0.0290588235 26.6170566,0.0215647059 C22.7806792,2.14943529 18.3331321,3.27492941 13.7556226,3.27584706 C9.17796226,3.27492941 4.73071698,2.14943529 0.894339623,0.0217176471 C0.803018868,-0.0290588235 0.698716981,-0.0559764706 0.59290566,-0.0559764706 C0.387924528,-0.0559764706 0.192301887,0.0432823529 0.0698867925,0.209529412 C-0.111698113,0.454082353 -0.117433962,0.864576471 0.192,1.10912941 C2.11335849,2.56054118 4.23139623,3.69368235 6.48724528,4.46863529 C8.82566038,5.27249412 11.2707925,5.68069412 13.754717,5.68176471 L13.7565283,5.68176471 C16.2406038,5.68069412 18.6857358,5.27249412 21.0238491,4.46863529 C23.2801509,3.69352941 25.3980377,2.56054118 27.3219623,1.10729412 C27.6288302,0.864423529 27.6229434,0.453929412 27.4416604,0.209988235" id="Fill-11" sketch:type="MSShapeGroup"></path>
                <path d="M23.0324528,6.27135294 C22.9409811,6.201 22.8312453,6.16444706 22.7198491,6.16444706 C22.6579623,6.16444706 22.5954717,6.17591765 22.5363019,6.19901176 C21.4243019,6.62984706 20.2950943,6.95698824 19.2644528,7.20031765 C19.0541887,7.25002353 18.8843774,7.40816471 18.8140377,7.59811765 C18.0630943,9.68224706 16.1456604,11.6666588 14.1338868,13.7454353 C14.0531321,13.8231294 13.9400755,13.9256 13.7559245,13.9256 C13.5722264,13.9256 13.4602264,13.8263412 13.3779623,13.7454353 C11.3663396,11.6666588 9.44890566,9.68928235 8.69796226,7.60484706 C8.6274717,7.41504706 8.45750943,7.25690588 8.24754717,7.2072 C7.21630189,6.96371765 6.08422642,6.62648235 4.97388679,6.19564706 C4.91411321,6.17270588 4.85177358,6.16123529 4.78973585,6.16123529 C4.67849057,6.16123529 4.57056604,6.19671765 4.47939623,6.26722353 C4.33690566,6.37734118 4.26309434,6.55597647 4.27984906,6.72757647 C4.45026415,8.46070588 5.12603774,10.1549882 6.34581132,11.9304824 C7.49237736,13.5998353 8.98777358,15.1446941 10.4338113,16.6390824 C13.0979623,19.3923294 15.6146415,21.9927882 15.8354717,25.0083294 C15.8553962,25.2802588 16.0789434,25.4911647 16.3486792,25.4911647 L19.4787925,25.4911647 C19.6197736,25.4911647 19.7544151,25.4324353 19.8517736,25.3288941 C19.9486792,25.2255059 20,25.0866353 19.9929057,24.9437882 C19.8944906,22.9277176 19.1456604,20.9087412 17.7036981,18.7721529 C17.4015094,18.3240353 17.0778868,17.8883059 16.7393208,17.4617529 C16.6019623,17.2880118 16.6594717,17.0722118 16.7646792,16.9634706 C16.8686792,16.8554941 16.9731321,16.7479765 17.0781887,16.6390824 C18.5242264,15.1446941 20.0194717,13.5998353 21.1663396,11.9304824 C22.3859623,10.1548353 23.0615849,8.47049412 23.232,6.73767059 C23.2490566,6.56362353 23.1710189,6.37871765 23.0324528,6.27135294" id="Fill-12" sketch:type="MSShapeGroup"></path>
                <path d="M10.3971321,18.9845882 C10.3231698,18.9061294 10.2143396,18.8259882 10.0316981,18.8259882 C9.79818868,18.8259882 9.6594717,18.9896353 9.60709434,19.0706941 C8.29056604,21.1006824 7.61056604,23.0165765 7.5165283,24.9419529 C7.50973585,25.0838824 7.56135849,25.2248941 7.65841509,25.3285882 C7.7554717,25.4316706 7.89207547,25.4911647 8.03275472,25.4911647 L11.157434,25.4911647 C11.4262642,25.4911647 11.6526792,25.2779647 11.6726038,25.0063412 C11.7405283,24.0784471 12.0256604,23.1482588 12.5447547,22.1708118 C12.7245283,21.8326588 12.5849057,21.515 12.4813585,21.3791882 C11.9661887,20.7005882 11.3353962,19.9767176 10.3971321,18.9845882" id="Fill-13" sketch:type="MSShapeGroup"></path>
                <path d="M13.7587925,7.82523529 C14.7396226,7.82523529 15.3086792,7.76543529 15.5085283,7.76543529 C15.7506415,7.76543529 15.9820377,7.9664 15.9820377,8.24781176 C15.9820377,8.32994118 15.9628679,8.38867059 15.9438491,8.44036471 C15.8137358,8.79289412 15.2208302,10.0607765 14.1169811,11.1484941 C13.9932075,11.2702353 13.8528302,11.2931765 13.7562264,11.2931765 L13.7550189,11.2931765 C13.658566,11.2931765 13.5183396,11.2702353 13.394566,11.1484941 C12.290717,10.0607765 11.6976604,8.79289412 11.5678491,8.44036471 C11.5486792,8.38867059 11.5295094,8.32994118 11.5295094,8.24781176 C11.5295094,7.9664 11.7612075,7.76543529 12.0033208,7.76543529 C12.2030189,7.76543529 12.7719245,7.82523529 13.7523019,7.82523529 L13.7587925,7.82523529" id="Fill-14" sketch:type="MSShapeGroup"></path>
            </g>
        </g>
    </g>
</svg>