<?xml version="1.0" encoding="utf-8"?>
<!-- Generator: Adobe Illustrator 17.0.0, SVG Export Plug-In . SVG Version: 6.00 Build 0)  -->
<!DOCTYPE svg PUBLIC "-//W3C//DTD SVG 1.1//EN" "http://www.w3.org/Graphics/SVG/1.1/DTD/svg11.dtd">
<svg version="1.1" id="Calque_1" xmlns="http://www.w3.org/2000/svg" xmlns:xlink="http://www.w3.org/1999/xlink" x="0px" y="0px"
	 width="64px" height="40px" viewBox="-0.083 0 64 40" enable-background="new -0.083 0 64 40" xml:space="preserve">
<g>
	<path fill="#FFFFFF" d="M18.512,0c1.878,0,3.574,0.162,5.123,0.497c1.54,0.327,2.854,0.872,3.965,1.62
		c1.095,0.748,1.951,1.742,2.564,2.995c0.598,1.234,0.897,2.78,0.897,4.607c0,1.977-0.447,3.628-1.346,4.948
		c-0.903,1.318-2.232,2.399-4.005,3.238c2.414,0.695,4.205,1.918,5.392,3.657c1.192,1.751,1.776,3.846,1.776,6.303
		c0,1.991-0.381,3.705-1.143,5.147c-0.769,1.461-1.816,2.643-3.106,3.556c-1.301,0.921-2.793,1.597-4.466,2.037
		c-1.654,0.438-3.372,0.66-5.133,0.66H0V0H18.512z M17.395,15.863c1.53,0,2.799-0.364,3.804-1.102
		c0.994-0.726,1.475-1.925,1.475-3.571c0-0.913-0.159-1.668-0.481-2.255C21.86,8.35,21.417,7.891,20.861,7.57
		c-0.553-0.334-1.179-0.564-1.903-0.689c-0.713-0.139-1.458-0.194-2.224-0.194H8.645v9.176
		C8.645,15.863,17.395,15.863,17.395,15.863z M17.873,32.577c0.851,0,1.661-0.077,2.423-0.246c0.773-0.169,1.458-0.437,2.038-0.833
		c0.577-0.381,1.058-0.903,1.405-1.566c0.35-0.658,0.518-1.513,0.518-2.545c0-2.024-0.571-3.461-1.703-4.334
		c-1.136-0.861-2.649-1.289-4.509-1.289h-9.4v10.813C8.645,32.577,17.873,32.577,17.873,32.577z"/>
	<path fill="#FFFFFF" d="M45.201,32.447c1.17,1.142,2.861,1.717,5.052,1.717c1.574,0,2.935-0.398,4.077-1.192
		c1.132-0.793,1.821-1.641,2.086-2.52h6.877c-1.105,3.423-2.781,5.865-5.07,7.336C55.962,39.264,53.206,40,49.992,40
		c-2.24,0-4.255-0.362-6.064-1.076c-1.809-0.723-3.32-1.736-4.592-3.057c-1.239-1.327-2.202-2.895-2.888-4.738
		c-0.679-1.832-1.02-3.861-1.02-6.059c0-2.126,0.354-4.112,1.049-5.948c0.708-1.841,1.689-3.431,2.979-4.764
		c1.291-1.341,2.821-2.398,4.605-3.171c1.784-0.769,3.751-1.157,5.93-1.157c2.405,0,4.511,0.463,6.317,1.406
		c1.799,0.93,3.274,2.19,4.434,3.768c1.157,1.574,1.983,3.375,2.498,5.396c0.512,2.016,0.69,4.123,0.544,6.329H43.27
		C43.27,29.176,44.028,31.305,45.201,32.447z M54.174,17.509c-0.928-1.026-2.498-1.582-4.416-1.582c-1.248,0-2.28,0.21-3.107,0.638
		c-0.81,0.422-1.471,0.947-1.979,1.566c-0.505,0.629-0.845,1.293-1.046,2.003c-0.199,0.692-0.32,1.32-0.356,1.874h12.704
		C55.788,20.016,55.106,18.544,54.174,17.509z"/>
	<rect x="41.672" y="2.634" fill="#FFFFFF" width="15.916" height="3.874"/>
</g>
</svg>
