<?xml version="1.0" encoding="UTF-8" standalone="no"?>
<svg width="120px" height="120px" viewBox="0 0 120 120" version="1.1" xmlns="http://www.w3.org/2000/svg" xmlns:xlink="http://www.w3.org/1999/xlink" xmlns:sketch="http://www.bohemiancoding.com/sketch/ns">
    <!-- Generator: Sketch 3.1.1 (8761) - http://www.bohemiancoding.com/sketch -->
    <title>blackberry</title>
    <desc>Created with Sketch.</desc>
    <defs></defs>
    <g id="Page-1" stroke="none" stroke-width="1" fill="none" fill-rule="evenodd" sketch:type="MSPage">
        <g id="blackberry" sketch:type="MSArtboardGroup" fill="#FFFFFF">
            <path d="M118.352046,64.7576631 C118.393996,64.7502931 118.45063,64.7443972 118.529636,64.7443972 C118.812103,64.7443972 118.912085,64.887374 118.912085,65.0318247 C118.912085,65.238183 118.737291,65.3170413 118.529636,65.3170413 L118.352046,65.3170413 L118.352046,64.7576631 L118.352046,64.7576631 Z M118.352046,65.5197146 L118.524742,65.5197146 C118.726803,65.5197146 118.827485,65.5978359 118.861744,65.8100901 C118.893207,66.0282403 118.932361,66.180061 118.970116,66.2309135 L119.230209,66.2309135 C119.205039,66.180061 119.166584,66.0798298 119.131625,65.821882 C119.100163,65.5794111 119.006473,65.4482262 118.868736,65.4209574 L118.868736,65.4062175 C119.037237,65.353154 119.175673,65.2241801 119.175673,65.003819 C119.175673,64.8475763 119.123235,64.7326053 119.031643,64.6603799 C118.936556,64.5896285 118.781339,64.5365649 118.541522,64.5365649 C118.35694,64.5365649 118.22969,64.5594117 118.098945,64.5770996 L118.098945,66.2301765 L118.350648,66.2301765 L118.350648,65.5189776 L118.352046,65.5189776 L118.352046,65.5197146 L118.352046,65.5197146 Z M118.619131,64.1172155 C119.245591,64.1172155 119.744801,64.6765937 119.744801,65.3760008 C119.744801,66.0746709 119.245591,66.6340491 118.619131,66.6281532 C117.99267,66.6281532 117.488566,66.0754079 117.488566,65.3693679 C117.488566,64.6765937 117.99267,64.1172155 118.613537,64.1172155 L118.619131,64.1172155 L118.619131,64.1172155 Z M118.614236,63.8894844 C117.845145,63.8894844 117.220782,64.5490938 117.220782,65.3701049 C117.220782,66.2073297 117.845145,66.8610432 118.614236,66.8610432 C119.388222,66.8610432 120,66.2073297 120,65.3701049 C120,64.5490938 119.388222,63.8894844 118.619131,63.8894844 L118.614236,63.8894844 L118.614236,63.8894844 Z M8.73338733,63.7199759 L6.01569647,63.7199759 L6.75682132,60.1020736 L9.36683932,60.1020736 C11.0581422,60.1020736 11.4615658,60.9827811 11.4615658,61.6770292 C11.4615658,62.6594419 10.8574791,63.7199759 8.73338733,63.7199759 L8.73338733,63.7199759 Z M16.0803118,61.5141536 L13.362621,61.5141536 L14.1023475,57.8991994 L16.7109671,57.8991994 C18.4036683,57.8991994 18.8056936,58.7769589 18.8056936,59.471207 C18.8063928,60.4528827 18.2037045,61.5141536 16.0803118,61.5141536 L16.0803118,61.5141536 Z M17.0920172,55.8488828 L14.3750255,55.8488828 L15.1182479,52.2309805 L17.7268675,52.2309805 C19.4181704,52.2309805 19.821594,53.1109511 19.821594,53.8037252 C19.8201957,54.7898228 19.2154098,55.8488828 17.0920172,55.8488828 L17.0920172,55.8488828 Z M9.74299515,58.056179 L7.02460511,58.056179 L7.76782749,54.4382768 L10.375748,54.4382768 C12.0684492,54.4382768 12.4711736,55.3204583 12.4711736,56.0124954 C12.4711736,56.994171 11.8663878,58.056179 9.74299515,58.056179 L9.74299515,58.056179 Z M2.71699169,58.056179 L0,58.056179 L0.741124855,54.4382768 L3.34904534,54.4382768 C5.04244571,54.4382768 5.44517016,55.3204583 5.44517016,56.0124954 C5.44447099,56.994171 4.84038431,58.056179 2.71699169,58.056179 L2.71699169,58.056179 Z M10.6847831,52.6156913 L7.96639302,52.6156913 L8.70751787,49 L11.3161375,49 C13.0095379,49 13.4115632,49.8784965 13.4115632,50.5720076 C13.410864,51.5558943 12.8074765,52.6156913 10.6847831,52.6156913 L10.6847831,52.6156913 Z M3.65877959,52.6156913 L0.941088731,52.6156913 L1.68221359,49 L4.28943489,49 C5.98353444,49 6.38625889,49.8784965 6.38625889,50.5720076 C6.38625889,51.5558943 5.78217222,52.6156913 3.65877959,52.6156913 L3.65877959,52.6156913 Z M87.5058702,59.9229842 L92.496577,59.9229842 C92.5657952,59.0216408 91.9029779,57.8999364 90.1571394,57.8999364 C88.4665358,57.8991994 87.6359166,59.351077 87.5058702,59.9229842 L87.5058702,59.9229842 Z M94.6493349,63.3161033 C94.5458571,63.6344846 93.478917,66.9059998 89.5152974,66.9059998 C86.3081844,66.9059998 84.4938269,64.647114 84.4938269,61.4625641 C84.4938269,58.17115 87.0024646,55.4000536 90.1284733,55.4000536 C93.5474361,55.4000536 95.2415356,57.8114971 95.2415356,60.4469867 C95.2415356,61.2075642 95.0646445,61.9489799 95.0171006,62.1516532 L87.112235,62.1516532 C87.0667886,62.650598 87.5282437,64.4628656 89.5565486,64.4628656 C90.9674826,64.4628656 91.598837,63.5364644 91.6925264,63.3161033 L94.6493349,63.3161033 L94.6493349,63.3161033 Z M40.625528,58.9648923 C40.8150043,58.4924793 41.9854222,55.4147935 46.0469263,55.4147935 C49.2071945,55.4147935 50.4384406,57.0885062 49.9797822,59.4557301 C49.7392662,60.7100935 49.2666243,62.9741382 49.0981233,63.7656695 C48.7792998,65.2647147 48.9722719,66.2014338 49.0638638,66.6878497 L46.3839283,66.6878497 C46.354563,66.3296707 46.3175067,65.8837895 46.3091167,65.589729 C46.2196223,65.6833272 45.2037219,66.9207397 43.2607163,66.9207397 C40.921978,66.9207397 39.6040342,65.2927205 39.6040342,63.6182707 C39.6040342,61.2606278 41.5631209,60.2472614 44.6604634,59.7763224 C46.4636342,59.5043717 47.5061032,59.3274932 47.5061032,58.648722 C47.5061032,58.1682021 46.9768282,57.7716994 45.9441476,57.7716994 C44.2836084,57.7716994 43.6151977,58.8543432 43.552272,58.9663663 L40.625528,58.9663663 L40.625528,58.9648923 L40.625528,58.9648923 Z M42.3000507,63.2976785 C42.3000507,63.9204382 42.8398133,64.4459147 43.7669186,64.4459147 C45.2163071,64.4459147 46.5307549,63.5718401 46.8313999,62.2106127 C46.8810413,61.9887776 46.948162,61.6888211 46.9901125,61.5008877 C46.7628808,61.5340525 45.0939516,61.8067401 44.5234253,61.8966534 C42.7468231,62.172289 42.3000507,62.7810459 42.3000507,63.2976785 L42.3000507,63.2976785 Z M110.881368,71 L119.577699,55.4427992 L116.778904,55.4427992 L112.783122,62.763358 L111.849025,55.4332183 L108.854461,55.4332183 C105.424311,55.4332183 103.647709,57.0855583 103.017054,60.2509464 C102.699629,61.8295869 101.695614,66.6930086 101.695614,66.6930086 L104.288153,66.6930086 C104.288153,66.6930086 105.239729,62.0735319 105.616584,60.2089377 C105.982253,58.3996181 107.258246,57.8468728 108.630026,58.1549362 L109.175382,55.4995478 C109.580204,58.0215403 110.817044,66.0798298 110.817044,66.0798298 L108.104946,71 L110.881368,71 L110.881368,71 Z M102.062681,55.4427992 C99.2946496,55.4427992 97.4166672,57.1681016 96.7818168,60.407189 C96.5070413,61.8015812 95.5051244,66.6944826 95.5051244,66.6944826 L98.0969638,66.6944826 C98.0969638,66.6944826 99.0513369,62.0411042 99.352681,60.5789086 C99.7491129,58.6619879 100.709079,58.0119594 102.002552,58.0119594 C102.41926,58.0119594 102.686345,58.062075 102.821285,58.0819738 C102.891902,57.6950521 103.254773,55.9660648 103.339373,55.5422934 C103.061102,55.5017587 102.618525,55.4427992 102.062681,55.4427992 L102.062681,55.4427992 Z M79.0535509,57.821078 L76.2988038,57.821078 L76.8993946,54.8988979 L79.5408755,54.8988979 C80.7889018,54.8988979 81.2937057,55.5039697 81.2937057,56.2077987 C81.2923073,57.0649224 80.5351015,57.821078 79.0535509,57.821078 L79.0535509,57.821078 Z M77.7446965,63.9941375 L75.032599,63.9941375 L75.7499519,60.4948913 L78.1467217,60.4948913 C79.9897454,60.4948913 80.4064534,61.357911 80.4064534,62.0381562 C80.4064534,63.1605976 79.4996242,63.9941375 77.7446965,63.9941375 L77.7446965,63.9941375 Z M76.3631279,66.6907976 L77.8523693,66.6907976 C81.1175137,66.6907976 83.2269229,64.6714348 83.2269229,62.2636763 C83.2269229,60.0497471 81.5831639,59.3650799 81.3006974,59.2655857 C81.6104317,59.1624066 84.1365488,58.416569 84.1365488,55.5975679 C84.1365488,54.3233058 83.2520932,52.2243476 79.6695236,52.2243476 L74.7270598,52.2243476 C74.7270598,52.2243476 72.8868328,61.1795585 72.6693896,62.2142977 C72.1471063,64.7053365 73.6195676,66.6907976 76.3631279,66.6907976 L76.3631279,66.6907976 Z M29.1667589,57.821078 L26.412711,57.821078 L27.0119034,54.8988979 L29.656181,54.8988979 C30.9007114,54.8988979 31.4090112,55.5039697 31.4090112,56.2077987 C31.4090112,57.0649224 30.6511062,57.821078 29.1667589,57.821078 L29.1667589,57.821078 Z M27.8593028,63.9941375 L25.1479045,63.9941375 L25.8645583,60.4948913 L28.2592306,60.4948913 C30.1036526,60.4948913 30.5196614,61.357911 30.5196614,62.0381562 C30.5196614,63.1605976 29.6142305,63.9941375 27.8593028,63.9941375 L27.8593028,63.9941375 Z M26.4777342,66.6907976 L27.9676748,66.6907976 C31.2342176,66.6907976 33.3394317,64.6714348 33.3394317,62.2636763 C33.3394317,60.0497471 31.6998677,59.3650799 31.4118079,59.2655857 C31.720843,59.1624066 34.24696,58.416569 34.24696,55.5975679 C34.24696,54.3233058 33.364602,52.2243476 29.7799349,52.2243476 L24.8395686,52.2243476 C24.8395686,52.2243476 23.00074,61.1795585 22.7839959,62.2142977 C22.263111,64.7053365 23.7369706,66.6907976 26.4777342,66.6907976 L26.4777342,66.6907976 Z M73.8600836,55.4361663 L70.2432544,55.4361663 L65.5986389,59.8448628 L67.1633912,52.2177146 L64.5512757,52.2177146 L61.5860771,66.6863757 L64.1953959,66.6863757 L64.9162447,63.1709155 L66.5222483,61.823691 L68.742127,66.6849017 L71.6464974,66.6849017 L68.4981151,60.172825 L73.8600836,55.4361663 L73.8600836,55.4361663 Z M37.037365,63.5629962 C37.037365,63.3949616 37.0800147,63.0736324 37.2226463,62.3963351 C37.3589853,61.7183009 39.3117793,52.2412984 39.3117793,52.2412984 L36.7185415,52.2412984 L34.5685803,62.6948176 C34.4776876,63.1355398 34.4385338,63.5688922 34.4385338,63.9528659 C34.4385338,66.2434424 36.1200482,66.9200027 37.4687556,66.9200027 C37.951186,66.9200027 38.3972592,66.8359854 38.5105255,66.8212455 C38.5517768,66.5920405 38.9593954,64.6227932 38.9782732,64.534354 C38.9202417,64.5395129 38.6342794,64.5630967 38.3028707,64.5630967 C37.33801,64.5630967 37.037365,64.1319554 37.037365,63.5629962 L37.037365,63.5629962 Z M61.152589,62.7545141 C61.0183475,63.5725771 59.9318305,66.9082108 55.8982934,66.9082108 C52.6639127,66.9082108 50.9173751,64.6360591 50.9173751,61.6925061 C50.9173751,58.0930287 53.4763533,55.4015276 56.6729787,55.4015276 C61.0463145,55.4015276 61.8657469,58.7305283 61.6993434,59.819068 L58.9369053,59.819068 C58.8942557,59.5515393 58.4467841,58.0768148 56.5674033,58.0768148 C54.8229632,58.0768148 53.6378626,59.7453687 53.6378626,61.5996449 C53.6378626,62.7206124 54.3111676,64.2321865 56.0388275,64.2321865 C57.5301665,64.2321865 58.1265622,63.0242538 58.2398285,62.7552511 L61.152589,62.7545141 L61.152589,62.7545141 Z" id="Imported-Layers" sketch:type="MSShapeGroup"></path>
        </g>
    </g>
</svg>