<?xml version="1.0" encoding="UTF-8" standalone="no"?>
<svg width="60px" height="60px" viewBox="0 0 60 60" version="1.1" xmlns="http://www.w3.org/2000/svg" xmlns:xlink="http://www.w3.org/1999/xlink" xmlns:sketch="http://www.bohemiancoding.com/sketch/ns">
    <!-- Generator: Sketch 3.0.4 (8053) - http://www.bohemiancoding.com/sketch -->
    <title>bootstrap</title>
    <desc>Created with Sketch.</desc>
    <defs></defs>
    <g id="Page-1" stroke="none" stroke-width="1" fill="none" fill-rule="evenodd" sketch:type="MSPage">
        <g id="bootstrap" sketch:type="MSArtboardGroup" fill="#FFFFFF">
            <g id="bootstrap-punchout" sketch:type="MSLayerGroup">
                <g id="punchout" sketch:type="MSShapeGroup">
                    <g id="Group">
                        <path d="M37.5980392,33.5098039 C36.5686275,32.5784314 35.127451,32.1176471 33.2647059,32.1176471 L22.4313725,32.1176471 L22.4313725,43.0392157 L33.2647059,43.0392157 C35.127451,43.0392157 36.5784314,42.5588235 37.5980392,41.5882353 C38.627451,40.627451 39.1470588,39.254902 39.1470588,37.4901961 C39.1372549,35.7647059 38.627451,34.4313725 37.5980392,33.5098039 L37.5980392,33.5098039 Z" id="Shape"></path>
                        <path d="M36.0980392,26.4509804 C37.0784314,25.6176471 37.5686275,24.4117647 37.5686275,22.8431373 C37.5686275,21.0784314 37.127451,19.8333333 36.245098,19.1176471 C35.3627451,18.4019608 34.0882353,18.0392157 32.4215686,18.0392157 L22.4215686,18.0392157 L22.4215686,27.6960784 L32.4215686,27.6960784 C33.8921569,27.6960784 35.1176471,27.2745098 36.0980392,26.4509804 L36.0980392,26.4509804 Z" id="Shape"></path>
                        <path d="M50,0 L10,0 C4.5,0 0,4.5 0,10 L0,50 C0,55.5 4.5,60 10,60 L50,60 C55.5,60 60,55.5 60,50 L60,10 C60,4.5 55.5,0 50,0 L50,0 Z M44.5294118,42.1372549 C44.0392157,43.3333333 43.2745098,44.3627451 42.2254902,45.2254902 C41.1764706,46.0882353 39.8431373,46.7745098 38.2058824,47.2843137 C36.5686275,47.7941176 34.627451,48.0490196 32.372549,48.0490196 L16.2941176,48.0490196 L16.2941176,13.0392157 L33.3039216,13.0392157 C36.4411765,13.0392157 38.9607843,13.754902 40.8529412,15.1960784 C42.745098,16.6372549 43.6960784,18.8039216 43.6960784,21.7156863 C43.6960784,23.4803922 43.2647059,24.9901961 42.4019608,26.245098 C41.5392157,27.5 40.3039216,28.4803922 38.6960784,29.1666667 L38.6960784,29.2647059 C40.8529412,29.7254902 42.4901961,30.745098 43.5980392,32.3235294 C44.7058824,33.9117647 45.2647059,35.8921569 45.2647059,38.2843137 C45.2647059,39.6568627 45.0196078,40.9411765 44.5294118,42.1372549 L44.5294118,42.1372549 Z" id="Shape"></path>
                    </g>
                </g>
            </g>
        </g>
    </g>
</svg>