<?xml version="1.0" encoding="utf-8"?>
<!-- Generator: Adobe Illustrator 16.0.0, SVG Export Plug-In . SVG Version: 6.00 Build 0)  -->
<!DOCTYPE svg PUBLIC "-//W3C//DTD SVG 1.1//EN" "http://www.w3.org/Graphics/SVG/1.1/DTD/svg11.dtd">
<svg version="1.1" id="Logo" xmlns="http://www.w3.org/2000/svg" xmlns:xlink="http://www.w3.org/1999/xlink" x="0px" y="0px"
	 width="58px" height="40px" viewBox="0 0 58 40" enable-background="new 0 0 58 40" xml:space="preserve">
<g>
	<path fill="#FFFFFF" d="M57.6,1.319c-0.699-0.998-2.074-1.241-3.073-0.541L31.303,17.04L0.396,38.681
		c0.399,0.568,1.058,0.94,1.806,0.939l0.003,0.001V39.62h53.588c1.218,0,2.206-0.987,2.206-2.207V2.551
		C57.993,2.124,57.863,1.695,57.6,1.319z"/>
	<path fill="#FFFFFF" d="M24.442,15.462L3.473,0.777c-1-0.699-2.374-0.456-3.073,0.541C0.137,1.694,0.007,2.124,0,2.55l0,33.183
		l29.05-20.341C27.633,16.385,25.806,16.356,24.442,15.462z"/>
</g>
<g>
</g>
<g>
</g>
<g>
</g>
<g>
</g>
<g>
</g>
<g>
</g>
</svg>
