<?xml version="1.0" encoding="utf-8"?>
<!-- Generator: Adobe Illustrator 17.0.0, SVG Export Plug-In . SVG Version: 6.00 Build 0)  -->
<!DOCTYPE svg PUBLIC "-//W3C//DTD SVG 1.1//EN" "http://www.w3.org/Graphics/SVG/1.1/DTD/svg11.dtd">
<svg version="1.1" id="Calque_1" xmlns="http://www.w3.org/2000/svg" xmlns:xlink="http://www.w3.org/1999/xlink" x="0px" y="0px"
	 width="40px" height="40px" viewBox="0 0 40 40" enable-background="new 0 0 40 40" xml:space="preserve">
<g>
	<path fill="#FFFFFF" d="M20,0C8.954,0,0,8.954,0,20s8.954,20,20,20c11.046,0,20-8.954,20-20S31.046,0,20,0z M20,36.716
		c-9.217,0-16.715-7.499-16.715-16.715S10.783,3.285,20,3.285c9.217,0,16.715,7.499,16.715,16.715S29.217,36.716,20,36.716z"/>
	<path fill="#FFFFFF" d="M32.357,16.094c-0.002-0.016-0.006-0.031-0.009-0.046c-0.005-0.03-0.011-0.06-0.019-0.089
		c-0.005-0.018-0.011-0.034-0.017-0.051c-0.008-0.026-0.017-0.052-0.027-0.077c-0.007-0.018-0.016-0.035-0.024-0.052
		c-0.011-0.024-0.023-0.048-0.036-0.07c-0.01-0.017-0.02-0.033-0.03-0.049c-0.014-0.022-0.029-0.044-0.045-0.064
		c-0.012-0.016-0.024-0.031-0.036-0.046c-0.017-0.019-0.034-0.039-0.053-0.057c-0.014-0.014-0.028-0.029-0.042-0.042
		c-0.019-0.018-0.04-0.034-0.06-0.051c-0.016-0.012-0.032-0.025-0.048-0.036c-0.006-0.004-0.012-0.009-0.018-0.013L20.59,7.813
		c-0.357-0.238-0.822-0.238-1.179,0L8.107,15.348c-0.006,0.004-0.011,0.009-0.018,0.013c-0.017,0.012-0.032,0.024-0.048,0.036
		C8.021,15.414,8,15.431,7.981,15.448c-0.015,0.013-0.029,0.027-0.043,0.042c-0.018,0.018-0.036,0.038-0.053,0.057
		c-0.013,0.015-0.025,0.031-0.037,0.046c-0.016,0.021-0.031,0.042-0.045,0.064c-0.011,0.016-0.021,0.033-0.031,0.049
		c-0.013,0.023-0.025,0.046-0.036,0.07c-0.008,0.017-0.017,0.034-0.024,0.052c-0.01,0.025-0.019,0.051-0.027,0.077
		c-0.006,0.017-0.012,0.034-0.017,0.051c-0.008,0.029-0.013,0.059-0.019,0.089c-0.003,0.016-0.006,0.031-0.008,0.046
		c-0.006,0.046-0.01,0.092-0.01,0.139v7.536c0,0.047,0.004,0.093,0.01,0.139c0.002,0.015,0.006,0.031,0.008,0.045
		c0.006,0.03,0.011,0.06,0.019,0.089c0.005,0.018,0.011,0.034,0.017,0.051c0.008,0.026,0.017,0.052,0.027,0.078
		c0.007,0.018,0.016,0.035,0.024,0.051c0.011,0.024,0.023,0.047,0.036,0.071c0.01,0.016,0.02,0.032,0.031,0.049
		c0.014,0.022,0.029,0.044,0.045,0.064c0.012,0.016,0.024,0.031,0.037,0.046c0.017,0.019,0.034,0.039,0.053,0.057
		c0.014,0.014,0.028,0.029,0.043,0.042C8,24.57,8.021,24.586,8.042,24.603c0.016,0.012,0.031,0.025,0.048,0.036
		c0.006,0.004,0.012,0.009,0.018,0.013l11.304,7.536c0.179,0.119,0.384,0.179,0.59,0.179c0.205,0,0.411-0.06,0.589-0.179
		l11.304-7.536c0.006-0.004,0.011-0.009,0.018-0.013c0.017-0.012,0.032-0.024,0.048-0.036c0.02-0.016,0.041-0.033,0.06-0.051
		c0.015-0.013,0.028-0.027,0.042-0.042c0.019-0.018,0.036-0.038,0.053-0.057c0.012-0.015,0.025-0.03,0.036-0.046
		c0.016-0.021,0.031-0.042,0.045-0.064c0.01-0.016,0.02-0.032,0.03-0.049c0.013-0.023,0.025-0.047,0.036-0.071
		c0.008-0.017,0.016-0.034,0.024-0.051c0.01-0.026,0.019-0.052,0.027-0.078c0.005-0.017,0.012-0.034,0.017-0.051
		c0.008-0.029,0.013-0.059,0.019-0.089c0.003-0.015,0.006-0.03,0.009-0.045c0.006-0.046,0.009-0.092,0.009-0.139v-7.536
		C32.366,16.185,32.363,16.139,32.357,16.094z M21.063,10.683l8.327,5.551l-3.719,2.488l-4.608-3.082V10.683z M18.937,10.683v4.957
		l-4.607,3.082l-3.72-2.488L18.937,10.683z M9.759,18.222L12.418,20l-2.659,1.779V18.222z M18.937,29.318l-8.327-5.551l3.72-2.488
		l4.607,3.082V29.318z M20,22.514L16.241,20L20,17.486L23.759,20L20,22.514z M21.063,29.318v-4.957l4.608-3.082l3.719,2.488
		L21.063,29.318z M30.241,21.779L27.582,20l2.659-1.779V21.779z"/>
</g>
</svg>
