<?xml version="1.0" encoding="UTF-8" standalone="no"?>
<svg width="60px" height="60px" viewBox="0 0 60 60" version="1.1" xmlns="http://www.w3.org/2000/svg" xmlns:xlink="http://www.w3.org/1999/xlink" xmlns:sketch="http://www.bohemiancoding.com/sketch/ns">
    <!-- Generator: Sketch 3.0.4 (8053) - http://www.bohemiancoding.com/sketch -->
    <title>codeschool</title>
    <desc>Created with Sketch.</desc>
    <defs></defs>
    <g id="Page-1" stroke="none" stroke-width="1" fill="none" fill-rule="evenodd" sketch:type="MSPage">
        <g id="codeschool" sketch:type="MSArtboardGroup" fill="#FFFFFF">
            <path d="M30,0.00550545302 C13.3226968,0.00550545302 -0.197160051,13.4344692 -0.197160051,30 C-0.197160051,46.5655308 13.3226968,59.9944945 30,59.9944945 C46.6774601,59.9944945 60.1971601,46.5655308 60.1971601,30 C60.1971601,13.4344692 46.6774601,0.00550545302 30,0.00550545302 L30,0.00550545302 Z M30,55.2380689 C15.9671836,55.2380689 4.59140363,43.9384806 4.59140363,30 C4.59140363,16.0613636 15.9671836,4.76193112 30,4.76193112 C44.0328164,4.76193112 55.4085964,16.0613636 55.4085964,30 C55.4085964,43.9384806 44.0328164,55.2380689 30,55.2380689 L30,55.2380689 Z" id="Fill-1" sketch:type="MSShapeGroup"></path>
            <path d="M48.9233445,30.7351378 L48.9358939,30.7226725 L48.9358939,30.7211144 C49.3312022,30.3145916 49.3324572,29.6724757 48.9344821,29.2770158 L48.9343253,29.2770158 L34.1127748,14.5558737 C33.9108852,14.3542484 33.6481307,14.255773 33.3863174,14.255773 C33.1218373,14.255773 32.8590828,14.3542484 32.6582913,14.5558737 L32.6399377,14.5722343 C32.4474602,14.7643549 32.3379661,15.0247227 32.3379661,15.2950627 L32.3379661,19.3690162 C32.3379661,19.6398237 32.4474602,19.8992566 32.6399377,20.0913772 L42.6148832,29.9992209 L32.6399377,39.908467 C32.4474602,40.0996527 32.3379661,40.3603321 32.3379661,40.6289582 L32.3379661,44.7058722 C32.3379661,44.9741866 32.4474602,45.2353334 32.6399377,45.4262075 L32.6582913,45.4444379 C32.8498276,45.6357794 33.1128958,45.7446945 33.3863174,45.7446945 C33.6583271,45.7446945 33.9185717,45.6357794 34.1127748,45.4444379 L48.9233445,30.7351378" id="Fill-2" sketch:type="MSShapeGroup"></path>
            <path d="M11.4366684,30.7351378 L11.424119,30.7226725 L11.424119,30.7211144 C11.0286538,30.3145916 11.0273989,29.6724757 11.4253739,29.2770158 L11.4255308,29.2770158 L26.2469244,14.5558737 C26.4489708,14.3542484 26.7117254,14.255773 26.9736955,14.255773 C27.2380187,14.255773 27.5007732,14.3542484 27.7015647,14.5558737 L27.7197615,14.5722343 C27.9123958,14.7643549 28.0218899,15.0247227 28.0218899,15.2950627 L28.0218899,19.3690162 C28.0218899,19.6398237 27.9123958,19.8992566 27.7197615,20.0913772 L17.7449728,29.9992209 L27.7197615,39.908467 C27.9125527,40.0996527 28.0218899,40.3603321 28.0217331,40.6289582 L28.0218899,44.7058722 C28.0218899,44.9741866 27.9123958,45.2353334 27.7197615,45.4262075 L27.7015647,45.4444379 C27.5100285,45.6357794 27.2471171,45.7446945 26.9736955,45.7446945 C26.7015289,45.7446945 26.4411274,45.6357794 26.2469244,45.4444379 L11.4366684,30.7351378" id="Fill-3" sketch:type="MSShapeGroup"></path>
        </g>
    </g>
</svg>