<?xml version="1.0" encoding="UTF-8" standalone="no"?>
<svg width="120px" height="120px" viewBox="0 0 120 120" version="1.1" xmlns="http://www.w3.org/2000/svg" xmlns:xlink="http://www.w3.org/1999/xlink" xmlns:sketch="http://www.bohemiancoding.com/sketch/ns">
    <!-- Generator: Sketch 3.1.1 (8761) - http://www.bohemiancoding.com/sketch -->
    <title>creativemarket</title>
    <desc>Created with Sketch.</desc>
    <defs></defs>
    <g id="Page-1" stroke="none" stroke-width="1" fill="none" fill-rule="evenodd" sketch:type="MSPage">
        <g id="creativemarket" sketch:type="MSArtboardGroup" fill="#FFFFFF">
            <g id="Group" sketch:type="MSLayerGroup" transform="translate(0.000000, 38.000000)">
                <path d="M89.4614815,38.2120661 L91.9888889,38.2120661 L91.9888889,44.9129752 L93.4014815,44.9129752 L93.4014815,38.2120661 L95.9288889,38.2120661 L95.9288889,36.9096694 L89.4614815,36.9096694 L89.4614815,38.2120661 Z" id="Shape" sketch:type="MSShapeGroup"></path>
                <path d="M31.0144444,40.694876 L28.5888889,36.9096694 L27.097037,36.9096694 L27.097037,44.9129752 L28.4751852,44.9129752 L28.4751852,39.1968595 L30.9681481,42.9459917 L31.0144444,42.9459917 L33.5303704,39.1730579 L33.5303704,44.9129752 L34.9307407,44.9129752 L34.9307407,36.9096694 L33.4396296,36.9096694 L31.0144444,40.694876 Z" id="Shape" sketch:type="MSShapeGroup"></path>
                <path d="M43.7903704,36.8523967 L40.282963,44.9129752 L41.7177778,44.9129752 L42.5381481,42.9809504 L46.3062963,42.9809504 L47.1148148,44.9129752 L48.5948148,44.9129752 L45.0881481,36.8523967 L43.7903704,36.8523967 L43.7903704,36.8523967 Z M43.0496296,41.7350826 L44.4155556,38.5333884 L45.7940741,41.7350826 L43.0496296,41.7350826 L43.0496296,41.7350826 Z" id="Shape" sketch:type="MSShapeGroup"></path>
                <path d="M60.46,39.4594215 L60.46,39.4363636 C60.46,38.7390496 60.2207407,38.1447521 59.7992593,37.7096281 C59.287037,37.207562 58.5014815,36.9100413 57.4988889,36.9100413 L53.9474074,36.9100413 L53.9474074,44.9133471 L55.3474074,44.9133471 L55.3474074,42.1248347 L57.1011111,42.1248347 L59.0596296,44.9133471 L60.7211111,44.9133471 L58.57,41.8842149 C59.6737037,41.5628926 60.46,40.7733471 60.46,39.4594215 L60.46,39.4594215 Z M55.3474074,40.8771074 L55.3474074,38.190124 L57.3855556,38.190124 C58.4214815,38.190124 59.0362963,38.6602066 59.0362963,39.5170661 L59.0362963,39.5390083 C59.0362963,40.3504959 58.3992593,40.8771074 57.3966667,40.8771074 L55.3474074,40.8771074 L55.3474074,40.8771074 Z" id="Shape" sketch:type="MSShapeGroup"></path>
                <path d="M119.178148,22.3248347 C117.964444,25.5194628 115.861481,26.6359091 114.391111,26.6359091 C113.228889,26.6359091 110.724444,26.3874793 109.72037,23.4669421 C113.946667,23.2780165 116.14037,18.8944215 116.14037,15.6257851 C116.293704,13.2314876 115.238519,11.2172727 112.362963,11.1361983 C108.137037,11.0179339 106.316296,15.1073554 105.742222,18.2428512 C105.544815,19.3280579 105.587407,20.377562 105.703704,21.2340496 C103.435926,20.3202893 102.067407,16.9679752 103.596667,13.8904959 C103.599259,13.8845455 103.601111,13.8797107 103.603704,13.8737603 C103.607778,13.8659504 103.611481,13.856281 103.615185,13.8484711 L103.615185,13.8477273 C103.920741,13.192438 103.934815,12.8387603 103.371481,12.6992975 C99.4959259,11.88 98.9651852,16.6581818 98.707037,18.4637603 C98.4181481,20.4757438 98.0540741,22.4981405 97.687037,23.6246281 C97.0992593,25.4268595 96.43,24.3219421 96.0644444,23.4423967 C95.0537037,21.0105372 94.9474074,16.5629752 94.7992593,10.9699587 C94.6751852,10.0279339 91.3125926,11.1573967 91.1062963,11.7 C90.8122222,12.502562 90.1288889,13.4869835 89.2262963,16.0036364 C88.3240741,18.521405 86.9274074,21.5471901 86.4881481,22.6353719 C85.4896296,25.1092562 84.9344444,23.3914463 84.8066667,22.8800826 C84.1848148,20.3742149 84.542963,15.1705785 84.7192593,10.2042149 C84.727037,8.40421488 80.9385185,10.5296281 80.8388889,11.1142562 C80.7940741,11.3727273 78.9559259,19.7382645 77.032963,22.9968595 C75.6737037,25.1940496 75.0462963,26.3227686 73.7974074,23.4907438 C72.8251852,21.2846281 73.1222222,15.0032231 74.3774074,7.08285124 C76.8581481,6.39334711 78.997037,5.8931405 80.4855556,5.60305785 C80.4385185,6.78644628 81.197037,8.06020661 82.9844444,8.09516529 C85.0688889,8.09516529 86.3862963,7.1561157 86.44,5.96975207 C86.49,4.88380165 85.6714815,3.72830579 84.1555556,3.51260331 C84.0266667,3.49066116 83.8874074,3.47466942 83.7311111,3.4661157 C81.7711111,3.39582645 78.1588889,4.29359504 74.6603704,5.36057851 C74.9551852,3.63309917 75.2896296,1.8457438 75.667037,0.00929752066 L71.4677778,1.88107438 C71.1159259,3.59367769 70.8033333,5.19694215 70.5281481,6.7042562 C68.1062963,7.53805785 67.0048148,7.94863636 66.447037,8.20487603 C65.5288889,8.6414876 65.8951852,9.80070248 66.6418519,9.51657025 C68.1303704,8.96243802 68.8055556,8.77946281 70.2448148,8.31793388 C69.4288889,13.0901653 69.0525926,16.807686 69.2,19.7356612 C69.1918519,19.7568595 69.1885185,19.7951653 69.1959259,19.8766116 C69.4977778,23.2716942 67.0981481,27.232438 64.7422222,25.2461157 C63.4925926,24.2111157 63.2355556,19.1417355 63.4540741,17.2074793 C63.5385185,16.4703719 63.9144444,13.7566116 63.1307407,13.7566116 C61.4225926,13.7566116 60.3314815,24.8909504 57.4351852,24.8909504 C56.607037,24.896157 55.7844444,24.0869008 55.5848148,23.4888843 C54.5462963,20.3641736 55.9922222,15.4390909 58.3781481,11.7457438 C59.7185185,9.86243802 60.437037,9.91004132 60.7955556,9.38640496 C61.4107407,8.48119835 58.3792593,7.25020661 55.7181481,9.70400826 C54.0037037,11.4437603 52.0566667,14.3505372 51.0503704,18.9078099 C50.9888889,19.1859917 50.6544444,21.540124 50.6051852,21.720124 C49.2711111,25.9895455 46.707037,26.1669421 45.1344444,26.1669421 C43.4933333,26.1669421 42.2077778,25.0716942 41.2359259,23.5866942 C43.3759259,21.5557438 47.5066667,17.636281 47.5066667,13.3493802 C47.5066667,9.88623967 46.3751852,7.26173554 43.3885185,7.26173554 C38.9448148,7.13826446 36.6577778,11.167438 35.9974074,15.3513223 C35.5422222,18.2488017 36.1037037,20.958843 36.292963,21.7599174 C36.3877778,22.158595 36.5562963,22.657686 36.8077778,23.1988017 C34.3833333,25.5726446 31.8574074,26.842314 31.1188889,22.7841322 C30.7007407,20.4850413 31.1714815,15.7812397 31.5648148,12.9157438 C31.7418519,11.115 30.7455556,10.7367769 28.9944444,10.1592149 C27.2433333,9.5838843 27.2548148,9.63557851 24.37,8.62140496 C24.37,6.32305785 23.2385185,3.61599174 20.6803704,4.30809917 C18.3677778,4.84326446 18.042963,8.21157025 21.6348148,10.0063636 C21.6348148,17.7459917 18.6051852,24.7217355 11.7725926,25.4941736 L11.7725926,25.5399174 C4.18148148,25.7184298 4.86407407,16.2606198 4.86555556,15.7150413 C4.89111111,7.7853719 13.8411111,-0.408347107 13.8411111,6.61016529 C13.6940741,8.95983471 16.4877778,8.88061983 16.8288889,5.89239669 C17.1718519,2.90417355 14.2566667,1.61479339 10.02,1.62706612 C5.78333333,1.63933884 0.0696296296,8.34173554 0.0440740741,16.4521488 C0.0311111111,20.5066116 1.02518519,28.282686 11.0781481,28.2540496 C11.8192593,28.2510744 12.462963,28.166281 13.0666667,28.0056198 C21.2088889,26.4577686 24.3051852,19.1082645 24.3051852,10.5720248 C25.1048148,10.8022314 25.5551852,10.9052479 26.2318519,11.1436364 C26.9077778,11.381281 27.3548148,11.5010331 26.9551852,13.890124 C26.7511111,15.6733884 26.5259259,18.6028512 26.5259259,19.9428099 C26.5259259,23.6268595 27.0888889,28.1543802 32.0081481,28.1543802 C34.6425926,28.1543802 36.7437037,27.1361157 38.5433333,25.6998347 C39.5444444,26.8330165 41.6388889,28.2659504 44.9248148,28.2659504 C48.7592593,28.2659504 50.6055556,25.9445455 51.5285185,24.4190083 C52.0755556,26.4514463 54.0925926,28.1227686 56.4359259,28.1227686 C59.3925926,28.1227686 61.6611111,25.177314 61.9222222,24.7191322 C62.1122222,25.2130165 62.9414815,28.1186777 65.8359259,28.1186777 C67.8525926,28.1186777 69.46,25.2 69.8922222,23.7997934 C70.2585185,24.9039669 70.7622222,25.852686 71.4281481,26.6645455 C71.4359259,26.6745868 71.4437037,26.685 71.4511111,26.6935537 C72.4459259,27.9122727 73.677037,28.192686 74.5477778,28.2101653 C78.517037,28.2893802 80.9651852,16.0486364 80.9777778,16.1140909 C80.717037,23.4926033 81.2081481,28.1309504 85.057037,28.1309504 C86.9525926,28.1309504 87.6703704,24.5454545 88.7985185,21.258595 C89.927037,17.9717355 90.9785185,15.1207438 91.26,14.1917355 C91.1314815,16.4116116 91.2659259,19.515124 91.3862963,20.3846281 C91.9959259,24.8466942 93.4181481,26.0315702 94.697037,27.1331405 C97.5540741,29.2433058 99.4662963,26.5935124 100.823333,21.191281 C101.085556,20.1447521 101.40037,19.2313636 101.725556,18.4295455 C101.97037,20.0900826 102.973704,22.5211983 106.18963,23.2902893 C106.766667,24.8630579 108.663704,27.9754959 114.102963,28.1279752 C117.633333,28.2276446 119.45037,26.2606612 119.963333,25.4346694 C120.477778,24.6101653 119.85,20.2916529 119.178148,22.3248347 L119.178148,22.3248347 Z M42.5166667,10.541157 C43.8848148,10.541157 43.9718519,15.8771901 39.8407407,20.107562 C38.57,16.5756198 40.9103704,10.541157 42.5166667,10.541157 L42.5166667,10.541157 Z M111.265556,14.1489669 C113.092963,14.1489669 112.477037,21.4025207 109.036667,21.4497521 C108.647407,18.4808678 110.09,14.1489669 111.265556,14.1489669 L111.265556,14.1489669 Z" id="Shape" sketch:type="MSShapeGroup"></path>
                <path d="M73.0874074,36.9096694 L71.3566667,36.9096694 L67.5655556,40.9336364 L67.5655556,36.9096694 L66.1648148,36.9096694 L66.1648148,44.9129752 L67.5655556,44.9129752 L67.5655556,42.5919421 L68.8059259,41.3122314 L71.5281481,44.9129752 L73.2355556,44.9129752 L69.762963,40.3504959 L73.0874074,36.9096694 Z" id="Shape" sketch:type="MSShapeGroup"></path>
                <path d="M79.817037,41.5059917 L83.8140741,41.5059917 L83.8140741,40.2474793 L79.817037,40.2474793 L79.817037,38.1678099 L84.3259259,38.1678099 L84.3259259,36.9096694 L78.4162963,36.9096694 L78.4162963,44.9129752 L84.3833333,44.9129752 L84.3833333,43.6555785 L79.817037,43.6555785 L79.817037,41.5059917 Z" id="Shape" sketch:type="MSShapeGroup"></path>
            </g>
        </g>
    </g>
</svg>