<?xml version="1.0" encoding="UTF-8" standalone="no"?>
<svg width="160px" height="160px" viewBox="0 0 160 160" version="1.1" xmlns="http://www.w3.org/2000/svg" xmlns:xlink="http://www.w3.org/1999/xlink">
    <!-- Generator: Sketch 3.6.1 (26313) - http://www.bohemiancoding.com/sketch -->
    <title>dailymotion</title>
    <desc>Created with Sketch.</desc>
    <defs></defs>
    <g id="Page-1" stroke="none" stroke-width="1" fill="none" fill-rule="evenodd">
        <g id="dailymotion" fill="#FFFFFF">
            <path d="M129.454545,75.7195208 C131.055673,74.1183932 133.152925,73.2276251 135.317829,73.2276251 C137.629316,73.2276251 139.613813,74.0281889 141.203665,75.5391121 C142.894996,77.1402396 143.808316,79.3276956 143.808316,81.4926004 C143.808316,83.8942918 143.007752,85.8787879 141.406624,87.4686399 C139.782946,89.0923185 137.764623,89.9605356 135.362932,89.9605356 C132.938689,89.9605356 130.976744,89.1374207 129.353066,87.4122622 C127.808316,85.8111346 127.019027,83.7702607 127.019027,81.5489782 C127.019027,79.3389711 127.875969,77.2868217 129.454545,75.7195208 L129.454545,75.7195208 Z M135.396758,85.5179704 C137.471459,85.5179704 139.151515,83.7702607 139.151515,81.6053559 C139.151515,79.4178999 137.460183,77.6701903 135.396758,77.6701903 C133.322058,77.6701903 131.642001,79.4178999 131.642001,81.6053559 C131.642001,83.7702607 133.355884,85.5179704 135.396758,85.5179704 L135.396758,85.5179704 Z M95.1768851,75.7195208 C96.7780127,74.1183932 98.8752643,73.2276251 101.040169,73.2276251 C103.351656,73.2276251 105.336152,74.0281889 106.926004,75.5391121 C108.617336,77.1402396 109.530655,79.3276956 109.530655,81.4926004 C109.530655,83.8942918 108.730092,85.8787879 107.128964,87.4686399 C105.505285,89.0923185 103.486963,89.9605356 101.085271,89.9605356 C98.6610289,89.9605356 96.6990839,89.1374207 95.0754052,87.4122622 C93.5306554,85.8111346 92.7413672,83.7702607 92.7413672,81.5489782 C92.7526427,79.3389711 93.6095842,77.2868217 95.1768851,75.7195208 L95.1768851,75.7195208 Z M101.130374,85.5179704 C103.205074,85.5179704 104.88513,83.7702607 104.88513,81.6053559 C104.88513,79.4178999 103.193798,77.6701903 101.130374,77.6701903 C99.0669486,77.6701903 97.3756166,79.4178999 97.3756166,81.6053559 C97.3643411,83.7702607 99.0894996,85.5179704 101.130374,85.5179704 L101.130374,85.5179704 Z M44.2903453,89.5207893 L48.9471459,89.5207893 L48.9471459,67.4996476 L44.2903453,68.4693446 L44.2903453,89.5207893 Z M37.1980268,73.6222692 L41.8435518,73.6222692 L41.8435518,89.5207893 L37.1980268,89.5207893 L37.1980268,73.6222692 Z M39.5207893,71.8069063 C41.0962993,71.8069063 42.3735025,70.5297031 42.3735025,68.9541931 C42.3735025,67.3786831 41.0962993,66.1014799 39.5207893,66.1014799 C37.9452793,66.1014799 36.6680761,67.3786831 36.6680761,68.9541931 C36.6680761,70.5297031 37.9452793,71.8069063 39.5207893,71.8069063 Z M58.6102889,82.8794926 L55.6222692,73.6222692 L50.435518,73.6222692 L56.2649753,88.5398168 L54.0098661,94.6624383 L58.7117689,94.6624383 L67.0105708,73.6222692 L61.9816772,73.6222692 L58.6102889,82.8794926 Z M15.8421424,81.503876 C15.8421424,79.7448908 16.2706131,78.098661 17.0824524,76.63284 L17.0824524,67.4545455 L12.4031008,68.4242424 L12.4031008,75.3474278 C11.3319239,73.9830867 9.85482734,73.329105 7.9379845,73.329105 C5.91966173,73.329105 4.11557435,74.0732911 2.6384778,75.516561 C0.980972516,77.1176885 0.0902043693,79.1585624 0.0902043693,81.4362227 C0.0902043693,83.9281184 1.03735025,86.0591966 2.87526427,87.6828753 C4.26215645,88.9231853 5.91966173,89.5433404 7.84778013,89.5433404 C9.74207188,89.5433404 11.1627907,89.0359408 12.5496829,87.6828753 L12.5496829,89.4644116 L17.0824524,89.4644116 L17.0824524,86.4538407 C16.2706131,84.9880197 15.8421424,83.3192389 15.8421424,81.503876 L15.8421424,81.503876 Z M8.88513037,85.3262861 C6.48343904,85.3262861 4.76955603,83.6349542 4.76955603,81.4136716 C4.76955603,79.2825934 6.48343904,77.478506 8.70472163,77.478506 C10.8921776,77.478506 12.5835095,79.192389 12.5835095,81.4700493 C12.5947851,83.6687808 10.9034531,85.3262861 8.88513037,85.3262861 L8.88513037,85.3262861 Z M91.8618746,77.1176885 C91.6589147,76.2720226 91.3319239,75.5954898 90.8245243,75.0091614 C89.9450317,73.9718111 88.6934461,73.4869626 87.1937984,73.3629316 C85.9760395,73.2614517 84.9274137,73.4193094 83.9126145,73.94926 C82.8188865,74.5243129 81.5785765,75.8773784 81.5785765,75.8773784 C81.5785765,75.8773784 80.3382664,73.329105 77.2487667,73.329105 C75.0725863,73.329105 73.7307963,74.2536998 72.8400282,75.7533474 L72.8400282,73.6222692 L68.6116984,73.6222692 L68.6116984,89.5207893 L73.0542636,89.5207893 L73.0542636,81.154334 C73.0542636,79.4178999 73.4601832,77.6814658 75.8167724,77.6814658 C77.8463707,77.6814658 78.0042283,79.3389711 78.0042283,80.7033122 L78.0042283,89.5207893 L82.5933756,89.5207893 L82.5933756,81.0979563 C82.5933756,78.4143763 83.7660324,77.6814658 85.36716,77.6814658 C86.6638478,77.6814658 87.5320648,78.2677942 87.5320648,80.7033122 L87.5320648,89.5207893 L92.0873855,89.5207893 L92.0873855,86.4876674 C91.2755462,84.9992953 90.8470754,83.3192389 90.8470754,81.5264271 C90.8470754,79.9704017 91.2078929,78.4707541 91.8618746,77.1176885 L91.8618746,77.1176885 Z M117.1642,67.4996476 L112.428471,68.4693446 L112.428471,73.701198 L110.421424,73.701198 L110.421424,78.3016209 L112.428471,78.3016209 L112.428471,89.5207893 L117.1642,89.5207893 L117.1642,78.3016209 L119.272727,78.3016209 L119.272727,73.701198 L117.1642,73.701198 L117.1642,67.4996476 Z M123.647639,71.8069063 C125.223149,71.8069063 126.500352,70.5297031 126.500352,68.9541931 C126.500352,67.3786831 125.223149,66.1014799 123.647639,66.1014799 C122.072129,66.1014799 120.794926,67.3786831 120.794926,68.9541931 C120.794926,70.5297031 122.072129,71.8069063 123.647639,71.8069063 Z M125.970402,77.4897815 L125.970402,73.6222692 L121.324877,73.6222692 L121.324877,89.5207893 L125.970402,89.5207893 L125.970402,85.7322058 C125.406624,84.4467935 125.11346,83.0486258 125.11346,81.5602537 C125.11346,80.1282593 125.4179,78.7526427 125.970402,77.4897815 Z M154.486258,73.3178295 C152.389006,73.3178295 150.900634,74.1522199 149.930937,75.7420719 L149.987315,73.6109937 L145.54475,73.6109937 L145.54475,89.5095137 L150.133897,89.5095137 L150.133897,80.8949965 C150.133897,78.7639183 151.11487,77.6701903 152.941508,77.6701903 C154.745595,77.6701903 155.219168,78.6737139 155.219168,80.8949965 L155.219168,89.5095137 L159.89852,89.5095137 L159.89852,79.0345314 C159.909796,75.39253 157.778717,73.3178295 154.486258,73.3178295 L154.486258,73.3178295 Z M30.2184637,87.739253 C28.8315715,89.1035941 27.4108527,89.5997181 25.516561,89.5997181 C23.5884426,89.5997181 21.9309373,88.9795631 20.5440451,87.739253 C18.7061311,86.1155743 17.7589852,83.9844961 17.7589852,81.4926004 C17.7589852,79.2149401 18.6497533,77.1740662 20.3072586,75.5729387 C21.7843552,74.1183932 23.5884426,73.3854827 25.6067653,73.3854827 C27.5348837,73.3854827 29.0119803,74.0394644 30.0718816,75.4038055 L30.0718816,73.6222692 L34.7512333,73.6222692 L34.7512333,89.5207893 L30.2184637,89.5207893 L30.2184637,87.739253 Z M26.5426357,85.3713883 C28.5609584,85.3713883 30.2410148,83.713883 30.2410148,81.5264271 C30.2410148,79.2487667 28.5496829,77.5348837 26.3622269,77.5348837 C24.1409443,77.5348837 22.4270613,79.3389711 22.4270613,81.4700493 C22.4270613,83.6800564 24.1522199,85.3713883 26.5426357,85.3713883 L26.5426357,85.3713883 Z" id="logo"></path>
        </g>
    </g>
</svg>