<?xml version="1.0" encoding="utf-8"?>
<!-- Generator: Adobe Illustrator 17.0.0, SVG Export Plug-In . SVG Version: 6.00 Build 0)  -->
<!DOCTYPE svg PUBLIC "-//W3C//DTD SVG 1.1//EN" "http://www.w3.org/Graphics/SVG/1.1/DTD/svg11.dtd">
<svg version="1.1" id="Dailymotion_x5F_Logo" xmlns="http://www.w3.org/2000/svg" xmlns:xlink="http://www.w3.org/1999/xlink"
	 x="0px" y="0px" width="118px" height="20px" viewBox="-0.951 0 118 20" enable-background="new -0.951 0 118 20"
	 xml:space="preserve">
<path fill="#FFFFFF" d="M30.21,0c-0.332,0-0.616,0.12-0.856,0.354c-0.238,0.233-0.359,0.517-0.359,0.847
	c0,0.326,0.121,0.602,0.359,0.84c0.24,0.232,0.523,0.352,0.856,0.352c0.338,0,0.626-0.12,0.867-0.352
	c0.238-0.238,0.356-0.514,0.356-0.84c0-0.331-0.119-0.614-0.356-0.847C30.836,0.12,30.548,0,30.21,0 M8.034,1.21
	C7.015,0.847,5.38,0.664,3.124,0.664H0v15.218h4.796c1.878,0,3.338-0.276,4.379-0.826c1.042-0.55,1.889-1.407,2.542-2.565
	c0.653-1.161,0.979-2.5,0.979-4.025c0-1.766-0.412-3.288-1.236-4.563C10.637,2.626,9.496,1.73,8.034,1.21 M10.195,12.046
	c-0.647,0.97-1.54,1.639-2.671,2.009c-0.804,0.264-2.249,0.392-4.329,0.392H1.454V2.172h1.065c2.164,0,3.717,0.144,4.658,0.433
	c1.255,0.386,2.234,1.097,2.938,2.139c0.7,1.039,1.053,2.289,1.053,3.759C11.167,9.898,10.843,11.08,10.195,12.046 M33.664,15.882
	h1.419V0.294h-1.419V15.882z M25.015,6.703c-0.561-0.787-1.209-1.379-1.951-1.771c-0.741-0.395-1.57-0.593-2.483-0.593
	c-1.584,0-2.939,0.577-4.065,1.73c-1.126,1.152-1.69,2.538-1.69,4.158c0,1.66,0.559,3.061,1.674,4.22
	c1.116,1.155,2.462,1.729,4.04,1.729c0.887,0,1.705-0.186,2.452-0.56c0.745-0.371,1.42-0.927,2.021-1.668v1.934h1.416V4.635h-1.416
	v2.068H25.015z M24.523,12.629c-0.38,0.683-0.921,1.224-1.619,1.623c-0.702,0.4-1.443,0.602-2.225,0.602
	c-0.775,0-1.501-0.202-2.179-0.608c-0.674-0.404-1.214-0.966-1.615-1.689c-0.4-0.727-0.602-1.485-0.602-2.277
	c0-0.799,0.2-1.557,0.597-2.277c0.399-0.718,0.934-1.274,1.608-1.673c0.672-0.395,1.408-0.593,2.202-0.593
	c1.239,0,2.28,0.437,3.126,1.313c0.847,0.875,1.271,1.966,1.271,3.271C25.086,11.174,24.898,11.945,24.523,12.629 M29.505,15.882
	h1.419V4.635h-1.419V15.882z M86.932,15.882h2.716l1.504-11.247h-2.715L86.932,15.882z M101.341,5.272
	c-0.79-0.449-1.67-0.675-2.64-0.675c-0.096,0-0.187,0.007-0.281,0.012h-6.342l-0.353,2.397h2.089
	c-0.897,1.112-1.351,2.447-1.351,4.006c0,1.529,0.461,2.762,1.382,3.71c0.922,0.945,2.159,1.418,3.704,1.418
	c1.783,0,3.28-0.6,4.488-1.801c1.211-1.2,1.81-2.654,1.81-4.363c0-1.029-0.218-1.959-0.657-2.785
	C102.749,6.363,102.134,5.722,101.341,5.272 M100.284,12.498c-0.58,0.762-1.431,1.139-2.542,1.139c-0.779,0-1.41-0.247-1.882-0.747
	c-0.47-0.497-0.703-1.159-0.703-1.976c0-0.92,0.286-1.772,0.862-2.561c0.577-0.788,1.405-1.182,2.482-1.182
	c0.784,0,1.425,0.251,1.918,0.755c0.494,0.499,0.739,1.157,0.739,1.963C101.157,10.866,100.865,11.736,100.284,12.498 M91.492,0.542
	c-0.335-0.337-0.73-0.503-1.196-0.503c-0.462,0-0.862,0.166-1.195,0.503c-0.332,0.334-0.496,0.735-0.496,1.205
	c0,0.471,0.164,0.873,0.496,1.21c0.333,0.332,0.733,0.501,1.195,0.501c0.466,0,0.862-0.168,1.196-0.501
	c0.327-0.337,0.496-0.739,0.496-1.21C91.988,1.278,91.819,0.877,91.492,0.542 M115.168,5.265c-0.615-0.616-1.406-0.926-2.373-0.926
	c-1.132,0-2.225,0.475-3.27,1.427l0.149-1.13h-2.714l-1.506,11.247h2.715l0.527-3.986c0.207-1.563,0.433-2.635,0.68-3.202
	c0.248-0.57,0.602-1.015,1.067-1.338c0.46-0.318,0.919-0.479,1.381-0.479c0.475,0,0.838,0.124,1.1,0.369
	c0.258,0.247,0.384,0.596,0.384,1.052c0,0.32-0.039,0.798-0.122,1.433l-0.825,6.152h2.718l0.841-6.309
	c0.12-0.875,0.176-1.532,0.176-1.974C116.098,6.661,115.791,5.883,115.168,5.265 M85.756,0.443h-2.714L82.48,4.635h-1.345
	l-0.313,2.389h1.34l-1.184,8.858h2.715l1.183-8.858h1.722l0.33-2.389h-1.731L85.756,0.443z M62.635,4.339
	c-0.742,0-1.459,0.174-2.144,0.52C59.8,5.205,59.202,5.71,58.693,6.373c-0.192-0.479-0.42-0.851-0.691-1.118
	c-0.269-0.269-0.619-0.485-1.049-0.658c-0.433-0.17-0.897-0.259-1.395-0.259c-1.225,0-2.332,0.505-3.316,1.522l0.164-1.225H49.69
	l-1.509,11.247H50.9l0.626-4.862c0.143-1.091,0.344-1.898,0.603-2.43c0.257-0.527,0.615-0.945,1.078-1.253
	c0.464-0.308,0.914-0.461,1.352-0.461c0.458,0,0.829,0.146,1.111,0.433c0.28,0.289,0.42,0.678,0.42,1.172
	c0,0.353-0.033,0.78-0.104,1.282l-0.818,6.119h2.718l0.567-4.259c0.173-1.366,0.381-2.331,0.63-2.891
	c0.251-0.562,0.612-1.01,1.088-1.349c0.471-0.335,0.941-0.507,1.406-0.507c0.475,0,0.846,0.141,1.107,0.418
	c0.265,0.283,0.395,0.692,0.395,1.231c0,0.26-0.05,0.784-0.156,1.578l-0.77,5.779h2.714l0.901-6.717
	c0.065-0.566,0.104-1.04,0.104-1.42c0-1.007-0.308-1.826-0.919-2.459C64.337,4.656,63.567,4.339,62.635,4.339 M42.212,13.281
	l-3.826-8.646h-1.509l4.585,10.368L39.3,20h1.504l6.658-15.365h-1.507L42.212,13.281z M74.262,4.597
	c-1.663,0-3.118,0.607-4.368,1.826c-1.246,1.219-1.867,2.748-1.867,4.59c0,1.529,0.458,2.762,1.378,3.71
	c0.919,0.945,2.156,1.418,3.706,1.418c1.784,0,3.28-0.6,4.488-1.801c1.21-1.2,1.811-2.654,1.811-4.363
	c0-1.029-0.22-1.959-0.659-2.785c-0.034-0.064-0.075-0.123-0.107-0.183h1.327l0.302-2.398h-5.627
	C74.515,4.603,74.389,4.597,74.262,4.597 M76.72,9.89c0,0.976-0.291,1.847-0.873,2.609c-0.584,0.762-1.433,1.139-2.542,1.139
	c-0.785,0-1.412-0.247-1.882-0.747c-0.471-0.497-0.708-1.159-0.708-1.976c0-0.92,0.289-1.772,0.863-2.561
	c0.579-0.788,1.405-1.182,2.487-1.182c0.781,0,1.419,0.251,1.913,0.755C76.474,8.426,76.72,9.083,76.72,9.89"/>
</svg>
