<?xml version="1.0" encoding="UTF-8" standalone="no"?>
<svg width="120px" height="120px" viewBox="0 0 120 120" version="1.1" xmlns="http://www.w3.org/2000/svg" xmlns:xlink="http://www.w3.org/1999/xlink" xmlns:sketch="http://www.bohemiancoding.com/sketch/ns">
    <!-- Generator: Sketch 3.0.3 (7891) - http://www.bohemiancoding.com/sketch -->
    <title>daimler</title>
    <desc>Created with Sketch.</desc>
    <defs></defs>
    <g id="Page-1" stroke="none" stroke-width="1" fill="none" fill-rule="evenodd" sketch:type="MSPage">
        <g id="daimler" sketch:type="MSArtboardGroup" fill="#FFFFFF">
            <g id="Group" sketch:type="MSLayerGroup" transform="translate(0.000000, 53.000000)">
                <path d="M13.9956,7.9836 C13.9956,3.8376 11.8368,1.4196 7.6908,1.4196 L5.4672,1.4196 L5.4672,12.2796 C5.4672,13.5972 5.9424,13.812 7.95,13.812 C11.6424,13.812 13.9956,12.6252 13.9956,7.9836 L13.9956,7.9836 Z M1.5816,1.2684 L0.5448,1.2684 C0.3936,0.3396 0.48,0.1464 3.5892,0.1464 L7.9728,0.1464 C14.19,0.1464 16.8888,2.9532 16.8888,7.5732 C16.8888,12.0216 14.3412,15 8.166,15 L0.0492,15 C-0.0168,14.784 -0.0168,14.4384 0.0492,14.1588 C2.3592,14.028 2.7696,13.8768 2.7696,12.4308 L2.7696,2.2392 C2.7696,1.398 2.5524,1.2684 1.5816,1.2684 L1.5816,1.2684 Z" id="Fill-1" sketch:type="MSShapeGroup"></path>
                <path d="M27.8568,8.8896 L25.5036,3.276 L23.2584,8.8896 L27.8568,8.8896 L27.8568,8.8896 Z M27.2964,0.2964 C27.3612,0.7728 27.5112,1.1388 27.8568,1.8948 L32.8452,13.2732 C33.0828,13.8348 33.3204,14.028 34.4208,14.028 L34.9176,14.028 C35.0472,14.6544 34.9176,15 34.356,15 L27.3612,15 C27.2964,14.784 27.2964,14.4384 27.3612,14.1588 C29.7144,14.0928 29.952,13.8984 29.7144,13.338 L28.3536,10.0776 L22.7832,10.0776 L21.8988,12.4308 C21.402,13.7052 21.402,14.028 22.5888,14.028 L24.4464,14.028 C24.5976,14.6544 24.4464,15 23.9064,15 L17.7312,15 C17.6664,14.784 17.6664,14.4384 17.7312,14.1588 C19.3944,13.9416 19.5876,13.812 20.172,12.4308 L24.4464,2.3052 C25.158,0.642 25.4388,0.2964 26.454,0.2964 L27.2964,0.2964 L27.2964,0.2964 Z" id="Fill-4" sketch:type="MSShapeGroup"></path>
                <path d="M43.446,0.5772 C43.5108,0.7728 43.5108,1.2036 43.446,1.4196 C41.568,1.5492 41.286,1.9596 41.286,2.8668 L41.286,13.122 C41.286,13.8768 41.5032,14.028 42.4092,14.028 L43.5744,14.028 C43.7268,14.6544 43.662,15 43.014,15 L36.45,15 C36.3648,14.784 36.3648,14.4384 36.45,14.1588 C38.178,13.8768 38.5872,13.662 38.5872,12.7752 L38.5872,2.4564 C38.5872,1.6776 38.394,1.5492 37.4004,1.5492 L36.3648,1.5492 C36.234,0.9876 36.3648,0.5772 37.2708,0.5772 L43.446,0.5772" id="Fill-5" sketch:type="MSShapeGroup"></path>
                <path d="M68.3184,0.5772 C68.4048,0.858 68.4048,1.1388 68.3184,1.4196 C66.3108,1.5492 66.18,1.8948 66.246,2.5212 L67.2816,13.0572 C67.3464,13.7484 67.692,13.812 69.3552,14.028 C69.42,14.6544 69.3552,15 68.7504,15 L61.128,15 C61.0428,14.7192 61.0428,14.4384 61.128,14.1588 L62.2956,14.0928 C64.1088,13.9848 64.4112,13.7484 64.302,12.69 L63.3312,3.276 L58.1496,14.1588 C57.7608,14.9352 57.588,15.0648 57.0912,15.0648 L51.132,3.276 L50.4408,12.9708 C50.3772,13.812 50.3772,14.028 52.6656,14.028 L53.8308,14.028 C53.982,14.6544 53.8956,15 53.2908,15 L46.2096,15 C46.1448,14.7192 46.1448,14.4384 46.2096,14.1588 C48.5844,14.028 48.7788,13.5972 48.8436,12.69 L49.728,2.5428 C49.794,1.8516 49.6644,1.614 47.526,1.5492 C47.3964,1.0524 47.526,0.5772 48.4332,0.5772 L52.7952,0.5772 L58.2144,10.9632 L63.2016,0.5772 L68.3184,0.5772" id="Fill-6" sketch:type="MSShapeGroup"></path>
                <path d="M80.2356,0.5772 C80.3016,0.7728 80.3016,1.2036 80.2356,1.4196 C77.97,1.5492 77.538,1.7436 77.538,3.1464 L77.538,12.69 C77.538,13.4016 77.9052,13.5972 78.51,13.5972 L79.8912,13.5972 C81.4896,13.5972 81.7044,13.488 82.6116,11.5452 L83.2164,10.2072 C83.8428,10.1856 84.1656,10.4448 83.928,11.1144 C83.4744,12.4092 83.0856,13.662 82.806,15 L72.27,15 C72.2256,14.7192 72.2052,14.4384 72.27,14.1588 C74.364,14.028 74.8392,13.7484 74.8392,12.3444 L74.8392,2.4564 C74.8392,1.6776 74.5584,1.5492 73.6512,1.5492 L72.6156,1.5492 C72.486,0.9876 72.6156,0.5772 73.5228,0.5772 L80.2356,0.5772" id="Fill-7" sketch:type="MSShapeGroup"></path>
                <path d="M97.7904,0.5772 C97.854,1.5492 97.9824,2.5644 98.1348,3.492 C98.2428,4.1628 97.9824,4.5288 97.2936,4.464 L97.0128,3.492 C96.6444,2.1744 96.192,1.8288 95.004,1.8288 L91.5504,1.8288 L91.5504,7.3788 L93.8172,7.3788 C94.4652,7.3788 94.5936,7.1628 94.6596,6.6012 L94.8108,5.5008 L95.07,5.5008 C95.5008,5.5008 95.7384,5.652 95.6952,6.3204 C95.6292,7.6812 95.6292,9.1716 95.6952,10.5744 C95.5008,10.6608 95.178,10.6812 94.9404,10.5744 C94.6596,8.8896 94.3776,8.6964 93.8172,8.6964 L91.5504,8.6964 L91.5504,12.4956 C91.5504,13.2732 91.7436,13.5972 93.2136,13.5972 L95.07,13.5972 C96.6672,13.5972 96.8832,13.488 97.7904,11.5452 L98.394,10.2072 C99.0204,10.1856 99.324,10.4664 99.1068,11.1144 C98.6748,12.3444 98.2644,13.662 97.9824,15 L86.0664,15 C85.9788,14.7192 85.9788,14.4384 86.0664,14.1588 C88.3548,14.028 88.7652,13.8768 88.7652,12.4308 L88.7652,2.4564 C88.7652,1.6776 88.5708,1.5492 87.5988,1.5492 L86.5632,1.5492 C86.4756,0.9876 86.5632,0.5772 87.5136,0.5772 L97.7904,0.5772" id="Fill-8" sketch:type="MSShapeGroup"></path>
                <path d="M108.0444,8.76 C110.1816,8.76 111.9096,8.4144 111.9096,5.5008 C111.9096,2.5848 110.1816,1.6776 107.7432,1.6776 L107.0088,1.6776 L107.0088,8.76 L108.0444,8.76 L108.0444,8.76 Z M103.1232,1.5492 L102.0864,1.5492 C101.934,0.9876 102.0864,0.5772 102.9708,0.5136 C104.0076,0.426 105.3036,0.426 108.3252,0.426 C112.4712,0.426 114.7596,2.3916 114.7596,5.3484 C114.7596,7.1628 113.6364,8.6316 111.8448,9.3864 C111.8448,9.3864 113.4648,10.8756 114.2844,11.5452 C117.1344,13.8348 118.0848,14.028 119.9628,14.028 C120.1584,14.784 119.6184,15.3456 117.3288,15.3456 C115.3212,15.3456 114.0048,14.9136 112.4064,13.5312 C111.6936,12.906 110.9172,12.042 110.3556,11.0484 C109.8156,10.0776 109.7724,10.0128 108.4548,10.0128 L107.0088,10.0128 L107.0088,13.1856 C107.0088,13.812 107.2032,14.028 108.3252,14.028 L109.4268,14.028 C109.4904,14.6544 109.4268,15 108.8004,15 L102,15 C101.9568,14.7636 101.934,14.4384 102,14.1588 C103.8768,14.028 104.3112,13.812 104.3112,12.4956 L104.3112,2.5212 C104.3112,1.6776 104.0076,1.5492 103.1232,1.5492 L103.1232,1.5492 Z" id="Fill-10" sketch:type="MSShapeGroup"></path>
            </g>
        </g>
    </g>
</svg>