<?xml version="1.0" encoding="UTF-8" standalone="no"?>
<svg width="120px" height="120px" viewBox="0 0 120 120" version="1.1" xmlns="http://www.w3.org/2000/svg" xmlns:xlink="http://www.w3.org/1999/xlink" xmlns:sketch="http://www.bohemiancoding.com/sketch/ns">
    <!-- Generator: Sketch 3.0.3 (7891) - http://www.bohemiancoding.com/sketch -->
    <title>deezer</title>
    <desc>Created with Sketch.</desc>
    <defs></defs>
    <g id="Page-1" stroke="none" stroke-width="1" fill="none" fill-rule="evenodd" sketch:type="MSPage">
        <g id="deezer" sketch:type="MSArtboardGroup" fill="#FFFFFF">
            <g id="Imported-Layers" sketch:type="MSLayerGroup" transform="translate(0.000000, 46.000000)">
                <path d="M-0.157297297,24.94464 L7.73081081,24.94464 L7.73081081,27.42096 L-0.157297297,27.42096 L-0.157297297,24.94464 Z" id="Fill-1" sketch:type="MSShapeGroup"></path>
                <path d="M-0.157297297,21.72576 L7.73081081,21.72576 L7.73081081,24.20208 L-0.157297297,24.20208 L-0.157297297,21.72576 Z" id="Fill-2" sketch:type="MSShapeGroup"></path>
                <path d="M-0.157297297,18.50688 L7.73081081,18.50688 L7.73081081,20.9832 L-0.157297297,20.9832 L-0.157297297,18.50688 Z" id="Fill-3" sketch:type="MSShapeGroup"></path>
                <path d="M-0.157297297,15.288 L7.73081081,15.288 L7.73081081,17.76376 L-0.157297297,17.76376 L-0.157297297,15.288 Z" id="Fill-4" sketch:type="MSShapeGroup"></path>
                <path d="M-0.157297297,12.06856 L7.73081081,12.06856 L7.73081081,14.54432 L-0.157297297,14.54432 L-0.157297297,12.06856 Z" id="Fill-5" sketch:type="MSShapeGroup"></path>
                <path d="M8.68702703,24.94464 L16.5751351,24.94464 L16.5751351,27.42096 L8.68702703,27.42096 L8.68702703,24.94464 Z" id="Fill-6" sketch:type="MSShapeGroup"></path>
                <path d="M8.68702703,21.72576 L16.5751351,21.72576 L16.5751351,24.20208 L8.68702703,24.20208 L8.68702703,21.72576 Z" id="Fill-7" sketch:type="MSShapeGroup"></path>
                <path d="M8.68702703,18.50688 L16.5751351,18.50688 L16.5751351,20.9832 L8.68702703,20.9832 L8.68702703,18.50688 Z" id="Fill-8" sketch:type="MSShapeGroup"></path>
                <path d="M17.5308108,24.94464 L25.4189189,24.94464 L25.4189189,27.42096 L17.5308108,27.42096 L17.5308108,24.94464 Z" id="Fill-9" sketch:type="MSShapeGroup"></path>
                <path d="M17.5308108,21.72576 L25.4189189,21.72576 L25.4189189,24.20208 L17.5308108,24.20208 L17.5308108,21.72576 Z" id="Fill-10" sketch:type="MSShapeGroup"></path>
                <path d="M17.5308108,18.50688 L25.4189189,18.50688 L25.4189189,20.9832 L17.5308108,20.9832 L17.5308108,18.50688 Z" id="Fill-11" sketch:type="MSShapeGroup"></path>
                <path d="M17.5308108,15.288 L25.4189189,15.288 L25.4189189,17.76376 L17.5308108,17.76376 L17.5308108,15.288 Z" id="Fill-12" sketch:type="MSShapeGroup"></path>
                <path d="M17.5308108,12.06856 L25.4189189,12.06856 L25.4189189,14.54432 L17.5308108,14.54432 L17.5308108,12.06856 Z" id="Fill-13" sketch:type="MSShapeGroup"></path>
                <path d="M17.5308108,8.84856 L25.4189189,8.84856 L25.4189189,11.32544 L17.5308108,11.32544 L17.5308108,8.84856 Z" id="Fill-14" sketch:type="MSShapeGroup"></path>
                <path d="M17.5308108,5.62968 L25.4189189,5.62968 L25.4189189,8.10656 L17.5308108,8.10656 L17.5308108,5.62968 Z" id="Fill-15" sketch:type="MSShapeGroup"></path>
                <path d="M26.3751351,24.94464 L34.2632432,24.94464 L34.2632432,27.42096 L26.3751351,27.42096 L26.3751351,24.94464 Z" id="Fill-16" sketch:type="MSShapeGroup"></path>
                <path d="M26.3751351,21.72576 L34.2632432,21.72576 L34.2632432,24.20208 L26.3751351,24.20208 L26.3751351,21.72576 Z" id="Fill-17" sketch:type="MSShapeGroup"></path>
                <path d="M26.3751351,18.50688 L34.2632432,18.50688 L34.2632432,20.9832 L26.3751351,20.9832 L26.3751351,18.50688 Z" id="Fill-18" sketch:type="MSShapeGroup"></path>
                <path d="M26.3751351,15.288 L34.2632432,15.288 L34.2632432,17.76376 L26.3751351,17.76376 L26.3751351,15.288 Z" id="Fill-19" sketch:type="MSShapeGroup"></path>
                <path d="M26.3751351,12.06856 L34.2632432,12.06856 L34.2632432,14.54432 L26.3751351,14.54432 L26.3751351,12.06856 Z" id="Fill-20" sketch:type="MSShapeGroup"></path>
                <path d="M35.2194595,24.94464 L43.1081081,24.94464 L43.1081081,27.42096 L35.2194595,27.42096 L35.2194595,24.94464 Z" id="Fill-21" sketch:type="MSShapeGroup"></path>
                <path d="M35.2194595,21.72576 L43.1081081,21.72576 L43.1081081,24.20208 L35.2194595,24.20208 L35.2194595,21.72576 Z" id="Fill-22" sketch:type="MSShapeGroup"></path>
                <path d="M35.2194595,18.50576 L43.1081081,18.50576 L43.1081081,20.98264 L35.2194595,20.98264 L35.2194595,18.50576 Z" id="Fill-23" sketch:type="MSShapeGroup"></path>
                <path d="M35.2194595,15.28688 L43.1081081,15.28688 L43.1081081,17.76376 L35.2194595,17.76376 L35.2194595,15.28688 Z" id="Fill-24" sketch:type="MSShapeGroup"></path>
                <path d="M35.2194595,12.06744 L43.1081081,12.06744 L43.1081081,14.54432 L35.2194595,14.54432 L35.2194595,12.06744 Z" id="Fill-25" sketch:type="MSShapeGroup"></path>
                <path d="M35.2194595,8.84856 L43.1081081,8.84856 L43.1081081,11.32432 L35.2194595,11.32432 L35.2194595,8.84856 Z" id="Fill-26" sketch:type="MSShapeGroup"></path>
                <path d="M35.2194595,5.62856 L43.1081081,5.62856 L43.1081081,8.10432 L35.2194595,8.10432 L35.2194595,5.62856 Z" id="Fill-27" sketch:type="MSShapeGroup"></path>
                <path d="M35.2194595,2.40912 L43.1081081,2.40912 L43.1081081,4.88544 L35.2194595,4.88544 L35.2194595,2.40912 Z" id="Fill-28" sketch:type="MSShapeGroup"></path>
                <path d="M49.7989189,24.2228 L51.6513514,24.2228 C54.3713514,24.2228 54.8172973,22.73768 54.8172973,18.01632 L54.8172973,8.57584 C54.8172973,4.50072 54.48,3.13096 51.3583784,3.13096 L49.7989189,3.13096 L49.7989189,24.2228 L49.7989189,24.2228 Z M46.2145946,-0.06664 L52.1286486,-0.06664 C58.0821622,-0.06664 58.6443243,2.0916 58.6443243,10.08728 L58.6443243,18.2588 C58.6443243,25.30192 57.2767568,27.42096 51.4724324,27.42096 L46.2145946,27.42096 L46.2145946,-0.06664 L46.2145946,-0.06664 Z" id="Fill-29" sketch:type="MSShapeGroup"></path>
                <path d="M60.0772973,-0.06664 L70.1167568,-0.06664 L70.1167568,3.20096 L63.6627027,3.20096 L63.6627027,11.81992 L69.6383784,11.81992 L69.6383784,15.03992 L63.6627027,15.03992 L63.6627027,24.15616 L70.1167568,24.15616 L70.1167568,27.42096 L60.0772973,27.42096 L60.0772973,-0.06664" id="Fill-30" sketch:type="MSShapeGroup"></path>
                <path d="M71.5508108,-0.06664 L81.5897297,-0.06664 L81.5897297,3.20096 L75.1362162,3.20096 L75.1362162,11.81992 L81.1124324,11.81992 L81.1124324,15.03992 L75.1362162,15.03992 L75.1362162,24.15616 L81.5897297,24.15616 L81.5897297,27.42096 L71.5508108,27.42096 L71.5508108,-0.06664" id="Fill-31" sketch:type="MSShapeGroup"></path>
                <path d="M96.1697297,-0.06664 L106.209189,-0.06664 L106.209189,3.20096 L99.7545946,3.20096 L99.7545946,11.81992 L105.731351,11.81992 L105.731351,15.03992 L99.7545946,15.03992 L99.7545946,24.15616 L106.209189,24.15616 L106.209189,27.42096 L96.1697297,27.42096 L96.1697297,-0.06664" id="Fill-32" sketch:type="MSShapeGroup"></path>
                <path d="M83.0237838,24.2032 L91.2843243,3.15392 L83.0237838,3.15392 L83.0237838,-0.06496 L94.7356757,-0.06496 L94.7356757,3.15392 L86.6172973,24.2032 L94.7356757,24.2032 L94.7356757,27.42264 L83.0237838,27.42096 L83.0237838,24.2032" id="Fill-33" sketch:type="MSShapeGroup"></path>
                <path d="M111.229189,12.068 L112.341081,12.068 C115.244324,12.068 115.687568,11.69672 115.687568,7.58576 C115.687568,3.51176 115.335135,3.15224 113.058919,3.15224 L111.229189,3.15224 L111.229189,12.068 L111.229189,12.068 Z M107.643784,-0.06496 L113.38,-0.06496 C118.745946,-0.06496 119.121622,1.35128 119.121622,7.36624 C119.121622,11.05832 118.785405,12.8632 115.771351,13.81464 C118.26973,14.08064 119.126486,15.43248 119.126486,18.01968 L119.126486,23.99656 C119.126486,24.98776 119.132973,26.27856 119.357297,27.42096 L115.771351,27.42096 C115.402703,26.73496 115.534595,26.06016 115.534595,24.95528 L115.534595,18.75104 C115.534595,16.1616 115.06,15.53552 112.634054,15.53552 L111.229189,15.53552 L111.229189,27.42264 L107.643784,27.42096 L107.643784,-0.06496 L107.643784,-0.06496 Z" id="Fill-34" sketch:type="MSShapeGroup"></path>
            </g>
        </g>
    </g>
</svg>