<?xml version="1.0" encoding="utf-8"?>
<!-- Generator: Adobe Illustrator 17.0.0, SVG Export Plug-In . SVG Version: 6.00 Build 0)  -->
<!DOCTYPE svg PUBLIC "-//W3C//DTD SVG 1.1//EN" "http://www.w3.org/Graphics/SVG/1.1/DTD/svg11.dtd">
<svg version="1.1" id="Layer_1" xmlns="http://www.w3.org/2000/svg" xmlns:xlink="http://www.w3.org/1999/xlink" x="0px" y="0px"
	 width="42px" height="40px" viewBox="78.999 80 42 40" enable-background="new 78.999 80 42 40" xml:space="preserve">
<g id="Layer_2">
</g>
<path fill="#FFFFFF" d="M100.751,120c-4.894,0-9.369-1.788-12.829-4.747l-8.515,1.163l3.289-8.119
	c-1.146-2.529-1.789-5.336-1.789-8.297c0-11.045,8.884-20,19.843-20c10.958,0,19.841,8.955,19.841,20
	C120.593,111.047,111.71,120,100.751,120z M111.586,99.943v-0.056c0-5.772-4.07-9.887-11.087-9.887H92.92v20h7.467
	C107.458,110.001,111.586,105.714,111.586,99.943L111.586,99.943z M100.582,105.087h-2.217V94.916h2.217
	c3.256,0,5.417,1.856,5.417,5.058v0.056C105.999,103.258,103.838,105.087,100.582,105.087z"/>
</svg>
