<?xml version="1.0" encoding="utf-8"?>
<!-- Generator: Adobe Illustrator 16.0.0, SVG Export Plug-In . SVG Version: 6.00 Build 0)  -->
<!DOCTYPE svg PUBLIC "-//W3C//DTD SVG 1.1//EN" "http://www.w3.org/Graphics/SVG/1.1/DTD/svg11.dtd">
<svg version="1.1" id="Calque_1" xmlns="http://www.w3.org/2000/svg" xmlns:xlink="http://www.w3.org/1999/xlink" x="0px" y="0px"
	 width="40px" height="40px" viewBox="0 0 40 40" enable-background="new 0 0 40 40" xml:space="preserve">
<path fill="#FFFFFF" d="M20,40C8.972,40,0,31.027,0,20C0,8.972,8.972,0,20,0s20,8.972,20,20C40,31.027,31.028,40,20,40z
	 M36.867,22.737c-0.585-0.185-5.288-1.587-10.642-0.73c2.234,6.14,3.144,11.141,3.319,12.18
	C33.377,31.596,36.105,27.49,36.867,22.737z M26.673,35.751c-0.254-1.499-1.246-6.723-3.645-12.955
	c-0.037,0.013-0.075,0.025-0.112,0.038C13.28,26.192,9.821,32.874,9.514,33.502c2.896,2.259,6.537,3.606,10.486,3.606
	C22.366,37.108,24.622,36.625,26.673,35.751z M7.308,31.448c0.387-0.663,5.076-8.426,13.885-11.273
	c0.224-0.071,0.448-0.14,0.674-0.203c-0.429-0.971-0.896-1.941-1.385-2.899c-8.531,2.554-16.81,2.447-17.557,2.432
	c-0.005,0.174-0.009,0.348-0.009,0.521C2.917,24.413,4.58,28.419,7.308,31.448z M3.277,16.527c0.764,0.01,7.802,0.04,15.793-2.082
	c-2.831-5.031-5.883-9.262-6.334-9.88C7.958,6.82,4.385,11.226,3.277,16.527z M15.997,3.418c0.472,0.632,3.575,4.857,6.375,10
	c6.074-2.276,8.646-5.733,8.953-6.171C28.308,4.571,24.341,2.942,20,2.942C18.622,2.942,17.281,3.108,15.997,3.418z M33.224,9.223
	c-0.36,0.487-3.223,4.157-9.539,6.736c0.397,0.813,0.778,1.641,1.133,2.474c0.126,0.296,0.248,0.59,0.368,0.882
	c5.685-0.715,11.332,0.431,11.896,0.55C37.043,15.832,35.603,12.13,33.224,9.223z"/>
<g>
</g>
<g>
</g>
<g>
</g>
<g>
</g>
<g>
</g>
<g>
</g>
<g>
</g>
<g>
</g>
<g>
</g>
<g>
</g>
<g>
</g>
<g>
</g>
<g>
</g>
<g>
</g>
<g>
</g>
</svg>
