<?xml version="1.0" encoding="UTF-8" standalone="no"?>
<svg width="120px" height="120px" viewBox="0 0 120 120" version="1.1" xmlns="http://www.w3.org/2000/svg" xmlns:xlink="http://www.w3.org/1999/xlink" xmlns:sketch="http://www.bohemiancoding.com/sketch/ns">
    <!-- Generator: Sketch 3.1.1 (8761) - http://www.bohemiancoding.com/sketch -->
    <title>drupal</title>
    <desc>Created with Sketch.</desc>
    <defs></defs>
    <g id="Page-1" stroke="none" stroke-width="1" fill="none" fill-rule="evenodd" sketch:type="MSPage">
        <g id="drupal" sketch:type="MSArtboardGroup" fill="#FFFFFF">
            <g id="Group" sketch:type="MSLayerGroup" transform="translate(0.000000, 45.000000)">
                <path d="M56.2628816,5.80526667 L51.2198003,5.80526667 L51.2281883,15.2985 C51.2281883,18.0728278 50.0459914,20.3172278 47.2882168,20.3172278 C44.5295863,20.3172278 43.3364337,18.0728278 43.3364337,15.2985 L43.3364337,5.81456667 L38.3063623,5.81456667 L38.3049929,15.2985 C38.3049929,20.7806778 41.8077603,25.2238389 47.2575749,25.2238389 C52.7061912,25.2238389 56.2611698,20.7806778 56.2611698,15.2985 L56.2628816,5.80526667" id="Fill-3" sketch:type="MSShapeGroup"></path>
                <path d="M101.73689,0.0211833333 L106.755321,0.0211833333 L106.755321,24.7340389 L101.73689,24.7340389 L101.73689,0.0211833333 Z" id="Fill-4" sketch:type="MSShapeGroup"></path>
                <path d="M110.460086,0.932411111 L110.460086,0.0446055556 L114.370956,0.0446055556 L114.370956,0.932411111 L112.940713,0.932411111 L112.940713,4.84547222 L111.891355,4.84547222 L111.891355,0.932411111 L110.460086,0.932411111" id="Fill-5" sketch:type="MSShapeGroup"></path>
                <path d="M116.395549,0.0446055556 L117.512011,3.34558889 L117.525364,3.34558889 L118.580713,0.0446055556 L120.058716,0.0446055556 L120.058716,4.84547222 L119.076291,4.84547222 L119.076291,1.44287778 L119.062425,1.44287778 L117.893067,4.84547222 L117.084051,4.84547222 L115.914864,1.47646111 L115.901512,1.47646111 L115.901512,4.84547222 L114.918916,4.84547222 L114.918916,0.0446055556 L116.395549,0.0446055556" id="Fill-6" sketch:type="MSShapeGroup"></path>
                <path d="M34.2044508,5.59894444 C29.8786305,4.59454444 27.1499572,8.91801111 27.0364622,9.14999444 C26.9808274,9.26366111 26.9787732,9.32996667 26.7870471,9.32497222 C26.628873,9.32152778 26.6107275,9.14999444 26.6107275,9.14999444 L26.0738944,5.84281111 L21.578602,5.84281111 L21.578602,24.7176778 L26.6175749,24.7176778 L26.6175749,14.5009389 C26.6175749,13.6660056 28.8523823,9.66304444 33.1819686,10.69345 C35.3717546,11.2145944 36.300428,12.1494167 36.300428,12.1494167 L36.300428,6.39943333 C35.4900428,5.97438889 34.9342083,5.76841111 34.2044508,5.59894444" id="Fill-7" sketch:type="MSShapeGroup"></path>
                <path d="M67.9855635,10.3817278 C70.7630243,10.3817278 73.013923,12.6469667 73.013923,15.4390333 C73.013923,18.2336833 70.7630243,20.49875 67.9855635,20.49875 C65.2087874,20.49875 62.9584023,18.2336833 62.9584023,15.4390333 C62.9584023,12.6469667 65.2087874,10.3817278 67.9855635,10.3817278 L67.9855635,10.3817278 Z M63.1009986,30.9345556 L63.1009986,24.1431444 C63.1015121,24.1431444 63.102368,24.1436611 63.1027104,24.1441778 L63.1035663,21.6009722 C63.1035663,21.6009722 63.111612,21.3974056 63.2937518,21.3949944 C63.4563766,21.3932722 63.4926676,21.5016 63.5323823,21.6009722 C63.9142939,22.5574944 66.0157489,26.2013722 70.6788017,25.0583333 C74.8531241,23.8753389 77.9147504,20.0187667 77.9147504,15.4390333 C77.9147504,9.92103333 73.4673894,5.44635556 67.9814551,5.44635556 C62.4955207,5.44635556 58.0485021,9.92103333 58.0485021,15.4390333 L58.0485021,30.9345556 L63.1009986,30.9345556 L63.1009986,30.9345556 Z" id="Fill-8" sketch:type="MSShapeGroup"></path>
                <path d="M94.7902425,15.4390333 C94.7902425,18.2336833 92.5391726,20.49875 89.7627389,20.49875 C86.9857917,20.49875 84.7342083,18.2336833 84.7342083,15.4390333 C84.7342083,12.6469667 86.9857917,10.3817278 89.7627389,10.3817278 C92.5391726,10.3817278 94.7902425,12.6469667 94.7902425,15.4390333 L94.7902425,15.4390333 Z M94.6471327,24.7261167 L99.6998003,24.7261167 L99.6998003,15.4390333 C99.6998003,9.92103333 95.2532953,5.44635556 89.7670185,5.44635556 C84.2805706,5.44635556 79.8333809,9.92103333 79.8333809,15.4390333 C79.8333809,20.0187667 82.8951783,23.8753389 87.0696719,25.0583333 C91.733067,26.2013722 93.8336662,22.5574944 94.2160913,21.6009722 C94.2556348,21.5016 94.2914123,21.3932722 94.4545506,21.3949944 C94.6368616,21.3974056 94.6443937,21.6009722 94.6443937,21.6009722 L94.6471327,24.7261167 Z" id="Fill-9" sketch:type="MSShapeGroup"></path>
                <path d="M7.16148359,4.28781667 L5.13517832,4.28781667 L5.13517832,20.4052333 L7.2160913,20.4589667 C11.4835378,20.4589667 14.2322397,20.0681944 14.2322397,12.3486778 C14.2322397,4.94570556 11.805535,4.28781667 7.16148359,4.28781667 L7.16148359,4.28781667 Z M5.79303852,24.6866778 L0.0609415121,24.6866778 L0.0609415121,0.0106777778 L6.21124108,0.0106777778 C13.6587732,0.0106777778 19.3073324,1.38535556 19.3073324,12.3486778 C19.3073324,23.2060833 13.3241084,24.6866778 5.79303852,24.6866778 L5.79303852,24.6866778 Z" id="Fill-10" sketch:type="MSShapeGroup"></path>
            </g>
        </g>
    </g>
</svg>