<?xml version="1.0" encoding="UTF-8" standalone="no"?>
<svg width="160px" height="160px" viewBox="0 0 160 160" version="1.1" xmlns="http://www.w3.org/2000/svg" xmlns:xlink="http://www.w3.org/1999/xlink">
    <!-- Generator: Sketch 3.6.1 (26313) - http://www.bohemiancoding.com/sketch -->
    <title>duolingo</title>
    <desc>Created with Sketch.</desc>
    <defs></defs>
    <g id="Page-1" stroke="none" stroke-width="1" fill="none" fill-rule="evenodd">
        <g id="duolingo" fill="#FFFFFF">
            <path d="M59.7354497,81.8373333 C58.6408466,82.9801905 57.2728042,83.551619 55.6262434,83.551619 C53.978836,83.551619 52.6192593,82.9844233 51.5449735,81.8568042 C50.472381,80.7266455 49.9339683,79.2502434 49.9339683,77.4267513 C49.9339683,77.4199788 49.9356614,77.4140529 49.9356614,77.408127 C49.9407407,75.6455873 50.4833862,74.1971217 51.5661376,73.0661164 C52.6514286,71.9291852 54.0110053,71.3611429 55.6440212,71.3611429 C57.3168254,71.3611429 58.6899471,71.9232593 59.7625397,73.0457989 C60.8325926,74.1649524 61.3684656,75.6184974 61.3743915,77.408127 C61.3743915,77.4140529 61.3752381,77.4199788 61.3752381,77.4267513 C61.3752381,79.2256931 60.8292063,80.6927831 59.7354497,81.8373333 L59.7354497,81.8373333 Z M65.2059259,71.9181799 C64.2315344,70.2250582 62.8728042,68.8832593 61.1331217,67.8944762 C59.3934392,66.9073862 57.5343915,66.4113016 55.557672,66.4113016 C52.824127,66.4113016 50.4055026,67.3619894 48.2984127,69.2625185 C45.9077249,71.4356402 44.7089947,74.1505608 44.698836,77.408127 C44.698836,77.4199788 44.6971429,77.4335238 44.6971429,77.4462222 C44.6971429,80.5014603 45.7621164,83.098709 47.885291,85.234582 C50.0093122,87.3729947 52.573545,88.4413545 55.5771429,88.4413545 C57.6198942,88.4413545 59.4857143,87.9571217 61.1813757,86.9878095 C62.8761905,86.0201905 64.2162963,84.6733122 65.1949206,82.9547937 C66.1786243,81.2337354 66.6696296,79.3865397 66.6696296,77.408127 C66.6696296,75.4432593 66.1820106,73.6129947 65.2059259,71.9181799 L65.2059259,71.9181799 Z M15.0395767,81.8373333 C13.9449735,82.9801905 12.5760847,83.551619 10.9303704,83.551619 C9.28296296,83.551619 7.92338624,82.9844233 6.84910053,81.8568042 C5.77650794,80.7266455 5.2389418,79.2502434 5.2389418,77.4267513 C5.2389418,77.4199788 5.23978836,77.4140529 5.23978836,77.408127 L5.23809524,77.408127 C5.2431746,75.6455873 5.78328042,74.1971217 6.86772487,73.0661164 C7.95301587,71.9291852 9.31428571,71.3611429 10.946455,71.3611429 C12.6184127,71.3611429 13.9915344,71.9232593 15.0649735,73.0457989 C16.1341799,74.1649524 16.6708995,75.6184974 16.6751323,77.408127 C16.6751323,77.4140529 16.6785185,77.4199788 16.6785185,77.4267513 C16.6785185,79.2256931 16.1316402,80.6927831 15.0395767,81.8373333 L15.0395767,81.8373333 Z M21.9508995,59.8513016 L16.6937566,59.8513016 L16.6937566,68.0637884 C16.6048677,68.0113016 16.5269841,67.946963 16.4364021,67.8944762 C14.695873,66.9073862 12.837672,66.4113016 10.8609524,66.4113016 C8.12571429,66.4113016 5.70539683,67.3619894 3.6,69.2625185 C1.20761905,71.4356402 0.0105820106,74.1505608 -0.000423280423,77.408127 L0.00296296296,77.408127 C0.00296296296,77.4199788 0.00126984127,77.4335238 0.00126984127,77.4462222 C0.00126984127,80.5014603 1.06285714,83.098709 3.18772487,85.234582 C5.31343915,87.3729947 7.87767196,88.4413545 10.8795767,88.4413545 C12.922328,88.4413545 14.7898413,87.9571217 16.4838095,86.9878095 C18.1786243,86.0201905 19.5187302,84.6733122 20.4998942,82.9547937 C21.3591534,81.4479153 21.8425397,79.8453757 21.9508995,78.1446349 L21.9508995,78.1420952 C21.9661376,77.8991323 21.9729101,77.6544762 21.9729101,77.408127 C21.9729101,77.178709 21.965291,76.9526772 21.9508995,76.7283386 L21.9508995,59.8513016 Z M37.5775661,77.2151111 C37.5775661,77.2819894 37.5767196,77.3420952 37.5767196,77.408127 C37.5674074,79.2731005 37.4590476,80.504 37.2491005,81.0847407 C36.9536508,81.8932063 36.4990476,82.506963 35.8869841,82.925164 C35.2766138,83.341672 34.5324868,83.551619 33.6579894,83.551619 C32.7826455,83.551619 32.0469841,83.3399788 31.4493122,82.9150053 C30.8491005,82.4908783 30.4156614,81.8982857 30.1456085,81.1338413 C29.8907937,80.4201905 29.7587302,79.1723598 29.7434921,77.408127 C29.7417989,77.2862222 29.7392593,77.1693968 29.7392593,77.0424127 L29.7392593,66.9514074 L24.4253968,66.9514074 L24.4253968,75.6752169 C24.4253968,76.2915132 24.4338624,76.8612487 24.448254,77.408127 C24.5100529,79.8284444 24.706455,81.5698201 25.0425397,82.6068571 C25.6173545,84.4438942 26.6171429,85.8737354 28.0351323,86.9014603 C29.4539683,87.9291852 31.3113228,88.4413545 33.610582,88.4413545 C35.7286772,88.4413545 37.4759788,88.002836 38.848254,87.1232593 C40.2205291,86.2445291 41.2609524,84.9823069 41.9678307,83.3399788 C42.4562963,82.1962751 42.7382011,80.2127831 42.8118519,77.408127 C42.8245503,76.9052698 42.834709,76.386328 42.834709,75.8284444 L42.834709,66.9514074 L37.5775661,66.9514074 L37.5775661,77.2151111 Z M134.183534,72.0011429 C133.210836,70.2970159 131.885122,68.9636825 130.203852,68.0045291 C128.525122,67.0436825 126.673693,66.562836 124.651259,66.562836 C121.673058,66.562836 119.132529,67.621037 117.027132,69.7408254 C114.921735,71.8580741 113.868614,74.431619 113.868614,77.4606138 C113.877079,80.7266455 115.065651,83.4161693 117.435175,85.5706667 C119.521947,87.4542646 121.920254,88.3947937 124.628402,88.3947937 C126.589884,88.3947937 128.431153,87.9054815 130.154751,86.925164 C130.244487,86.8735238 130.321524,86.8117249 130.411259,86.7583915 L130.411259,89.1380741 C130.407026,90.911619 129.836444,92.3609312 128.77655,93.4707725 C127.711577,94.5831534 126.350307,95.1393439 124.696127,95.1393439 C123.106286,95.1393439 121.777185,94.5933122 120.711365,93.5071746 L117.326815,97.1329947 C117.358138,97.1617778 117.383534,97.1931005 117.413164,97.221037 C119.499937,99.1046349 121.89909,100.045164 124.608085,100.045164 C126.569566,100.045164 128.411683,99.5558519 130.134434,98.5755344 C131.858032,97.5960635 133.201524,96.2661164 134.171683,94.5873862 C135.138455,92.906963 135.621841,91.0953228 135.621841,89.1473862 L135.621841,78.1717249 C135.633693,77.9490794 135.641312,77.7255873 135.641312,77.4978624 C135.643852,77.2540529 135.637079,77.0110899 135.621841,76.7715132 C135.514328,75.0817778 135.035175,73.4944762 134.183534,72.0011429 Z M130.394328,77.4978624 L130.391788,77.4978624 C130.389249,79.2714074 129.857608,80.7114074 128.797714,81.8204021 C127.731894,82.9336296 126.374011,83.4889735 124.715598,83.4889735 C123.096127,83.4889735 121.750095,82.9268571 120.672423,81.8009312 C119.599831,80.6817778 119.062265,79.245164 119.058032,77.4978624 L119.058878,77.4978624 C119.058878,77.4910899 119.058032,77.4860106 119.058032,77.4792381 C119.058032,75.6726772 119.590519,74.2098201 120.656339,73.0889735 C121.718772,71.9698201 123.06819,71.4093968 124.699513,71.4093968 C126.329143,71.4093968 127.687026,71.975746 128.770624,73.1084444 C129.853376,74.2411429 130.396021,75.6972275 130.396021,77.4792381 C130.396021,77.4860106 130.394328,77.4910899 130.394328,77.4978624 Z M157.954116,72.0976508 C156.970413,70.3782857 155.632,69.0331005 153.938878,68.0637884 C152.245757,67.0944762 150.37655,66.6110899 148.335492,66.6110899 C145.331894,66.6110899 142.766815,67.6769101 140.641947,69.8170159 C138.516233,71.9528889 137.454646,74.5509841 137.454646,77.6062222 L137.454646,77.6426243 C137.465651,80.9018836 138.665228,83.6168042 141.055915,85.7899259 C143.159619,87.690455 145.580783,88.6402963 148.314328,88.6402963 C150.291894,88.6402963 152.151788,88.1450582 153.894011,87.1579683 C155.631153,86.1674921 156.986497,84.8256931 157.963429,83.1317249 C158.94036,81.4377566 159.427979,79.6083386 159.427979,77.6426243 C159.427979,75.6667513 158.936974,73.8178624 157.954116,72.0976508 Z M154.128508,77.6426243 C154.125122,79.4331005 153.590095,80.8866455 152.521735,82.0057989 C151.446603,83.1283386 150.072635,83.6896085 148.403217,83.6896085 C146.771048,83.6896085 145.408931,83.1224127 144.321101,81.9854815 C143.241735,80.8553228 142.697397,79.4068571 142.694011,77.6426243 C142.694011,77.637545 142.692317,77.631619 142.692317,77.624 C142.692317,75.8022011 143.229884,74.3257989 144.304169,73.1947937 C145.379302,72.0654815 146.738032,71.501672 148.383746,71.501672 C150.030307,71.501672 151.399196,72.072254 152.492952,73.2151111 C153.585862,74.3571217 154.134434,75.8267513 154.134434,77.624 C154.134434,77.631619 154.128508,77.637545 154.128508,77.6426243 Z M87.5033228,60.2102434 C85.9498836,60.2102434 84.6902011,61.4707725 84.6902011,63.0242116 C84.6902011,64.5768042 85.9498836,65.8373333 87.5033228,65.8373333 C89.0567619,65.8373333 90.317291,64.5768042 90.317291,63.0242116 C90.317291,61.4707725 89.0567619,60.2102434 87.5033228,60.2102434 Z M111.087661,71.7133122 C110.379937,70.0684444 109.342053,68.8079153 107.968931,67.9283386 C106.594116,67.0496085 104.848508,66.6110899 102.730413,66.6110899 C100.432,66.6110899 98.5737989,67.1232593 97.1566561,68.1501376 C95.7378201,69.1770159 94.7380317,70.6085503 94.1615238,72.4455873 C93.8262857,73.4826243 93.6281905,75.2223069 93.5672381,77.6426243 C93.5536931,78.1911958 93.5452275,78.7600847 93.5452275,79.3772275 L93.5452275,88.1001905 L98.8573968,88.1001905 L98.8573968,78.0083386 C98.8573968,77.8830476 98.8616296,77.7653757 98.8616296,77.6426243 C98.880254,75.8792381 99.0123175,74.6314074 99.2645926,73.9177566 C99.5354921,73.1550053 99.9706243,72.559873 100.568296,72.1365926 C101.166815,71.7133122 101.90163,71.501672 102.778667,71.501672 C103.654857,71.501672 104.397291,71.7082328 105.007661,72.1264339 C105.618878,72.5446349 106.072635,73.1583915 106.368931,73.965164 C106.579725,74.549291 106.687238,75.7793439 106.695704,77.6426243 C106.695704,77.7086561 106.698243,77.7679153 106.698243,77.8373333 L106.698243,88.1001905 L111.955386,88.1001905 L111.955386,79.2214603 C111.955386,78.6661164 111.946921,78.1471746 111.931683,77.6426243 C111.858032,74.8396614 111.57782,72.8561693 111.087661,71.7133122 Z M75.8995132,82.5831534 C75.2874497,82.1666455 74.8336931,81.5537354 74.5399365,80.7452698 C74.3266032,80.162836 74.2199365,78.9302434 74.2106243,77.066963 L74.2106243,59.8462222 L68.9534815,59.8462222 L68.9534815,75.488127 C68.9534815,76.0434709 68.9611005,76.5632593 68.9763386,77.066963 C69.0499894,79.871619 69.3285079,81.8542646 69.8203598,82.9988148 C70.5272381,84.6419894 71.5676614,85.9025185 72.9382434,86.7829418 C74.3113651,87.661672 76.0586667,88.1001905 78.1750688,88.1001905 L82.2351746,88.1001905 L82.2351746,83.2096085 L78.1293545,83.2096085 C77.2540106,83.2096085 76.5098836,83.0013545 75.8995132,82.5831534 Z M85.0008889,88.0688677 L90.317291,88.0688677 L90.317291,67.8072804 L85.0008889,67.8072804 L85.0008889,88.0688677 Z" id="Combined-Shape"></path>
        </g>
    </g>
</svg>