<?xml version="1.0" encoding="utf-8"?>
<!-- Generator: Adobe Illustrator 17.0.0, SVG Export Plug-In . SVG Version: 6.00 Build 0)  -->
<!DOCTYPE svg PUBLIC "-//W3C//DTD SVG 1.1//EN" "http://www.w3.org/Graphics/SVG/1.1/DTD/svg11.dtd">
<svg version="1.1" id="Calque_1" xmlns="http://www.w3.org/2000/svg" xmlns:xlink="http://www.w3.org/1999/xlink" x="0px" y="0px"
	 width="40px" height="40px" viewBox="0 0 40 40" enable-background="new 0 0 40 40" xml:space="preserve">
<g>
	<path fill="#FFFFFF" d="M5.842,13.28c-4.481,5.662-4.654,13.355-0.968,19.114c3.313-8.509,7.488-18.081,12.629-26.628
		C12.675,7.807,8.17,10.342,5.842,13.28z M37.711,1.436c-0.053-0.447-0.284-0.821-0.616-1.071c-0.318-0.266-0.738-0.405-1.182-0.354
		c0,0-1.323,0.285-3.427,0.823c-10.048,9.65-18.294,22.579-24.683,34.994c0.238,0.206,0.479,0.414,0.73,0.612
		c7.143,5.651,17.509,4.442,23.16-2.691C38.202,25.521,37.711,1.436,37.711,1.436z"/>
</g>
</svg>
