<?xml version="1.0" encoding="utf-8"?>
<!-- Generator: Adobe Illustrator 17.0.0, SVG Export Plug-In . SVG Version: 6.00 Build 0)  -->
<!DOCTYPE svg PUBLIC "-//W3C//DTD SVG 1.1//EN" "http://www.w3.org/Graphics/SVG/1.1/DTD/svg11.dtd">
<svg version="1.1" id="Calque_1" xmlns="http://www.w3.org/2000/svg" xmlns:xlink="http://www.w3.org/1999/xlink" x="0px" y="0px"
	 width="34px" height="40px" viewBox="-0.267 0 34 40" enable-background="new -0.267 0 34 40" xml:space="preserve">
<path fill="#FFFFFF" d="M3.343,7.747c0,0,0,0,0.002,0h3.754c0.215,0,0.388-0.175,0.389-0.389c0-0.001-0.046-3.219-0.046-4.114V3.235
	c0-0.735,0.154-1.376,0.423-1.912l0.128-0.241C7.979,1.083,7.964,1.091,7.95,1.105L0.656,8.338C0.642,8.35,0.633,8.365,0.629,8.381
	c0.151-0.075,0.357-0.177,0.386-0.19C1.65,7.904,2.421,7.747,3.343,7.747z M32.553,6.96c-0.298-1.596-1.247-2.383-2.105-2.692
	c-0.926-0.335-2.803-0.681-5.161-0.959c-1.898-0.223-4.128-0.206-5.475-0.164c-0.162-1.107-0.938-2.119-1.808-2.469
	c-2.316-0.932-5.894-0.707-6.812-0.449c-0.73,0.204-1.538,0.622-1.988,1.266c-0.302,0.43-0.497,0.982-0.498,1.752
	c0,0.436,0.012,1.463,0.023,2.375C8.74,6.535,8.752,7.353,8.752,7.359c0,0.815-0.661,1.478-1.479,1.479H3.518
	c-0.801,0-1.413,0.135-1.88,0.347c-0.468,0.213-0.8,0.499-1.052,0.838C0.085,10.696-0.002,11.527,0,12.375
	c0,0,0.007,0.693,0.174,2.034c0.139,1.038,1.264,8.285,2.333,10.49c0.414,0.858,0.69,1.215,1.504,1.593
	c1.814,0.777,5.957,1.64,7.899,1.888c1.938,0.248,3.155,0.769,3.88-0.751c0.002-0.004,0.145-0.378,0.342-0.927
	c0.629-1.907,0.717-3.6,0.717-4.824c0-0.124,0.183-0.13,0.183,0c0,0.865-0.165,3.924,2.146,4.745
	c0.912,0.324,2.805,0.612,4.728,0.837c1.739,0.2,3.001,0.884,3.001,5.345c0,2.714-0.57,3.086-3.55,3.086
	c-2.416,0-3.337,0.063-3.337-1.857c0-1.551,1.534-1.389,2.671-1.389c0.508,0,0.139-0.378,0.139-1.335
	c0-0.952,0.595-1.502,0.032-1.516c-3.932-0.108-6.245-0.005-6.245,4.913c0,4.464,1.708,5.293,7.289,5.293
	c4.375,0,5.918-0.143,7.724-5.749c0.358-1.107,1.222-4.484,1.745-10.154C33.706,20.512,33.063,9.691,32.553,6.96z M24.926,18.92
	c-0.541-0.019-1.061,0.015-1.545,0.093c0.136-1.102,0.591-2.454,2.203-2.398c1.784,0.061,2.034,1.747,2.04,2.889
	C26.871,19.17,25.94,18.956,24.926,18.92z"/>
</svg>
