<?xml version="1.0" encoding="utf-8"?>
<!-- Generator: Adobe Illustrator 16.0.0, SVG Export Plug-In . SVG Version: 6.00 Build 0)  -->
<!DOCTYPE svg PUBLIC "-//W3C//DTD SVG 1.1//EN" "http://www.w3.org/Graphics/SVG/1.1/DTD/svg11.dtd">
<svg version="1.1" id="Calque_1" xmlns="http://www.w3.org/2000/svg" xmlns:xlink="http://www.w3.org/1999/xlink" x="0px" y="0px"
	 width="40px" height="40px" viewBox="0 0 40 40" enable-background="new 0 0 40 40" xml:space="preserve">
<path fill="#FFFFFF" d="M36.415,0H3.585C2.366,0,0,2.366,0,3.586v32.828C0,37.634,2.366,40,3.585,40H20.68V24.811h-5.511v-5.487
	h5.513v-4.224c0-5.167,3.91-8.234,8.521-8.234c2.207,0,3.368,0.237,3.923,0.311v5.23l-3.909-0.001c-2.507,0-2.975,1.243-2.975,2.991
	v3.927H33.2l-0.908,5.487h-6.051V40h10.174C37.633,40,40,37.634,40,36.414V3.586C40,2.366,37.633,0,36.415,0z"/>
</svg>
