<?xml version="1.0" encoding="UTF-8" standalone="no"?>
<svg width="160px" height="160px" viewBox="0 0 160 160" version="1.1" xmlns="http://www.w3.org/2000/svg" xmlns:xlink="http://www.w3.org/1999/xlink" xmlns:sketch="http://www.bohemiancoding.com/sketch/ns">
    <!-- Generator: Sketch 3.0.3 (7891) - http://www.bohemiancoding.com/sketch -->
    <title>fbtimeline</title>
    <desc>Created with Sketch.</desc>
    <defs></defs>
    <g id="Page-1" stroke="none" stroke-width="1" fill="none" fill-rule="evenodd" sketch:type="MSPage">
        <g id="fbtimeline" sketch:type="MSArtboardGroup" fill="#FFFFFF">
            <g id="facebook-+-Timeline-guide" sketch:type="MSLayerGroup" transform="translate(0.000000, 66.000000)">
                <g id="facebook" sketch:type="MSShapeGroup">
                    <path d="M24.6881356,0 L2.43050847,0 C1.6040678,0 0,1.6562 0,2.5102 L0,25.4898 C0,26.3438 1.6040678,28 2.43050847,28 L14.020339,28 L14.020339,17.3677 L10.2840678,17.3677 L10.2840678,13.5268 L14.0216949,13.5268 L14.0216949,10.57 C14.0216949,6.9531 16.6725424,4.8062 19.7986441,4.8062 C21.2949153,4.8062 22.0820339,4.9721 22.4583051,5.0239 L22.4583051,8.6849 L19.8081356,8.6842 C18.1084746,8.6842 17.7911864,9.5543 17.7911864,10.7779 L17.7911864,13.5268 L22.5084746,13.5268 L21.8928814,17.3677 L17.7905085,17.3677 L17.7905085,28 L24.6881356,28 C25.5138983,28 27.1186441,26.3438 27.1186441,25.4898 L27.1186441,2.5102 C27.1186441,1.6562 25.5138983,0 24.6881356,0 L24.6881356,0 Z" id="Shape"></path>
                </g>
                <path d="M41.1661017,8.5736 L41.1661017,21 L42.9694915,21 L42.9694915,8.5736 L47.4874576,8.5736 L47.4874576,7.0056 L36.6481356,7.0056 L36.6481356,8.5736 L41.1661017,8.5736 Z M50.4298305,9.044 L50.4298305,7.0056 L48.8162712,7.0056 L48.8162712,9.044 L50.4298305,9.044 Z M48.8162712,10.8668 L48.8162712,21 L50.4298305,21 L50.4298305,10.8668 L48.8162712,10.8668 Z M52.9355932,10.8668 L52.9355932,21 L54.5491525,21 L54.5491525,14.6888 C54.5491525,14.492799 54.5966097,14.2478015 54.6915254,13.9538 C54.7864412,13.6597985 54.938304,13.3756014 55.1471186,13.1012 C55.3559332,12.8267986 55.6280209,12.591601 55.9633898,12.3956 C56.2987587,12.199599 56.7005626,12.1016 57.1688136,12.1016 C57.535821,12.1016 57.836383,12.1571328 58.0705085,12.2682 C58.3046339,12.3792672 58.4912987,12.5360657 58.6305085,12.7386 C58.7697182,12.9411343 58.8677963,13.1795986 58.9247458,13.454 C58.9816952,13.7284014 59.0101695,14.0289317 59.0101695,14.3556 L59.0101695,21 L60.6237288,21 L60.6237288,14.6888 C60.6237288,13.9047961 60.8515231,13.2776024 61.3071186,12.8072 C61.7627141,12.3367976 62.3891486,12.1016 63.1864407,12.1016 C63.578759,12.1016 63.8983039,12.1603994 64.1450847,12.278 C64.3918656,12.3956006 64.5848581,12.5556657 64.7240678,12.7582 C64.8632775,12.9607343 64.9581918,13.1991986 65.0088136,13.4736 C65.0594353,13.7480014 65.0847458,14.0419984 65.0847458,14.3556 L65.0847458,21 L66.6983051,21 L66.6983051,13.5716 C66.6983051,13.0489307 66.6192098,12.6014019 66.4610169,12.229 C66.3028241,11.8565981 66.0813574,11.5528012 65.7966102,11.3176 C65.511863,11.0823988 65.1701715,10.9092672 64.7715254,10.7982 C64.3728794,10.6871328 63.9267821,10.6316 63.4332203,10.6316 C62.7877934,10.6316 62.1961609,10.7818652 61.6583051,11.0824 C61.1204493,11.3829348 60.6870073,11.8075973 60.3579661,12.3564 C60.1554792,11.7291969 59.8074601,11.2849346 59.3138983,11.0236 C58.8203365,10.7622654 58.2698335,10.6316 57.6623729,10.6316 C56.282931,10.6316 55.2262184,11.2065276 54.4922034,12.3564 L54.4542373,12.3564 L54.4542373,10.8668 L52.9355932,10.8668 Z M77.499661,17.7856 L75.9050847,17.7856 C75.765875,18.4520033 75.4779683,18.9485317 75.0413559,19.2752 C74.6047436,19.6018683 74.0447492,19.7652 73.3613559,19.7652 C72.8298279,19.7652 72.3679116,19.6737342 71.9755932,19.4908 C71.5832749,19.3078658 71.2605662,19.0628682 71.0074576,18.7558 C70.754349,18.4487318 70.570848,18.0959353 70.4569492,17.6974 C70.3430503,17.2988647 70.2924293,16.8774689 70.3050847,16.4332 L77.6515254,16.4332 C77.6768363,15.8190636 77.6230515,15.1722701 77.4901695,14.4928 C77.3572875,13.8133299 77.1168379,13.1861362 76.7688136,12.6112 C76.4207892,12.0362638 75.9588729,11.5626019 75.3830508,11.1902 C74.8072288,10.8177981 74.0827162,10.6316 73.2094915,10.6316 C72.5387537,10.6316 71.9218107,10.7622654 71.3586441,11.0236 C70.7954774,11.2849346 70.3082506,11.6507976 69.8969492,12.1212 C69.4856477,12.5916024 69.1661028,13.1469301 68.9383051,13.7872 C68.7105073,14.4274699 68.5966102,15.1330628 68.5966102,15.904 C68.621921,16.6749372 68.7326544,17.3870634 68.9288136,18.0404 C69.1249727,18.6937366 69.4192071,19.2555976 69.8115254,19.726 C70.2038438,20.1964024 70.6879067,20.5622654 71.2637288,20.8236 C71.8395509,21.0849346 72.5197701,21.2156 73.3044068,21.2156 C74.4180847,21.2156 75.3419172,20.9281362 76.0759322,20.3532 C76.8099472,19.7782638 77.2845187,18.9224057 77.499661,17.7856 Z M75.9430508,14.9632 L70.3050847,14.9632 C70.3303956,14.571198 70.4126547,14.2020684 70.5518644,13.8558 C70.6910741,13.5095316 70.8809028,13.2057346 71.1213559,12.9444 C71.3618091,12.6830654 71.6497158,12.4772674 71.9850847,12.327 C72.3204537,12.1767326 72.6969471,12.1016 73.1145763,12.1016 C73.51955,12.1016 73.8897158,12.1767326 74.2250847,12.327 C74.5604537,12.4772674 74.8515242,12.6797987 75.0983051,12.9346 C75.345086,13.1894013 75.5412422,13.4931982 75.6867797,13.846 C75.8323171,14.1988018 75.91774,14.571198 75.9430508,14.9632 Z M79.4169492,7.0056 L79.4169492,21 L81.0305085,21 L81.0305085,7.0056 L79.4169492,7.0056 Z M85.2447458,9.044 L85.2447458,7.0056 L83.6311864,7.0056 L83.6311864,9.044 L85.2447458,9.044 Z M83.6311864,10.8668 L83.6311864,21 L85.2447458,21 L85.2447458,10.8668 L83.6311864,10.8668 Z M87.7505085,10.8668 L87.7505085,21 L89.3640678,21 L89.3640678,15.2768 C89.3640678,14.8194644 89.4241802,14.3980686 89.5444068,14.0126 C89.6646334,13.6271314 89.8449705,13.2906681 90.0854237,13.0032 C90.3258769,12.7157319 90.6264389,12.4936008 90.9871186,12.3368 C91.3477984,12.1799992 91.7749128,12.1016 92.2684746,12.1016 C92.8885907,12.1016 93.3758174,12.2845315 93.7301695,12.6504 C94.0845215,13.0162685 94.2616949,13.5127969 94.2616949,14.14 L94.2616949,21 L95.8752542,21 L95.8752542,14.336 C95.8752542,13.7871973 95.8214695,13.2874023 95.7138983,12.8366 C95.6063271,12.3857977 95.4196623,11.9970683 95.1538983,11.6704 C94.8881343,11.3437317 94.5401151,11.0889342 94.1098305,10.906 C93.6795459,10.7230658 93.1416981,10.6316 92.4962712,10.6316 C91.0408967,10.6316 89.9778565,11.2457272 89.3071186,12.474 L89.2691525,12.474 L89.2691525,10.8668 L87.7505085,10.8668 Z M106.67661,17.7856 L105.082034,17.7856 C104.942824,18.4520033 104.654917,18.9485317 104.218305,19.2752 C103.781693,19.6018683 103.221698,19.7652 102.538305,19.7652 C102.006777,19.7652 101.544861,19.6737342 101.152542,19.4908 C100.760224,19.3078658 100.437515,19.0628682 100.184407,18.7558 C99.9312982,18.4487318 99.7477972,18.0959353 99.6338983,17.6974 C99.5199994,17.2988647 99.4693785,16.8774689 99.4820339,16.4332 L106.828475,16.4332 C106.853785,15.8190636 106.800001,15.1722701 106.667119,14.4928 C106.534237,13.8133299 106.293787,13.1861362 105.945763,12.6112 C105.597738,12.0362638 105.135822,11.5626019 104.56,11.1902 C103.984178,10.8177981 103.259665,10.6316 102.386441,10.6316 C101.715703,10.6316 101.09876,10.7622654 100.535593,11.0236 C99.9724266,11.2849346 99.4851998,11.6507976 99.0738983,12.1212 C98.6625968,12.5916024 98.343052,13.1469301 98.1152542,13.7872 C97.8874565,14.4274699 97.7735593,15.1330628 97.7735593,15.904 C97.7988702,16.6749372 97.9096035,17.3870634 98.1057627,18.0404 C98.3019219,18.6937366 98.5961562,19.2555976 98.9884746,19.726 C99.3807929,20.1964024 99.8648559,20.5622654 100.440678,20.8236 C101.0165,21.0849346 101.696719,21.2156 102.481356,21.2156 C103.595034,21.2156 104.518866,20.9281362 105.252881,20.3532 C105.986896,19.7782638 106.461468,18.9224057 106.67661,17.7856 Z M105.12,14.9632 L99.4820339,14.9632 C99.5073448,14.571198 99.5896038,14.2020684 99.7288136,13.8558 C99.8680233,13.5095316 100.057852,13.2057346 100.298305,12.9444 C100.538758,12.6830654 100.826665,12.4772674 101.162034,12.327 C101.497403,12.1767326 101.873896,12.1016 102.291525,12.1016 C102.696499,12.1016 103.066665,12.1767326 103.402034,12.327 C103.737403,12.4772674 104.028473,12.6797987 104.275254,12.9346 C104.522035,13.1894013 104.718191,13.4931982 104.863729,13.846 C105.009266,14.1988018 105.094689,14.571198 105.12,14.9632 Z M122.242712,20.1376 L122.242712,10.8668 L120.724068,10.8668 L120.724068,12.3172 L120.705085,12.3172 C120.41401,11.7553305 120.009042,11.3339347 119.490169,11.053 C118.971297,10.7720653 118.401811,10.6316 117.781695,10.6316 C116.933781,10.6316 116.21876,10.7981983 115.63661,11.1314 C115.05446,11.4646017 114.586216,11.8892641 114.231864,12.4054 C113.877512,12.9215359 113.624408,13.4964635 113.472542,14.1302 C113.320677,14.7639365 113.244746,15.3813303 113.244746,15.9824 C113.244746,16.6749368 113.336496,17.3315302 113.52,17.9522 C113.703504,18.5728698 113.978755,19.115131 114.345763,19.579 C114.71277,20.042869 115.168359,20.4119986 115.712542,20.6864 C116.256726,20.9608014 116.895816,21.098 117.629831,21.098 C118.262602,21.098 118.860562,20.9510015 119.423729,20.657 C119.986895,20.3629985 120.407682,19.9024031 120.686102,19.2752 L120.724068,19.2752 L120.724068,19.9416 C120.724068,20.5034695 120.670283,21.0195976 120.562712,21.49 C120.455141,21.9604024 120.281131,22.3621983 120.040678,22.6954 C119.800225,23.0286017 119.496499,23.2899324 119.129492,23.4794 C118.762484,23.6688676 118.313223,23.7636 117.781695,23.7636 C117.515931,23.7636 117.237516,23.7342003 116.946441,23.6754 C116.655366,23.6165997 116.386442,23.5218673 116.139661,23.3912 C115.89288,23.2605327 115.684069,23.0906677 115.51322,22.8816 C115.342372,22.6725323 115.250622,22.4177348 115.237966,22.1172 L113.624407,22.1172 C113.649718,22.6660027 113.788925,23.1298648 114.042034,23.5088 C114.295143,23.8877352 114.614687,24.1947988 115.000678,24.43 C115.386669,24.6652012 115.816947,24.8350661 116.291525,24.9396 C116.766104,25.0441339 117.231184,25.0964 117.68678,25.0964 C119.256053,25.0964 120.40768,24.6848041 121.141695,23.8616 C121.87571,23.0383959 122.242712,21.797075 122.242712,20.1376 Z M117.724746,19.6476 C117.193218,19.6476 116.750284,19.5332678 116.395932,19.3046 C116.04158,19.0759322 115.756837,18.7754019 115.541695,18.403 C115.326553,18.0305981 115.17469,17.6157356 115.086102,17.1584 C114.997514,16.7010644 114.95322,16.2437356 114.95322,15.7864 C114.95322,15.3029309 115.007005,14.8390689 115.114576,14.3948 C115.222147,13.9505311 115.392993,13.558535 115.627119,13.2188 C115.861244,12.879065 116.161806,12.6079343 116.528814,12.4054 C116.895821,12.2028657 117.338754,12.1016 117.857627,12.1016 C118.363844,12.1016 118.794123,12.2061323 119.148475,12.4152 C119.502827,12.6242677 119.790733,12.9019316 120.012203,13.2482 C120.233673,13.5944684 120.395028,13.9831978 120.496271,14.4144 C120.597515,14.8456022 120.648136,15.2833311 120.648136,15.7276 C120.648136,16.1980024 120.594351,16.6683976 120.48678,17.1388 C120.379209,17.6092024 120.211527,18.0305981 119.983729,18.403 C119.755931,18.7754019 119.455369,19.0759322 119.082034,19.3046 C118.708699,19.5332678 118.256274,19.6476 117.724746,19.6476 Z M132.797288,21 L132.797288,10.8668 L131.183729,10.8668 L131.183729,16.59 C131.183729,17.0473356 131.123616,17.4687314 131.00339,17.8542 C130.883163,18.2396686 130.702826,18.5761319 130.462373,18.8636 C130.22192,19.1510681 129.921358,19.3731992 129.560678,19.53 C129.199998,19.6868008 128.772884,19.7652 128.279322,19.7652 C127.659206,19.7652 127.171979,19.5822685 126.817627,19.2164 C126.463275,18.8505315 126.286102,18.3540031 126.286102,17.7268 L126.286102,10.8668 L124.672542,10.8668 L124.672542,17.5308 C124.672542,18.0796027 124.726327,18.5793977 124.833898,19.0302 C124.941469,19.4810023 125.128134,19.8697317 125.393898,20.1964 C125.659662,20.5230683 126.007681,20.7745991 126.437966,20.951 C126.868251,21.1274009 127.406098,21.2156 128.051525,21.2156 C128.772885,21.2156 129.399319,21.0686015 129.930847,20.7746 C130.462376,20.4805985 130.898981,20.0200031 131.240678,19.3928 L131.278644,19.3928 L131.278644,21 L132.797288,21 Z M136.935593,9.044 L136.935593,7.0056 L135.322034,7.0056 L135.322034,9.044 L136.935593,9.044 Z M135.322034,10.8668 L135.322034,21 L136.935593,21 L136.935593,10.8668 L135.322034,10.8668 Z M148.211525,21 L148.211525,7.0056 L146.597966,7.0056 L146.597966,12.2192 L146.56,12.2192 C146.382824,11.9186652 146.164521,11.6671343 145.905085,11.4646 C145.645648,11.2620657 145.370397,11.098734 145.079322,10.9746 C144.788247,10.850466 144.497177,10.7622669 144.206102,10.71 C143.915027,10.6577331 143.642939,10.6316 143.389831,10.6316 C142.64316,10.6316 141.988251,10.7720653 141.425085,11.053 C140.861918,11.3339347 140.393674,11.7128643 140.020339,12.1898 C139.647004,12.6667357 139.368588,13.2253301 139.185085,13.8656 C139.001581,14.5058699 138.909831,15.1853297 138.909831,15.904 C138.909831,16.6226703 139.004745,17.3021301 139.194576,17.9424 C139.384408,18.5826699 139.665987,19.1445309 140.039322,19.628 C140.412657,20.1114691 140.880901,20.4969319 141.444068,20.7844 C142.007234,21.0718681 142.668471,21.2156 143.427797,21.2156 C144.11119,21.2156 144.737624,21.0914679 145.307119,20.8432 C145.876613,20.5949321 146.294236,20.1898695 146.56,19.628 L146.597966,19.628 L146.597966,21 L148.211525,21 Z M140.618305,16.0216 C140.618305,15.5250642 140.668926,15.0416024 140.770169,14.5712 C140.871413,14.1007976 141.035931,13.6826685 141.263729,13.3168 C141.491527,12.9509315 141.795252,12.6569344 142.174915,12.4348 C142.554578,12.2126656 143.016494,12.1016 143.560678,12.1016 C144.117517,12.1016 144.592088,12.2093989 144.984407,12.425 C145.376725,12.6406011 145.69627,12.9247982 145.943051,13.2776 C146.189832,13.6304018 146.370169,14.038731 146.484068,14.5026 C146.597967,14.966469 146.654915,15.4466642 146.654915,15.9432 C146.654915,16.4136024 146.60113,16.8774644 146.493559,17.3348 C146.385988,17.7921356 146.211979,18.2004649 145.971525,18.5598 C145.731072,18.9191351 145.421019,19.2098656 145.041356,19.432 C144.661693,19.6541344 144.199777,19.7652 143.655593,19.7652 C143.136721,19.7652 142.684296,19.6606677 142.298305,19.4516 C141.912314,19.2425323 141.595933,18.9616018 141.349153,18.6088 C141.102372,18.2559982 140.918871,17.8542023 140.798644,17.4034 C140.678417,16.9525977 140.618305,16.4920024 140.618305,16.0216 Z M159.069831,17.7856 L157.475254,17.7856 C157.336045,18.4520033 157.048138,18.9485317 156.611525,19.2752 C156.174913,19.6018683 155.614919,19.7652 154.931525,19.7652 C154.399997,19.7652 153.938081,19.6737342 153.545763,19.4908 C153.153444,19.3078658 152.830736,19.0628682 152.577627,18.7558 C152.324519,18.4487318 152.141018,18.0959353 152.027119,17.6974 C151.91322,17.2988647 151.862599,16.8774689 151.875254,16.4332 L159.221695,16.4332 C159.247006,15.8190636 159.193221,15.1722701 159.060339,14.4928 C158.927457,13.8133299 158.687007,13.1861362 158.338983,12.6112 C157.990959,12.0362638 157.529042,11.5626019 156.95322,11.1902 C156.377398,10.8177981 155.652886,10.6316 154.779661,10.6316 C154.108923,10.6316 153.49198,10.7622654 152.928814,11.0236 C152.365647,11.2849346 151.87842,11.6507976 151.467119,12.1212 C151.055817,12.5916024 150.736272,13.1469301 150.508475,13.7872 C150.280677,14.4274699 150.16678,15.1330628 150.16678,15.904 C150.192091,16.6749372 150.302824,17.3870634 150.498983,18.0404 C150.695142,18.6937366 150.989377,19.2555976 151.381695,19.726 C151.774013,20.1964024 152.258076,20.5622654 152.833898,20.8236 C153.40972,21.0849346 154.08994,21.2156 154.874576,21.2156 C155.988254,21.2156 156.912087,20.9281362 157.646102,20.3532 C158.380117,19.7782638 158.854688,18.9224057 159.069831,17.7856 Z M157.51322,14.9632 L151.875254,14.9632 C151.900565,14.571198 151.982824,14.2020684 152.122034,13.8558 C152.261244,13.5095316 152.451072,13.2057346 152.691525,12.9444 C152.931979,12.6830654 153.219885,12.4772674 153.555254,12.327 C153.890623,12.1767326 154.267117,12.1016 154.684746,12.1016 C155.08972,12.1016 155.459885,12.1767326 155.795254,12.327 C156.130623,12.4772674 156.421694,12.6797987 156.668475,12.9346 C156.915255,13.1894013 157.111412,13.4931982 157.256949,13.846 C157.402487,14.1988018 157.487909,14.571198 157.51322,14.9632 Z" id="Timeline-guide" sketch:type="MSShapeGroup"></path>
            </g>
        </g>
    </g>
</svg>