<?xml version="1.0" encoding="UTF-8" standalone="no"?>
<svg width="60px" height="60px" viewBox="0 0 60 60" version="1.1" xmlns="http://www.w3.org/2000/svg" xmlns:xlink="http://www.w3.org/1999/xlink" xmlns:sketch="http://www.bohemiancoding.com/sketch/ns">
    <!-- Generator: Sketch 3.2 (9961) - http://www.bohemiancoding.com/sketch -->
    <title>foursquare</title>
    <desc>Created with Sketch.</desc>
    <defs></defs>
    <g id="Page-1" stroke="none" stroke-width="1" fill="none" fill-rule="evenodd" sketch:type="MSPage">
        <g id="foursquare" sketch:type="MSArtboardGroup" fill="#FFFFFF">
            <path d="M44.6704358,8.66110514 L43.2955305,15.6618217 C43.1312008,16.4186134 42.1560707,17.2146579 41.2516546,17.2146579 L28.4909906,17.2146579 C27.0554159,17.2146579 26.0276521,18.1708533 26.0276521,19.5721742 L26.0276521,21.0987112 C26.0276521,22.5012096 27.0614427,23.4950876 28.4982227,23.4950876 L39.3242961,23.4950876 C40.3379975,23.4950876 41.3332168,24.5812095 41.1138426,25.6386768 C40.8936649,26.6977143 39.8646958,31.9442283 39.7409463,32.5232054 C39.616795,33.1029676 38.937378,34.0933128 37.7320256,34.0933128 L28.8951855,34.0933128 C27.2856382,34.0933128 26.7990777,34.2986044 25.7222962,35.6061113 C24.6451129,36.9144034 14.9621154,48.2745232 14.9621154,48.2745232 C14.8640801,48.3844307 14.7684555,48.352636 14.7684555,48.2325228 L14.7684555,8.55708552 C14.7684555,7.66212428 15.5647916,6.61211493 16.7592958,6.61211493 L43.0456207,6.61211493 C44.0131169,6.61211493 44.9171312,7.50040321 44.6704358,8.66110514 L44.6704358,8.66110514 Z M45.8243598,36.1120785 C46.1899833,34.6671871 50.2917975,14.1525559 51.6614796,7.64406804 L45.8243598,36.1120785 Z M46.6050263,0 L13.8495751,0 C9.3291019,0 8,3.32116975 8,5.41255285 L8,56.2573419 C8,58.6132881 9.2961556,59.4870529 10.0237867,59.7751676 C10.7526231,60.0636749 12.7619455,60.306649 13.9664943,58.9488986 C13.9664943,58.9488986 29.4307637,41.4182565 29.696343,41.1587963 C30.0981271,40.7662694 30.0981271,40.7662694 30.4999113,40.7662694 L40.5051397,40.7662694 C44.7094088,40.7662694 45.3852097,37.837234 45.8243598,36.1120785 C46.1899833,34.6671871 50.2917975,14.1525559 51.6614796,7.64406804 C52.7069219,2.6774257 51.4151859,0 46.6050263,0 L46.6050263,0 Z" id="foursquare-logomark" sketch:type="MSShapeGroup"></path>
        </g>
    </g>
</svg>