<?xml version="1.0" encoding="utf-8"?>
<!-- Generator: Adobe Illustrator 17.0.0, SVG Export Plug-In . SVG Version: 6.00 Build 0)  -->
<!DOCTYPE svg PUBLIC "-//W3C//DTD SVG 1.1//EN" "http://www.w3.org/Graphics/SVG/1.1/DTD/svg11.dtd">
<svg version="1.1" id="Calque_1" xmlns="http://www.w3.org/2000/svg" xmlns:xlink="http://www.w3.org/1999/xlink" x="0px" y="0px"
	 width="42px" height="40px" viewBox="-0.494 0 42 40" enable-background="new -0.494 0 42 40" xml:space="preserve">
<path fill="#FFFFFF" d="M20.506,0C9.183,0,0,9.181,0,20.508c0,9.059,5.876,16.745,14.025,19.457
	c1.025,0.188,1.399-0.444,1.399-0.988c0-0.487-0.018-1.776-0.028-3.488c-5.705,1.239-6.908-2.748-6.908-2.748
	c-0.932-2.369-2.277-3-2.277-3c-1.862-1.272,0.141-1.246,0.141-1.246c2.058,0.145,3.141,2.112,3.141,2.112
	c1.83,3.134,4.799,2.229,5.968,1.704c0.186-1.325,0.716-2.229,1.302-2.741c-4.554-0.518-9.341-2.277-9.341-10.135
	c0-2.239,0.799-4.069,2.111-5.503c-0.21-0.519-0.915-2.604,0.201-5.427c0,0,1.722-0.552,5.639,2.102
	c1.636-0.455,3.39-0.682,5.134-0.69c1.741,0.008,3.496,0.236,5.134,0.69c3.916-2.654,5.634-2.102,5.634-2.102
	c1.12,2.823,0.414,4.908,0.204,5.427c1.312,1.434,2.107,3.264,2.107,5.503c0,7.878-4.794,9.611-9.362,10.118
	c0.736,0.634,1.391,1.886,1.391,3.799c0,2.74-0.024,4.953-0.024,5.625c0,0.548,0.369,1.187,1.411,0.986
	c8.142-2.717,14.01-10.398,14.01-19.455C41.012,9.181,31.832,0,20.506,0z"/>
</svg>
