<?xml version="1.0" encoding="UTF-8" standalone="no"?>
<svg width="120px" height="120px" viewBox="0 0 120 120" version="1.1" xmlns="http://www.w3.org/2000/svg" xmlns:xlink="http://www.w3.org/1999/xlink" xmlns:sketch="http://www.bohemiancoding.com/sketch/ns">
    <!-- Generator: Sketch 3.0.3 (7891) - http://www.bohemiancoding.com/sketch -->
    <title>google</title>
    <desc>Created with Sketch.</desc>
    <defs></defs>
    <g id="Page-1" stroke="none" stroke-width="1" fill="none" fill-rule="evenodd" sketch:type="MSPage">
        <g id="google" sketch:type="MSArtboardGroup" fill="#FFFFFF">
            <g id="Group" sketch:type="MSLayerGroup" transform="translate(1.000000, 39.000000)">
                <path d="M111.636876,16.4588618 C112.415921,16.1607418 112.82669,15.9065707 112.82669,15.3125281 C112.82669,13.6153682 110.98177,11.6625722 108.764325,11.6625722 C107.121957,11.6625722 104.046147,12.9788417 104.046147,17.5619791 C104.046147,18.2834735 104.127593,19.0467193 104.16867,19.8106976 L111.636876,16.4588618 L111.636876,16.4588618 Z M115.493855,29.1036918 C115.042718,29.3585954 114.590164,29.6552505 114.141151,29.8676702 C112.784904,30.5049292 111.391123,30.6741324 110.159524,30.6741324 C108.847187,30.6741324 106.79405,30.5891645 104.702669,29.0194564 C101.78975,26.8974572 100.518491,23.2475014 100.518491,20.0656012 C100.518491,13.4879164 105.687807,10.2627998 109.915187,10.2627998 C111.391123,10.2627998 112.909552,10.6444228 114.141151,11.450885 C116.190746,12.8506574 116.724746,14.6760015 117.010868,15.6523995 L107.369835,19.6832458 L104.210455,19.9388819 C105.236669,25.3277491 108.764325,28.4671653 112.662382,28.4671653 C114.755179,28.4671653 116.273608,27.7039195 117.669515,26.9824251 L115.493855,29.1036918 L115.493855,29.1036918 Z" id="Fill-4" sketch:type="MSShapeGroup"></path>
                <path d="M99.5326451,30.0376059 L92.2705316,30.0376059 C93.213884,28.7652853 93.3781916,28.637101 93.3781916,27.7896198 L93.3781916,20.871331 C93.3781916,17.5619791 93.4199768,12.8506574 93.541791,8.43818815 C93.5828679,6.27370499 93.7478838,3.55766318 93.7875442,1.60559969 L90.5885032,1.60559969 L93.66573,0.0776430507 L99.5326451,0.0776430507 C98.2613857,0.842353852 97.8506167,1.09652497 97.6870173,2.58273016 C97.3591103,5.84886566 97.3180334,11.0260457 97.3180334,17.0521719 L97.3180334,26.8549733 C97.3180334,28.5103817 97.6041553,28.7652853 98.9582767,28.8920046 C99.656584,28.977705 100.354183,29.0194564 101.051074,29.1036918 L99.5326451,30.0376059" id="Fill-5" sketch:type="MSShapeGroup"></path>
                <path d="M84.3526042,23.120782 C85.2945401,22.1451165 85.3774021,20.7863631 85.3774021,20.0231173 C85.3774021,16.967204 83.6139281,12.2141309 80.2066697,12.2141309 C79.1407948,12.2141309 77.9927662,12.766422 77.3355357,13.6153682 C76.6365201,14.5060658 76.4318438,15.6523995 76.4318438,16.7555168 C76.4318438,19.598278 78.0324266,24.3095997 81.5614993,24.3095997 C82.5862973,24.3095997 83.6953737,23.79906 84.3526042,23.120782 L84.3526042,23.120782 Z M83.1613739,31.1832071 C82.8334669,31.1407232 82.6273742,31.1407232 82.2180216,31.1407232 C81.8490376,31.1407232 79.6330094,31.2256911 77.9091959,31.8197336 C77.0076287,32.1596051 74.3808314,33.1777545 74.3808314,36.1911839 C74.3808314,39.2038808 77.212305,41.3676314 81.6025762,41.3676314 C85.5424179,41.3676314 87.633799,39.4163004 87.633799,36.785959 C87.633799,34.6207433 86.281094,33.4751421 83.1613739,31.1832071 L83.1613739,31.1832071 Z M86.0750013,12.3423151 C87.0183536,13.1480449 88.9879204,14.8459373 88.9879204,18.0710538 C88.9879204,21.2112025 87.2641068,22.6959427 85.5424179,24.09718 C85.0084182,24.6480062 84.3929728,25.2435137 84.3929728,26.1759628 C84.3929728,27.1098769 85.0084182,27.6189516 85.4588477,28.0005745 L86.9361998,29.1893922 C88.7428754,30.7583678 90.3824105,32.202089 90.3824105,35.1305505 C90.3824105,39.1189129 86.6486615,43.1504917 79.5912243,43.1504917 C73.6421554,43.1504917 70.7703132,40.2220302 70.7703132,37.0818815 C70.7703132,35.5539249 71.5089892,33.3901742 73.9296937,31.9047015 C76.4736289,30.2925095 79.9205478,30.0800898 81.7661756,29.9533705 C81.1918072,29.1893922 80.5359931,28.3829299 80.5359931,27.067393 C80.5359931,26.3458986 80.7406694,25.9217917 80.9467622,25.4119845 C80.4949162,25.4544684 80.0437785,25.4976849 79.6330094,25.4976849 C75.2838151,25.4976849 72.8220337,22.1451165 72.8220337,18.8342997 C72.8220337,16.8822362 73.6839405,14.7184855 75.448831,13.1480449 C77.7873816,11.1534975 80.5763618,10.8143585 82.79239,10.8143585 L91.243609,10.8143585 L88.6182282,12.3423151 L86.0750013,12.3423151 L86.0750013,12.3423151 Z" id="Fill-6" sketch:type="MSShapeGroup"></path>
                <path d="M65.7645966,27.1523608 C66.749734,25.7943399 66.9954873,24.09718 66.9954873,22.4417716 C66.9954873,18.7075803 65.2723819,11.5783368 60.1838033,11.5783368 C58.8303901,11.5783368 57.4762687,12.1298955 56.4918394,13.0205931 C54.8919648,14.5060658 54.6044265,16.3738939 54.6044265,18.1985056 C54.6044265,22.3992877 56.6150702,29.316844 61.5790016,29.316844 C63.1795845,29.316844 64.8212442,28.5103817 65.7645966,27.1523608 L65.7645966,27.1523608 Z M60.6356493,30.5891645 C54.1122119,30.5891645 50.6242161,25.3277491 50.6242161,20.574676 C50.6242161,15.015873 55.0151955,10.2627998 61.2503864,10.2627998 C67.2830256,10.2627998 71.0585597,15.1425923 71.0585597,20.2780209 C71.0585597,25.2852652 67.3233943,30.5891645 60.6356493,30.5891645 L60.6356493,30.5891645 Z" id="Fill-7" sketch:type="MSShapeGroup"></path>
                <path d="M43.9357628,27.1523608 C44.9209003,25.7943399 45.1666535,24.09718 45.1666535,22.4417716 C45.1666535,18.7075803 43.4435482,11.5783368 38.356386,11.5783368 C37.0022646,11.5783368 35.6481432,12.1298955 34.6630057,13.0205931 C33.0631311,14.5060658 32.7755928,16.3738939 32.7755928,18.1985056 C32.7755928,22.3992877 34.7869446,29.316844 39.7515843,29.316844 C41.3514589,29.316844 42.9924105,28.5103817 43.9357628,27.1523608 L43.9357628,27.1523608 Z M38.8075237,30.5891645 C32.2833781,30.5891645 28.7960906,25.3277491 28.7960906,20.574676 C28.7960906,15.015873 33.1863618,10.2627998 39.4236773,10.2627998 C45.4541919,10.2627998 49.2290178,15.1425923 49.2290178,20.2780209 C49.2290178,25.2852652 45.495977,30.5891645 38.8075237,30.5891645 L38.8075237,30.5891645 Z" id="Fill-8" sketch:type="MSShapeGroup"></path>
                <path d="M26.1877071,29.1080867 L20.686943,30.4206938 C18.4560421,30.7796098 16.4553136,31.0975068 14.339853,31.0975068 C3.72288958,31.0975068 -0.316103307,23.0211645 -0.316103307,16.6954533 C-0.316103307,8.97729462 5.41554134,1.81655439 15.2244229,1.81655439 C17.3016395,1.81655439 19.302368,2.13518389 21.1097518,2.65158343 C23.994342,3.48734495 25.3413812,4.52160898 26.1877071,5.11931398 L22.9950401,8.26166009 L21.6487091,8.5795571 L22.6104753,6.98787456 C21.3023883,5.676 18.9163868,3.24928842 14.3788052,3.24928842 C8.30013156,3.24928842 3.72288958,8.02287108 3.72288958,14.9858413 C3.72288958,22.4644785 8.95523737,29.5058242 17.3398835,29.5058242 C19.8023731,29.5058242 21.0707996,28.9886922 22.2252023,28.5118467 L22.2252023,22.106295 L16.4170696,22.424192 L19.4942963,20.7138475 L27.6494783,20.7138475 L26.6494682,21.70929 C26.3803436,21.9473465 26.3406832,22.0264545 26.2641951,22.345084 C26.2259511,22.7032675 26.1877071,23.8569261 26.1877071,24.2546636 L26.1877071,29.1080867" id="Fill-9" sketch:type="MSShapeGroup"></path>
            </g>
        </g>
    </g>
</svg>