<?xml version="1.0" encoding="UTF-8" standalone="no"?>
<svg width="160px" height="160px" viewBox="0 0 160 160" version="1.1" xmlns="http://www.w3.org/2000/svg" xmlns:xlink="http://www.w3.org/1999/xlink">
    <!-- Generator: Sketch 3.6.1 (26313) - http://www.bohemiancoding.com/sketch -->
    <title>google</title>
    <desc>Created with Sketch.</desc>
    <defs></defs>
    <g id="Page-1" stroke="none" stroke-width="1" fill="none" fill-rule="evenodd">
        <g id="google" fill="#FFFFFF">
            <path d="M68.3792593,81.68 C68.3792593,89.2474074 62.4592593,94.8237037 55.1940741,94.8237037 C47.9288889,94.8237037 42.0088889,89.2474074 42.0088889,81.68 C42.0088889,74.0592593 47.9288889,68.5362963 55.1940741,68.5362963 C62.4592593,68.5362963 68.3792593,74.0592593 68.3792593,81.68 L68.3792593,81.68 Z M62.6074074,81.68 C62.6074074,76.9511111 59.1762963,73.7155556 55.1940741,73.7155556 C51.2118519,73.7155556 47.7807407,76.9511111 47.7807407,81.68 C47.7807407,86.3614815 51.2118519,89.6444444 55.1940741,89.6444444 C59.1762963,89.6444444 62.6074074,86.3555556 62.6074074,81.68 Z M96.8237037,81.68 C96.8237037,89.2474074 90.9037037,94.8237037 83.6385185,94.8237037 C76.3733333,94.8237037 70.4533333,89.2474074 70.4533333,81.68 C70.4533333,74.0651852 76.3733333,68.5362963 83.6385185,68.5362963 C90.9037037,68.5362963 96.8237037,74.0592593 96.8237037,81.68 Z M91.0518519,81.68 C91.0518519,76.9511111 87.6207407,73.7155556 83.6385185,73.7155556 C79.6562963,73.7155556 76.2251852,76.9511111 76.2251852,81.68 C76.2251852,86.3614815 79.6562963,89.6444444 83.6385185,89.6444444 C87.6207407,89.6444444 91.0518519,86.3555556 91.0518519,81.68 Z M124.082963,69.3303704 L124.082963,92.9274074 C124.082963,102.634074 118.358519,106.598519 111.591111,106.598519 C105.220741,106.598519 101.386667,102.337778 99.9407407,98.8533333 L104.965926,96.7614815 C105.860741,98.9007407 108.053333,101.425185 111.585185,101.425185 C115.917037,101.425185 118.601481,98.7525926 118.601481,93.7214815 L118.601481,91.8311111 L118.4,91.8311111 C117.108148,93.4251852 114.619259,94.8177778 111.478519,94.8177778 C104.906667,94.8177778 98.8859259,89.0933333 98.8859259,81.7274074 C98.8859259,74.3081481 104.906667,68.5362963 111.478519,68.5362963 C114.613333,68.5362963 117.102222,69.9288889 118.4,71.4755556 L118.601481,71.4755556 L118.601481,69.3362963 L124.082963,69.3362963 L124.082963,69.3303704 Z M119.01037,81.7274074 C119.01037,77.0992593 115.922963,73.7155556 111.994074,73.7155556 C108.011852,73.7155556 104.675556,77.0992593 104.675556,81.7274074 C104.675556,86.3081481 108.011852,89.6444444 111.994074,89.6444444 C115.922963,89.6444444 119.01037,86.3081481 119.01037,81.7274074 Z M133.12,55.4992593 L133.12,94.0177778 L127.49037,94.0177778 L127.49037,55.4992593 L133.12,55.4992593 Z M155.057778,86.0059259 L159.537778,88.9925926 C158.091852,91.1318519 154.607407,94.8177778 148.586667,94.8177778 C141.12,94.8177778 135.543704,89.0459259 135.543704,81.6740741 C135.543704,73.8577778 141.167407,68.5303704 147.940741,68.5303704 C154.761481,68.5303704 158.097778,73.9585185 159.188148,76.8918519 L159.786667,78.3851852 L142.216296,85.6622222 C143.561481,88.2992593 145.653333,89.6444444 148.586667,89.6444444 C151.525926,89.6444444 153.564444,88.1985185 155.057778,86.0059259 Z M141.268148,81.277037 L153.013333,76.4 C152.367407,74.7585185 150.423704,73.6148148 148.136296,73.6148148 C145.202963,73.6148148 141.12,76.2044444 141.268148,81.277037 L141.268148,81.277037 Z M20.6992593,78.2607407 L20.6992593,72.6844444 L39.4903704,72.6844444 C39.6740741,73.6562963 39.7688889,74.8059259 39.7688889,76.0503704 C39.7688889,80.2340741 38.6251852,85.4074074 34.9392593,89.0933333 C31.3540741,92.8266667 26.7733333,94.8177778 20.7051852,94.8177778 C9.45777778,94.8177778 0,85.6562963 0,74.4088889 C0,63.1614815 9.45777778,54 20.7051852,54 C26.9274074,54 31.36,56.4414815 34.6903704,59.6237037 L30.7555556,63.5585185 C28.3674074,61.3185185 25.1318519,59.5762963 20.6992593,59.5762963 C12.4859259,59.5762963 6.06222222,66.1955556 6.06222222,74.4088889 C6.06222222,82.6222222 12.4859259,89.2414815 20.6992593,89.2414815 C26.0266667,89.2414815 29.0607407,87.1022222 31.0044444,85.1585185 C32.5807407,83.5822222 33.6177778,81.3303704 34.0266667,78.2548148 L20.6992593,78.2607407 L20.6992593,78.2607407 Z" id="Combined-Shape"></path>
        </g>
    </g>
</svg>