<?xml version="1.0" encoding="UTF-8" standalone="no"?>
<svg width="60px" height="60px" viewBox="0 0 60 60" version="1.1" xmlns="http://www.w3.org/2000/svg" xmlns:xlink="http://www.w3.org/1999/xlink">
    <!-- Generator: Sketch 3.6.1 (26313) - http://www.bohemiancoding.com/sketch -->
    <title>gplus</title>
    <desc>Created with Sketch.</desc>
    <defs></defs>
    <g id="Page-1" stroke="none" stroke-width="1" fill="none" fill-rule="evenodd">
        <g id="gplus" fill="#FFFFFF">
            <path d="M60,27.5 L53.75,27.5 L53.75,21.25 L48.75,21.25 L48.75,27.5 L42.5,27.5 L42.5,32.5 L48.75,32.5 L48.75,38.75 L53.75,38.75 L53.75,32.5 L60,32.5 L60,27.5 Z M20,26.25 L20,34.05 L30.9,34.05 C30.0625,38.75 25.9875,42.175 20,42.175 C13.4,42.175 8.0375,36.5875 8.0375,29.9875 C8.0375,23.3875 13.4,17.8125 20,17.8125 C22.975,17.8125 25.6375,18.8375 27.7375,20.8375 L27.7375,20.85 L33.375,15.2125 C29.9125,11.9875 25.4,10 20,10 C8.95,10 0,18.95 0,30 C0,41.05 8.95,50 20,50 C31.55,50 39.2,41.875 39.2,30.45 C39.2,28.9875 39.0625,27.5875 38.8125,26.25 L20,26.25 L20,26.25 Z" id="Shape"></path>
        </g>
    </g>
</svg>