<?xml version="1.0" encoding="utf-8"?>
<!-- Generator: Adobe Illustrator 17.0.0, SVG Export Plug-In . SVG Version: 6.00 Build 0)  -->
<!DOCTYPE svg PUBLIC "-//W3C//DTD SVG 1.1//EN" "http://www.w3.org/Graphics/SVG/1.1/DTD/svg11.dtd">
<svg version="1.1" id="Calque_1" xmlns="http://www.w3.org/2000/svg" xmlns:xlink="http://www.w3.org/1999/xlink" x="0px" y="0px"
	 width="42px" height="40px" viewBox="0 0 42 40" enable-background="new 0 0 42 40" xml:space="preserve">
<g>
	<g>
		<g>
			<path fill="#FFFFFF" d="M25.72,0H15.261c-1.388,0-2.875,0.162-4.462,0.487C9.196,0.863,7.651,1.666,6.164,2.895
				C4,4.997,2.917,7.337,2.917,9.916c0,2.135,0.764,4.006,2.292,5.611c1.46,1.725,3.582,2.605,6.366,2.639
				c0.526,0,1.086-0.034,1.68-0.102c-0.098,0.275-0.205,0.575-0.32,0.901c-0.131,0.309-0.197,0.696-0.197,1.159
				c0,0.773,0.172,1.435,0.516,1.984c0.295,0.567,0.631,1.1,1.008,1.598c-1.22,0.034-2.754,0.187-4.6,0.46
				C7.8,24.491,6.02,25.139,4.326,26.111c-1.508,0.903-2.55,1.952-3.126,3.146c-0.593,1.194-0.89,2.276-0.89,3.249
				c0,1.995,0.912,3.708,2.735,5.141c1.807,1.534,4.542,2.319,8.205,2.353c4.376-0.068,7.725-1.119,10.045-3.152
				c2.238-1.965,3.357-4.22,3.357-6.765c-0.032-1.794-0.44-3.246-1.223-4.357c-0.831-1.094-1.798-2.092-2.901-2.998l-1.774-1.461
				c-0.256-0.256-0.52-0.555-0.791-0.897c-0.32-0.359-0.479-0.811-0.479-1.358c0-0.564,0.156-1.059,0.468-1.486
				c0.265-0.41,0.553-0.777,0.865-1.102c0.545-0.478,1.06-0.948,1.543-1.409c0.436-0.461,0.849-0.965,1.239-1.512
				c0.795-1.127,1.208-2.63,1.239-4.51c0-1.025-0.115-1.922-0.345-2.691c-0.279-0.769-0.599-1.435-0.961-1.999
				c-0.378-0.598-0.764-1.102-1.158-1.512c-0.411-0.393-0.78-0.692-1.108-0.897h3.225L25.72,0z M19.986,28.651
				c0.866,0.99,1.299,2.153,1.299,3.485c0,1.64-0.633,2.981-1.898,4.024c-1.299,1.059-3.181,1.606-5.645,1.641
				c-2.748-0.034-4.913-0.65-6.495-1.846c-1.666-1.196-2.498-2.717-2.498-4.562c0-0.94,0.191-1.743,0.574-2.409
				c0.333-0.632,0.741-1.162,1.224-1.589c0.5-0.41,0.991-0.726,1.474-0.948c0.483-0.205,0.857-0.359,1.124-0.462
				c1.132-0.342,2.239-0.589,3.322-0.743c1.099-0.102,1.782-0.137,2.048-0.102c0.45,0,0.841,0.017,1.174,0.051
				C17.639,26.557,19.07,27.711,19.986,28.651z M18.289,13.193c-0.126,0.702-0.411,1.386-0.854,2.054
				c-0.918,0.942-2.065,1.438-3.442,1.489c-1.09,0-2.058-0.333-2.906-1.001c-0.847-0.667-1.539-1.481-2.075-2.439
				c-1.107-2.054-1.661-4.032-1.661-5.932C7.317,5.926,7.696,4.625,8.489,3.46c0.939-1.113,2.118-1.686,3.535-1.721
				c1.072,0.034,2.019,0.351,2.843,0.95c0.808,0.633,1.459,1.455,1.953,2.465c1.055,2.106,1.582,4.194,1.582,6.266
				C18.403,11.9,18.365,12.491,18.289,13.193z M36.172,16.552v-5.517h-2.758v5.517h-5.517v2.759h5.517v5.517h2.758V19.31h5.517
				v-2.759H36.172z"/>
		</g>
	</g>
</g>
</svg>
