<?xml version="1.0" encoding="UTF-8" standalone="no"?>
<svg width="60px" height="60px" viewBox="0 0 60 60" version="1.1" xmlns="http://www.w3.org/2000/svg" xmlns:xlink="http://www.w3.org/1999/xlink" xmlns:sketch="http://www.bohemiancoding.com/sketch/ns">
    <!-- Generator: Sketch 3.1.1 (8761) - http://www.bohemiancoding.com/sketch -->
    <title>invision</title>
    <desc>Created with Sketch.</desc>
    <defs></defs>
    <g id="Page-1" stroke="none" stroke-width="1" fill="none" fill-rule="evenodd" sketch:type="MSPage">
        <g id="invision" sketch:type="MSArtboardGroup" fill="#FFFFFE">
            <path d="M44.551087,46.3191304 C40.8347826,46.3191304 39.0580435,44.1121739 39.0580435,41.095 C39.0580435,40.2341304 39.1652174,39.3178261 39.4345652,38.4021739 L41.2121739,32.0469565 C41.4273913,31.3465217 41.4815217,30.7008696 41.4815217,30.1080435 C41.4815217,28.0621739 40.2428261,26.8228261 38.25,26.8228261 C35.7182609,26.8228261 34.0486957,28.5908696 33.1871739,32.0919565 L29.74,45.8695652 L23.7080435,45.8695652 L24.7906522,41.5732609 C23.0178261,44.4858696 20.5554348,46.3141304 17.5176087,46.3141304 C13.8552174,46.3141304 12.1317391,44.2165217 12.1317391,41.0382609 C12.1317391,40.2317391 12.2397826,39.2767391 12.455,38.361087 L15.2017391,27.173913 L10.9471739,27.173913 L12.2397826,22.3913043 L22.4728261,22.3913043 L18.4330435,38.3945652 C18.1636957,39.4186957 18.056087,40.2576087 18.056087,40.8491304 C18.056087,41.8736957 18.5604348,42.1680435 19.3491304,42.3458696 C19.8293478,42.4534783 23.6567391,42.4034783 25.7406522,37.7717391 L28.3936957,27.173913 L24.085,27.173913 L25.3776087,22.3913043 L34.5873913,22.3913043 L33.4028261,27.7845652 C35.0182609,24.7680435 38.25,21.8915217 41.4273913,21.8915217 C44.8204348,21.8915217 47.6213043,24.3034783 47.6213043,28.9352174 C47.6213043,30.1195652 47.4597826,31.4065217 47.028913,32.8602174 L45.305,39.0506522 C45.1441304,39.6982609 45.0356522,40.2356522 45.0356522,40.7202174 C45.0356522,41.7969565 45.4669565,42.335 46.275,42.335 C47.0826087,42.335 48.106087,41.741087 49.291087,38.4573913 L51.6604348,39.3721739 C50.2602174,44.2734783 47.728913,46.3191304 44.551087,46.3191304 L44.551087,46.3191304 Z M20.048913,11.7967391 C22.0419565,11.7967391 23.7113043,13.3584783 23.7113043,15.4043478 C23.7113043,17.4517391 22.0419565,19.0136957 20.048913,19.0136957 C18.056087,19.0136957 16.3867391,17.4517391 16.3867391,15.4043478 C16.3867391,13.3584783 18.056087,11.7967391 20.048913,11.7967391 L20.048913,11.7967391 Z M54.5652174,0 L5.43478261,0 C2.43326087,0 0,2.43326087 0,5.43478261 L0,54.5652174 C0,57.5667391 2.43326087,60 5.43478261,60 L54.5652174,60 C57.5667391,60 60,57.5667391 60,54.5652174 L60,5.43478261 C60,2.43326087 57.5667391,0 54.5652174,0 L54.5652174,0 Z" id="Fill-1" sketch:type="MSShapeGroup"></path>
        </g>
    </g>
</svg>