<?xml version="1.0" encoding="UTF-8" standalone="no"?>
<svg width="60px" height="60px" viewBox="0 0 60 60" version="1.1" xmlns="http://www.w3.org/2000/svg" xmlns:xlink="http://www.w3.org/1999/xlink" xmlns:sketch="http://www.bohemiancoding.com/sketch/ns">
    <!-- Generator: Sketch 3.0.3 (7891) - http://www.bohemiancoding.com/sketch -->
    <title>ios</title>
    <desc>Created with Sketch.</desc>
    <defs></defs>
    <g id="Page-1" stroke="none" stroke-width="1" fill="none" fill-rule="evenodd" sketch:type="MSPage">
        <g id="ios" sketch:type="MSArtboardGroup" fill="#0088CC">
            <g id="Group" sketch:type="MSLayerGroup" transform="translate(0.000000, 11.000000)">
                <path d="M19.5522152,0.0962025316 C20.9382911,-0.108227848 22.3433544,0.0312658228 23.7389241,-0.0120253165 C25.6400316,-0.0769620253 27.4556962,0.651772152 29.1218354,1.50797468 C30.9612342,2.42911392 32.3686709,3.99 33.7310127,5.50037975 C36.0237342,8.53556962 37.1511076,12.3427848 37.4762658,16.111519 C37.4905063,17.364557 37.8251582,18.6079747 37.6447785,19.8610127 C37.4643987,21.2343038 37.5094937,22.6340506 37.2056962,23.9905063 C36.5126582,27.0737975 35.3425633,30.1137975 33.3156646,32.5573418 C31.2365506,35.3832911 28.068038,37.3746835 24.6289557,37.9326582 C23.5443038,38.0697468 22.4501582,37.9903797 21.3607595,38.0120253 C17.6867089,38.1731646 14.2476266,36.1481013 11.7958861,33.5025316 C8.29746835,29.678481 6.89477848,24.3536709 6.86392405,19.2405063 C6.80221519,14.3702532 8.03401899,9.31240506 11.0886076,5.46911392 C13.1178797,2.69367089 16.2436709,0.827341772 19.5522152,0.0962025316 L19.5522152,0.0962025316 Z M20.0292722,1.54405063 C16.6257911,2.18620253 13.5427215,4.28822785 11.5988924,7.18151899 C9.52452532,10.1421519 8.69620253,13.7713924 8.34018987,17.3260759 C8.08623418,21.2294937 8.75791139,25.1882278 10.2887658,28.7813924 C11.8314873,32.0859494 14.5632911,34.9455696 18.0617089,36.0591139 C19.8726266,36.744557 21.835443,36.5786076 23.7294304,36.5329114 C25.9200949,36.2731646 28.0585443,35.4289873 29.8006329,34.048481 C33.5957278,31.234557 35.5609177,26.5086076 36.0474684,21.8764557 C36.1068038,20.0365823 36.085443,18.1918987 36.0617089,16.3520253 C35.7128165,12.3788608 34.3908228,8.36721519 31.7420886,5.35367089 C30.2871835,3.84329114 28.4691456,2.68886076 26.4992089,2.00341772 C24.4414557,1.21455696 22.1795886,1.3756962 20.0292722,1.54405063 L20.0292722,1.54405063 Z" id="Shape" sketch:type="MSShapeGroup"></path>
                <path d="M43.7231013,3.18189873 C45.4675633,1.28670886 47.9382911,-0.103417722 50.5490506,-0.0144303797 C51.9612342,0.0216455696 53.4113924,-0.146708861 54.7856013,0.271772152 C55.789557,0.57 56.7365506,1.02696203 57.6503165,1.53924051 C57.5411392,1.99139241 57.3726266,2.41949367 57.1685127,2.83075949 C55.1392405,1.7821519 52.8892405,1.01012658 50.5799051,1.23379747 C48.8188291,1.47911392 47.0174051,2.00582278 45.6408228,3.19632911 C43.8322785,4.65620253 42.7689873,7.04202532 42.9469937,9.38696203 C43.0751582,11.3470886 44.0933544,13.1773418 45.5886076,14.4087342 C48.7191456,17.0206329 52.9272152,17.783038 56.0625,20.3901266 C57.3085443,21.5541772 58.6162975,22.8048101 59.1313291,24.4955696 C59.9643987,27.321519 59.7389241,30.5082278 58.2982595,33.098481 C56.3496835,36.174557 52.7943038,38.3102532 49.1273734,38.0144304 C46.1843354,38.1924051 43.0893987,37.468481 40.7563291,35.5805063 C40.8987342,35.15 41.0933544,34.7435443 41.335443,34.3611392 C42.403481,34.8613924 43.3552215,35.5973418 44.4778481,35.984557 C47.7009494,37.1029114 51.5268987,37.1918987 54.4533228,35.2173418 C57.7547468,32.9902532 59.0743671,28.3196203 57.5696203,24.6302532 C56.943038,23.2016456 55.9011076,21.9918987 54.6147152,21.1405063 C51.5933544,18.9783544 47.8362342,18.1558228 44.9287975,15.8060759 C43.3623418,14.6853165 42.1661392,13.0186076 41.7080696,11.1234177 C41.0791139,8.35037975 41.840981,5.29835443 43.7231013,3.18189873 L43.7231013,3.18189873 Z" id="Shape" sketch:type="MSShapeGroup"></path>
                <path d="M0.569620253,2.20303797 C1.19857595,2.02265823 1.90822785,2.23911392 2.34968354,2.72493671 C2.40427215,3.23962025 2.53243671,3.90582278 2.09098101,4.28582278 C1.71123418,4.62974684 1.13686709,4.99050633 0.631329114,4.68746835 C-0.358386076,4.35556962 -0.256329114,2.67683544 0.569620253,2.20303797 L0.569620253,2.20303797 Z" id="Shape" sketch:type="MSShapeGroup"></path>
                <path d="M0.505537975,11.3134177 C0.961234177,11.2821519 1.41455696,11.2821519 1.86787975,11.3134177 C1.95332278,19.5651899 1.86075949,27.8217722 1.91297468,36.0783544 C1.92246835,36.554557 1.89161392,37.0331646 1.86787975,37.5093671 C1.41455696,37.5382278 0.958860759,37.5382278 0.505537975,37.5093671 C0.417721519,29.2575949 0.515031646,21.0010127 0.460443038,12.7468354 C0.450949367,12.2682278 0.481803797,11.7896203 0.505537975,11.3134177 L0.505537975,11.3134177 Z" id="Shape" sketch:type="MSShapeGroup"></path>
            </g>
        </g>
    </g>
</svg>