<?xml version="1.0" encoding="utf-8"?>
<!-- Generator: Adobe Illustrator 17.0.0, SVG Export Plug-In . SVG Version: 6.00 Build 0)  -->
<!DOCTYPE svg PUBLIC "-//W3C//DTD SVG 1.1//EN" "http://www.w3.org/Graphics/SVG/1.1/DTD/svg11.dtd">
<svg version="1.1" id="Calque_1" xmlns="http://www.w3.org/2000/svg" xmlns:xlink="http://www.w3.org/1999/xlink" x="0px" y="0px"
	 width="130px" height="15px" viewBox="-0.799 0 130 15" enable-background="new -0.799 0 130 15" xml:space="preserve">
<path id="Logo" fill="#FFFFFF" d="M4.691,5.201l2.648-3.836c0.5-0.722,1.147-1.084,1.939-1.084c0.646,0,1.205,0.23,1.678,0.688
	c0.472,0.459,0.709,1.008,0.709,1.647c0,0.473-0.125,0.89-0.375,1.251L8.902,7.338l2.919,3.7c0.292,0.369,0.438,0.799,0.438,1.292
	c0,0.653-0.229,1.214-0.688,1.684c-0.459,0.469-1.015,0.704-1.668,0.704c-0.716,0-1.261-0.233-1.636-0.699l-3.576-4.46v2.46
	c0,0.702-0.122,1.247-0.365,1.637c-0.445,0.709-1.091,1.063-1.939,1.063c-0.771,0-1.369-0.26-1.793-0.782
	C0.198,13.457,0,12.821,0,12.029V2.908c0-0.75,0.201-1.369,0.605-1.855c0.424-0.514,1.007-0.772,1.751-0.772
	c0.709,0,1.299,0.257,1.772,0.772c0.264,0.285,0.431,0.573,0.5,0.865C4.67,2.099,4.691,2.436,4.691,2.929V5.201z M17.84,3.19v8.829
	c0,0.765-0.198,1.393-0.594,1.887c-0.424,0.542-1.011,0.813-1.762,0.813c-0.688,0-1.268-0.253-1.741-0.761
	c-0.396-0.424-0.594-1.07-0.594-1.939V3.19c0-0.987,0.198-1.703,0.594-2.148c0.452-0.507,1.032-0.761,1.741-0.761
	c0.709,0,1.289,0.25,1.741,0.751C17.635,1.491,17.84,2.21,17.84,3.19z M26.282,0c1.73-0.007,3.321,0.573,4.774,1.741
	c1.14,0.917,1.71,1.866,1.71,2.846c0,0.834-0.348,1.48-1.042,1.939c-0.396,0.265-0.827,0.396-1.292,0.396
	c-0.382,0-0.747-0.09-1.095-0.271c-0.146-0.076-0.507-0.427-1.084-1.053c-0.535-0.584-1.206-0.876-2.012-0.876
	c-0.778,0-1.43,0.27-1.954,0.808C23.762,6.069,23.5,6.727,23.5,7.506c0,0.771,0.262,1.426,0.787,1.965
	c0.524,0.539,1.173,0.808,1.944,0.808c0.639,0,1.233-0.215,1.782-0.646c0.34-0.326,0.678-0.653,1.011-0.98
	c0.361-0.313,0.82-0.469,1.376-0.469c0.639,0,1.194,0.224,1.663,0.673c0.469,0.448,0.704,0.992,0.704,1.631
	c0,0.869-0.511,1.748-1.532,2.637C29.801,14.374,28.148,15,26.271,15c-1.161,0-2.255-0.247-3.283-0.74
	c-1.3-0.626-2.333-1.544-3.101-2.757c-0.768-1.212-1.152-2.538-1.152-3.977c0-2.154,0.799-3.989,2.398-5.503
	C22.543,0.688,24.259,0.014,26.282,0z M38.322,5.201l2.648-3.836c0.5-0.722,1.147-1.084,1.939-1.084c0.646,0,1.205,0.23,1.678,0.688
	c0.472,0.459,0.709,1.008,0.709,1.647c0,0.473-0.125,0.89-0.375,1.251l-2.387,3.471l2.919,3.7c0.292,0.369,0.438,0.799,0.438,1.292
	c0,0.653-0.229,1.214-0.688,1.684c-0.459,0.469-1.015,0.704-1.668,0.704c-0.716,0-1.261-0.233-1.637-0.699l-3.575-4.461v2.46
	c0,0.702-0.122,1.247-0.365,1.637c-0.445,0.709-1.091,1.063-1.939,1.063c-0.771,0-1.369-0.26-1.793-0.782
	c-0.396-0.48-0.594-1.115-0.594-1.908v-9.12c0-0.75,0.201-1.369,0.605-1.855c0.424-0.514,1.008-0.772,1.751-0.772
	c0.709,0,1.299,0.257,1.772,0.772c0.264,0.285,0.431,0.573,0.5,0.865c0.042,0.181,0.062,0.517,0.062,1.011
	C38.322,2.929,38.322,5.201,38.322,5.201z M48.825,9.236c0.521,0,1.077,0.229,1.668,0.688c0.736,0.577,1.24,0.865,1.512,0.865
	c0.403,0,0.604-0.208,0.604-0.625c0-0.229-0.118-0.424-0.354-0.584c-0.125-0.083-0.827-0.35-2.106-0.803
	c-2.092-0.736-3.137-2.099-3.137-4.086c0-1.501,0.552-2.686,1.657-3.554C49.634,0.379,50.83,0,52.254,0c1.23,0,2.3,0.294,3.21,0.881
	s1.365,1.343,1.365,2.267c0,0.556-0.172,1.02-0.516,1.392c-0.344,0.372-0.791,0.557-1.34,0.557c-0.577,0-1.216-0.274-1.918-0.823
	c-0.438-0.34-0.768-0.511-0.99-0.511c-0.382,0-0.573,0.188-0.573,0.563c0,0.355,0.472,0.678,1.418,0.97
	c1.307,0.41,2.318,0.91,3.033,1.501c0.952,0.792,1.428,1.904,1.428,3.336c0,1.557-0.535,2.773-1.606,3.648
	C54.773,14.593,53.481,15,51.889,15c-1.591,0-2.908-0.424-3.951-1.272c-0.834-0.674-1.251-1.462-1.251-2.366
	c0-0.605,0.205-1.108,0.615-1.511C47.713,9.448,48.22,9.243,48.825,9.236z M61.375,4.753h-1.24c-0.688,0-1.258-0.188-1.709-0.563
	c-0.48-0.403-0.719-0.942-0.719-1.616c0-0.403,0.113-0.79,0.339-1.162c0.225-0.372,0.518-0.636,0.876-0.792
	c0.358-0.156,1.207-0.234,2.548-0.234h4.733c1.16,0,1.911,0.069,2.251,0.208c0.376,0.153,0.679,0.416,0.912,0.787
	c0.233,0.372,0.349,0.763,0.349,1.173c0,0.646-0.257,1.209-0.772,1.689c-0.368,0.34-0.97,0.511-1.803,0.511h-1.074v7.088
	c0,0.771-0.132,1.369-0.396,1.793c-0.445,0.709-1.088,1.063-1.928,1.063c-0.841,0-1.487-0.323-1.939-0.97
	c-0.285-0.403-0.428-1.014-0.428-1.834L61.375,4.753L61.375,4.753z M72.779,12.769c-0.223,0.528-0.452,0.921-0.688,1.178
	c-0.473,0.514-1.046,0.772-1.72,0.772c-0.827,0-1.47-0.333-1.928-1.001c-0.271-0.396-0.406-0.84-0.406-1.334
	c0-0.41,0.097-0.824,0.292-1.24l4.45-9.475c0.431-0.924,1.15-1.386,2.158-1.386c1.022,0,1.754,0.476,2.199,1.428l4.493,9.548
	c0.181,0.383,0.271,0.761,0.271,1.136c0,0.556-0.181,1.049-0.542,1.48c-0.473,0.563-1.077,0.844-1.814,0.844
	c-0.605,0-1.108-0.188-1.511-0.563c-0.299-0.277-0.598-0.74-0.897-1.386h-4.357V12.769z M92.266,9.131l1.105,1.772
	c0.306,0.493,0.459,1.001,0.459,1.522c0,0.66-0.228,1.207-0.682,1.642c-0.456,0.434-1.013,0.652-1.673,0.652
	c-0.848,0-1.49-0.361-1.929-1.084l-1.96-3.21v1.929c0,0.66-0.217,1.22-0.651,1.678c-0.435,0.459-0.982,0.688-1.642,0.688
	c-0.806,0-1.417-0.288-1.834-0.865c-0.375-0.507-0.563-1.174-0.563-2.001V3.086c0-1.8,0.97-2.7,2.909-2.7h2.981
	c0.98,0,1.89,0.283,2.731,0.85s1.456,1.301,1.845,2.205C93.654,4.122,93.8,4.806,93.8,5.494C93.798,6.779,93.287,7.992,92.266,9.131
	z M97.84,4.753H96.6c-0.688,0-1.258-0.188-1.709-0.563c-0.48-0.403-0.719-0.942-0.719-1.616c0-0.403,0.113-0.79,0.339-1.162
	s0.518-0.636,0.876-0.792s1.207-0.234,2.549-0.234h4.733c1.161,0,1.911,0.069,2.251,0.208c0.376,0.153,0.68,0.416,0.913,0.787
	c0.232,0.372,0.349,0.763,0.349,1.173c0,0.646-0.257,1.209-0.771,1.689c-0.369,0.34-0.97,0.511-1.803,0.511h-1.074v7.088
	c0,0.771-0.132,1.369-0.396,1.793c-0.445,0.709-1.088,1.063-1.928,1.063c-0.841,0-1.487-0.323-1.939-0.97
	c-0.285-0.403-0.427-1.014-0.427-1.834V4.753H97.84z M111.746,10.216h2.132c0.881,0,1.536,0.181,1.966,0.542
	c0.506,0.431,0.76,0.987,0.76,1.668c0,0.695-0.254,1.258-0.761,1.689c-0.396,0.334-1.046,0.5-1.949,0.5h-3.659
	c-0.862,0-1.452-0.066-1.772-0.198c-0.626-0.257-1.039-0.677-1.24-1.261c-0.125-0.375-0.187-0.99-0.187-1.845V3.576
	c0-0.647,0.021-1.081,0.062-1.303c0.076-0.451,0.261-0.834,0.553-1.147c0.333-0.355,0.758-0.58,1.272-0.678
	c0.243-0.041,0.737-0.062,1.48-0.062h2.804c0.765,0,1.209,0.007,1.334,0.021c0.501,0.049,0.91,0.194,1.23,0.438
	c0.57,0.431,0.855,0.994,0.855,1.689c0,0.75-0.25,1.324-0.749,1.72c-0.444,0.354-1.051,0.532-1.82,0.532h-2.309v0.969h1.84
	c0.54,0,0.987,0.142,1.341,0.428c0.374,0.306,0.561,0.726,0.561,1.261c0,1.133-0.69,1.699-2.069,1.699h-1.673v1.073H111.746z
	 M126.837,9.131l1.105,1.772c0.306,0.493,0.459,1.001,0.459,1.522c0,0.66-0.228,1.207-0.683,1.642
	c-0.455,0.434-1.013,0.652-1.673,0.652c-0.848,0-1.491-0.361-1.928-1.084l-1.96-3.21v1.929c0,0.66-0.217,1.22-0.651,1.678
	c-0.435,0.459-0.982,0.688-1.642,0.688c-0.806,0-1.418-0.288-1.835-0.865c-0.375-0.507-0.563-1.174-0.563-2.001V3.086
	c0-1.8,0.97-2.7,2.909-2.7h2.981c0.98,0,1.89,0.283,2.731,0.85s1.456,1.301,1.845,2.205c0.292,0.681,0.438,1.365,0.438,2.053
	C128.369,6.779,127.859,7.992,126.837,9.131z"/>
</svg>
