<?xml version="1.0" encoding="UTF-8" standalone="no"?>
<svg width="120px" height="120px" viewBox="0 0 120 120" version="1.1" xmlns="http://www.w3.org/2000/svg" xmlns:xlink="http://www.w3.org/1999/xlink" xmlns:sketch="http://www.bohemiancoding.com/sketch/ns">
    <!-- Generator: Sketch 3.0.3 (7891) - http://www.bohemiancoding.com/sketch -->
    <title>kissmetrics</title>
    <desc>Created with Sketch.</desc>
    <defs></defs>
    <g id="Page-1" stroke="none" stroke-width="1" fill="none" fill-rule="evenodd" sketch:type="MSPage">
        <g id="kissmetrics" sketch:type="MSArtboardGroup" fill="#FFFFFF">
            <g id="Group" sketch:type="MSLayerGroup" transform="translate(0.000000, 52.000000)">
                <path d="M28.9337523,15.6532571 L25.5810721,15.6532571 C25.1587431,15.6532571 25.0107948,15.5229714 24.7998521,15.1529143 L21.8051756,9.79977143 C21.4460628,9.17028571 21.1927542,8.39108571 21.1927542,8.39108571 L21.15061,8.39108571 L21.15061,15.1323429 C21.15061,15.4793143 20.9815896,15.6534857 20.6437708,15.6534857 L17.6049538,15.6534857 C17.2671349,15.6534857 17.1001109,15.4795429 17.1001109,15.1323429 L17.1001109,0.867885714 C17.1001109,0.520685714 17.2671349,0.346971429 17.6049538,0.346971429 L20.643549,0.346971429 C20.9813678,0.346971429 21.1503882,0.520685714 21.1503882,0.867885714 L21.1503882,6.63405714 L21.1925323,6.63405714 L25.0740111,0.845257143 C25.3060259,0.498057143 25.432902,0.3472 25.8552311,0.3472 L28.4914603,0.3472 C28.8295009,0.3472 28.9772274,0.520914286 28.9772274,0.868114286 C28.9772274,0.976 28.9333087,1.12708571 28.8487985,1.25737143 L24.674085,7.0464 L29.2935305,14.7190857 C29.376488,14.8493714 29.4399261,15.0041143 29.4399261,15.1323429 C29.4405915,15.4790857 29.2715712,15.6532571 28.9337523,15.6532571 L28.9337523,15.6532571 Z" id="Shape" sketch:type="MSShapeGroup"></path>
                <path d="M34.1092791,15.6532571 L30.9881701,15.6532571 C30.6483549,15.6532571 30.5006285,15.4793143 30.5006285,15.1321143 L30.5006285,0.867885714 C30.5006285,0.520685714 30.6483549,0.346971429 30.9881701,0.346971429 L34.1092791,0.346971429 C34.4455453,0.346971429 34.6161183,0.520685714 34.6161183,0.867885714 L34.6161183,15.1321143 C34.6161183,15.4790857 34.4455453,15.6532571 34.1092791,15.6532571 L34.1092791,15.6532571 Z" id="Shape" sketch:type="MSShapeGroup"></path>
                <path d="M41.1619963,16 C37.7645102,16 35.7380407,13.9828571 35.7380407,12.1184 C35.7380407,11.0130286 36.5618484,10.3634286 37.5746396,10.3634286 C38.5038078,10.3634286 39.1565989,10.9264 39.429427,11.5988571 C39.7481701,12.3561143 40.2962662,13.2889143 41.329464,13.2889143 C42.216488,13.2889143 42.7443993,12.6811429 42.7443993,11.8377143 C42.7443993,8.80091429 35.949427,9.4304 35.949427,4.46514286 C35.9489834,1.60411429 38.2502773,0 41.3292421,0 C44.9802588,0 46.4770425,2.03748571 46.4770425,3.33874286 C46.4770425,4.42217143 45.7175601,5.05142857 44.6843623,5.05142857 C43.8394824,5.05142857 43.2703142,4.53074286 42.955342,3.83611429 C42.6596673,3.16571429 42.2162662,2.47108571 41.3097227,2.47108571 C40.5074307,2.47108571 39.9160813,3.01394286 39.9160813,3.96617143 C39.9160813,6.80731429 46.8993715,6.11291429 46.8993715,11.3821714 C46.8993715,14.1355429 44.8320887,16 41.1619963,16 L41.1619963,16 Z" id="Shape" sketch:type="MSShapeGroup"></path>
                <path d="M53.1495749,16 C49.7518669,16 47.7280591,13.9828571 47.7280591,12.1184 C47.7280591,11.0130286 48.5500924,10.3634286 49.5617745,10.3634286 C50.4911645,10.3634286 51.1457301,10.9264 51.4201109,11.5988571 C51.735305,12.3561143 52.2834011,13.2889143 53.3183734,13.2889143 C54.2027357,13.2889143 54.7313124,12.6811429 54.7313124,11.8377143 C54.7313124,8.80091429 47.93878,9.4304 47.93878,4.46514286 C47.9390018,1.60411429 50.2378558,0 53.3185952,0 C56.9685028,0 58.4652865,2.03748571 58.4652865,3.33874286 C58.4652865,4.42217143 57.7058041,5.05142857 56.6712754,5.05142857 C55.8281701,5.05142857 55.2590018,4.53074286 54.9429205,3.83611429 C54.6472458,3.16571429 54.2031793,2.47108571 53.2975231,2.47108571 C52.4950092,2.47108571 51.9045471,3.01394286 51.9045471,3.96617143 C51.9045471,6.80731429 58.8880591,6.11291429 58.8880591,11.3821714 C58.8876155,14.1355429 56.8190018,16 53.1495749,16 L53.1495749,16 Z" id="Shape" sketch:type="MSShapeGroup"></path>
                <path d="M74.1449168,15.6532571 L72.4802218,15.6532571 C72.224695,15.6532571 72.1193346,15.5437714 72.1193346,15.2832 L72.1193346,7.5888 C72.1193346,6.2432 71.4248429,5.48548571 70.1795933,5.48548571 C68.8915342,5.48548571 68.3660628,6.28662857 68.3660628,7.54537143 L68.3660628,15.2832 C68.3660628,15.5437714 68.2394085,15.6532571 67.9860998,15.6532571 L66.3191867,15.6532571 C66.0660998,15.6532571 65.9602957,15.5437714 65.9602957,15.2832 L65.9602957,7.5888 C65.9602957,6.2432 65.2633641,5.48548571 64.017671,5.48548571 C62.8172274,5.48548571 62.2054713,5.87611429 62.2054713,6.98102857 L62.2054713,15.2829714 C62.2054713,15.5435429 62.0992237,15.6530286 61.8465804,15.6530286 L60.1814418,15.6530286 C59.9263586,15.6530286 59.7997043,15.5435429 59.7997043,15.2829714 L59.7997043,6.13485714 C59.7997043,5.37691429 60.0530129,5.07291429 60.6428096,4.79062857 C61.3184473,4.46537143 62.5211091,4.13988571 63.9575601,4.13988571 C65.601183,4.13988571 66.5937893,4.63908571 67.2889464,5.44205714 C67.985878,4.66057143 69.0392606,4.13988571 70.7691682,4.13988571 C72.352902,4.13988571 74.5029205,4.87794286 74.5029205,7.47931429 L74.5029205,15.2832 C74.5031423,15.5435429 74.3984473,15.6532571 74.1449168,15.6532571 L74.1449168,15.6532571 Z" id="Shape" sketch:type="MSShapeGroup"></path>
                <path d="M80.3323475,15.9341714 C77.7815157,15.9341714 75.5008503,14.2226286 75.5008503,9.97165714 C75.5008503,5.94102857 77.8209982,4.13988571 80.3323475,4.13988571 C82.9683549,4.13988571 84.4673567,6.2432 84.4673567,8.43405714 C84.4673567,8.90971429 84.2772643,9.06148571 83.8354159,9.12685714 L77.6972274,10.1684571 C77.8209982,12.2050286 78.7923105,13.9618286 80.8181146,13.9618286 C82.1673937,13.9618286 83.0539741,12.9202286 83.4971534,12.1184 C83.6031793,11.9229714 83.7930499,11.7289143 84.0448059,11.7289143 C84.3194085,11.7289143 84.5303512,11.9881143 84.5303512,12.2701714 C84.5307948,13.5712 83.0315712,15.9341714 80.3323475,15.9341714 L80.3323475,15.9341714 Z M80.0792606,5.5072 C78.3912754,5.5072 77.6737153,7.2416 77.5887616,8.93142857 L82.1676155,8.13028571 C82.1037338,6.7856 81.5760444,5.5072 80.0792606,5.5072 L80.0792606,5.5072 Z" id="Shape" sketch:type="MSShapeGroup"></path>
                <path d="M88.8829575,15.9133714 C87.8060628,15.9133714 86.1178558,15.5001143 86.1178558,12.7897143 L86.1178558,5.81074286 L84.9997043,5.81074286 C84.7477264,5.81074286 84.6405915,5.68045714 84.6405915,5.42011429 L84.6405915,4.7904 C84.6405915,4.53051429 84.7479482,4.42194286 84.9997043,4.42194286 L86.1178558,4.42194286 L86.1178558,2.8608 C86.1178558,2.55817143 86.1402588,2.38445714 86.3503142,2.27588571 L87.8690573,1.51885714 C87.9537893,1.47382857 88.0591497,1.38857143 88.164732,1.38857143 C88.3971904,1.38857143 88.5025508,1.51885714 88.5025508,1.75497143 L88.5025508,4.42194286 L90.2521996,4.42194286 C90.5052865,4.42194286 90.6110906,4.53051429 90.6110906,4.7904 L90.6110906,5.42011429 C90.6110906,5.68022857 90.5052865,5.81074286 90.2521996,5.81074286 L88.5027726,5.81074286 L88.5027726,12.8342857 C88.5027726,14.2658286 89.1786322,14.5693714 89.810573,14.5693714 C90.0232902,14.5693714 90.1468392,14.5259429 90.2961183,14.5259429 C90.6323845,14.5259429 90.801183,14.6980571 90.801183,14.9789714 C90.801183,15.5003429 89.9793715,15.9133714 88.8829575,15.9133714 L88.8829575,15.9133714 Z" id="Shape" sketch:type="MSShapeGroup"></path>
                <path d="M97.6172274,6.80731429 C96.4771165,6.80731429 96.7091312,5.5072 95.5064695,5.5072 C94.7057301,5.5072 94.1988909,5.91931429 94.1988909,6.61188571 L94.1988909,15.2829714 C94.1988909,15.5435429 94.0722366,15.6530286 93.8198152,15.6530286 L92.151793,15.6530286 C91.9002588,15.6530286 91.7716081,15.5435429 91.7716081,15.2829714 L91.7716081,6.13485714 C91.7716081,5.42034286 92.0040665,5.07291429 92.6375601,4.76914286 C93.2907948,4.46514286 94.5151941,4.13965714 95.8644732,4.13965714 C97.8275046,4.13965714 98.6275786,4.856 98.6275786,5.72388571 C98.6278004,6.37348571 98.2686876,6.80731429 97.6172274,6.80731429 L97.6172274,6.80731429 Z" id="Shape" sketch:type="MSShapeGroup"></path>
                <path d="M100.505434,2.53622857 C99.6851756,2.53622857 99.1133457,2.01531429 99.1133457,1.36457143 C99.1133457,0.7152 99.6851756,0.194285714 100.505434,0.194285714 C101.328799,0.194285714 101.899076,0.7152 101.899076,1.36457143 C101.899298,2.01554286 101.32902,2.53622857 100.505434,2.53622857 L100.505434,2.53622857 Z M101.350092,15.6532571 L99.6627726,15.6532571 C99.4092421,15.6532571 99.3036599,15.5437714 99.3036599,15.2832 L99.3036599,4.79062857 C99.3036599,4.53074286 99.409464,4.42217143 99.6627726,4.42217143 L101.350092,4.42217143 C101.603623,4.42217143 101.709427,4.53074286 101.709427,4.79062857 L101.709427,15.2832 C101.709205,15.5435429 101.603623,15.6532571 101.350092,15.6532571 L101.350092,15.6532571 Z" id="Shape" sketch:type="MSShapeGroup"></path>
                <path d="M107.155342,15.9341714 C104.708762,15.9341714 102.473124,14.1563429 102.473124,10.0381714 C102.473124,6.19977143 104.476525,4.13988571 107.23963,4.13988571 C109.92,4.13988571 111.14329,6.02811429 111.14329,6.98125714 C111.14329,7.67542857 110.742033,8.08525714 110.025582,8.08525714 C109.434233,8.08525714 109.140555,7.69645714 108.991054,7.21965714 C108.843327,6.72045714 108.379963,5.5072 107.093013,5.5072 C105.826026,5.5072 104.688133,6.82902857 104.688133,9.38742857 C104.688133,11.7931429 105.659445,13.896 107.74647,13.896 C109.076895,13.896 109.686211,12.8994286 110.129612,12.0763429 C110.258041,11.8377143 110.467431,11.6857143 110.720961,11.6857143 C111.016636,11.6857143 111.206506,11.9229714 111.206506,12.2283429 C111.206506,13.5494857 109.793346,15.9341714 107.155342,15.9341714 L107.155342,15.9341714 Z" id="Shape" sketch:type="MSShapeGroup"></path>
                <path d="M116.145582,15.9341714 C113.296636,15.9341714 112.09353,14.1563429 112.09353,13.2025143 C112.09353,12.5090286 112.51586,12.1618286 113.107209,12.1618286 C113.634233,12.1618286 114.077856,12.4434286 114.24488,12.8777143 C114.584695,13.7446857 115.047616,14.5259429 116.186174,14.5259429 C117.031275,14.5259429 117.770129,13.8957714 117.770129,12.8777143 C117.770129,10.2749714 112.304917,10.7961143 112.304917,7.328 C112.304917,5.31154286 113.887985,4.13965714 116.122957,4.13965714 C118.718817,4.13965714 119.751571,5.68045714 119.751571,6.54697143 C119.751571,7.19817143 119.329464,7.52342857 118.803327,7.52342857 C118.317338,7.52342857 117.917856,7.24137143 117.747505,6.78537143 C117.474455,6.11245714 117.031275,5.35497143 116.082366,5.35497143 C115.089982,5.35497143 114.521479,5.94102857 114.521479,6.89371429 C114.521479,9.4304 120.067652,8.80091429 120.067652,12.5088 C120.067652,14.5696 118.549575,15.9341714 116.145582,15.9341714 L116.145582,15.9341714 Z" id="Shape" sketch:type="MSShapeGroup"></path>
                <path d="M10.0937523,0.157714286 C7.3257671,0.157714286 5.05574861,2.39954286 4.91667283,5.21028571 C2.18151571,5.35314286 0,7.68502857 0,10.5307429 C0,13.4676571 2.32480591,15.8578286 5.18395564,15.8578286 L13.1731608,15.8594286 L13.1975601,15.8578286 C14.3452126,15.8578286 15.2797043,14.9003429 15.2797043,13.7197714 L15.2797043,13.3771429 L15.2797043,5.48525714 C15.2797043,2.54788571 12.952902,0.157714286 10.0937523,0.157714286 L10.0937523,0.157714286 Z M6.31186691,6.84297143 L6.5942329,6.93257143 L6.507061,6.6432 C6.39815157,6.28891429 6.34181146,5.91268571 6.34181146,5.52 C6.34624769,3.40891429 8.00672828,1.70262857 10.0598152,1.69714286 C12.1131238,1.70262857 13.7753789,3.40982857 13.7780407,5.52 L13.7780407,13.3030857 L13.7780407,13.6411429 C13.7771534,14.0139429 13.4845841,14.3163429 13.1208133,14.3163429 L13.0968577,14.3163429 L5.21789279,14.3163429 C3.16369686,14.3133714 1.50410351,12.6070857 1.49966728,10.4957714 C1.5038817,8.3856 3.16369686,6.68 5.21789279,6.67565714 C5.60029575,6.67588571 5.96628466,6.73325714 6.31186691,6.84297143 L6.31186691,6.84297143 Z" id="Shape" sketch:type="MSShapeGroup"></path>
                <path d="M2.30994455,10.9245714 L2.30994455,10.9245714 L2.25892791,10.9245714 C2.26979667,11.0482286 2.28044362,11.1236571 2.30994455,11.248 L2.31327172,11.2539429 C2.59785582,12.3540571 3.44650647,13.2185143 4.52029575,13.5049143 L4.52029575,10.9245714 L2.30994455,10.9245714 L2.30994455,10.9245714 Z" id="Shape" sketch:type="MSShapeGroup"></path>
                <path d="M5.1444732,8.55794286 L5.1444732,13.6018286 C5.19016636,13.6034286 5.23807763,13.6034286 5.28443623,13.6034286 L7.26454713,13.6034286 L7.26454713,8.55794286 L5.1444732,8.55794286 L5.1444732,8.55794286 Z" id="Shape" sketch:type="MSShapeGroup"></path>
                <rect id="Rectangle-path" sketch:type="MSShapeGroup" x="7.98521257" y="4.34285714" width="2.12007394" height="9.1904"></rect>
                <path d="M10.8714233,13.6077714 L12.580037,13.6077714 C12.8251386,13.6077714 13.0205545,13.4002286 13.0205545,13.1430857 L13.0205545,7.0048 L10.8714233,7.0048 L10.8714233,13.6077714 L10.8714233,13.6077714 Z" id="Shape" sketch:type="MSShapeGroup"></path>
            </g>
        </g>
    </g>
</svg>