<?xml version="1.0" encoding="UTF-8" standalone="no"?>
<svg width="80px" height="80px" viewBox="0 0 80 80" version="1.1" xmlns="http://www.w3.org/2000/svg" xmlns:xlink="http://www.w3.org/1999/xlink" xmlns:sketch="http://www.bohemiancoding.com/sketch/ns">
    <!-- Generator: Sketch 3.0.3 (7891) - http://www.bohemiancoding.com/sketch -->
    <title>kiva</title>
    <desc>Created with Sketch.</desc>
    <defs></defs>
    <g id="Page-1" stroke="none" stroke-width="1" fill="none" fill-rule="evenodd" sketch:type="MSPage">
        <g id="kiva" sketch:type="MSArtboardGroup" fill="#FFFFFF">
            <g id="Group" sketch:type="MSLayerGroup" transform="translate(0.000000, 18.000000)">
                <path d="M9.78762887,40.4495385 L15.9208247,40.4495385 C15.0552577,25.0402308 9.12,11.0266538 -0.206185567,0.139192308 C6.21360825,10.5126154 9.93443299,22.8182308 9.93443299,36.0178077 C9.93443299,37.5087308 9.88164948,38.9835769 9.78762887,40.4495385" id="Shape" sketch:type="MSShapeGroup"></path>
                <path d="M30.5191753,15.3285 C30.5191753,15.3285 28.5934021,18.0594615 23.156701,18.4664615 C17.72,18.8726154 16.3604124,24.0447308 15.9620619,25.6718846 C15.5670103,27.2977692 14.0028866,27.7276154 14.0028866,27.7276154 L14.1501031,28.3305 C14.1501031,28.3305 15.9138144,27.7115385 16.4713402,26.543 C17.0313402,25.3715 18.7381443,27.2821154 22.4185567,25.3715 C26.1018557,23.463 30.0094845,20.1515769 30.5191753,15.3285" id="Shape" sketch:type="MSShapeGroup"></path>
                <path d="M14.1505155,28.3305 C14.1505155,28.3305 16.3030928,30.3773462 17.6630928,30.7860385 C19.0218557,31.1930385 31.2560825,31.3076923 34.6519588,43.9746154 C34.6519588,44.2661154 33.7480412,42.4071154 27.2342268,41.4767692 C20.7204124,40.5485385 17.6630928,37.5248077 16.8131959,31.4824231 C16.8131959,31.4824231 15.7105155,29.7727692 14.4779381,29.7727692 C14.1505155,30.1108077 14.1505155,28.3305 14.1505155,28.3305" id="Shape" sketch:type="MSShapeGroup"></path>
                <rect id="Rectangle-path" sketch:type="MSShapeGroup" x="36.2886598" y="17.3461538" width="2.80865979" height="23.5294231"></rect>
                <path d="M53.5336082,41.0261923 L50.5265979,41.0261923 L42.0676289,17.4967692 L45.1084536,17.4967692 L52.0123711,37.4676923 L58.9534021,17.4967692 L61.9612371,17.4967692 L53.5336082,41.0261923 Z" id="Shape" sketch:type="MSShapeGroup"></path>
                <path d="M77.396701,25.2268077 C77.396701,22.1751538 75.2173196,19.6663077 72.1096907,19.6663077 C69.1010309,19.6663077 66.8239175,22.1755769 66.8239175,25.2268077 L66.8239175,29.4994615 L77.3971134,29.4994615 L77.3971134,25.2268077 L77.396701,25.2268077 Z M80.2061856,41.0261923 L77.396701,41.0261923 L77.396701,32.2782308 L66.8235052,32.2782308 L66.8235052,41.0261923 L64.0140206,41.0261923 L64.0140206,25.2272308 C64.0140206,20.548 67.4494845,16.9201154 72.1096907,16.9201154 C76.8016495,16.9201154 80.2065979,20.5475769 80.2065979,25.2272308 L80.2065979,41.0261923 L80.2061856,41.0261923 Z" id="Shape" sketch:type="MSShapeGroup"></path>
            </g>
        </g>
    </g>
</svg>