<?xml version="1.0" encoding="UTF-8" standalone="no"?>
<svg width="60px" height="60px" viewBox="0 0 60 60" version="1.1" xmlns="http://www.w3.org/2000/svg" xmlns:xlink="http://www.w3.org/1999/xlink" xmlns:sketch="http://www.bohemiancoding.com/sketch/ns">
    <!-- Generator: Sketch 3.1.1 (8761) - http://www.bohemiancoding.com/sketch -->
    <title>landsend</title>
    <desc>Created with Sketch.</desc>
    <defs></defs>
    <g id="Page-1" stroke="none" stroke-width="1" fill="none" fill-rule="evenodd" sketch:type="MSPage">
        <g id="landsend" sketch:type="MSArtboardGroup" fill="#FFFFFE">
            <g id="landsendlogo_lighthouse-2" sketch:type="MSLayerGroup">
                <path d="M52.9621622,43.9554839 C49.4075676,48.0087097 45.9372973,49.3945161 42.7167568,49.4232258 L40.5632432,43.4122581 C40.2616216,42.6632258 40.1481081,41.8329032 38.8735135,41.6922581 L38.4291892,41.6167742 C37.7254054,41.5419355 37.3427027,41.0696774 37.2356757,40.2887097 C37.2356757,40.2877419 37.1254054,39.3048387 36.9535135,37.7751613 C36.9502703,37.783871 36.9437838,37.7912903 36.9405405,37.8003226 C36.3145946,32.3883871 35.3027027,23.556129 35.1405405,21.9754839 C35.1243243,21.8270968 35.1145946,21.7393548 35.1210811,21.7341935 C35.1697297,21.5812903 35.2832432,21.5787097 35.4,21.5787097 L36.0389189,21.5787097 C36.227027,21.5787097 36.3405405,21.5467742 36.3405405,21.3748387 L36.3437838,18.766129 C36.3437838,18.5941935 36.1945946,18.5545161 36.1135135,18.5545161 L35.4583784,18.5545161 C35.2313514,18.5545161 35.1535135,18.4506452 35.1535135,18.2258065 L35.147027,12.1251613 C35.147027,11.8554839 35.2702703,11.7074194 35.4843243,11.7074194 L35.772973,11.7074194 C35.7956757,11.7074194 35.8897297,11.7022581 35.8897297,11.5570968 L35.8897297,9.53709677 C35.8897297,9.37645161 35.8378378,9.3516129 35.8086486,9.32387097 C35.7535135,9.28 30.852973,7.48129032 30.852973,7.48129032 C30.5805405,7.38677419 30.3697297,7.29548387 29.9837838,7.29548387 C29.5945946,7.29548387 29.387027,7.38677419 29.1113514,7.48129032 C29.1113514,7.48129032 24.2140541,9.28 24.1556757,9.32387097 C24.1264865,9.3516129 24.0810811,9.37645161 24.0810811,9.53709677 C24.0810811,10.4625806 24.0745946,10.6722581 24.0810811,11.5570968 C24.0810811,11.7022581 24.1718919,11.7074194 24.1913514,11.7074194 L24.4832432,11.7074194 C24.6972973,11.7074194 24.8172973,11.8554839 24.8172973,12.1251613 L24.8140541,18.2258065 C24.8140541,18.4506452 24.732973,18.5545161 24.5059459,18.5545161 L23.8540541,18.5545161 C23.7697297,18.5545161 23.6205405,18.5941935 23.6205405,18.766129 L23.627027,21.3748387 C23.627027,21.5467742 23.7372973,21.5787097 23.9254054,21.5787097 L24.5643243,21.5787097 C24.6875676,21.5787097 24.7945946,21.5812903 24.8464865,21.7341935 C24.8497297,21.7393548 24.8432432,21.8270968 24.8237838,21.9754839 C24.612973,24.0309677 22.9654054,38.3383871 22.6086486,41.4587097 C18.1524324,40.2783871 13.4043243,40.7558065 8.38378378,45.5141935 C5.19567568,41.0754839 3.38918919,35.6845161 3.38918919,29.9667742 C3.38918919,15.2019355 15.4637838,3.19516129 30.3048649,3.19516129 C45.1491892,3.19516129 56.88,15.2019355 56.88,29.9667742 C56.88,33.96 56.3124324,37.8858065 54.6,41.4587097 C54.012973,42.4067742 53.7664865,43.0390323 52.9621622,43.9554839 L52.9621622,43.9554839 Z M37.187027,44.2958065 C38.267027,44.393871 38.4648649,44.9164516 38.6886486,45.5616129 L39.9697297,49.1393548 C36.7167568,48.4509677 33.7848649,46.6722581 31.3589189,45.353871 C30.7102703,45.0012903 30.0551351,44.6467742 29.387027,44.2958065 L37.187027,44.2958065 L37.187027,44.2958065 Z M32.4324324,21.5635484 C32.4194595,21.5635484 32.4194595,21.5622581 32.4324324,21.5635484 L32.4324324,21.5635484 Z M30.9989189,18.5574194 C30.7718919,18.5574194 30.6616216,18.5035484 30.6616216,18.2741935 L30.6616216,11.9964516 C30.6616216,11.7683871 30.7718919,11.6945161 31.0151351,11.7129032 L32.5816216,11.7129032 C32.7989189,11.6945161 32.9124324,11.7683871 32.9124324,11.9964516 L32.9124324,18.2741935 C32.9124324,18.5035484 32.7989189,18.5574194 32.5686486,18.5574194 L30.9989189,18.5574194 L30.9989189,18.5574194 Z M27.5318919,21.5635484 C27.6032432,21.5635484 28.7481081,21.57 29.9837838,21.5741935 C31.2162162,21.57 32.3643243,21.5635484 32.4324324,21.5635484 C32.5135135,21.5741935 32.9059459,21.6741935 33.0162162,22.4609677 L35.0918919,40.3535484 C35.1567568,40.7516129 35.1243243,41.1564516 34.8454054,41.4454839 C34.6767568,41.6225806 34.4821622,41.7454839 34.2583784,41.81 C34.1578378,41.8296774 34.0572973,41.8467742 33.9535135,41.863871 C33.9081081,41.8690323 33.8594595,41.8709677 33.8108108,41.8709677 L26.1535135,41.8709677 C26.1081081,41.8709677 26.0594595,41.8690323 26.0108108,41.863871 C25.907027,41.8467742 25.8064865,41.8296774 25.7059459,41.81 C25.4789189,41.7454839 25.2908108,41.6225806 25.1156757,41.4454839 C24.8432432,41.1564516 24.8108108,40.7516129 24.8724324,40.3535484 L26.9481081,22.4609677 C27.0583784,21.6741935 27.4572973,21.5741935 27.5318919,21.5635484 L27.5318919,21.5635484 Z M27.5318919,21.5635484 C27.5481081,21.5622581 27.5481081,21.5635484 27.5318919,21.5635484 L27.5318919,21.5635484 Z M27.3989189,18.5574194 C27.1654054,18.5574194 27.0551351,18.5035484 27.0551351,18.2741935 L27.0551351,11.9964516 C27.0551351,11.7683871 27.1654054,11.6945161 27.3859459,11.7129032 L28.9491892,11.7129032 C29.1989189,11.6945161 29.3059459,11.7683871 29.3059459,11.9964516 L29.3059459,18.2741935 C29.3059459,18.5035484 29.1989189,18.5574194 28.9654054,18.5574194 L27.3989189,18.5574194 L27.3989189,18.5574194 Z M30.3048649,56.7409677 C26.8021622,56.7409677 23.3740541,56.0667742 20.1145946,54.7332258 C16.187027,53.1306452 12.7945946,50.6912903 10.1124324,47.6745161 C17.1956757,40.793871 23.1632432,44.0319355 30.0421622,47.7619355 C33.8562162,49.8309677 37.9718919,52.066129 42.2918919,52.066129 C43.7027027,52.066129 45.1362162,51.8306452 46.5891892,51.2693548 C41.9448649,54.79 36.2497297,56.7409677 30.3048649,56.7409677 L30.3048649,56.7409677 Z M30.3048649,-0.0641935484 C13.6572973,-0.0641935484 0.107027027,13.4067742 0.107027027,29.9667742 C0.107027027,46.5264516 13.6572973,60 30.3048649,60 C31.4010811,60 32.5718919,59.9267742 33.8886486,59.7703226 C34.4627027,59.7016129 35.0302703,59.6096774 35.6010811,59.5087097 C39.5254054,58.8132258 43.2162162,57.373871 46.5697297,55.23 C48.8627027,53.7680645 50.9610811,51.9812903 52.8097297,49.9251613 C57.7686486,44.3922581 60.1556757,37.3077419 60.1556757,29.9667742 C60.1556757,13.4067742 46.9556757,-0.0641935484 30.3048649,-0.0641935484 L30.3048649,-0.0641935484 Z" id="Fill-1" sketch:type="MSShapeGroup"></path>
            </g>
        </g>
    </g>
</svg>