<?xml version="1.0" encoding="utf-8"?>
<!-- Generator: Adobe Illustrator 17.0.0, SVG Export Plug-In . SVG Version: 6.00 Build 0)  -->
<!DOCTYPE svg PUBLIC "-//W3C//DTD SVG 1.1//EN" "http://www.w3.org/Graphics/SVG/1.1/DTD/svg11.dtd">
<svg version="1.1" id="Layer_1" xmlns="http://www.w3.org/2000/svg" xmlns:xlink="http://www.w3.org/1999/xlink" x="0px" y="0px"
	 width="110px" height="28px" viewBox="0 -0.084 110 28" enable-background="new 0 -0.084 110 28" xml:space="preserve">
<g>
	<path fill="#FFFFFF" d="M24.588,25.685l-1.297-3.524c0,0-2.107,2.35-5.266,2.35c-2.796,0-4.78-2.431-4.78-6.32
		c0-4.983,2.511-6.765,4.983-6.765c3.565,0,4.699,2.309,5.671,5.267l1.297,4.051c1.296,3.929,3.727,7.089,10.735,7.089
		c5.024,0,8.427-1.539,8.427-5.59c0-3.281-1.864-4.983-5.348-5.793l-2.593-0.567c-1.782-0.405-2.309-1.134-2.309-2.35
		c0-1.377,1.094-2.188,2.876-2.188c1.945,0,2.998,0.729,3.16,2.471l4.051-0.486c-0.324-3.646-2.836-5.145-6.968-5.145
		c-3.646,0-7.211,1.377-7.211,5.793c0,2.755,1.337,4.497,4.699,5.307l2.755,0.648c2.066,0.486,2.754,1.337,2.754,2.512
		c0,1.499-1.458,2.106-4.213,2.106c-4.092,0-5.793-2.147-6.765-5.104l-1.337-4.051c-1.701-5.267-4.416-7.211-9.804-7.211
		c-5.955,0-9.115,3.767-9.115,10.168c0,6.158,3.16,9.479,8.832,9.479C22.4,27.832,24.588,25.685,24.588,25.685L24.588,25.685z"/>
	<path fill="#FFFFFF" d="M7.252,23.781c-0.405,0.122-0.81,0.203-1.337,0.203c-0.972,0-1.661-0.445-1.661-1.621V0.284H0v23.092
		c0,3.038,2.107,4.295,4.578,4.295c0.81,0,1.58-0.122,2.552-0.365L7.252,23.781L7.252,23.781z"/>
	<path fill="#FFFFFF" d="M58.496,23.133c-1.053,0.73-1.945,1.094-3.16,1.094c-1.54,0-2.39-0.81-2.39-2.795v-9.48h5.591V8.63h-5.55
		V4.132l-4.294,0.527V8.63h-2.714v3.322h2.714v10.371c0,3.728,2.147,5.51,5.631,5.51c1.904,0,3.606-0.364,4.943-1.134L58.496,23.133
		L58.496,23.133z"/>
	<path fill="#FFFFFF" d="M62.191,24.591c0,1.661,1.297,2.998,2.957,2.998c1.742,0,3.039-1.337,3.039-2.998
		c0-1.701-1.296-2.997-3.039-2.997C63.488,21.594,62.191,22.89,62.191,24.591L62.191,24.591z"/>
	<path fill="#FFFFFF" d="M72.591,11.951v15.395h4.254V11.951h4.781V8.63h-4.781V6.928c0-2.552,1.094-3.362,2.876-3.362
		c1.256,0,2.107,0.283,3.079,0.81l0.689-3.565C82.355,0.284,81.018,0,79.397,0c-3.565,0-6.806,1.701-6.806,6.766V8.63h-2.714v3.322
		L72.591,11.951L72.591,11.951z"/>
	<path fill="#FFFFFF" d="M98.575,12.316c-0.486-3.038-2.471-4.133-5.064-4.133s-4.821,1.175-5.793,4.051L87.191,8.63h-3.444v18.717
		h4.254V16.773c0-3.606,1.864-4.983,3.849-4.983c2.066,0,2.917,1.377,2.917,3.606v11.951h4.213V16.732
		c0-3.565,1.904-4.943,3.889-4.943c2.026,0,2.876,1.377,2.876,3.606v11.951H110v-13.45c0-4.011-2.35-5.713-5.469-5.713
		C101.898,8.183,99.548,9.359,98.575,12.316L98.575,12.316z"/>
</g>
</svg>
