<?xml version="1.0" encoding="utf-8"?>
<!-- Generator: Adobe Illustrator 17.1.0, SVG Export Plug-In . SVG Version: 6.00 Build 0)  -->
<!DOCTYPE svg PUBLIC "-//W3C//DTD SVG 1.1//EN" "http://www.w3.org/Graphics/SVG/1.1/DTD/svg11.dtd">
<svg version="1.1" id="Calque_1" xmlns="http://www.w3.org/2000/svg" xmlns:xlink="http://www.w3.org/1999/xlink" x="0px" y="0px"
	 viewBox="-60 -60 160 160" enable-background="new -60 -60 160 160" xml:space="preserve">
<path fill="#FFFFFF" d="M37.037,0H2.953C1.323,0,0,1.292,0,2.882v34.232C0,38.707,1.323,40,2.953,40h34.085
	C38.668,40,40,38.707,40,37.114V2.882C40,1.292,38.668,0,37.037,0z M11.863,34.086H5.928V14.997h5.935V34.086z M8.896,12.387
	c-1.902,0-3.439-1.542-3.439-3.441c0-1.897,1.537-3.439,3.439-3.439c1.897,0,3.438,1.542,3.438,3.439
	C12.334,10.846,10.792,12.387,8.896,12.387z M34.083,34.086h-5.926v-9.282c0-2.215-0.043-5.062-3.084-5.062
	c-3.087,0-3.558,2.412-3.558,4.902v9.443h-5.931v-19.09h5.692v2.607h0.081c0.792-1.5,2.728-3.083,5.614-3.083
	c6.003,0,7.112,3.953,7.112,9.094V34.086z"/>
</svg>
