<?xml version="1.0" encoding="UTF-8" standalone="no"?>
<svg width="100px" height="100px" viewBox="0 0 100 100" version="1.1" xmlns="http://www.w3.org/2000/svg" xmlns:xlink="http://www.w3.org/1999/xlink" xmlns:sketch="http://www.bohemiancoding.com/sketch/ns">
    <!-- Generator: Sketch 3.0.3 (7891) - http://www.bohemiancoding.com/sketch -->
    <title>lonelyplanet</title>
    <desc>Created with Sketch.</desc>
    <defs></defs>
    <g id="Page-1" stroke="none" stroke-width="1" fill="none" fill-rule="evenodd" sketch:type="MSPage">
        <g id="lonelyplanet" sketch:type="MSArtboardGroup" fill="#FFFFFF">
            <g id="lp" sketch:type="MSLayerGroup" transform="translate(0.000000, 25.000000)">
                <path d="M97.0841463,33.6341463 L97.0841463,31.7621951 L97.6353659,31.7621951 L98.2987805,33.0878049 L98.4317073,33.3658537 L98.5841463,33.0634146 L99.2634146,31.7609756 L99.7463415,31.7609756 L99.7463415,33.6329268 L99.3878049,33.6329268 L99.3878049,32.0646341 L98.5695122,33.6329268 L98.2426829,33.6329268 L97.4402439,32.0426829 L97.4402439,33.6329268 L97.0841463,33.6329268 L97.0841463,33.6341463 Z M95.4195122,33.6341463 L95.4195122,31.9841463 L94.5,31.9841463 L94.5,31.7621951 L96.7134146,31.7621951 L96.7134146,31.9841463 L95.7939024,31.9841463 L95.7939024,33.6341463 L95.4195122,33.6341463 L95.4195122,33.6341463 Z M49.7463415,47.1939024 C40.2292683,47.1939024 32.1585366,41.2036585 29.1573171,32.6963415 L27.9036585,33.1243902 L26.6597561,33.5560976 C29.9365854,43.1878049 39.0317073,50 49.752439,50 C60.4182927,50 69.5219512,43.1158537 72.8512195,33.597561 L70.3670732,32.6573171 C67.3439024,41.1097561 59.2341463,47.1939024 49.7463415,47.1939024 L49.7463415,47.1939024 Z M32.7780488,27.5158537 L29.7829268,26.9682927 C28.2658537,28.1280488 26.5365854,27.6243902 25.9878049,25.8926829 L33.4719512,25.8926829 L33.4719512,30.6585366 L36.904878,30.6585366 L36.904878,28.404878 C37.3353659,30.8414634 40.4731707,31.6682927 42.1670732,29.8487805 C42.1670732,30.3829268 42.1060976,31.0121951 41.9426829,31.5243902 C41.4,32.8402439 39.5829268,32.8402439 38.6426829,31.9585366 L36.5085366,34.7426829 C37.8695122,35.8292683 39.2487805,36.352439 41.0073171,36.1841463 C42.4573171,36.0378049 43.447561,35.7804878 44.554878,34.7743902 C45.395122,33.8268293 45.9158537,32.8402439 45.9158537,31.5682927 L45.9158537,19.8280488 L42.054878,19.8280488 L42.054878,26.3256098 C42.054878,27.6231707 40.3378049,27.6231707 40.3378049,26.3256098 L40.3378049,19.8280488 L36.904878,19.8280488 L36.904878,15.4939024 L33.4719512,15.4939024 L33.4719512,23.1939024 C32.1865854,20.6804878 30.0073171,19.3841463 27.247561,19.7743902 C25.2670732,20.2219512 23.8085366,21.3280488 23.0463415,23.1939024 C22.3585366,20.9817073 20.7170732,19.8073171 18.4585366,19.6878049 C16.0670732,19.6878049 14.2731707,20.8695122 13.5512195,23.1939024 C12.345122,20.5134146 9.89756098,19.2158537 7.0195122,19.8756098 C5.29146341,20.4219512 4.29146341,21.3390244 3.43170732,22.9597561 L3.43170732,15.4939024 L0,15.4939024 L0,30.6573171 L3.43170732,30.6573171 L3.43170732,27.3756098 C4.7195122,29.4560976 6.30243902,30.6036585 8.60243902,30.6512195 C11.0512195,30.504878 12.445122,29.3317073 13.7317073,27.1414634 L13.7317073,30.6573171 L17.1670732,30.6573171 L17.1670732,24.1597561 C17.1670732,22.8597561 19.3121951,22.8597561 19.3121951,24.1597561 L19.3121951,30.6573171 L23.1731707,30.6573171 L23.1731707,27.3536585 C23.6036585,29.1512195 25.152439,30.2378049 27.05,30.7292683 C31.202439,31.1256098 32.7573171,28.2426829 32.7792683,27.5158537 L32.7780488,27.5158537 Z M8.38902439,27.4536585 C7.12317073,27.4536585 6.09878049,26.4121951 6.09878049,25.1353659 C6.09878049,23.8634146 7.12317073,22.8219512 8.38902439,22.8219512 C9.65243902,22.8219512 10.6792683,23.8634146 10.6792683,25.1353659 C10.6792683,26.4109756 9.65365854,27.4536585 8.38902439,27.4536585 L8.38902439,27.4536585 Z M30.3585366,24.597561 L25.9073171,24.597561 C26.5963415,22.4292683 29.6414634,22.4292683 30.3585366,24.597561 L30.3585366,24.597561 Z M99.8658537,26.5 L99.7036585,26.6439024 C99.0597561,27.1719512 98.104878,26.9317073 97.7719512,26.2036585 C97.4268293,25.1634146 97.6060976,24.1597561 97.6060976,22.8597561 L99.9890244,22.8597561 L99.9890244,19.8280488 L97.4134146,19.8280488 L97.4134146,17.6597561 L93.9804878,17.6597561 L93.9804878,23.1939024 C93.552439,21.6634146 92.4634146,20.7804878 90.9658537,20.0878049 C87.9682927,19.0158537 85.1317073,20.2780488 83.8121951,23.1939024 C83.2914634,21.6634146 82.5219512,20.7256098 81.0609756,20.0304878 C78.1621951,19.004878 75.3768293,20.2219512 74.3707317,23.1939024 C73.5719512,21.3280488 72.4426829,20.347561 70.4621951,19.7963415 C67.7939024,19.35 65.6585366,20.5243902 64.3707317,22.9597561 L64.3707317,15.4939024 L60.5073171,15.4939024 L60.5073171,22.9597561 C60.0792683,22.0439024 59.6219512,21.3939024 58.8390244,20.7463415 C55.1268293,18.0304878 50.2073171,20.7378049 50.2073171,25.3085366 L50.2073171,34.9926829 L53.9134146,34.9926829 C53.9134146,34.1268293 53.802439,30.2268293 53.802439,30.2268293 L54.1,30.395122 C56.8,31.0890244 59.6487805,29.7109756 60.5073171,27.5792683 L60.5073171,30.6597561 L64.3707317,30.6597561 L64.3707317,27.5792683 C65.2280488,29.8134146 67.3853659,31.0987805 69.852439,30.9195122 C70.9939024,30.9939024 71.9402439,28.0329268 71.9426829,28.8792683 L71.9365854,31.0926829 L74.3573171,31.0926829 L77.6756098,30.8621951 L77.6756098,24.1487805 C77.6756098,22.752439 80.045122,22.5292683 80.1634146,23.9585366 C80.1914634,26.154878 80.2865854,28.4926829 80.2865854,30.6585366 L83.6841463,30.6585366 L83.6841463,27.354878 C84.5402439,28.854878 85.2926829,29.7231707 86.745122,30.4390244 C89.6134146,31.3853659 92.6463415,30.9231707 93.7658537,27.3890244 L90.7585366,26.8012195 C90.0646341,27.8536585 87.5987805,28.0597561 86.8121951,25.8926829 L94.1085366,25.8926829 C94.1085366,27.6243902 94.1439024,29.0341463 95.6939024,30.1743902 C97.247561,31.3158537 100.034146,30.2658537 100.00122,29.5268293 L99.8682927,26.5012195 L99.8658537,26.5 Z M55.9,27.5158537 C54.6378049,27.5158537 53.6060976,26.4719512 53.6060976,25.2 C53.6060976,23.9304878 54.6378049,22.8841463 55.9,22.8841463 C57.1621951,22.8841463 58.1926829,23.9304878 58.1926829,25.2 C58.1926829,26.4719512 57.1621951,27.5158537 55.9,27.5158537 L55.9,27.5158537 Z M69.2743902,27.5158537 C68.0109756,27.5158537 66.9841463,26.4719512 66.9841463,25.2 C66.9841463,23.9304878 68.0097561,22.8841463 69.2743902,22.8841463 C70.5365854,22.8841463 71.5670732,23.9304878 71.5670732,25.2 C71.5670732,26.4719512 70.5365854,27.5158537 69.2743902,27.5158537 L69.2743902,27.5158537 Z M86.7865854,24.597561 C87.3853659,22.4292683 90.4817073,22.4292683 91.1743902,24.597561 L86.7865854,24.597561 L86.7865854,24.597561 Z M49.7621951,2.8597561 C59.2768293,2.8597561 67.352439,8.95731707 70.3536585,17.6256098 L71.6060976,17.1890244 L72.85,16.747561 C69.5731707,6.93780488 60.4817073,-1.77635684e-14 49.754878,-1.77635684e-14 C39.0914634,-1.77635684e-14 29.9853659,7.01219512 26.6573171,16.7085366 L29.1439024,17.6621951 C32.1646341,9.05365854 40.2756098,2.8597561 49.7621951,2.8597561 L49.7621951,2.8597561 Z" id="Shape" sketch:type="MSShapeGroup"></path>
            </g>
        </g>
    </g>
</svg>