<?xml version="1.0" encoding="UTF-8" standalone="no"?>
<svg width="120px" height="120px" viewBox="0 0 120 120" version="1.1" xmlns="http://www.w3.org/2000/svg" xmlns:xlink="http://www.w3.org/1999/xlink" xmlns:sketch="http://www.bohemiancoding.com/sketch/ns">
    <!-- Generator: Sketch 3.0.3 (7891) - http://www.bohemiancoding.com/sketch -->
    <title>mailgun</title>
    <desc>Created with Sketch.</desc>
    <defs></defs>
    <g id="Page-1" stroke="none" stroke-width="1" fill="none" fill-rule="evenodd" sketch:type="MSPage">
        <g id="mailgun" sketch:type="MSArtboardGroup" fill="#FFFFFF">
            <g id="Mailgun_Secondary" sketch:type="MSLayerGroup" transform="translate(0.000000, 42.000000)">
                <path d="M84.7109131,14.5102326 C87.0352784,14.5102326 88.6300223,16.4179535 88.6300223,19.1578605 C88.6300223,22.0018605 87.068686,23.9090233 84.7429844,23.9090233 C82.3852116,23.9090233 80.8578174,22.0710698 80.8578174,19.2270698 C80.8578174,16.3833488 82.3852116,14.5102326 84.7109131,14.5102326 L84.7109131,14.5102326 Z M91.7184855,11.8744186 L88.4966592,11.8744186 L88.4966592,13.5393488 C87.3677506,12.2215814 85.8398218,11.4929302 84.1119822,11.4929302 C80.3254343,11.4929302 77.5699777,14.787907 77.5699777,19.3314419 C77.5699777,23.7011163 80.3254343,26.9271628 84.0796437,26.9271628 C85.8398218,26.9271628 87.1678396,26.3023256 88.4966592,24.8453023 L88.4966592,26.8911628 C88.4966592,29.944186 87.334343,31.435814 84.9431626,31.435814 C83.6474833,31.435814 82.3852116,30.7763721 81.8210245,29.7354419 C81.4885523,29.1457674 81.3888641,28.5915349 81.2891759,27.3426977 L78.1341648,27.3426977 C78.1665033,31.7123721 80.7575947,34.4522791 84.909755,34.4522791 C87.3014699,34.4522791 89.3607127,33.4467907 90.523029,31.6434419 C91.453363,30.256186 91.7184855,28.9727442 91.7184855,26.1293023 L91.7184855,11.8744186 L91.7184855,11.8744186 Z" id="Fill-1" sketch:type="MSShapeGroup"></path>
                <path d="M29.5103786,11.8744186 L29.5103786,26.475907 L32.7046771,26.475907 L32.7046771,18.9499535 C32.7046771,15.8628837 33.4949666,14.5102326 35.305657,14.5102326 C36.7550111,14.5102326 37.4464143,15.7587907 37.4464143,18.3948837 L37.4464143,26.475907 L40.6404454,26.475907 L40.6404454,18.9499535 C40.6404454,15.828 41.4312695,14.5102326 43.2419599,14.5102326 C44.7896659,14.5102326 45.3824499,15.5860465 45.3824499,18.3605581 L45.3824499,26.475907 L48.5764811,26.475907 L48.5764811,17.4586047 C48.5764811,13.5393488 46.963029,11.4929302 43.8673497,11.4929302 C42.1555457,11.4929302 40.7390646,12.255907 39.7512695,13.6434419 C38.8952339,12.255907 37.5779065,11.4929302 36.030735,11.4929302 C34.6473942,11.4929302 33.923118,11.8744186 32.7046771,13.2270698 L32.7046771,11.8744186 L29.5103786,11.8744186" id="Fill-2" sketch:type="MSShapeGroup"></path>
                <path d="M56.8848107,14.5102326 C59.2433853,14.5102326 60.8702004,16.4525581 60.8702004,19.192186 C60.8702004,22.0018605 59.2433853,23.9090233 56.8848107,23.9090233 C54.6259243,23.9090233 52.9985746,21.9323721 52.9985746,19.192186 C52.9985746,16.4874419 54.6593318,14.5102326 56.8848107,14.5102326 L56.8848107,14.5102326 Z M60.6708241,11.8744186 L60.6708241,13.5739535 C59.2757238,12.0828837 58.0802673,11.4929302 56.3200891,11.4929302 C52.5666815,11.4929302 49.7102004,14.7533023 49.7102004,19.0883721 C49.7102004,23.6662326 52.5001336,26.9271628 56.386637,26.9271628 C58.0802673,26.9271628 59.1765702,26.4061395 60.6708241,24.9493953 L60.6708241,26.475907 L63.8926503,26.475907 L63.8926503,11.8744186 L60.6708241,11.8744186 L60.6708241,11.8744186 Z" id="Fill-3" sketch:type="MSShapeGroup"></path>
                <path d="M68.0878396,3.75125581 C66.8923831,3.75125581 65.9623163,4.72269767 65.9623163,5.93637209 C65.9623163,7.15004651 66.9257906,8.15581395 68.0549666,8.15581395 C69.2180846,8.15581395 70.18049,7.15004651 70.18049,5.93637209 C70.18049,4.72269767 69.2504232,3.75125581 68.0878396,3.75125581 L68.0878396,3.75125581 Z M66.4602227,26.475907 L69.6825835,26.475907 L69.6825835,11.8744186 L66.4602227,11.8744186 L66.4602227,26.475907 Z" id="Fill-4" sketch:type="MSShapeGroup"></path>
                <path d="M72.6382183,0.0533023256 L75.8597773,0.0533023256 L75.8597773,26.475907 L72.6382183,26.475907 L72.6382183,0.0533023256 Z" id="Fill-5" sketch:type="MSShapeGroup"></path>
                <path d="M96.877951,11.8744186 L93.6555902,11.8744186 L93.6555902,20.3369302 C93.6555902,22.6261395 94.054343,23.8749767 95.1167038,25.0889302 C96.2466815,26.3023256 97.7740757,26.9271628 99.601069,26.9271628 C101.460935,26.9271628 102.988864,26.3023256 104.11804,25.0889302 C105.181203,23.8749767 105.578886,22.6261395 105.578886,20.3369302 L105.578886,11.8744186 L102.357862,11.8744186 L102.357862,20.2677209 C102.357862,22.7648372 101.494343,23.9090233 99.601069,23.9090233 C97.7412027,23.9090233 96.877951,22.7648372 96.877951,20.2677209 L96.877951,11.8744186" id="Fill-6" sketch:type="MSShapeGroup"></path>
                <path d="M107.73167,11.8744186 L107.73167,26.475907 L110.954566,26.475907 L110.954566,19.4352558 C110.954566,15.828 111.751537,14.5102326 113.909933,14.5102326 C115.90343,14.5102326 116.534165,15.4470698 116.534165,18.3256744 L116.534165,26.475907 L119.755724,26.475907 L119.755724,17.527814 C119.755724,13.4349767 118.128374,11.4929302 114.707171,11.4929302 C113.179243,11.4929302 112.21657,11.943907 110.954566,13.2270698 L110.954566,11.8744186 L107.73167,11.8744186" id="Fill-7" sketch:type="MSShapeGroup"></path>
                <path d="M13.0497996,15.8243721 C14.2973719,15.8243721 15.308686,16.880093 15.308686,18.1825116 C15.308686,19.4852093 14.2973719,20.5409302 13.0497996,20.5409302 C11.8024944,20.5409302 10.7911804,19.4849302 10.7911804,18.1825116 C10.7911804,16.880093 11.8024944,15.8243721 13.0497996,15.8243721 L13.0497996,15.8243721 Z M5.35376392,18.1825116 C5.35376392,13.744186 8.79928731,10.1464186 13.0497996,10.1464186 C17.3005791,10.1464186 20.7458352,13.744186 20.7458352,18.1825116 C20.7458352,18.4763721 20.7308686,18.7660465 20.7014699,19.0512558 C20.6429399,19.8346047 21.1934967,20.4323721 21.9388864,20.4323721 C23.204098,20.4323721 23.3390646,18.7292093 23.3390646,18.1825116 C23.3390646,12.2486512 18.732294,7.43860465 13.0497996,7.43860465 C7.36703786,7.43860465 2.76053452,12.2486512 2.76053452,18.1825116 C2.76053452,24.116093 7.36703786,28.9261395 13.0497996,28.9261395 C16.067706,28.9261395 18.7820045,27.5701395 20.6643207,25.4093023 L22.7794209,27.264 C20.3901114,30.0527442 16.9162584,31.8094884 13.0497996,31.8094884 C5.84258352,31.8094884 0,25.708186 0,18.1825116 C0,10.6568372 5.84258352,4.55609302 13.0497996,4.55609302 C20.2572829,4.55609302 26.0998664,10.6568372 26.0998664,18.1825116 C26.0998664,21.2076279 24.7202673,23.664 21.9495768,23.664 C20.7303341,23.664 19.9892205,23.0807442 19.5843207,22.4296744 C18.2253007,24.7043721 15.8071269,26.2188837 13.0497996,26.2188837 C8.79928731,26.2188837 5.35376392,22.6205581 5.35376392,18.1825116 L5.35376392,18.1825116 Z M13.0497996,13.0289302 C10.3240089,13.0289302 8.11429844,15.336 8.11429844,18.1825116 C8.11429844,21.0287442 10.3240089,23.3363721 13.0497996,23.3363721 C15.7755902,23.3363721 17.9855679,21.0287442 17.9855679,18.1825116 C17.9855679,15.336 15.7755902,13.0289302 13.0497996,13.0289302 L13.0497996,13.0289302 Z" id="Fill-8" sketch:type="MSShapeGroup"></path>
                <path d="M75.4690423,33.271814 L75.3787082,33.271814 L75.3450334,33.4624186 L75.3108241,33.6516279 L75.4091759,33.6516279 C75.4562138,33.6505116 75.4866815,33.6496744 75.5104677,33.6482791 C75.5371938,33.6468837 75.5567038,33.6421395 75.5786192,33.636 C75.6641425,33.6100465 75.725078,33.544186 75.7400445,33.4610233 C75.7544766,33.3784186 75.7186637,33.3136744 75.6424944,33.2882791 C75.6227171,33.2804651 75.6056125,33.2779535 75.5794209,33.2751628 C75.5545657,33.2732093 75.525167,33.2732093 75.4802673,33.271814 L75.4690423,33.271814 L75.4690423,33.271814 Z M75.2803563,33.1506977 C75.2811581,33.1490233 75.2832962,33.1476279 75.285167,33.1476279 L75.4930958,33.1476279 C75.5473497,33.148186 75.581559,33.148186 75.6090869,33.1506977 C75.6448998,33.1529302 75.6716258,33.1596279 75.7002227,33.1699535 C75.8049889,33.2062326 75.8640535,33.2930233 75.8640535,33.4035349 C75.8640535,33.4225116 75.8632517,33.4420465 75.858441,33.4624186 C75.8346548,33.5983256 75.7528731,33.7088372 75.6008018,33.752093 L75.7330958,34.160093 C75.7330958,34.1614884 75.7344321,34.1614884 75.7344321,34.1614884 C75.7344321,34.1631628 75.7330958,34.1637209 75.7330958,34.1645581 C75.732294,34.1653953 75.7314922,34.1659535 75.7304232,34.1659535 L75.5954566,34.1659535 C75.5943875,34.1659535 75.5922494,34.1653953 75.5914477,34.1637209 L75.4655679,33.7744186 L75.3827171,33.7766512 L75.2889087,33.7766512 L75.2188864,34.1631628 C75.2188864,34.1645581 75.2162138,34.1659535 75.215412,34.1659535 L75.1036971,34.1659535 C75.1028953,34.1659535 75.1010245,34.1653953 75.1002227,34.1645581 C75.0988864,34.1637209 75.0988864,34.1631628 75.0988864,34.1614884 L75.1691759,33.771907 L75.1699777,33.7668837 L75.2261024,33.4610233 L75.2803563,33.1506977 L75.2803563,33.1506977 Z M74.6359911,33.6586047 C74.6782183,33.1833488 75.0796437,32.7968372 75.5353229,32.7968372 C75.9920713,32.7968372 76.3280178,33.1833488 76.2871269,33.6586047 C76.2448998,34.1341395 75.8426726,34.5195349 75.3872606,34.5195349 C74.9315813,34.5195349 74.5956347,34.1341395 74.6359911,33.6586047 L74.6359911,33.6586047 Z M74.7485078,33.6694884 C74.7134967,34.0772093 74.9970601,34.4026047 75.3872606,34.4026047 C75.7849443,34.4026047 76.1390646,34.064093 76.174343,33.6482791 C76.2093541,33.2405581 75.9247216,32.9151628 75.5353229,32.9151628 C75.1387082,32.9151628 74.784588,33.2536744 74.7485078,33.6694884 L74.7485078,33.6694884 Z" id="Fill-9" sketch:type="MSShapeGroup"></path>
                <path d="M40.0709131,29.3042791 C40.154833,29.3042791 40.2569265,29.3132093 40.332294,29.3277209 C40.3341648,29.3277209 40.3363029,29.3296744 40.3371047,29.3310698 C40.3379065,29.3327442 40.3379065,29.3341395 40.3379065,29.3369302 L40.0663697,30.7674419 C40.0653007,30.7696744 40.0644989,30.7710698 40.0628953,30.772186 C40.0607572,30.7727442 40.0588864,30.7738605 40.0572829,30.7727442 C40.0083742,30.7632558 39.9300668,30.7498605 39.8373274,30.7498605 C38.8770601,30.7498605 38.5026281,31.7302326 38.3564365,32.5403721 L38.0156793,34.4464186 C38.0148775,34.4489302 38.0119376,34.4517209 38.009265,34.4517209 L36.6093541,34.4517209 C36.6074833,34.4517209 36.6053452,34.4508837 36.6037416,34.4489302 C36.6018708,34.4475349 36.6018708,34.4450233 36.6018708,34.4433488 L37.5167038,29.4217674 C37.5177728,29.4189767 37.5207127,29.416186 37.5241871,29.416186 L38.7546548,29.416186 C38.7565256,29.416186 38.7586637,29.4170233 38.7602673,29.4189767 C38.761069,29.4192558 38.7621381,29.4214884 38.7621381,29.4234419 L38.6995991,29.7622326 C38.6418708,30.0853953 38.5467261,30.276 38.4860579,30.3661395 L38.476971,30.3826047 C38.4547884,30.4308837 38.4884633,30.48 38.5258797,30.4978605 C38.5624944,30.516 38.62049,30.5112558 38.6426726,30.4635349 L38.6482851,30.4456744 C38.6755457,30.3393488 38.7316704,30.1082791 38.9224944,29.8858605 C39.2480178,29.5088372 39.6438307,29.3042791 40.0709131,29.3042791" id="Fill-10" sketch:type="MSShapeGroup"></path>
                <path d="M55.502539,29.3140465 C56.0846325,29.3140465 56.5133185,29.4460465 56.7212472,29.5691163 C56.7241871,29.5699535 56.7260579,29.5733023 56.7249889,29.5763721 L56.5245434,30.676186 C56.5245434,30.6792558 56.5221381,30.6803721 56.5197327,30.6820465 C56.5178619,30.6828837 56.514922,30.6828837 56.5133185,30.6809302 C56.2783964,30.548093 55.8718931,30.4046512 55.4346548,30.4046512 C55.0682405,30.4046512 54.8298441,30.5648372 54.8298441,30.8344186 C54.8298441,31.0264186 55.0131849,31.1988837 55.3993764,31.395907 C55.9031626,31.6590698 56.4718931,32.0486512 56.4718931,32.7524651 C56.4718931,33.2112558 56.3254343,33.5955349 56.0365256,33.8955349 C55.6519376,34.2937674 55.0276169,34.5114419 54.2774165,34.5058605 C53.7004009,34.4949767 53.1180401,34.3389767 52.8261915,34.1182326 C52.8235189,34.1162791 52.8213808,34.1134884 52.8235189,34.1104186 L53.0250334,33.004186 C53.0250334,33.0019535 53.0258352,33.0002791 53.027706,32.9994419 C53.0301114,32.9977674 53.0333185,32.9977674 53.034922,32.9994419 C53.3468151,33.2037209 53.9625835,33.4250233 54.4137194,33.4250233 C54.7643653,33.4250233 55.0003563,33.256186 55.0003563,32.9854884 C55.0003563,32.7407442 54.8341203,32.5691163 54.4110468,32.3528372 C53.7410245,32.0026047 53.4058797,31.56 53.4058797,31.0367442 C53.4058797,30.0094884 54.2445434,29.3140465 55.502539,29.3140465" id="Fill-11" sketch:type="MSShapeGroup"></path>
                <path d="M49.5346102,27.6692093 L50.9254343,27.6692093 C50.9270379,27.6692093 50.9291759,27.6708837 50.9299777,27.6725581 C50.9318486,27.6742326 50.9318486,27.6756279 50.9318486,27.6784186 L50.2057016,31.668 C50.2057016,31.6699535 50.2057016,31.6713488 50.2073051,31.672186 C50.2094432,31.6727442 50.210245,31.6727442 50.2121158,31.6713488 L52.0824053,29.4189767 C52.0832071,29.4170233 52.085078,29.416186 52.0880178,29.416186 L53.6122049,29.416186 C53.6146102,29.416186 53.6178174,29.4175814 53.6186192,29.420093 C53.6194209,29.4214884 53.6194209,29.4226047 53.6194209,29.4234419 C53.6194209,29.4253953 53.6186192,29.4267907 53.6178174,29.4287442 L51.68098,31.7062326 L52.8620045,34.383907 C52.8628062,34.3847442 52.8628062,34.3855814 52.8628062,34.3872558 C52.8628062,34.387814 52.8628062,34.3894884 52.8620045,34.3906047 C52.8612027,34.3928372 52.8582628,34.3942326 52.8555902,34.3942326 L51.3506459,34.3942326 C51.347706,34.3942326 51.3450334,34.392 51.3442316,34.3894884 L50.1992873,31.7386047 C50.1984855,31.7369302 50.1974165,31.735814 50.1952784,31.735814 C50.1936748,31.7369302 50.1928731,31.7374884 50.1928731,31.7391628 L49.7104677,34.387814 C49.7096659,34.392 49.7067261,34.3942326 49.7032517,34.3942326 L48.3129621,34.3942326 C48.3113586,34.3942326 48.308686,34.3928372 48.3078842,34.3911628 C48.3057461,34.3894884 48.3049443,34.3872558 48.3057461,34.3855814 L49.5273942,27.6756279 C49.528196,27.6717209 49.5308686,27.6692093 49.5346102,27.6692093" id="Fill-12" sketch:type="MSShapeGroup"></path>
                <path d="M47.652294,29.3246512 C48.0085523,29.3246512 48.3730958,29.3891163 48.6272606,29.4979535 C48.6296659,29.4987907 48.631804,29.5018605 48.6310022,29.5063256 L48.4153229,30.6901395 C48.4145212,30.6923721 48.4137194,30.6954419 48.4105122,30.6957209 C48.4089087,30.6968372 48.4062361,30.6968372 48.4043653,30.6954419 C48.1865479,30.5684651 47.9331849,30.5059535 47.6322494,30.5059535 C46.6262806,30.5059535 46.0260134,31.4224186 46.0260134,32.3062326 C46.0260134,33.0552558 46.5057461,33.3231628 46.951804,33.3231628 C47.3516258,33.3231628 47.6907795,33.2324651 48.1226726,33.0103256 C48.1242762,33.0089302 48.1274833,33.0097674 48.1290869,33.012 C48.1320267,33.0133953 48.1328285,33.0153488 48.1328285,33.0178605 L47.9120713,34.236 C47.910735,34.2376744 47.9099332,34.2396279 47.9075278,34.2404651 C47.5804009,34.4056744 47.0742094,34.5058605 46.5543875,34.5058605 C45.3319376,34.5058605 44.5440535,33.7063256 44.5440535,32.468093 C44.5440535,30.676186 45.8795546,29.3246512 47.652294,29.3246512" id="Fill-13" sketch:type="MSShapeGroup"></path>
                <path d="M72.9741648,29.3140465 C73.9689087,29.3140465 74.6325167,29.9187907 74.6325167,30.8137674 C74.6325167,31.2276279 74.5036971,31.568093 74.2495323,31.8276279 C73.8216481,32.2626977 73.0484633,32.4812093 71.8888196,32.4890233 L71.8880178,32.4890233 C71.6089978,32.4890233 71.5453898,32.3422326 71.4964811,32.2448372 L71.4873942,32.2292093 C71.456392,32.187907 71.3962584,32.1965581 71.3641871,32.2227907 C71.3326503,32.248186 71.3115367,32.3056744 71.3428062,32.3464186 L71.3556347,32.360093 C71.4844543,32.4823256 71.5290869,32.5091163 71.5820045,32.7058605 C71.6052561,32.8046512 71.6429399,32.9045581 71.6955902,32.9804651 C71.8786637,33.2224186 72.2025835,33.3533023 72.6040089,33.3533023 C73.1909131,33.3533023 73.6992428,33.2056744 74.2514031,32.8724651 C74.254343,32.8707907 74.2567483,32.8707907 74.2599555,32.8724651 C74.261559,32.8744186 74.2634298,32.8774884 74.2623608,32.88 L74.04,34.1031628 C74.04,34.1056744 74.0378619,34.1073488 74.0359911,34.1093023 C73.3624944,34.4665116 72.5727394,34.5058605 72.2632517,34.5058605 C70.9480624,34.5058605 70.1959911,33.7414884 70.1959911,32.4069767 C70.1959911,31.6384186 70.465657,30.8676279 70.9381737,30.2924651 C71.4555902,29.6617674 72.1777283,29.3140465 72.9741648,29.3140465 L72.9741648,29.3140465 Z M72.1151893,31.3986977 C72.1208018,31.3986977 72.127216,31.3986977 72.1336303,31.3981395 C72.6924722,31.3735814 73.0262806,31.2834419 73.1909131,31.1140465 C73.2692205,31.0328372 73.3061024,30.9343256 73.3061024,30.8137674 C73.3061024,30.5564651 73.1027171,30.3946047 72.7983073,30.3946047 C72.3399555,30.3946047 72.0066815,30.6887442 71.8233408,31.0403721 C71.8179955,31.0498605 71.8123831,31.0610233 71.8075724,31.0707907 C71.6742094,31.3308837 71.6322494,31.3596279 71.5122494,31.4380465 L71.4978174,31.4489302 C71.4587973,31.4832558 71.4716258,31.5426977 71.4978174,31.5750698 C71.5234744,31.6068837 71.5755902,31.6297674 71.6146102,31.5951628 L71.6274388,31.5809302 C71.7249889,31.4603721 71.7450334,31.416 72.1151893,31.3986977 L72.1151893,31.3986977 Z" id="Fill-14" sketch:type="MSShapeGroup"></path>
                <path d="M58.7112695,29.3938605 L58.6698441,29.6226977 C58.6043653,29.9824186 58.5022717,30.1216744 58.434922,30.2065116 L58.4250334,30.2221395 C58.3999109,30.2690233 58.4269042,30.3192558 58.4619154,30.3393488 C58.497461,30.3597209 58.5602673,30.3611163 58.5851225,30.3142326 L58.5915367,30.2972093 C58.6265479,30.1931163 58.6818708,29.9818605 58.9018263,29.7622326 C59.2249443,29.4731163 59.6186192,29.3140465 60.0264588,29.3140465 C60.9626726,29.3140465 61.5688196,30.0552558 61.5688196,31.2100465 C61.5688196,32.4206512 61.0121158,33.6622326 60.0101559,34.2212093 C59.2305568,34.6537674 58.5188419,34.5563721 58.1708686,34.2717209 C58.087216,34.2027907 58.0661024,34.023907 58.0575501,33.9533023 L58.0532739,33.9343256 C58.0375056,33.8846512 57.9805791,33.8651163 57.9372829,33.8815814 C57.8982628,33.8955349 57.864588,33.943814 57.87902,33.9932093 L57.8865033,34.0107907 C57.9509131,34.1293953 57.9942094,34.2150698 57.9813808,34.3233488 L57.6785746,35.9933023 C57.6785746,35.9974884 57.6751002,36 57.6710913,36 L56.2711804,36 C56.2693096,36 56.267706,35.9988837 56.2663697,35.9974884 C56.2647661,35.9946977 56.2639644,35.9933023 56.2647661,35.9910698 L57.466637,29.3910698 C57.466637,29.3877209 57.4703786,29.3843721 57.4730512,29.3843721 L58.704588,29.3857674 C58.7067261,29.3857674 58.7083296,29.3866047 58.7102004,29.3882791 C58.7112695,29.3899535 58.7123385,29.3927442 58.7112695,29.3938605 L58.7112695,29.3938605 Z M58.8098886,33.3943256 C59.5534076,33.3943256 60.0972829,32.2931163 60.0972829,31.3213953 C60.0972829,31.0869767 60.0446325,30.5168372 59.5277506,30.5168372 C59.0001782,30.5168372 58.5557238,31.1427907 58.383608,32.0935814 C58.3253452,32.4181395 58.1591091,33.3943256 58.8098886,33.3943256 L58.8098886,33.3943256 Z" id="Fill-15" sketch:type="MSShapeGroup"></path>
                <path d="M69.4797327,29.3246512 C69.8370601,29.3246512 70.2016036,29.3891163 70.4536303,29.4979535 C70.4576392,29.4987907 70.4592428,29.5018605 70.4592428,29.5063256 L70.2432962,30.6901395 C70.2422272,30.6923721 70.2400891,30.6954419 70.2384855,30.6957209 C70.236882,30.6968372 70.2347439,30.6968372 70.2328731,30.6954419 C70.0139866,30.5684651 69.7616927,30.5059535 69.46049,30.5059535 C68.4537194,30.5059535 67.8537194,31.4224186 67.8537194,32.3062326 C67.8537194,33.0552558 68.3331849,33.3231628 68.7797773,33.3231628 C69.1790646,33.3231628 69.5187528,33.2324651 69.9506459,33.0103256 C69.9530512,33.0089302 69.9559911,33.0097674 69.9578619,33.012 C69.9594655,33.0133953 69.9616036,33.0153488 69.9616036,33.0178605 L69.73951,34.236 C69.7387082,34.2376744 69.7387082,34.2396279 69.7349666,34.2404651 C69.4083742,34.4056744 68.9029844,34.5058605 68.3810245,34.5058605 C67.1596437,34.5058605 66.3714922,33.7063256 66.3714922,32.468093 C66.3714922,30.676186 67.7075278,29.3246512 69.4797327,29.3246512" id="Fill-16" sketch:type="MSShapeGroup"></path>
                <path d="M64.2804454,34.3950698 L64.3218708,34.1726512 C64.3616927,33.9717209 64.5153675,33.696 64.5744321,33.6064186 L64.5835189,33.5899535 C64.6043653,33.5413953 64.5730958,33.4855814 64.5362138,33.468 C64.4923831,33.4484651 64.4370601,33.4643721 64.4162138,33.5126512 L64.409265,33.5305116 C64.3857461,33.6365581 64.3293541,33.8771163 64.1115367,34.0933953 C63.8333185,34.3585116 63.4476615,34.515907 63.0288641,34.515907 C62.0891759,34.515907 61.6647661,33.644093 61.6628953,32.7725581 C61.6628953,31.7818605 62.0357238,30.8014884 62.65951,30.1493023 C63.182539,29.6028837 63.8573719,29.3140465 64.6121158,29.3140465 C65.1853898,29.3171163 65.6095323,29.4904186 65.8757238,29.8269767 C66.2696659,30.3253953 66.2383964,31.0733023 66.1397773,31.6163721 L65.6301114,34.3975814 C65.6301114,34.4014884 65.6261024,34.4031628 65.6236971,34.4031628 L64.2868597,34.4031628 C64.2852561,34.4031628 64.2825835,34.4026047 64.2817817,34.4014884 C64.2804454,34.3995349 64.2788419,34.3967442 64.2804454,34.3950698 L64.2804454,34.3950698 Z M63.7566147,30.7317209 C63.3768374,31.1285581 63.0914031,31.8742326 63.0922049,32.4675349 C63.0922049,32.9877209 63.2766147,33.3128372 63.5983964,33.3128372 C64.1131403,33.3128372 64.5567929,32.7507907 64.7096659,31.927814 C64.742539,31.744186 64.7775501,31.5569302 64.8024053,31.3906047 C64.8280624,31.2245581 64.844098,31.0780465 64.8392873,30.9756279 C64.8216481,30.6234419 64.6471269,30.4350698 64.3330958,30.4350698 C64.1404009,30.4350698 63.9420935,30.5391628 63.7566147,30.7317209 L63.7566147,30.7317209 Z" id="Fill-17" sketch:type="MSShapeGroup"></path>
                <path d="M42.4522049,34.3950698 L42.4944321,34.1726512 C42.5347884,33.9717209 42.6873942,33.696 42.745657,33.6064186 L42.7547439,33.5899535 C42.7761247,33.5413953 42.745657,33.4855814 42.7079733,33.468 C42.663608,33.4484651 42.6096214,33.4643721 42.5874388,33.5126512 L42.5826281,33.5305116 C42.556971,33.6365581 42.5019154,33.8771163 42.2835635,34.0933953 C42.0058797,34.3585116 41.6199555,34.515907 41.2000891,34.515907 C40.2614699,34.515907 39.8365256,33.644093 39.8365256,32.7725581 C39.8351893,31.7818605 40.2069488,30.8014884 40.8320713,30.1493023 C41.3551002,29.6028837 42.0293987,29.3140465 42.7833408,29.3140465 C43.3576837,29.3171163 43.7820935,29.4904186 44.0490869,29.8269767 C44.4419599,30.3253953 44.4098886,31.0733023 44.3112695,31.6163721 L43.8021381,34.3975814 C43.8013363,34.4014884 43.7997327,34.4031628 43.794922,34.4031628 L42.4586192,34.4031628 C42.4567483,34.4031628 42.4548775,34.4026047 42.4538085,34.4014884 C42.4530067,34.3995349 42.4514031,34.3967442 42.4522049,34.3950698 L42.4522049,34.3950698 Z M41.9291759,30.7317209 C41.5493987,31.1285581 41.2639644,31.8742326 41.2639644,32.4675349 C41.2639644,32.9877209 41.4497105,33.3128372 41.7701559,33.3128372 C42.285167,33.3128372 42.7282851,32.7507907 42.8808909,31.927814 C42.9151002,31.744186 42.9498441,31.5569302 42.9749666,31.3906047 C42.9998218,31.2245581 43.0153229,31.0780465 43.0105122,30.9756279 C42.9952784,30.6234419 42.8194209,30.4350698 42.5043207,30.4350698 C42.3132294,30.4350698 42.1133185,30.5391628 41.9291759,30.7317209 L41.9291759,30.7317209 Z" id="Fill-18" sketch:type="MSShapeGroup"></path>
                <path d="M30.8017817,33.9209302 C30.405167,33.9209302 30.056392,33.5765581 30.056392,33.0664186 L30.056392,33.055814 C30.056392,32.5448372 30.405167,32.2007442 30.8017817,32.2007442 C31.1994655,32.2007442 31.5335412,32.539814 31.5335412,33.055814 L31.5335412,33.0664186 C31.5335412,33.592186 31.2045434,33.9209302 30.8017817,33.9209302 L30.8017817,33.9209302 Z M30.9420935,34.4528372 C31.5485078,34.4528372 32.1295323,33.9516279 32.1295323,33.0664186 L32.1295323,33.055814 C32.1295323,32.1655814 31.5436971,31.6693953 30.9420935,31.6693953 C30.5262361,31.6693953 30.2597773,31.892093 30.0700223,32.1700465 L30.0700223,30.7029767 L29.4839198,30.7029767 L29.4839198,34.3964651 L30.0700223,34.3964651 L30.0700223,33.9817674 C30.2501559,34.2295814 30.5163474,34.4528372 30.9420935,34.4528372 L30.9420935,34.4528372 Z" id="Fill-19" sketch:type="MSShapeGroup"></path>
                <path d="M33.5943875,33.7085581 L32.8719822,31.7249302 L32.2425835,31.7249302 L33.3089532,34.4017674 C33.2114031,34.6289302 33.1103786,34.7053953 32.9454788,34.7053953 C32.8241425,34.7053953 32.7073497,34.6646512 32.6007127,34.603814 L32.4021381,35.059814 C32.5820045,35.1611163 32.7653452,35.2213953 33.0077506,35.2213953 C33.4193318,35.2213953 33.6478396,35.0190698 33.8514922,34.4723721 L34.8681514,31.7249302 L34.2579955,31.7249302 L33.5943875,33.7085581" id="Fill-20" sketch:type="MSShapeGroup"></path>
            </g>
        </g>
    </g>
</svg>