<?xml version="1.0" encoding="utf-8"?>
<!-- Generator: Adobe Illustrator 17.0.0, SVG Export Plug-In . SVG Version: 6.00 Build 0)  -->
<!DOCTYPE svg PUBLIC "-//W3C//DTD SVG 1.1//EN" "http://www.w3.org/Graphics/SVG/1.1/DTD/svg11.dtd">
<svg version="1.1" id="Layer_1" xmlns="http://www.w3.org/2000/svg" xmlns:xlink="http://www.w3.org/1999/xlink" x="0px" y="0px"
	 width="116px" height="30px" viewBox="0 -0.794 116 30" enable-background="new 0 -0.794 116 30" xml:space="preserve">
<g>
	<path fill="#FFFFFF" d="M113.646,13.936c-0.649-0.807-1.557-1.237-2.626-1.246h-0.021c-1.444,0-2.784,1.095-4.098,3.349
		l-0.105,0.18l-0.067-0.196c-0.332-0.966-0.627-1.771-0.804-2.252c-0.123-0.336-0.178-0.487-0.191-0.536
		c-0.063-0.244-0.272-0.395-0.545-0.395c-0.168,0-0.346,0.057-0.515,0.165c-0.167,0.106-0.261,0.237-0.294,0.41l-0.009,0.026
		c-1.315,4.101-2.4,6.094-3.318,6.094c-0.133-0.001-0.238-0.045-0.316-0.131c-0.241-0.266-0.181-0.898-0.1-1.774
		c0.06-0.643,0.128-1.372,0.1-2.144c-0.054-1.486-0.867-2.378-2.174-2.388c-1.661-0.001-2.737,1.768-3.233,2.822l-0.148,0.315
		l-0.033-0.346c-0.124-1.305-0.562-2.863-1.944-2.873c-1.613,0-2.841,1.892-3.591,3.481l-0.201,0.426l0.02-0.47
		c0.089-2.118,0.162-3.369,0.217-3.716c0.055-0.348,0.026-0.582-0.088-0.715c-0.108-0.125-0.311-0.172-0.609-0.153
		c-0.516,0.033-0.78,0.347-1.178,1.4c-0.653,1.73-2.313,5.754-3.639,5.754c-0.263-0.002-0.471-0.092-0.624-0.266
		c-0.556-0.638-0.333-2.361-0.026-4.746l0.023-0.18c0.145-1.129-0.103-1.37-0.716-1.483c-0.066-0.012-0.129-0.018-0.186-0.018
		c-0.49,0-0.719,0.469-1.176,1.773c-0.814,2.32-1.861,4.759-3.085,4.759c-0.045,0-0.089-0.003-0.134-0.011
		c-0.649-0.11-0.635-1.073-0.616-2.292c0.009-0.659,0.021-1.407-0.081-2.081c-0.183-1.211-0.896-1.967-1.862-1.974
		c-1.928,0-3.228,2.468-3.832,3.94l-0.137,0.333l-0.046-0.357c-0.081-0.638-0.188-1.649-0.234-2.845l-0.001-0.036l0.022-0.028
		c3.607-4.541,5.226-7.818,5.247-10.626C76.685,1.088,75.858,0.011,74.458,0C73.435,0,71,0.852,70.155,8.75
		c-0.157,1.464-0.243,2.966-0.256,4.463v0.029l-0.017,0.024c-1.65,2.389-5.173,6.498-8.621,6.498c-3.116,0-5.602-2.521-5.602-6.971
		c0-5.965,4.222-9.628,7.4-9.628h0.026c0.69,0.005,1.282,0.198,1.712,0.558c0.446,0.373,0.68,0.897,0.675,1.513
		c-0.006,0.824-0.274,1.247-0.534,1.656c-0.067,0.105-0.133,0.21-0.194,0.321c-0.061,0.112-0.117,0.274-0.036,0.413
		c0.084,0.142,0.297,0.232,0.557,0.234c0.756,0,1.9-1.095,1.913-2.745c0.013-1.727-1.441-3.506-4.036-3.506
		c-3.927,0-9.215,4.314-9.215,11.305c0,4.946,3.101,8.364,7.301,8.364c2.981,0,5.929-2.134,8.54-5.699l0.16-0.216l0.011,0.269
		c0.056,1.305,0.15,2.333,0.219,3.084c0.045,0.483,0.077,0.831,0.076,1.024c-0.003,0.422,0.065,0.714,0.211,0.894
		c0.145,0.18,0.376,0.265,0.726,0.267c0.587,0,0.704-0.4,0.936-1.386l0.067-0.282c0.289-1.195,1.355-5.096,2.958-5.096
		c0.262,0.002,0.464,0.08,0.607,0.232c0.354,0.376,0.315,1.146,0.271,2.039c-0.028,0.557-0.057,1.133-0.001,1.693
		c0.151,1.513,0.804,2.253,1.998,2.262c1.225,0.001,2.504-1.319,3.178-2.545l0.127-0.231l0.05,0.26
		c0.125,0.656,0.681,2.81,2.425,2.81c1.581,0,2.936-1.664,4.422-5.089l0.194-0.447l-0.012,0.488
		c-0.032,1.298-0.102,2.883-0.102,4.108c-0.001,0.948,0.095,1.31,0.533,1.31c0.031,0,0.065,0.004,0.099,0.004
		c0.42,0,0.706-0.251,0.848-0.747c1.118-3.897,2.084-5.712,3.042-5.712c0.938,0.007,1.026,1.721,1.101,4.751l0.005,0.213
		c0.023,1.059,0.061,1.528,0.719,1.533c0.499,0,0.624-0.392,0.882-1.358c0.049-0.184,0.103-0.386,0.166-0.604
		c0.903-3.132,1.651-4.41,2.583-4.41c0.798,0.006,0.842,0.828,0.857,1.099c0.031,0.579-0.029,1.185-0.086,1.77
		c-0.054,0.544-0.109,1.106-0.088,1.629c0.049,1.225,0.72,1.905,1.889,1.914c1.518,0,2.888-1.775,4.087-5.275l0.083-0.244
		l0.095,0.24c0.217,0.55,0.501,1.295,0.764,2.183l0.01,0.034l-0.014,0.032c-1.162,2.58-1.981,5.454-1.993,6.989
		c-0.016,2.022,0.899,3.336,2.331,3.347h0.025c0.779,0,2.594-0.312,2.629-3.206c0.014-1.186-0.266-2.863-0.832-4.985l-0.065-0.243
		l0.209,0.139c0.723,0.479,1.538,0.736,2.358,0.743l0.039,0.001c2.348,0,4-1.626,4.018-3.954
		C114.592,15.753,114.26,14.698,113.646,13.936z M71.408,11.047c0.032-0.725,0.094-1.431,0.18-2.099
		c0.562-4.302,1.734-7.306,2.852-7.306h0.005c0.533,0.004,0.8,0.407,0.794,1.198c-0.015,1.943-1.246,4.723-3.658,8.266l-0.189,0.277
		L71.408,11.047z M107.057,26.513c-0.178,0.237-0.426,0.357-0.736,0.357c-0.356-0.003-0.624-0.127-0.806-0.37
		c-0.51-0.682-0.367-2.284,0.466-5.193c0.099-0.347,0.208-0.697,0.321-1.039l0.097-0.29l0.085,0.294
		C107.454,23.629,107.646,25.729,107.057,26.513z M112.034,18.876c-0.447,0.373-1.042,0.586-1.633,0.586
		c-1.457-0.011-2.457-0.849-3.043-1.55l-0.017-0.032l-0.035-0.112l0.016-0.033c1.106-2.279,2.373-3.585,3.476-3.585h0.011
		c1.245,0.009,2.106,1.13,2.094,2.724C112.894,17.937,112.426,18.549,112.034,18.876z"/>
	<path fill="#FFFFFF" d="M52.561,18.332l-0.076,0.072c-0.388,0.372-1.111,1.067-1.898,1.108c-0.964,0.047-1.677-0.529-2.138-1.719
		l-0.019-0.05l0.032-0.042c2.651-3.468,4.512-8.76,4.329-12.309c-0.085-1.643-0.562-3.601-2.356-3.601
		c-0.044,0-0.089,0.001-0.134,0.003c-0.687,0.036-1.312,0.363-1.858,0.973c-1.665,1.862-2.536,6.446-2.22,11.678
		c0.066,1.087,0.254,2.103,0.561,3.019l0.017,0.051l-0.035,0.041c-0.984,1.15-1.955,1.784-2.734,1.784
		c-1.874,0-1.811-3.142-1.663-5.749c0.032-0.562,0.08-0.92-0.087-1.123c-0.119-0.146-0.318-0.218-0.607-0.22h-0.034
		c-0.667,0-0.806,0.137-1.148,1.127c-0.71,2.057-2.111,5.508-3.521,5.508c-0.391-0.003-0.689-0.137-0.893-0.397
		c-0.684-0.873-0.164-3.05,0.253-4.799c0.075-0.315,0.147-0.617,0.208-0.896c0.091-0.415,0.063-0.718-0.083-0.901
		c-0.147-0.183-0.44-0.257-0.828-0.226c-0.604,0.048-0.99,0.301-1.176,1.449l-0.037,0.239l-0.14-0.17
		c-0.264-0.389-0.778-0.853-1.732-0.853c-0.084,0-0.17,0.003-0.26,0.011c-1.018,0.083-2.178,0.793-3.026,1.852
		c-0.991,1.236-1.464,2.801-1.333,4.406c0.007,0.085,0.019,0.166,0.032,0.247l0.007,0.045l-0.031,0.034
		c-0.593,0.646-1.197,0.973-1.795,0.973c-0.924-0.007-1.453-0.694-1.453-1.837c0-1.925,1.304-7.727,1.304-9.827
		c0-2.235-0.996-3.452-2.726-3.466h-0.026c-2.525,0-4.494,2.866-6.378,8.762c-0.173,0.54-0.36,1.164-0.521,1.703l-0.264,0.887
		l0.079-0.922c0.175-2.054,0.295-4.052,0.357-5.94c0.094-2.85-0.292-4.684-1.178-5.607c-0.48-0.499-1.112-0.744-1.936-0.75h-0.022
		c-3.091,0-4.571,5.212-5.649,8.89c-0.247,0.844-0.677,2.492-1.057,3.987C6.9,13.263,7.32,8.79,7.289,6.219
		C7.25,3.076,6.203,1.667,3.895,1.649H3.866c-1.233,0-2.088,0.613-2.589,1.127C0.474,3.601-0.027,4.807,0.001,5.848
		c0.017,0.633,0.406,1.197,0.7,1.197c0.192,0,0.298-0.256,0.344-0.409c0.714-2.36,1.638-3.508,2.825-3.508
		c0.492,0.004,0.858,0.149,1.132,0.443C5.929,4.565,5.76,7.25,5.454,12.123c-0.099,1.571-0.21,3.35-0.304,5.374
		c-0.016,0.347-0.038,0.683-0.058,1.002c-0.09,1.406-0.162,2.517,0.372,2.599c0.694,0.108,1.145-0.174,1.376-0.86
		c0.343-1.019,1.111-3.803,2.598-8.892c1.427-4.883,2.505-6.659,3.884-6.659c1.593,0,1.712,2.736,1.42,8.509
		c-0.062,1.224-0.146,2.61-0.209,4.119c-0.009,0.212-0.019,0.417-0.029,0.615c-0.061,1.249-0.11,2.235,0.247,2.612
		c0.111,0.118,0.263,0.176,0.463,0.177c0.691,0,0.898-0.605,1.242-1.609c0.061-0.177,0.125-0.366,0.197-0.564
		c2.367-6.529,4.117-12.193,6.465-12.193c0.705,0,1.253,0.572,1.253,1.688c0,2.576-1.259,7.554-1.259,10.077
		c0,0.904,0.26,1.716,0.752,2.286c0.505,0.585,1.211,0.898,2.042,0.905h0.018c0.786,0,1.605-0.382,2.434-1.135l0.078-0.07
		l0.062,0.084c0.546,0.734,1.428,1.129,2.379,1.055c1.46-0.114,2.685-1.413,3.14-2.639l0.089-0.24l0.089,0.24
		c0.338,0.91,1.071,2.005,2.636,1.879c1.707-0.137,3.061-2.458,3.564-3.45l0.13-0.256l0.049,0.282c0.241,1.395,1,3.739,3.374,3.757
		h0.02c1.027,0,2.192-0.628,3.369-1.816l0.086-0.087l0.063,0.105c0.793,1.326,1.856,2.03,2.987,1.972
		c1.667-0.087,2.678-1.267,2.767-2.088c0.023-0.209-0.033-0.406-0.152-0.539C52.938,18.198,52.721,18.179,52.561,18.332z
		 M34.085,14.92c-0.511,2.056-1.491,4.537-3.257,4.679c-0.049,0.003-0.097,0.006-0.144,0.006c-0.733,0-1.144-0.48-1.221-1.426
		c-0.097-1.184,0.414-2.571,1.3-3.534c0.565-0.613,1.202-0.951,1.793-0.951h0.012c0.747,0.006,1.271,0.605,1.511,1.165l0.013,0.029
		L34.085,14.92z M48.119,15.651l-0.14,0.233l-0.036-0.27c-0.103-0.787-0.154-1.607-0.19-2.304c-0.254-4.919,1.234-9.819,2.53-9.886
		l0.025-0.001c0.167,0,0.313,0.084,0.435,0.249c0.58,0.784,0.588,3.644-0.409,6.898C49.764,12.43,48.998,14.187,48.119,15.651z"/>
	<path fill="#FFFFFF" d="M42.26,9.692l0.009,0.095V9.692c0.643,0,1.169-0.513,1.174-1.145c0.005-0.636-0.518-1.158-1.166-1.163
		c-0.652,0-1.179,0.514-1.183,1.145C41.089,9.165,41.613,9.687,42.26,9.692z"/>
	<path fill="#FFFFFF" d="M83.256,9.692l0.009,0.095V9.692c0.643,0,1.17-0.513,1.174-1.145c0.005-0.636-0.518-1.158-1.166-1.163
		c-0.652,0-1.179,0.514-1.184,1.145C82.085,9.165,82.608,9.687,83.256,9.692z"/>
	<path fill="#FFFFFF" d="M115.199,19.557c-0.441,0-0.801,0.36-0.801,0.801s0.36,0.8,0.801,0.8s0.801-0.359,0.801-0.8
		S115.64,19.557,115.199,19.557z M115.199,21.043c-0.379,0-0.684-0.305-0.684-0.684s0.305-0.685,0.684-0.685
		s0.685,0.306,0.685,0.685C115.884,20.737,115.578,21.043,115.199,21.043z"/>
	<path fill="#FFFFFF" d="M115.554,20.149c0-0.165-0.081-0.256-0.29-0.256h-0.355v0.923h0.117v-0.404h0.166l0.276,0.404h0.131
		l-0.276-0.404C115.447,20.391,115.554,20.32,115.554,20.149z M115.173,20.309h-0.149v-0.312h0.206c0.099,0,0.207,0.034,0.207,0.153
		C115.438,20.302,115.3,20.309,115.173,20.309z"/>
</g>
</svg>
