<?xml version="1.0" encoding="UTF-8" standalone="no"?>
<svg width="60px" height="60px" viewBox="0 0 60 60" version="1.1" xmlns="http://www.w3.org/2000/svg" xmlns:xlink="http://www.w3.org/1999/xlink" xmlns:sketch="http://www.bohemiancoding.com/sketch/ns">
    <!-- Generator: Sketch 3.0.3 (7891) - http://www.bohemiancoding.com/sketch -->
    <title>medium</title>
    <desc>Created with Sketch.</desc>
    <defs></defs>
    <g id="Page-1" stroke="none" stroke-width="1" fill="none" fill-rule="evenodd" sketch:type="MSPage">
        <g id="medium" sketch:type="MSArtboardGroup" fill="#FFFFFF">
            <path d="M59.3472,13.6512 L57.0258,13.6512 C56.1636,13.6512 55.1688,14.7786 55.1688,15.5748 L55.1688,44.4234 C55.1688,45.2202 56.1636,46.413 57.0258,46.413 L59.3472,46.413 L59.3472,53.112 L38.5224,53.112 L38.5224,46.413 L42.7008,46.413 L42.7008,16.1052 L42.5016,16.1052 L32.2218,53.112 L24.2628,53.112 L14.1162,16.1052 L13.917,16.1052 L13.917,46.413 L18.2946,46.413 L18.2946,53.112 L0.6528,53.112 L0.6528,46.413 L2.9076,46.413 C3.8364,46.413 4.8312,45.2202 4.8312,44.4234 L4.8312,15.5748 C4.8312,14.7786 3.8364,13.6512 2.9076,13.6512 L0.6528,13.6512 L0.6528,6.6876 L22.6716,6.6876 L29.9004,33.6138 L30.0996,33.6138 L37.395,6.6876 L59.3472,6.6876 L59.3472,13.6512 L59.3472,13.6512 Z" id="Fill-1" sketch:type="MSShapeGroup"></path>
        </g>
    </g>
</svg>