<?xml version="1.0" encoding="UTF-8" standalone="no"?>
<svg width="60px" height="60px" viewBox="0 0 60 60" version="1.1" xmlns="http://www.w3.org/2000/svg" xmlns:xlink="http://www.w3.org/1999/xlink">
    <!-- Generator: Sketch 3.6.1 (26313) - http://www.bohemiancoding.com/sketch -->
    <title>medium</title>
    <desc>Created with Sketch.</desc>
    <defs></defs>
    <g id="Page-1" stroke="none" stroke-width="1" fill="none" fill-rule="evenodd">
        <g id="medium" fill="#FFFFFF">
            <path d="M59.8165383,14.2917614 C59.805072,14.2825883 59.7958989,14.2705487 59.7815659,14.2636689 L59.7609265,14.2533491 L41.6612838,5.20352782 C41.5391672,5.14218281 41.410744,5.10090393 41.2806008,5.0676515 C41.1172053,5.0257993 40.9503698,5 40.782961,5 C40.0898198,5 39.4001185,5.3480039 39.0263153,5.95457412 L28.6062645,22.8880884 L41.6830699,44.1375389 L59.8721501,14.5807136 C59.9323485,14.4821029 59.9036826,14.3605596 59.8165383,14.2917614 Z M22.8667801,19.0308063 L22.8667801,38.3063237 L39.9998089,46.8728381 L22.8667801,19.0308063 Z M42.5740058,48.1599366 L56.6770501,55.2111721 C58.5122403,56.1290538 60,55.4863646 60,53.7767309 L60,19.8426243 L42.5740058,48.1599366 Z M19.8924074,14.3192807 L2.21529994,5.48044031 C1.89596193,5.32105796 1.5921035,5.24538001 1.31691096,5.24538001 C0.542931947,5.24538001 0,5.8444971 0,6.84952319 L0,45.0152885 C0,46.0369408 0.747606398,47.2466413 1.66147496,47.7035756 L17.2310662,55.4880845 C17.6300954,55.6875991 18.0102051,55.7821966 18.3536224,55.7821966 C19.3213828,55.7821966 20.0001911,55.0334435 20.0001911,53.7767309 L20.0001911,14.492996 C20.0001911,14.4196113 19.9583389,14.3519598 19.8924074,14.3192807 Z" id="Combined-Shape"></path>
        </g>
    </g>
</svg>