<?xml version="1.0" encoding="UTF-8" standalone="no"?>
<svg width="120px" height="120px" viewBox="0 0 120 120" version="1.1" xmlns="http://www.w3.org/2000/svg" xmlns:xlink="http://www.w3.org/1999/xlink" xmlns:sketch="http://www.bohemiancoding.com/sketch/ns">
    <!-- Generator: Sketch 3.0.3 (7891) - http://www.bohemiancoding.com/sketch -->
    <title>mozilla</title>
    <desc>Created with Sketch.</desc>
    <defs></defs>
    <g id="Page-1" stroke="none" stroke-width="1" fill="none" fill-rule="evenodd" sketch:type="MSPage">
        <g id="mozilla" sketch:type="MSArtboardGroup" fill="#FFFFFF">
            <g id="mozilla_wordmark_CS4" sketch:type="MSLayerGroup" transform="translate(0.000000, 44.000000)">
                <path d="M4.8996218,9.13735702 C5.26247229,9.71048333 5.4225021,10.2217131 5.62518864,11.3003049 C7.04426269,9.88313488 8.79412762,9.13735702 10.7040224,9.13735702 C12.4289371,9.13735702 13.8445235,9.71048333 14.9399162,10.8802045 C15.2350256,11.1733553 15.5196721,11.5515967 15.7651495,11.9228387 C17.6712883,9.92526845 19.3784965,9.13735702 21.6654606,9.13735702 C23.2941966,9.13735702 24.8378873,9.63568595 25.7804937,10.4654565 C26.9577122,11.5063065 27.3310256,12.7576872 27.3310256,15.6710792 L27.3310256,30.8285955 L22.0389082,30.8285955 L22.0389082,16.7570822 C22.0389082,14.2062859 21.7437988,13.7130349 20.3245906,13.7130349 C19.307402,13.7130349 17.8777308,14.4228551 16.704,15.5052898 L16.704,30.8285955 L11.5397187,30.8285955 L11.5397187,16.9570451 C11.5397187,14.2972779 11.1629176,13.6728228 9.64779879,13.6728228 C8.64120727,13.6728228 7.24694923,14.2062859 6.07335259,15.2942102 L6.07335259,30.8285955 L0.745553796,30.8285955 L0.745553796,15.9599755 C0.745553796,12.8814803 0.539245459,11.5515967 -0.033266884,10.5056686 L4.8996218,9.13735702" id="Fill-1" sketch:type="MSShapeGroup"></path>
                <path d="M37.0087378,15.3777912 C36.635156,16.5059277 36.4362254,18.0033849 36.4362254,20.1284537 C36.4362254,22.5790628 36.6814346,24.4205878 37.1259767,25.4993169 C37.6167974,26.6657442 38.8440503,27.2479286 39.8928961,27.2479286 C42.2547108,27.2479286 43.2647899,25.0847062 43.2647899,20.0467942 C43.2647899,17.171693 42.8983177,15.2942102 42.1693973,14.3337845 C41.6462487,13.6313754 40.7964676,13.2130591 39.8148263,13.2130591 C38.5096376,13.2130591 37.4496581,14.0424179 37.0087378,15.3777912 L37.0087378,15.3777912 Z M46.8140177,12.2995704 C48.4785692,14.2972779 49.2219767,16.6277994 49.2219767,20.0831636 C49.2219767,23.7474115 48.4004993,26.2505845 46.6042217,28.3285791 C45.025252,30.1589875 42.9445962,31.287124 39.7364881,31.287124 C34.0709231,31.287124 30.3756162,26.954915 30.3756162,20.254031 C30.3756162,13.5472455 34.1099581,9.08987098 39.7364881,9.08987098 C42.7062282,9.08987098 45.025252,10.1344266 46.8140177,12.2995704 L46.8140177,12.2995704 Z" id="Fill-2" sketch:type="MSShapeGroup"></path>
                <path d="M66.7628803,9.50859904 L66.7628803,13.3398715 L57.5586847,26.954915 L67.1222431,26.954915 L65.8169204,30.8285955 L50.4811551,30.8285955 L50.4811551,27.3735058 L60.2795939,13.4241386 L51.2988766,13.4241386 L51.2988766,9.50859904 L66.7628803,9.50859904" id="Fill-3" sketch:type="MSShapeGroup"></path>
                <path d="M75.3454681,9.00629007 L75.3454681,30.8285955 L69.8929185,30.8285955 L69.8929185,9.88313488 L75.3454681,9.00629007 L75.3454681,9.00629007 Z M75.9854532,3.63885794 C75.9854532,5.55696455 74.4951504,7.08859519 72.61034,7.08859519 C70.7856246,7.08859519 69.284993,5.55696455 69.284993,3.63885794 C69.284993,1.72486862 70.8356591,0.180199912 72.7023605,0.180199912 C74.5306977,0.180199912 75.9854532,1.72486862 75.9854532,3.63885794 L75.9854532,3.63885794 Z" id="Fill-4" sketch:type="MSShapeGroup"></path>
                <path d="M85.2752306,5.55696455 L85.2752306,22.1681575 C85.2752306,25.8377579 85.3180214,26.3310088 85.6453246,26.9131932 C85.8514988,27.2914346 86.2924192,27.4955147 86.7478267,27.4955147 C86.9434038,27.4955147 87.0606428,27.4955147 87.3558864,27.418796 L88.2877615,30.746387 C87.3558864,31.1194132 86.2143493,31.3273362 85.0337774,31.3273362 C82.70751,31.3273362 80.8367844,30.2060618 80.1891532,28.4194339 C79.7802925,27.3352151 79.6913572,26.6657442 79.6913572,23.6273239 L79.6913572,7.71428551 C79.6913572,4.92701969 79.620531,3.22397269 79.4173079,1.30092534 L84.9944741,0.0109794311 C85.1899171,1.17562258 85.2752306,2.55093357 85.2752306,5.55696455" id="Fill-5" sketch:type="MSShapeGroup"></path>
                <path d="M96.5850321,5.55696455 L96.5850321,22.1681575 C96.5850321,25.8377579 96.6315789,26.3310088 96.9659916,26.9131932 C97.1578128,27.2914346 97.5987331,27.4955147 98.0542748,27.4955147 C98.260449,27.4955147 98.3849315,27.4955147 98.6729315,27.418796 L99.6014532,30.746387 C98.6729315,31.1194132 97.5311262,31.3273362 96.3467983,31.3273362 C94.0246893,31.3273362 92.1503419,30.2060618 91.4994914,28.4194339 C91.0833871,27.3352151 91.015646,26.6657442 91.015646,23.6273239 L91.015646,7.71428551 C91.015646,4.92701969 90.9340885,3.22397269 90.7240242,1.30092534 L96.2935445,0.0109794311 C96.5178277,1.17562258 96.5850321,2.55093357 96.5850321,5.55696455" id="Fill-6" sketch:type="MSShapeGroup"></path>
                <path d="M112.209334,21.5022551 C108.439311,21.5022551 107.116415,22.2045269 107.116415,24.7553232 C107.116415,26.4144525 108.147823,27.5388835 109.531082,27.5388835 C110.544782,27.5388835 111.569349,26.9967741 112.376741,26.0834227 L112.465677,21.5022551 L112.209334,21.5022551 L112.209334,21.5022551 Z M105.142267,10.3015884 C107.169803,9.42460639 108.912827,9.05336438 110.833185,9.05336438 C114.340024,9.05336438 116.737118,10.3818755 117.558461,12.7576872 C117.828889,13.6313754 117.953371,14.2972779 117.928555,16.5893714 L117.796695,23.7474115 L117.796695,24.1255156 C117.796695,26.4144525 118.166789,27.2914346 119.760782,28.4961526 L116.865222,31.9165199 C115.591557,31.3707049 114.457397,30.410142 113.927139,29.3310011 C113.525388,29.7513761 113.073602,30.1589875 112.660986,30.453648 C111.651041,31.2035431 110.175225,31.6218594 108.467748,31.6218594 C103.82675,31.6218594 101.305174,29.2018556 101.305174,24.9626972 C101.305174,19.9575863 104.691018,17.6229476 111.320116,17.6229476 C111.718647,17.6229476 112.095583,17.6229476 112.547368,17.6704336 L112.547368,16.8008627 C112.547368,14.4228551 112.095583,13.6313754 110.089777,13.6313754 C108.361241,13.6313754 106.309023,14.5008091 104.075313,16.0454778 L101.752935,12.0466318 C102.859059,11.3368116 103.673695,10.9239849 105.142267,10.3015884 L105.142267,10.3015884 Z" id="Fill-7" sketch:type="MSShapeGroup"></path>
            </g>
        </g>
    </g>
</svg>