<?xml version="1.0" encoding="utf-8"?>
<!-- Generator: Adobe Illustrator 17.0.0, SVG Export Plug-In . SVG Version: 6.00 Build 0)  -->
<!DOCTYPE svg PUBLIC "-//W3C//DTD SVG 1.1//EN" "http://www.w3.org/Graphics/SVG/1.1/DTD/svg11.dtd">
<svg version="1.1" id="Layer_1" xmlns="http://www.w3.org/2000/svg" xmlns:xlink="http://www.w3.org/1999/xlink" x="0px" y="0px"
	 width="66px" height="40px" viewBox="0 0 66 40" enable-background="new 0 0 66 40" xml:space="preserve">
<g>
	<path fill="#FFFFFF" d="M54.296,20.765c5.753,0,10.419-4.648,10.419-10.383C64.715,4.649,60.049,0,54.296,0
		c-5.758,0-10.425,4.649-10.425,10.383C43.871,16.117,48.538,20.765,54.296,20.765z"/>
	<ellipse fill="#FFFFFF" cx="30.819" cy="13.343" rx="9.38" ry="9.345"/>
	<ellipse fill="#FFFFFF" cx="9.529" cy="16.01" rx="8.442" ry="8.409"/>
	<path fill="#FFFFFF" d="M9.529,26.339c-5.353,0-9.278,4.699-9.278,9.553v3.267l0,0C0.251,39.621,0.629,40,1.094,40h0.299h16.269
		h0.298c0.467,0,0.845-0.379,0.845-0.841l0,0v-3.267C18.806,31.038,14.882,26.339,9.529,26.339z"/>
	<path fill="#FFFFFF" d="M30.818,24.819c-5.948,0-10.309,5.221-10.309,10.615v3.631l0,0c0,0.514,0.42,0.935,0.937,0.935h0.333
		h18.078h0.331c0.519,0,0.939-0.422,0.939-0.935l0,0v-3.631C41.127,30.04,36.766,24.819,30.818,24.819z"/>
	<path fill="#FFFFFF" d="M54.294,23.133c-6.609,0-11.454,5.801-11.454,11.795v4.033l0,0c0,0.571,0.467,1.039,1.041,1.039h0.37
		h20.087h0.367c0.577,0,1.044-0.468,1.044-1.039l0,0v-4.033C65.749,28.934,60.903,23.133,54.294,23.133z"/>
</g>
</svg>
