<?xml version="1.0" encoding="UTF-8" standalone="no"?>
<svg width="60px" height="60px" viewBox="0 0 60 60" version="1.1" xmlns="http://www.w3.org/2000/svg" xmlns:xlink="http://www.w3.org/1999/xlink" xmlns:sketch="http://www.bohemiancoding.com/sketch/ns">
    <!-- Generator: Sketch 3.0.3 (7891) - http://www.bohemiancoding.com/sketch -->
    <title>osu</title>
    <desc>Created with Sketch.</desc>
    <defs></defs>
    <g id="Page-1" stroke="none" stroke-width="1" fill="none" fill-rule="evenodd" sketch:type="MSPage">
        <g id="osu" sketch:type="MSArtboardGroup" fill="#FFFFFF">
            <g id="Fill-23-+-Fill-24-+-Group-28" sketch:type="MSLayerGroup" transform="translate(7.000000, 0.000000)">
                <path d="M44.47375,12.4161538 L34.4384667,2.58769231 L12.7119333,2.58769231 L2.62495,12.4992308 L2.62495,47.5830769 L12.7119333,57.4946154 L34.4384667,57.4946154 L44.47375,47.6923077 L44.47375,12.4161538 L44.47375,12.4161538 Z M12.9477167,16.7515385 L17.0077333,12.7646154 L30.1638167,12.7646154 L34.22305,16.7515385 L34.22305,43.3192308 L30.1638167,47.3046154 L17.0077333,47.3046154 L12.9477167,43.3192308 L12.9477167,16.7515385 L12.9477167,16.7515385 Z" id="Fill-23" sketch:type="MSShapeGroup"></path>
                <path d="M11.7680167,-0.0176923077 L0.276516667,11.2638462 L0.276516667,48.6169231 L11.6896833,59.9653846 L35.45915,59.9653846 L46.8699667,48.6838462 L46.9475167,11.2638462 L35.5374833,-0.0176923077 L11.7680167,-0.0176923077 L11.7680167,-0.0176923077 Z M1.30738333,48.1546154 L1.30738333,11.7176923 L12.2301833,1.00384615 L35.0627833,1.00153846 L46.0286667,11.7176923 L45.8359667,48.2307692 L34.9852333,58.8861538 L12.2301833,58.8853846 L1.30738333,48.1546154 L1.30738333,48.1546154 Z" id="Fill-24" sketch:type="MSShapeGroup"></path>
                <g id="Group-28" transform="translate(14.883333, 14.615385)" sketch:type="MSShapeGroup">
                    <path d="M17.7182167,2.84923077 L14.4940167,-0.316923077 L2.86386667,-0.316923077 L-0.3149,2.80461538 L-0.3149,28.0615385 L2.79415,31.1146154 L14.6342333,31.1146154 L17.7182167,28.0869231 L17.7182167,2.84923077 L17.7182167,2.84923077 Z M3.3135,0.703076923 L14.1047,0.703076923 L16.67795,3.23 L16.67795,27.6615385 L14.2002667,30.0953846 L3.21558333,30.0953846 L0.7755,27.6984615 L0.7755,3.19615385 L3.3135,0.703076923 L3.3135,0.703076923 Z" id="Fill-25"></path>
                </g>
            </g>
        </g>
    </g>
</svg>