<?xml version="1.0" encoding="UTF-8" standalone="no"?>
<svg width="60px" height="60px" viewBox="0 0 60 60" version="1.1" xmlns="http://www.w3.org/2000/svg" xmlns:xlink="http://www.w3.org/1999/xlink" xmlns:sketch="http://www.bohemiancoding.com/sketch/ns">
    <!-- Generator: Sketch 3.1.1 (8761) - http://www.bohemiancoding.com/sketch -->
    <title>paypal</title>
    <desc>Created with Sketch.</desc>
    <defs></defs>
    <g id="Page-1" stroke="none" stroke-width="1" fill="none" fill-rule="evenodd" sketch:type="MSPage">
        <g id="paypal" sketch:type="MSArtboardGroup" fill="#FFFFFF">
            <g id="paypal_rgb" sketch:type="MSLayerGroup" transform="translate(4.000000, 0.000000)">
                <g sketch:type="MSShapeGroup">
                    <g id="Group-3">
                        <path d="M43.7554839,4.29 C40.9474839,1.11 35.8716129,-0.253333333 29.3783226,-0.253333333 L10.5325161,-0.253333333 C9.204,-0.253333333 8.07509677,0.706666667 7.86709677,2.00833333 L0.0201290323,51.4566667 C-0.135870968,52.4316667 0.624,53.315 1.61870968,53.315 L13.2532903,53.315 L16.1753548,34.9 L16.0847742,35.4766667 C16.2927742,34.175 17.4132903,33.215 18.740129,33.215 L24.2689032,33.215 C35.1301935,33.215 43.6347097,28.8316667 46.1189677,16.1516667 C46.1927742,15.7766667 46.2565161,15.4116667 46.311871,15.055 C45.9981935,14.89 45.9981935,14.89 46.311871,15.055 C47.0516129,10.3683333 46.3068387,7.17833333 43.7554839,4.29" id="Fill-1"></path>
                    </g>
                    <g id="Group-14" transform="translate(11.741935, 15.000000)" fill-opacity="0.5">
                        <path d="M34.5699355,0.055 L34.5699355,0.055 C34.5129032,0.413333333 34.4508387,0.776666667 34.3770323,1.15166667 C31.8927742,13.83 23.3882581,18.215 12.5269677,18.215 L6.99651613,18.215 C5.66967742,18.215 4.54916129,19.175 4.34283871,20.4766667 L0.707870968,43.3733333 C0.572,44.2266667 1.23625806,45 2.10516129,45 L11.9130323,45 C13.0738065,45 14.0618065,44.16 14.2429677,43.0216667 L14.3385806,42.525 L16.1870968,30.885 L16.3061935,30.2416667 C16.4873548,29.1033333 17.4753548,28.2633333 18.636129,28.2633333 L20.103871,28.2633333 C29.6047742,28.2633333 37.044129,24.4283333 39.2180645,13.3366667 C40.1255484,8.70166667 39.655871,4.83166667 37.2554839,2.11333333 C36.5274839,1.29 35.6233548,0.61 34.5699355,0.055" id="Fill-13"></path>
                    </g>
                </g>
            </g>
        </g>
    </g>
</svg>