<?xml version="1.0" encoding="utf-8"?>
<!-- Generator: Adobe Illustrator 17.0.0, SVG Export Plug-In . SVG Version: 6.00 Build 0)  -->
<!DOCTYPE svg PUBLIC "-//W3C//DTD SVG 1.1//EN" "http://www.w3.org/Graphics/SVG/1.1/DTD/svg11.dtd">
<svg version="1.1" id="Calque_1" xmlns="http://www.w3.org/2000/svg" xmlns:xlink="http://www.w3.org/1999/xlink" x="0px" y="0px"
	 width="42px" height="42px" viewBox="-1 -0.999 42 42" enable-background="new -1 -0.999 42 42" xml:space="preserve">
<g>
	<path fill="#FFFFFF" d="M20.001,0C8.955,0,0,8.954,0,20c0,8.19,4.925,15.225,11.972,18.319c-0.056-1.397-0.01-3.073,0.348-4.593
		c0.385-1.624,2.573-10.898,2.573-10.898s-0.639-1.277-0.639-3.165c0-2.964,1.718-5.177,3.857-5.177
		c1.819,0,2.698,1.366,2.698,3.003c0,1.829-1.166,4.564-1.766,7.098c-0.501,2.122,1.064,3.852,3.157,3.852
		c3.789,0,6.342-4.867,6.342-10.633c0-4.383-2.952-7.664-8.322-7.664c-6.067,0-9.847,4.524-9.847,9.578
		c0,1.742,0.514,2.971,1.319,3.923c0.37,0.437,0.421,0.613,0.287,1.115c-0.096,0.368-0.316,1.254-0.407,1.605
		c-0.133,0.507-0.544,0.688-1.001,0.501c-2.794-1.141-4.096-4.201-4.096-7.641c0-5.681,4.792-12.494,14.294-12.494
		c7.636,0,12.661,5.526,12.661,11.457c0,7.846-4.362,13.707-10.791,13.707c-2.159,0-4.19-1.167-4.886-2.493
		c0,0-1.161,4.608-1.407,5.498c-0.424,1.542-1.254,3.083-2.013,4.284c1.799,0.531,3.699,0.82,5.668,0.82
		C31.045,40.001,40,31.047,40,20C40,8.954,31.045,0,20.001,0z"/>
</g>
</svg>
