<?xml version="1.0" encoding="UTF-8" standalone="no"?>
<svg width="60px" height="60px" viewBox="0 0 60 60" version="1.1" xmlns="http://www.w3.org/2000/svg" xmlns:xlink="http://www.w3.org/1999/xlink" xmlns:sketch="http://www.bohemiancoding.com/sketch/ns">
    <!-- Generator: Sketch 3.1.1 (8761) - http://www.bohemiancoding.com/sketch -->
    <title>pocket</title>
    <desc>Created with Sketch.</desc>
    <defs></defs>
    <g id="Page-1" stroke="none" stroke-width="1" fill="none" fill-rule="evenodd" sketch:type="MSPage">
        <g id="pocket" sketch:type="MSArtboardGroup" fill="#FFFFFF">
            <path d="M46.9988777,25.6180142 L32.8873924,39.2594051 C32.0897868,40.0285714 31.0647213,40.4146628 30.0396558,40.4146628 C29.0130939,40.4146628 27.9880284,40.0285714 27.1919192,39.2594051 L13.0774411,25.6180142 C11.4388328,24.0329284 11.3834643,21.4087139 12.956229,19.7557604 C14.5289936,18.1028069 17.1328096,18.0485128 18.7729143,19.6335987 L30.0396558,30.5225806 L41.3034044,19.6335987 C42.9435092,18.0485128 45.5473251,18.104315 47.1200898,19.7542522 C48.6928545,21.4087139 48.637486,24.0314202 46.9988777,25.6180142 L46.9988777,25.6180142 Z M59.7037037,6.61055718 C58.9240554,4.45236699 56.8679386,3 54.5888515,3 L5.44107744,3 C3.19940142,3 1.15525627,4.42069543 0.35765058,6.53665689 C0.119715675,7.16556347 0,7.81860075 0,8.48370339 L0,26.7280268 L0.20650954,30.3581902 C1.07594463,38.6108923 5.32734755,45.8214495 11.902731,50.851194 C12.0209502,50.9431923 12.1406659,51.0321743 12.2603816,51.1196481 L12.3367003,51.172434 C15.862327,53.7710096 19.8084549,55.529535 24.0673401,56.3952241 C26.0321736,56.7963972 28.0419005,57 30.0381594,57 C31.8817808,57 33.7358773,56.8280687 35.557052,56.4872225 C35.7755331,56.4434855 35.9925178,56.402765 36.2124953,56.3545036 C36.2738496,56.3424382 36.3381968,56.3167993 36.4055368,56.2851278 C40.4818556,55.3862589 44.2693603,53.6744868 47.6632997,51.172434 L47.738122,51.1196481 C47.8578376,51.0321743 47.9790498,50.9431923 48.097269,50.851194 C54.6726525,45.8214495 58.9240554,38.6108923 59.791994,30.3581902 L60,26.7280268 L60,8.48370339 C60,7.85328865 59.9236813,7.22739841 59.7037037,6.61055718 L59.7037037,6.61055718 Z" id="Fill-9" sketch:type="MSShapeGroup"></path>
        </g>
    </g>
</svg>