<?xml version="1.0" encoding="utf-8"?>
<!-- Generator: Adobe Illustrator 17.0.0, SVG Export Plug-In . SVG Version: 6.00 Build 0)  -->
<!DOCTYPE svg PUBLIC "-//W3C//DTD SVG 1.1//EN" "http://www.w3.org/Graphics/SVG/1.1/DTD/svg11.dtd">
<svg version="1.1" id="Calque_1" xmlns="http://www.w3.org/2000/svg" xmlns:xlink="http://www.w3.org/1999/xlink" x="0px" y="0px"
	 width="80px" height="30px" viewBox="0 0 80 30" enable-background="new 0 0 80 30" xml:space="preserve">
<g>
	<path fill="#FFFFFF" d="M41.722,4.906V0h6.737v4.906H41.722z M48.29,29.495V6.929h-6.399v22.566H48.29z"/>
	<path fill="#FFFFFF" d="M17.482,6.978c-0.858-0.316-1.841-0.467-2.98-0.416c-3.789-0.168-5.894,1.853-7.199,4.968V6.983H0.903
		v22.566h6.399v-8.336c0-5.129,2.368-7.697,6.263-7.934C14.328,10.615,15.716,8.501,17.482,6.978z"/>
	<path fill="#FFFFFF" d="M78.374,11.801c-3.293,0.096-7.268-2.488-8.809-3.461c-0.143-0.09-0.289-0.173-0.436-0.249
		c-0.161-0.09-0.328-0.173-0.495-0.256v9.505h-0.005c0.006,0.851-0.247,1.748-0.779,2.609l-0.046,0.076
		c-1.539,2.489-4.778,3.94-7.816,2.914c-2.95-0.997-3.738-3.854-2.176-6.381l0.047-0.076c1.538-2.488,4.777-3.94,7.815-2.913
		c0.234,0.079,0.45,0.173,0.656,0.276V6.971c-1.087-0.294-2.241-0.463-3.456-0.463c-7.031,0-12.251,5.262-12.251,11.746v0.084
		C50.622,24.822,55.8,30,62.789,30c7.031,0,12.251-5.262,12.251-11.746V18.17c0-0.505-0.035-1.001-0.096-1.489
		C78.606,15.727,80.116,11.937,78.374,11.801z"/>
	<g>
		<path fill="#FFFFFF" d="M73.341,27.685h-0.666v-0.41h1.82v0.41h-0.666v1.81h-0.488V27.685z"/>
		<path fill="#FFFFFF" d="M74.751,27.274h0.687l0.52,1.527h0.006l0.492-1.527h0.687v2.221h-0.457v-1.574h-0.006l-0.544,1.574h-0.376
			l-0.545-1.558h-0.006v1.558h-0.457V27.274z"/>
	</g>
	<path fill="#FFFFFF" d="M32.615,29.495v-3.242c-1.557,2.105-3.705,3.663-7.031,3.663c-5.263,0-10.273-4.126-10.273-11.662V18.17
		c0-7.536,4.926-11.661,10.273-11.661c3.41,0,5.515,1.558,7.031,3.368V0h6.399v29.495H32.615z M22.232,16.441l-0.047,0.076
		c-1.562,2.526-0.774,5.383,2.176,6.38c3.038,1.026,6.277-0.425,7.816-2.913l0.046-0.076c1.562-2.527,0.774-5.384-2.176-6.381
		C27.009,12.501,23.77,13.952,22.232,16.441z"/>
</g>
</svg>
