<?xml version="1.0" encoding="UTF-8" standalone="no"?>
<svg width="100px" height="100px" viewBox="0 0 100 100" version="1.1" xmlns="http://www.w3.org/2000/svg" xmlns:xlink="http://www.w3.org/1999/xlink" xmlns:sketch="http://www.bohemiancoding.com/sketch/ns">
    <!-- Generator: Sketch 3.0.3 (7891) - http://www.bohemiancoding.com/sketch -->
    <title>reddit</title>
    <desc>Created with Sketch.</desc>
    <defs></defs>
    <g id="Page-1" stroke="none" stroke-width="1" fill="none" fill-rule="evenodd" sketch:type="MSPage">
        <g id="reddit" sketch:type="MSArtboardGroup" fill="#FFFFFF">
            <g id="alien" sketch:type="MSLayerGroup" transform="translate(0.000000, 8.000000)">
                <path d="M78.383122,33.5258935 C80.2417998,29.6917629 84.1375393,27.0522453 88.6424933,27.0522453 C94.9499236,27.0522453 100.063106,32.2265115 100.063106,38.6092923 C100.063106,44.2078561 96.1291935,48.8766291 90.9060179,49.9393675 C89.5901951,43.5425473 85.0417825,37.824311 78.383122,33.5258935 L78.383122,33.5258935 Z M81.678705,35.8666612 C82.7700383,33.0170497 85.486587,30.998554 88.6650286,30.998554 C92.8062563,30.998554 96.1633847,34.4251079 96.1633847,38.6519763 C96.1633847,42.4890334 93.396908,45.6665829 89.7887444,46.2200305 C88.1749396,42.3783324 85.3790047,38.8655329 81.678705,35.8666612 L81.678705,35.8666612 L81.678705,35.8666612 Z" id="Path" sketch:type="MSShapeGroup"></path>
                <path d="M20.8864746,32.0478139 C18.8259273,29.0297635 15.3830339,27.0522453 11.4837189,27.0522453 C5.17628863,27.0522453 0.063106107,32.2265115 0.063106107,38.6092923 C0.063106107,43.0429973 2.53030991,46.8935719 6.15119165,48.8317986 C6.49209963,47.5559709 6.96227016,46.3095933 7.5524503,45.0987768 C5.39898955,43.7600234 3.96282756,41.3543782 3.96282756,38.6092923 C3.96282756,34.4059976 7.33004531,30.998554 11.4837189,30.998554 C13.970529,30.998554 16.1754393,32.2199295 17.5446168,34.1022313 C18.6024756,33.3792706 19.7180638,32.6933846 20.8864733,32.0478146 L20.8864746,32.0478139 Z" id="Path" sketch:type="MSShapeGroup"></path>
                <path d="M35.0720912,39.6480747 C31.26152,39.6480747 28.0647789,42.8830051 28.0647789,46.7390985 C28.0647789,50.595192 31.26152,53.7244177 35.0720912,53.7244177 C38.8826624,53.7244177 41.9749467,50.595192 41.9749467,46.7390985 C41.9749467,42.8830051 38.8826624,39.6480747 35.0720912,39.6480747 L35.0720912,39.6480747 Z" id="circle21826" sketch:type="MSShapeGroup"></path>
                <path d="M65.3123434,39.6480747 C61.4998334,39.6480747 58.2963263,42.8810432 58.2963263,46.7390985 C58.2963263,50.5971539 61.4998334,53.7244177 65.3123434,53.7244177 C69.1248561,53.7244177 72.2151988,50.5971539 72.2151988,46.7390985 C72.2151988,42.8810432 69.1248561,39.6480747 65.3123434,39.6480747 L65.3123434,39.6480747 Z" id="circle21828" sketch:type="MSShapeGroup"></path>
                <path d="M57.8978381,0.417856125 L56.157167,0.00324023893 L55.6178137,1.7285731 L48.6557779,23.9993718 L52.3323154,25.1763121 L59.0143269,4.21623029 C77.958356,8.72856798 75.958356,8.72856798 75.958356,8.72856798 L76.8418671,4.93019381 C76.8418671,4.93019381 76.8418671,4.93019381 57.8978381,0.417856125 Z" id="path21804" sketch:type="MSShapeGroup"></path>
                <path d="M50.1392758,71.8791946 L50.1392758,67.9328859 C44.02542,67.9505802 39.481337,66.8006056 36.7688022,63.9865772 L33.9832869,66.8053691 C37.6606957,70.5047604 43.0917226,71.8791946 50.1392758,71.8791946 Z" id="path21830" sketch:type="MSShapeGroup"></path>
                <path d="M50.1392758,67.9328859 L50.1392758,71.8791946 C57.1870102,71.8791946 62.6152458,70.505336 66.2952646,66.8053691 L63.5097493,63.9865772 C60.7958511,66.801416 56.2541226,67.9509042 50.1392758,67.9328859 Z" id="path21832" sketch:type="MSShapeGroup"></path>
                <path d="M92.4695848,9.5892859 C92.4695848,4.33864467 88.263348,0.082158941 83.0746921,0.082158941 C77.8860361,0.082158941 73.6797994,4.33864467 73.6797994,9.5892859 C73.6797994,14.8399271 77.8860361,19.0964129 83.0746921,19.0964129 C88.263348,19.0964129 92.4695848,14.8399271 92.4695848,9.5892859 Z M77.535912,9.5892859 C77.535912,6.49375856 80.0157083,3.98433783 83.0746921,3.98433783 C86.1336759,3.98433783 88.6134722,6.49375856 88.6134722,9.5892859 C88.6134722,12.6848132 86.1336759,15.194234 83.0746921,15.194234 C80.0157083,15.194234 77.535912,12.6848132 77.535912,9.5892859 Z" id="circle21808-2" sketch:type="MSShapeGroup"></path>
                <path d="M93.2267843,53.7892651 C93.2267843,36.8454814 73.0269884,23.50481 48.3977236,23.50481 C23.7684588,23.50481 3.56866293,36.8454814 3.56866293,53.7892651 C3.56866293,70.7330488 23.7684588,84.0737202 48.3977236,84.0737202 C73.0269884,84.0737202 93.2267843,70.7330488 93.2267843,53.7892651 Z M7.42477551,53.7892651 C7.42477551,39.4368772 25.6398475,27.4069889 48.3977236,27.4069889 C71.1555998,27.4069889 89.3706718,39.4368772 89.3706718,53.7892651 C89.3706718,68.1416529 71.1555998,80.1715413 48.3977236,80.1715413 C25.6398475,80.1715413 7.42477551,68.1416529 7.42477551,53.7892651 Z" id="ellipse21820-2" sketch:type="MSShapeGroup"></path>
            </g>
        </g>
    </g>
</svg>