<?xml version="1.0" encoding="UTF-8" standalone="no"?>
<svg width="60px" height="60px" viewBox="0 0 60 60" version="1.1" xmlns="http://www.w3.org/2000/svg" xmlns:xlink="http://www.w3.org/1999/xlink" xmlns:sketch="http://www.bohemiancoding.com/sketch/ns">
    <!-- Generator: Sketch 3.0.3 (7891) - http://www.bohemiancoding.com/sketch -->
    <title>rjmetrics</title>
    <desc>Created with Sketch.</desc>
    <defs></defs>
    <g id="Page-1" stroke="none" stroke-width="1" fill="none" fill-rule="evenodd" sketch:type="MSPage">
        <g id="rjmetrics" sketch:type="MSArtboardGroup" fill="#FFFFFF">
            <g id="logo-solo-100x100" sketch:type="MSLayerGroup" transform="translate(2.000000, 0.000000)">
                <g id="Group" sketch:type="MSShapeGroup">
                    <g transform="translate(3.780822, 0.769231)">
                        <g transform="translate(14.958904, 14.615385)" id="Shape">
                            <path d="M0.844068493,29.0423077 L0.445849315,28.8169231 L0.904972603,28.0315385 L1.30319178,28.2576923 L0.844068493,29.0423077 L0.844068493,29.0423077 Z M2.22143836,26.6869231 L1.82321918,26.4607692 L2.28234247,25.6761538 L2.67978082,25.9023077 L2.22143836,26.6869231 L2.22143836,26.6869231 Z M3.5980274,24.3330769 L3.19980822,24.1061538 L3.65893151,23.3223077 L4.05715068,23.5469231 L3.5980274,24.3330769 L3.5980274,24.3330769 Z M4.97617808,21.9784615 L4.5779589,21.7523077 L5.03708219,20.9669231 L5.43530137,21.1930769 L4.97617808,21.9784615 L4.97617808,21.9784615 Z M6.35354795,19.6238462 L5.95532877,19.3976923 L6.41445205,18.6123077 L6.81267123,18.8392308 L6.35354795,19.6238462 L6.35354795,19.6238462 Z M7.73091781,17.2684615 L7.33269863,17.0430769 L7.79182192,16.2576923 L8.1900411,16.4838462 L7.73091781,17.2684615 L7.73091781,17.2684615 Z M9.10828767,14.9146154 L8.81782192,14.7492308 L8.8029863,14.7576923 L8.78815068,14.7330769 L8.70928767,14.6884615 L8.73505479,14.6438462 L8.43131507,14.1346154 L8.82719178,13.9046154 L9.26679452,14.6415385 L9.10828767,14.9146154 L9.10828767,14.9146154 Z M7.50057534,12.5715385 L7.03520548,11.79 L7.43186301,11.5615385 L7.8980137,12.3423077 L7.50057534,12.5715385 L7.50057534,12.5715385 Z M6.10524658,10.2284615 L5.63987671,9.44615385 L6.03653425,9.21692308 L6.50190411,9.99846154 L6.10524658,10.2284615 L6.10524658,10.2284615 Z M4.70835616,7.88384615 L4.2429863,7.10153846 L4.63964384,6.87307692 L5.1050137,7.65461538 L4.70835616,7.88384615 L4.70835616,7.88384615 Z M3.31224658,5.54 L2.84687671,4.75846154 L3.24275342,4.52923077 L3.70890411,5.31076923 L3.31224658,5.54 L3.31224658,5.54 Z M1.91613699,3.19692308 L1.45076712,2.41461538 L1.84664384,2.18461538 L2.31279452,2.96692308 L1.91613699,3.19692308 L1.91613699,3.19692308 Z M0.520027397,0.852307692 L0.0546575342,0.07 L0.451315068,-0.159230769 L0.916684932,0.623076923 L0.520027397,0.852307692 L0.520027397,0.852307692 Z"></path>
                        </g>
                        <g transform="translate(42.287671, 13.038462)">
                            <path d="M4.92464384,31.9846154 L4.67634247,31.1446154 L5.11828767,31.0176923 L5.36580822,31.8592308 L4.92464384,31.9846154 L4.92464384,31.9846154 Z M4.18052055,29.4615385 L3.933,28.6207692 L4.37416438,28.4946154 L4.62168493,29.3361538 L4.18052055,29.4615385 L4.18052055,29.4615385 Z M3.43717808,26.9384615 L3.18965753,26.0976923 L3.63160274,25.9715385 L3.87834247,26.8123077 L3.43717808,26.9384615 L3.43717808,26.9384615 Z M2.69383562,24.4146154 L2.44553425,23.5723077 L2.88747945,23.4461538 L3.13578082,24.2884615 L2.69383562,24.4146154 L2.69383562,24.4146154 Z M1.94971233,21.8907692 L1.7029726,21.0492308 L2.14413699,20.9230769 L2.39165753,21.7653846 L1.94971233,21.8907692 L1.94971233,21.8907692 Z M1.20636986,19.3676923 L0.958068493,18.5253846 L1.4000137,18.3992308 L1.64753425,19.2415385 L1.20636986,19.3676923 L1.20636986,19.3676923 Z M0.462246575,16.8446154 L0.297493151,16.2838462 L0.413054795,15.8784615 L0.855780822,16 L0.775356164,16.2815385 L0.904191781,16.7184615 L0.462246575,16.8446154 L0.462246575,16.8446154 Z M1.33676712,14.3123077 L0.894041096,14.1915385 L1.13453425,13.3484615 L1.57726027,13.47 L1.33676712,14.3123077 L1.33676712,14.3123077 Z M2.05824658,11.7838462 L1.61552055,11.6615385 L1.85523288,10.8169231 L2.2979589,10.94 L2.05824658,11.7838462 L2.05824658,11.7838462 Z M2.77816438,9.25307692 L2.33621918,9.13076923 L2.57671233,8.28769231 L3.01943836,8.40923077 L2.77816438,9.25307692 L2.77816438,9.25307692 Z M3.49886301,6.72307692 L3.05613699,6.60076923 L3.29663014,5.75692308 L3.73857534,5.87923077 L3.49886301,6.72307692 L3.49886301,6.72307692 Z M4.22034247,4.19307692 L3.77839726,4.07076923 L4.01810959,3.22692308 L4.46083562,3.34923077 L4.22034247,4.19307692 L4.22034247,4.19307692 Z M4.94182192,1.66307692 L4.49909589,1.54076923 L4.73958904,0.697692308 L5.18153425,0.82 L4.94182192,1.66307692 L4.94182192,1.66307692 Z" id="Shape"></path>
                            <rect id="Rectangle-path" transform="translate(5.174116, -1.271000) rotate(195.676234) translate(-5.174116, 1.271000) " x="4.78370706" y="-1.65561382" width="0.459902242" height="0.452305856"></rect>
                        </g>
                        <g transform="translate(0.000000, 40.769231)">
                            <rect id="Rectangle-path" transform="translate(-2.859062, 0.200692) rotate(192.163990) translate(2.859062, -0.200692) " x="-3.24945323" y="-0.183903988" width="0.459100501" height="0.452285244"></rect>
                            <path d="M25.1556575,15.83 L24.5380274,15.1423077 L24.881589,14.8423077 L25.5007808,15.5292308 L25.1556575,15.83 L25.1556575,15.83 Z M23.3004247,13.7684615 L22.6812329,13.0815385 L23.0255753,12.78 L23.6439863,13.4676923 L23.3004247,13.7684615 L23.3004247,13.7684615 Z M21.444411,11.7076923 L20.8252192,11.0207692 L21.1687808,10.72 L21.7879726,11.4069231 L21.444411,11.7076923 L21.444411,11.7076923 Z M19.5883973,9.64692308 L18.9692055,8.95846154 L19.3127671,8.65846154 L19.9319589,9.34538462 L19.5883973,9.64692308 L19.5883973,9.64692308 Z M17.7316027,7.58538462 L17.1139726,6.89923077 L17.4575342,6.59692308 L18.0759452,7.28538462 L17.7316027,7.58538462 L17.7316027,7.58538462 Z M15.8763699,5.52538462 L15.2579589,4.83769231 L15.6023014,4.53615385 L16.2199315,5.22384615 L15.8763699,5.52538462 L15.8763699,5.52538462 Z M13.8360822,4.05461538 L12.924863,3.86153846 L13.0209041,3.41923077 L13.9329041,3.61230769 L13.8360822,4.05461538 L13.8360822,4.05461538 Z M11.1016438,3.47692308 L10.1904247,3.28230769 L10.2872466,2.84 L11.1984658,3.03307692 L11.1016438,3.47692308 L11.1016438,3.47692308 Z M8.36720548,2.89692308 L7.4559863,2.70307692 L7.55280822,2.26076923 L8.4640274,2.45461538 L8.36720548,2.89692308 L8.36720548,2.89692308 Z M5.63276712,2.31769231 L4.72154795,2.12461538 L4.81836986,1.68230769 L5.72958904,1.87538462 L5.63276712,2.31769231 L5.63276712,2.31769231 Z M2.89910959,1.73846154 L1.98789041,1.54461538 L2.08471233,1.10230769 L2.99671233,1.29538462 L2.89910959,1.73846154 L2.89910959,1.73846154 Z M0.163890411,1.15846154 L-0.747328767,0.966153846 L-0.650506849,0.522307692 L0.260712329,0.716153846 L0.163890411,1.15846154 L0.163890411,1.15846154 Z" id="Shape"></path>
                            <rect id="Rectangle-path" transform="translate(26.546184, 16.918808) rotate(228.327922) translate(-26.546184, -16.918808) " x="26.1557536" y="16.5341729" width="0.459146475" height="0.453869075"></rect>
                        </g>
                        <g>
                            <rect id="Rectangle-path" transform="translate(-2.742446, 17.431192) rotate(255.752524) translate(2.742446, -17.431192) " x="-3.13284003" y="17.0465935" width="0.458322722" height="0.453057406"></rect>
                            <path d="M-0.567739726,17.1361538 L-0.680958904,16.6969231 L0.207616438,16.4761538 L0.320835616,16.9146154 L-0.567739726,17.1361538 L-0.567739726,17.1361538 Z M2.09876712,16.4707692 L1.98554795,16.0323077 L2.87490411,15.8107692 L2.98812329,16.2492308 L2.09876712,16.4707692 L2.09876712,16.4707692 Z M4.76605479,15.8053846 L4.65283562,15.3676923 L5.54141096,15.1453846 L5.65463014,15.5838462 L4.76605479,15.8053846 L4.76605479,15.8053846 Z M7.43256164,15.14 L7.31934247,14.7007692 L8.20791781,14.48 L8.32113699,14.9184615 L7.43256164,15.14 L7.43256164,15.14 Z M10.0990685,14.4746154 L9.98663014,14.0353846 L10.8752055,13.8138462 L10.9876438,14.2530769 L10.0990685,14.4746154 L10.0990685,14.4746154 Z M12.7655753,13.8092308 L12.6523562,13.37 L13.5417123,13.1484615 L13.6549315,13.5876923 L12.7655753,13.8092308 L12.7655753,13.8092308 Z M15.2501507,12.5861538 L14.9151781,12.2753846 L15.5460822,11.6184615 L15.8810548,11.9307692 L15.2501507,12.5861538 L15.2501507,12.5861538 Z M17.142863,10.62 L16.8086712,10.3092308 L17.4395753,9.65307692 L17.7737671,9.96384615 L17.142863,10.62 L17.142863,10.62 Z M19.0340137,8.65307692 L18.6998219,8.34076923 L19.330726,7.68538462 L19.6649178,7.99615385 L19.0340137,8.65307692 L19.0340137,8.65307692 Z M20.9275068,6.68538462 L20.5933151,6.37384615 L21.2242192,5.71846154 L21.558411,6.02923077 L20.9275068,6.68538462 L20.9275068,6.68538462 Z M22.8194384,4.71846154 L22.4852466,4.40769231 L23.1153699,3.75153846 L23.4503425,4.06230769 L22.8194384,4.71846154 L22.8194384,4.71846154 Z M24.7121507,2.75076923 L24.3771781,2.43923077 L25.008863,1.78384615 L25.3430548,2.09538462 L24.7121507,2.75076923 L24.7121507,2.75076923 Z" id="Shape"></path>
                            <rect id="Rectangle-path" transform="translate(26.196610, 0.209038) rotate(223.383324) translate(-26.196610, -0.209038) " x="25.8061857" y="-0.175590356" width="0.459920171" height="0.453092747"></rect>
                        </g>
                    </g>
                    <path d="M56.0926849,41.2315385 L56.2363562,41.0176923 L56.2137123,41.0023077 L56.3987671,18.5153846 L56.4003288,18.5146154 L56.3987671,18.5115385 L56.3987671,18.5076923 L56.3956438,18.5076923 L52.7015753,13.1938462 C52.1245479,12.3623077 50.9322329,11.2792308 50.0444384,10.7784615 L33.410589,1.40153846 C32.5220137,0.900769231 30.9689589,0.437692308 29.9492055,0.369230769 L23.527726,0.159230769 L23.5269452,0.176923077 L23.5167945,0.16 L3.46138356,11.4930769 L3.46684932,11.5038462 L3.45357534,11.4969231 L0.787849315,16.9038462 C0.355273973,17.8169231 0.00624657534,19.3769231 0.00780821918,20.3830769 L0.0429452055,39.5061538 C0.0452876712,40.5115385 0.40290411,42.07 0.843287671,42.98 L3.59256164,48.4369231 L3.58787671,48.4430769 L23.4457397,59.84 L23.4605753,59.8138462 L23.4605753,59.8215385 L24.0063699,59.7846154 L24.0071507,59.7869231 L24.0094932,59.7846154 L30.1772055,59.3753846 C31.1969589,59.3076923 32.7476712,58.8438462 33.6331233,58.3407692 L50.0858219,48.9946154 C50.9728356,48.4923077 52.1542192,47.3992308 52.7210959,46.5584615 L56.0895616,41.2361538 L56.0950274,41.2338462 L56.0926849,41.2315385 L56.0926849,41.2315385 Z M23.5050822,58.07 L5.51494521,47.9469231 L7.81368493,31.0523077 L27.2639589,31.0638462 L36.8953973,47.7807692 L23.5050822,58.07 L23.5050822,58.07 Z M36.8368356,11.7884615 L27.2553699,28.5707692 L7.74341096,28.5484615 L5.29241096,12.0315385 L23.4152877,1.79076923 L36.8368356,11.7884615 L36.8368356,11.7884615 Z M38.9036712,46.3069231 L29.3261096,29.7607692 L38.8396438,13.28 L54.557589,19.5961538 L54.592726,39.8430769 L38.9036712,46.3069231 L38.9036712,46.3069231 Z M55.8842055,18.5084615 L55.8849863,18.5069231 L55.8857671,18.5084615 L55.8842055,18.5084615 L55.8842055,18.5084615 Z M33.0826438,2.70846154 L48.8849178,11.8269231 C49.6836986,12.2776923 50.3981507,12.7130769 50.9181781,13.4623077 L53.1122877,16.74 L38.8373014,11.0546154 L26.3722603,1.75538462 L30.0397808,1.75307692 C30.9580274,1.81461538 32.283863,2.25769231 33.0826438,2.70846154 L33.0826438,2.70846154 Z M1.4640411,38.9807692 L1.21808219,21.0253846 C1.21730137,20.1169231 1.53119178,18.7092308 1.92238356,17.8876923 L3.73154795,14.8269231 L5.92331507,29.9384615 L3.9150411,45.0184615 L2.18786301,42.1123077 C1.79120548,41.2938462 1.46560274,39.8876923 1.4640411,38.9807692 L1.4640411,38.9807692 Z M51.6013973,46.0176923 C51.0923014,46.7730769 50.0303836,47.7553846 49.2323836,48.2092308 L33.6034521,56.8769231 C32.8054521,57.33 31.4085616,57.9584615 30.4918767,58.0192308 L26.7431507,57.8207692 L38.7748356,48.5907692 L53.1232192,42.6869231 L51.6013973,46.0176923 L51.6013973,46.0176923 Z" id="Shape"></path>
                    <path d="M52.3181918,21.2830769 L40.7690548,16.7546154 C40.6449041,16.7076923 40.5035753,16.7676923 40.4559452,16.8907692 C40.4075342,17.0146154 40.47,17.1530769 40.592589,17.2 L50.366137,22.3 L52.1596849,37.6884615 C52.1612466,37.8207692 52.269,37.9230769 52.4017397,37.9230769 L52.4056438,37.9230769 C52.5399452,37.9207692 52.6469178,37.8130769 52.6437945,37.6807692 L52.3181918,21.2830769 L52.3181918,21.2830769 Z" id="Shape"></path>
                    <path d="M9.78291781,25.7015385 C9.80087671,25.82 9.90316438,25.9053846 10.0218493,25.9053846 C10.0327808,25.9053846 10.045274,25.9046154 10.0569863,25.9038462 C10.189726,25.8838462 10.281863,25.7630769 10.2631233,25.6315385 L10.0218493,14.4415385 L23.5089863,5.45153846 C23.6253288,5.38615385 23.6667123,5.24153846 23.6011233,5.12615385 C23.5363151,5.01153846 23.3887397,4.97 23.2716164,5.03461538 L8.037,13.4953846 L9.78291781,25.7015385 L9.78291781,25.7015385 Z" id="Shape"></path>
                    <path d="M33.2645753,46.9815385 C33.182589,46.8761538 33.0303288,46.8592308 32.9256986,46.9415385 L22.9733425,53.3884615 L8.61480822,46.3369231 C8.49846575,46.2715385 8.35089041,46.3130769 8.28530137,46.4276923 C8.21893151,46.54 8.25875342,46.6869231 8.37587671,46.7515385 L23.0826575,55.1446154 L23.2239863,55.2246154 L33.2239726,47.3153846 C33.3286027,47.2361538 33.3481233,47.0838462 33.2645753,46.9815385 L33.2645753,46.9815385 Z" id="Shape"></path>
                </g>
            </g>
        </g>
    </g>
</svg>