<?xml version="1.0" encoding="UTF-8" standalone="no"?>
<svg width="40px" height="40px" viewBox="0 0 40 40" version="1.1" xmlns="http://www.w3.org/2000/svg" xmlns:xlink="http://www.w3.org/1999/xlink" xmlns:sketch="http://www.bohemiancoding.com/sketch/ns">
    <!-- Generator: Sketch 3.0.3 (7891) - http://www.bohemiancoding.com/sketch -->
    <title>rocketdesign</title>
    <desc>Created with Sketch.</desc>
    <defs></defs>
    <g id="Page-1" stroke="none" stroke-width="1" fill="none" fill-rule="evenodd" sketch:type="MSPage">
        <g id="rocketdesign" sketch:type="MSArtboardGroup" fill="#FFFFFF">
            <g id="Group" sketch:type="MSLayerGroup" transform="translate(0.000000, 1.000000)">
                <path d="M30.7685262,35.5246921 L35.1435495,35.5246921 L35.1435495,35.335818 L30.7685262,35.335818 L30.7685262,35.5246921 L30.7685262,35.5246921 Z M32.591559,33.6350667 L32.591559,33.8239407 L39.5185728,33.8239407 L39.5185728,33.6350667 L32.591559,33.6350667 L32.591559,33.6350667 Z M4.33667954,35.5246921 L8.71170284,35.5246921 L8.71170284,35.335818 L4.33667954,35.335818 L4.33667954,35.5246921 L4.33667954,35.5246921 Z M6.88866995,33.6350667 L-0.0381307416,33.6350667 L-0.0381307416,33.8239407 L6.88888297,33.8239407 L6.88866995,33.6350667 L6.88866995,33.6350667 Z" id="Shape" sketch:type="MSShapeGroup"></path>
                <path d="M20.7256557,17.8625333 L19.8529091,17.8625333 L19.8529091,17.8886307 L18.985488,17.8886307 C18.985488,17.8886307 15.5160165,26.0887291 19.8529091,26.0887291 L19.8529091,26.0677185 C24.2164292,26.0674974 20.7256557,17.8625333 20.7256557,17.8625333 L20.7256557,17.8625333 Z" id="Shape" sketch:type="MSShapeGroup"></path>
                <path d="M31.0443882,23.3425354 C30.2606843,23.9586984 29.4735721,24.6945111 28.3790707,24.9902074 C26.7490347,25.430545 26.6060977,23.7870751 25.2042072,24.3771407 C23.653415,25.0300169 21.7767008,27.113382 19.3248302,26.6763619 C17.8358141,26.4107439 16.703608,25.7012497 15.6012249,25.0286899 C15.1040341,24.7254741 14.5644521,24.2838095 13.8766076,24.1856127 C13.2109173,24.0905122 12.9067235,24.8999725 12.3087738,25.0286899 C10.2399148,25.473672 8.52722673,22.8951206 7.48768473,22.1164021 C7.63019571,23.5022159 8.29908135,24.7652836 8.89873519,25.7565407 C11.3011849,29.7286466 17.0508321,33.6169312 23.7539609,31.3126233 C28.1509253,29.8011884 30.522061,26.8424561 31.9850885,22.4227143 C31.6715218,22.7294688 31.357955,23.0360021 31.0443882,23.3425354 L31.0443882,23.3425354 Z" id="Shape" sketch:type="MSShapeGroup"></path>
                <path d="M21.2394621,13.547181 C21.2394621,13.547181 22.5765943,8.12092169 19.7610971,6.00062222 L19.7610971,5.99221799 C19.7593929,5.99354497 19.7576887,5.99509312 19.7559846,5.99642011 C19.7542804,5.99509312 19.7525762,5.99354497 19.7508721,5.99221799 L19.7508721,6.00062222 C16.9349487,8.10986349 18.2703768,13.5414307 18.2703768,13.5414307 C15.3217414,15.3846116 16.825456,17.6068677 16.825456,17.6068677 C17.1637332,16.024218 18.7149514,15.9616286 18.7149514,15.9616286 L18.874078,17.3498751 L19.709546,17.376636 L19.709546,17.3792899 L19.7542804,17.377963 L19.7990148,17.3792899 L19.7990148,17.3768571 L20.6344828,17.3534138 L20.7940354,15.9658307 C20.7940354,15.9658307 22.3452536,16.0343915 22.6831048,17.6183683 C22.6833178,17.6183683 24.1876714,15.4020836 21.2394621,13.547181 L21.2394621,13.547181 Z" id="Shape" sketch:type="MSShapeGroup"></path>
                <path d="M34.6817201,20.4532487 C35.0072161,19.7877661 36.9993876,19.536745 37.8378378,19.4566836 C37.8510451,19.0968497 37.8644655,18.7370159 37.8778858,18.377182 C37.054773,18.1956063 35.1133005,18.0892265 34.7217681,17.4221958 C34.6550925,17.0347164 34.58863,16.6470159 34.5219545,16.2595365 C34.4584742,15.9401757 34.3832779,15.4595862 34.5620024,15.1800349 C34.8704567,14.6972339 36.5618426,13.936872 37.1188923,13.6022508 C37.0255891,13.2700624 36.932499,12.9378741 36.8391958,12.6056857 C36.0326987,12.6278021 34.2935961,13.1110455 33.7231261,12.8133587 C33.4050859,12.6472646 33.3283983,12.2759302 33.1637332,11.941309 C33.0046066,11.6181884 32.6147783,11.257691 32.7242711,10.6957132 C32.8158701,10.2255185 34.3010518,8.62672381 34.6819332,8.32903704 C34.5087472,8.03842751 34.3357742,7.74781799 34.1625882,7.45720847 C33.3205166,7.38687831 32.1640261,8.80055873 31.246119,8.61986772 C30.8271069,8.53737354 30.6191985,8.17577037 30.3671948,7.91413333 C30.1541739,7.69274815 29.941153,7.4711418 29.7279191,7.24975661 C29.4299028,6.57343704 30.5359073,4.61348148 30.8066569,4.01125185 C30.5269605,3.80357884 30.247264,3.59612698 29.9677806,3.38845397 C29.3845294,3.85267725 28.3543603,5.25286667 27.6905871,5.4229418 C27.2178938,5.54413968 26.9077353,5.22566349 26.6518972,5.09075344 C26.2782586,4.8936963 25.8004527,4.7682963 25.6132073,4.38501905 C25.4133937,3.97586561 25.7094927,1.71579048 25.8528558,1.18787196 C25.5333245,1.07706878 25.2135801,0.966486772 24.8940487,0.855683598 C24.3881241,1.72751217 23.8819864,2.5995619 23.3758488,3.47139048 C23.0993476,3.6863619 22.6560511,3.62930159 22.2971109,3.55432698 C21.9775795,3.51274815 21.6578352,3.47139048 21.3383038,3.42981164 C20.4005858,3.06754497 20.6651578,1.08060741 20.259566,0.149728042 C20.107256,1.99978922e-14 19.5495673,0.051752381 19.260711,0.0667915344 C19.0342697,1.07706878 18.8078285,2.0875672 18.5816003,3.09784444 C18.3300226,3.46165926 17.946585,3.40681058 17.4229796,3.51296931 C17.1405139,3.57025079 16.6874185,3.73634497 16.3442418,3.59590582 C15.9007323,3.41455132 14.8596991,1.39266984 14.6662761,0.855462434 C14.3333245,0.952332275 14.0003728,1.04920212 13.6674211,1.14607196 C13.6936227,1.95376296 14.1786713,3.91593016 13.8271868,4.46773439 C13.6211956,4.79129735 13.1998402,4.8488 12.8683797,5.04895344 C12.5567301,5.23716402 12.0985222,5.59920952 11.5900413,5.33956296 C10.924351,4.71676508 10.2582346,4.0939672 9.59254427,3.47116931 C9.53928904,3.44352381 9.48603382,3.41587831 9.43277859,3.3882328 C9.17970976,3.58197249 8.92664093,3.77571217 8.67378512,3.96945185 C8.77539609,4.04796508 9.90099854,6.72559788 9.8324058,7.00050476 C9.72568233,7.42757249 9.37398482,7.64298624 9.11324724,7.91391217 C7.79102649,9.2882254 6.87375849,7.88847831 5.39773665,7.41562963 C5.19792305,7.69230582 4.99810944,7.96920317 4.79850885,8.24610053 C5.43757156,8.99341376 6.07706031,9.74094815 6.71612302,10.4882614 C6.89719079,10.9708413 6.61323392,11.3702635 6.4764745,11.6509206 C5.57262681,13.5044963 4.81043802,12.7927905 2.68108108,12.564328 C2.57457063,12.9102286 2.46806018,13.2563503 2.36154973,13.6022508 C2.90880043,13.8800328 4.62319265,14.7220042 4.91843962,15.1800349 C5.09865531,15.4595862 5.02047663,15.9353101 4.95848755,16.2595365 C4.90523233,16.6193704 4.8519771,16.9792042 4.79872187,17.3390381 C4.47407802,18.0031937 2.48020237,18.2573111 1.64260418,18.3356032 C1.62918386,18.695437 1.61597657,19.0552709 1.60255625,19.4151048 C2.42566902,19.5966804 4.36714153,19.7030603 4.75867394,20.370091 C4.82534949,20.7575704 4.89181201,21.1452709 4.95848755,21.5327503 C5.02196778,21.8521111 5.09716416,22.3327005 4.91843962,22.6122519 C4.60998535,23.0950529 2.91859939,23.8554148 2.36154973,24.190036 C2.45485288,24.5222243 2.54794302,24.8544127 2.64124617,25.1866011 C3.44774331,25.1644847 5.18684596,24.6812413 5.75752896,24.978928 C6.07556917,25.1450222 6.15225669,25.5163566 6.31692185,25.8507566 C6.47604846,26.1738772 6.86587671,26.5343746 6.75638397,27.0963524 C6.66478498,27.5665471 5.17960325,29.1653418 4.79872187,29.4630286 C4.97190787,29.7536381 5.14488084,30.0442476 5.31806684,30.3348571 C6.16013846,30.4051873 7.31662894,28.9915069 8.23453601,29.1721979 C8.65354813,29.2546921 8.86145653,29.6162952 9.11346026,29.8779323 C9.32648116,30.0993175 9.53971508,30.3209238 9.75273599,30.542309 C10.0507522,31.2186286 8.9447477,33.1785841 8.67399814,33.7808138 C8.92706697,33.9884868 9.1801358,34.1959386 9.43299161,34.4036116 L9.51287445,34.4036116 C10.0961257,33.9393884 11.1262948,32.5391989 11.7900679,32.3691238 C12.2627613,32.2479259 12.5729197,32.5664021 12.8287578,32.7013122 C13.2023965,32.8983693 13.6802024,33.0237693 13.8674477,33.4072677 C14.0672614,33.8164212 13.7711623,36.0764963 13.6277992,36.6044148 C13.9473306,36.715218 14.267075,36.8258 14.5866063,36.9366032 C15.092531,36.0647746 15.5986686,35.1927249 16.1048063,34.3208963 C16.3813074,34.1059249 16.8246039,34.1629852 17.1835441,34.2379598 C17.5030755,34.2795386 17.8228199,34.3208963 18.1423512,34.3624751 C19.0783651,34.7240783 18.8159233,36.7127852 19.2210891,37.6425587 C19.373399,37.7922868 19.9310877,37.7405344 20.2199441,37.7254952 C20.4463853,36.715218 20.6728265,35.7047196 20.8990547,34.6944423 C21.1506324,34.3306275 21.53407,34.385255 22.0576754,34.2793175 C22.3401411,34.222036 22.7932366,34.0559418 23.1364133,34.196381 C23.5799228,34.3777354 24.6209559,36.3996169 24.8143789,36.9368243 C25.1473306,36.8399545 25.4802823,36.7430847 25.8132339,36.6462148 C25.7870324,35.8385238 25.3019838,33.8763566 25.6534682,33.3245524 C25.8594595,33.0009894 26.2808148,32.9434868 26.6122753,32.7433333 C26.9239249,32.5551228 27.3821329,32.1930772 27.8906138,32.4527238 C28.5563041,33.0755217 29.2224205,33.6983196 29.8881108,34.3211175 C29.941366,34.348763 29.9946212,34.3764085 30.0478764,34.404054 C30.3009453,34.2103143 30.5540141,34.0165746 30.8068699,33.8228349 C30.5606178,33.2239228 29.4458794,31.3051037 29.6882972,30.6256878 C29.941366,30.3490116 30.1944348,30.0721143 30.4472906,29.7952169 C30.6792704,29.5543693 30.9393689,29.103637 31.4461457,29.172419 C32.3250699,29.5738317 33.2039941,29.9752444 34.0829184,30.376436 C34.282732,30.0995386 34.4825456,29.8228624 34.6821462,29.5459651 C34.0430835,28.7986519 33.4035947,28.0511175 32.764532,27.3038042 C32.5834643,26.8212243 32.8674211,26.4218021 33.0041805,26.141145 C33.9080282,24.2875693 34.670217,24.9992751 36.799574,25.2277376 C36.9060844,24.8955492 37.0125949,24.5633608 37.1191053,24.2311725 C36.4657702,23.5676804 35.0704833,23.4002593 34.5622154,22.6118095 C34.3819997,22.3322582 34.4599654,21.8565344 34.5221675,21.5323079 C34.5752097,21.1729164 34.6284649,20.8128614 34.6817201,20.4532487 L34.6817201,20.4532487 Z M32.4445746,24.2729725 C30.8477699,28.190672 27.8957263,31.1651069 23.8150979,32.4940815 C22.7627746,32.8366646 21.6469711,32.9069947 20.4193316,33.1168794 C18.3097856,33.4773767 15.8144588,32.5767968 14.4666755,31.9957989 C9.1138863,29.6881735 3.75215018,22.2760825 6.83605379,14.0589545 C8.35212355,10.0193937 11.0696312,7.13077037 14.9461856,5.54723598 C15.8116895,5.31191746 16.6774065,5.07659894 17.5429104,4.84128042 C18.048835,4.78598942 18.5549727,4.73047725 19.0611104,4.67518624 C26.0556517,4.65218519 30.216802,8.28790053 32.3248569,13.3529989 C33.640474,16.5145386 33.7866063,20.9802825 32.4445746,24.2729725 L32.4445746,24.2729725 Z" id="Shape" sketch:type="MSShapeGroup"></path>
            </g>
        </g>
    </g>
</svg>