<?xml version="1.0" encoding="UTF-8" standalone="no"?>
<svg width="160px" height="160px" viewBox="0 0 160 160" version="1.1" xmlns="http://www.w3.org/2000/svg" xmlns:xlink="http://www.w3.org/1999/xlink" xmlns:sketch="http://www.bohemiancoding.com/sketch/ns">
    <!-- Generator: Sketch 3.3.3 (12072) - http://www.bohemiancoding.com/sketch -->
    <title>salesforce1</title>
    <desc>Created with Sketch.</desc>
    <defs></defs>
    <g id="Page-1" stroke="none" stroke-width="1" fill="none" fill-rule="evenodd" sketch:type="MSPage">
        <g id="salesforce1" sketch:type="MSArtboardGroup" fill="#FFFFFF">
            <g sketch:type="MSLayerGroup" transform="translate(5.000000, 69.000000)" id="Group">
                <g sketch:type="MSShapeGroup">
                    <path d="M8.85458015,21.1941053 C5.91412214,21.1941053 2.79274809,20.2226316 1.44274809,18.6143158 C1.20229008,18.3109474 1.08206107,17.9774737 1.08206107,17.6127368 C1.08206107,16.6725263 1.89274809,15.8828421 2.79274809,15.8828421 C3.12251908,15.8828421 3.48320611,15.9743158 3.75343511,16.1862105 C5.13435115,17.248 6.90458015,18.0064211 9.00458015,18.0064211 C11.8259542,18.0064211 12.9652672,16.5798947 12.9652672,15.2749474 C12.9652672,11.0868421 1.32251908,13.6967368 1.32251908,6.23178947 C1.32251908,2.86578947 4.20343511,0.286 8.61412214,0.286 C11.0141221,0.286 14.0152672,1.04442105 15.3354962,2.50105263 C15.5759542,2.77431579 15.6961832,3.13789474 15.6961832,3.47252632 C15.6961832,4.41273684 14.8259542,5.14105263 13.9557252,5.14105263 C13.6259542,5.14105263 13.2950382,5.04957895 12.9950382,4.83768421 C11.5854962,3.89747368 9.93435115,3.47252632 8.31412214,3.47252632 C6.27366412,3.47252632 4.98320611,4.47410526 4.98320611,5.96084211 C4.98320611,9.69273684 16.5961832,7.35726316 16.5961832,14.9125263 C16.5961832,18.3109474 14.2557252,21.1941053 8.85458015,21.1941053 L8.85458015,21.1941053 Z" id="Shape"></path>
                    <path d="M30.1923664,21.0111579 L30.0125954,21.0111579 C29.5923664,21.0111579 28.5721374,20.6475789 28.5721374,19.5244211 L28.5721374,19.2523158 C27.5221374,20.4958947 25.8114504,21.1941053 23.9209924,21.1941053 C21.5507634,21.1941053 18.8496183,19.5857895 18.8496183,16.3390526 C18.8496183,12.9707368 21.5507634,11.5743158 23.9209924,11.5743158 C25.8412214,11.5743158 27.5519084,12.2111579 28.5721374,13.4558947 L28.5721374,11.2107368 C28.5721374,9.54221053 27.1912214,8.51052632 25.2114504,8.51052632 C23.9507634,8.51052632 22.8103053,8.844 21.7603053,9.63368421 C21.5805344,9.75526316 21.3400763,9.84557895 21.0996183,9.84557895 C20.4996183,9.84557895 19.8389313,9.36042105 19.8389313,8.57073684 C19.8389313,8.32757895 19.9293893,8.05431579 20.0793893,7.87252632 C21.2198473,6.41589474 23.8900763,5.80915789 25.7209924,5.80915789 C28.9316794,5.80915789 31.7828244,7.17547368 31.7828244,11.1192632 L31.7828244,19.4028421 C31.7816794,20.284 31.0625954,21.0111579 30.1923664,21.0111579 L30.1923664,21.0111579 Z M28.5709924,15.2761053 C27.8507634,14.3046316 26.5305344,13.8194737 25.1496183,13.8194737 C23.4389313,13.8194737 22.1187023,14.7909474 22.1187023,16.3992632 C22.1187023,17.9473684 23.4389313,18.9477895 25.1496183,18.9477895 C26.5293893,18.9477895 27.8507634,18.4626316 28.5709924,17.4610526 L28.5709924,15.2761053 L28.5709924,15.2761053 Z" id="Shape"></path>
                    <path d="M37.4553435,21.0111579 C36.5553435,21.0111579 35.8648855,20.2828421 35.8648855,19.4028421 L35.8648855,1.98578947 C35.8648855,1.13589474 36.5553435,0.407578947 37.5148855,0.407578947 C38.3553435,0.407578947 39.0755725,1.13589474 39.0755725,1.98578947 L39.0755725,19.4028421 C39.0755725,20.284 38.3553435,21.0111579 37.4553435,21.0111579 L37.4553435,21.0111579 Z" id="Shape"></path>
                    <path d="M55.1312977,14.5477895 L45.5885496,14.5477895 C45.7980916,16.7327368 47.4492366,18.5842105 50.1492366,18.5842105 C51.1992366,18.5842105 52.4003817,18.2507368 53.3896947,17.6127368 C53.5992366,17.4911579 53.8396947,17.4309474 54.0492366,17.4309474 C54.7099237,17.4309474 55.4003817,17.9763158 55.4003817,18.766 C55.4003817,20.4356842 51.6790076,21.1941053 49.8183206,21.1941053 C45.4671756,21.1941053 42.2267176,18.1291579 42.2267176,13.486 C42.2267176,9.23768421 45.2874046,5.80915789 49.5790076,5.80915789 C52.9706107,5.80915789 55.4312977,7.87252632 56.3312977,11.0289474 C56.5110687,11.6356842 56.6919847,12.3338947 56.6919847,12.9707368 C56.6919847,13.8194737 56.0015267,14.5477895 55.1312977,14.5477895 L55.1312977,14.5477895 Z M49.5790076,8.41905263 C46.9385496,8.41905263 45.7087786,10.5426316 45.5576336,12.3026316 L53.6003817,12.3026316 C53.5408397,10.604 52.4003817,8.41905263 49.5790076,8.41905263 L49.5790076,8.41905263 Z" id="Shape"></path>
                    <path d="M64.8251908,21.1941053 C62.8740458,21.1941053 60.2942748,20.5873684 59.1538168,19.2824211 C58.9740458,19.0705263 58.8538168,18.7972632 58.8538168,18.4938947 C58.8538168,17.7354737 59.5145038,17.1275789 60.2347328,17.1275789 C60.4751908,17.1275789 60.7442748,17.1889474 60.9549618,17.3394737 C62.0656489,18.0978947 63.5656489,18.6444211 64.9465649,18.6444211 C66.8370229,18.6444211 67.7679389,17.8257895 67.7679389,16.7026316 C67.7679389,13.8507368 59.0061069,15.9141053 59.0061069,10.2693684 C59.0061069,7.87252632 61.0763359,5.808 64.7679389,5.808 C66.7179389,5.808 68.909542,6.41473684 69.898855,7.568 C70.078626,7.77989474 70.169084,8.02305263 70.169084,8.29631579 C70.169084,8.99452632 69.569084,9.54105263 68.878626,9.54105263 C68.669084,9.54105263 68.428626,9.47968421 68.2179389,9.35926316 C67.2881679,8.72242105 66.0572519,8.32757895 64.7667939,8.32757895 C63.1465649,8.32757895 62.1263359,9.11610526 62.1263359,10.1176842 C62.1263359,12.6974737 70.859542,10.7545263 70.859542,16.5810526 C70.8572519,19.1909474 68.7263359,21.1941053 64.8251908,21.1941053 L64.8251908,21.1941053 Z" id="Shape"></path>
                    <path d="M81.451145,3.16915789 C81.001145,3.16915789 80.610687,2.86578947 79.980916,2.86578947 C78.75,2.86578947 78,3.71568421 78,5.26263158 L78,6.17273684 L79.740458,6.17273684 C80.490458,6.17273684 81.120229,6.80957895 81.120229,7.62936842 C81.120229,8.38778947 80.490458,9.02578947 79.740458,9.02578947 L78,9.02578947 L78,19.404 C78,20.284 77.279771,21.0123158 76.35,21.0123158 C75.479771,21.0123158 74.759542,20.284 74.759542,19.404 L74.759542,9.02578947 L73.559542,9.02578947 C72.809542,9.02578947 72.178626,8.38894737 72.178626,7.56915789 C72.178626,6.81073684 72.8083969,6.17273684 73.559542,6.17273684 L74.759542,6.17273684 L74.759542,5.26263158 C74.759542,2.16757895 76.589313,0.286 79.380916,0.286 C81.030916,0.286 82.5916031,0.892736842 82.5916031,1.92442105 C82.5916031,2.71410526 81.9916031,3.16915789 81.451145,3.16915789 L81.451145,3.16915789 Z" id="Shape"></path>
                    <path d="M89.8843511,21.1941053 C85.2332061,21.1941053 82.4118321,17.7042105 82.4118321,13.486 C82.4118321,9.29789474 85.2332061,5.80915789 89.8843511,5.80915789 C94.5354962,5.80915789 97.3568702,9.29905263 97.3568702,13.486 C97.3557252,17.7042105 94.5354962,21.1941053 89.8843511,21.1941053 L89.8843511,21.1941053 Z M89.8843511,8.69115789 C87.2141221,8.69115789 85.7427481,10.9374737 85.7427481,13.486 C85.7427481,16.0657895 87.2129771,18.3109474 89.8843511,18.3109474 C92.5248092,18.3109474 93.9961832,16.0657895 93.9961832,13.486 C93.9950382,10.9374737 92.5248092,8.69115789 89.8843511,8.69115789 L89.8843511,8.69115789 Z" id="Shape"></path>
                    <path d="M107.020992,9.086 C105.730534,9.20757895 104.499618,9.75410526 103.719847,10.8761053 L103.719847,19.4028421 C103.719847,20.2828421 102.999618,21.0111579 102.129389,21.0111579 L102.068702,21.0111579 C101.198473,21.0111579 100.508015,20.2828421 100.508015,19.4028421 L100.508015,7.56915789 C100.508015,6.71926316 101.198473,5.99094737 102.158015,5.99094737 C102.998473,5.99094737 103.718702,6.71926316 103.718702,7.56915789 L103.718702,8.32757895 C104.498473,7.26578947 105.638931,5.99094737 107.169847,5.99094737 C108.040076,5.99094737 108.580534,6.59768421 108.580534,7.38736842 C108.581679,8.35768421 107.920992,8.96442105 107.020992,9.086 L107.020992,9.086 Z" id="Shape"></path>
                    <path d="M122.206489,19.5556842 C121.156489,20.5271579 119.655344,21.1941053 117.555344,21.1941053 C113.143511,21.1941053 110.053053,17.9473684 110.053053,13.486 C110.053053,9.05589474 113.143511,5.80915789 117.555344,5.80915789 C119.775573,5.80915789 121.63626,6.59768421 122.446947,7.78221053 C122.596947,7.964 122.656489,8.20715789 122.656489,8.45031579 C122.656489,9.30021053 121.906489,9.84673684 121.156489,9.84673684 C120.826718,9.84673684 120.495802,9.75526316 120.226718,9.54336842 C119.476718,8.96673684 118.63626,8.69347368 117.706489,8.69347368 C115.095802,8.69347368 113.355344,10.6665263 113.355344,13.4883158 C113.355344,16.3101053 115.095802,18.3132632 117.706489,18.3132632 C118.667176,18.3132632 119.476718,18.0098947 120.226718,17.4332632 C120.526718,17.2202105 120.826718,17.1298947 121.156489,17.1298947 C121.93626,17.1298947 122.687405,17.7065263 122.687405,18.5564211 C122.68626,18.9176842 122.53626,19.3125263 122.206489,19.5556842 L122.206489,19.5556842 Z" id="Shape"></path>
                    <path d="M137.871756,14.5477895 L128.329008,14.5477895 C128.53855,16.7327368 130.189695,18.5842105 132.889695,18.5842105 C133.939695,18.5842105 135.14084,18.2507368 136.130153,17.6127368 C136.339695,17.4911579 136.580153,17.4309474 136.789695,17.4309474 C137.450382,17.4309474 138.14084,17.9763158 138.14084,18.766 C138.14084,20.4356842 134.419466,21.1941053 132.558779,21.1941053 C128.207634,21.1941053 124.967176,18.1291579 124.967176,13.486 C124.967176,9.23768421 128.027863,5.80915789 132.319466,5.80915789 C135.711069,5.80915789 138.171756,7.87252632 139.071756,11.0289474 C139.251527,11.6356842 139.432443,12.3338947 139.432443,12.9707368 C139.432443,13.8194737 138.741985,14.5477895 137.871756,14.5477895 L137.871756,14.5477895 Z M132.320611,8.41905263 C129.680153,8.41905263 128.450382,10.5426316 128.299237,12.3026316 L136.341985,12.3026316 C136.281298,10.604 135.14084,8.41905263 132.320611,8.41905263 L132.320611,8.41905263 Z" id="Shape"></path>
                    <path d="M148.106107,21.0111579 C147.14542,21.0111579 146.335878,20.1925263 146.335878,19.2210526 L146.335878,5.29273684 L143.935878,7.81231579 C143.665649,8.11568421 143.306107,8.23726316 142.94542,8.23726316 C142.165649,8.23726316 141.44542,7.56915789 141.44542,6.72042105 C141.44542,6.32557895 141.59542,5.93189474 141.89542,5.62852632 L146.366794,1.04673684 C146.727481,0.651894737 147.266794,0.44 147.866794,0.44 C148.977481,0.44 149.937023,1.32 149.937023,2.47326316 L149.937023,19.2233684 C149.937023,20.1925263 149.127481,21.0111579 148.106107,21.0111579 L148.106107,21.0111579 Z" id="Shape"></path>
                </g>
            </g>
        </g>
    </g>
</svg>