<?xml version="1.0" encoding="utf-8"?>
<!-- Generator: Adobe Illustrator 17.1.0, SVG Export Plug-In . SVG Version: 6.00 Build 0)  -->
<!DOCTYPE svg PUBLIC "-//W3C//DTD SVG 1.1//EN" "http://www.w3.org/Graphics/SVG/1.1/DTD/svg11.dtd">
<svg version="1.1" id="Calque_1" xmlns="http://www.w3.org/2000/svg" xmlns:xlink="http://www.w3.org/1999/xlink" x="0px" y="0px"
	 viewBox="340.945 515.275 160 160" enable-background="new 340.945 515.275 160 160" xml:space="preserve">
<g>
	<path fill="#FFFFFF" d="M362.733,604.304c-2.568,0-5.294-0.839-6.473-2.228c-0.21-0.262-0.315-0.55-0.315-0.865
		c0-0.812,0.708-1.494,1.494-1.494c0.288,0,0.603,0.079,0.839,0.262c1.206,0.917,2.752,1.572,4.586,1.572
		c2.464,0,3.459-1.232,3.459-2.359c0-3.617-10.168-1.363-10.168-7.81c0-2.907,2.516-5.135,6.368-5.135
		c2.096,0,4.717,0.655,5.87,1.913c0.21,0.236,0.315,0.55,0.315,0.839c0,0.812-0.76,1.441-1.52,1.441
		c-0.288,0-0.577-0.079-0.839-0.262c-1.231-0.812-2.673-1.179-4.088-1.179c-1.782,0-2.909,0.865-2.909,2.149
		c0,3.223,10.142,1.206,10.142,7.731C369.494,601.814,367.45,604.304,362.733,604.304z"/>
	<path fill="#FFFFFF" d="M381.368,604.146h-0.157c-0.367,0-1.258-0.314-1.258-1.284v-0.235c-0.917,1.074-2.411,1.677-4.062,1.677
		c-2.07,0-4.429-1.389-4.429-4.193c0-2.909,2.359-4.115,4.429-4.115c1.677,0,3.171,0.55,4.062,1.625v-1.939
		c0-1.441-1.206-2.332-2.935-2.332c-1.101,0-2.097,0.288-3.014,0.97c-0.157,0.105-0.367,0.183-0.577,0.183
		c-0.524,0-1.101-0.419-1.101-1.101c0-0.21,0.079-0.446,0.21-0.603c0.996-1.258,3.328-1.782,4.927-1.782
		c2.804,0,5.294,1.18,5.294,4.586v7.154C382.756,603.518,382.128,604.146,381.368,604.146z M379.952,599.193
		c-0.629-0.839-1.782-1.258-2.988-1.258c-1.494,0-2.647,0.839-2.647,2.228c0,1.337,1.153,2.201,2.647,2.201
		c1.205,0,2.359-0.419,2.988-1.284V599.193z"/>
	<path fill="#FFFFFF" d="M387.711,604.146c-0.786,0-1.389-0.629-1.389-1.389v-15.042c0-0.734,0.603-1.363,1.441-1.363
		c0.734,0,1.363,0.629,1.363,1.363v15.042C389.126,603.518,388.497,604.146,387.711,604.146z"/>
	<path fill="#FFFFFF" d="M403.148,598.564h-8.334c0.183,1.887,1.625,3.486,3.983,3.486c0.917,0,1.966-0.288,2.83-0.839
		c0.183-0.105,0.393-0.157,0.576-0.157c0.577,0,1.18,0.471,1.18,1.153c0,1.442-3.25,2.097-4.875,2.097c-3.8,0-6.63-2.647-6.63-6.657
		c0-3.669,2.673-6.63,6.421-6.63c2.962,0,5.111,1.782,5.897,4.508c0.157,0.524,0.315,1.127,0.315,1.677
		C404.511,597.935,403.908,598.564,403.148,598.564z M398.299,593.271c-2.306,0-3.38,1.834-3.512,3.354h7.024
		C401.759,595.158,400.763,593.271,398.299,593.271z"/>
	<path fill="#FFFFFF" d="M411.614,604.304c-1.704,0-3.957-0.524-4.953-1.651c-0.157-0.183-0.262-0.419-0.262-0.681
		c0-0.655,0.577-1.18,1.206-1.18c0.21,0,0.445,0.053,0.629,0.183c0.97,0.655,2.28,1.127,3.486,1.127
		c1.651,0,2.464-0.707,2.464-1.677c0-2.463-7.652-0.681-7.652-5.556c0-2.07,1.808-3.853,5.032-3.853c1.703,0,3.617,0.524,4.481,1.52
		c0.157,0.183,0.236,0.393,0.236,0.629c0,0.603-0.524,1.075-1.127,1.075c-0.183,0-0.393-0.053-0.577-0.157
		c-0.812-0.55-1.887-0.891-3.014-0.891c-1.415,0-2.306,0.681-2.306,1.546c0,2.228,7.627,0.55,7.627,5.582
		C416.882,602.574,415.021,604.304,411.614,604.304z"/>
	<path fill="#FFFFFF" d="M426.134,588.737c-0.393,0-0.734-0.262-1.284-0.262c-1.075,0-1.73,0.734-1.73,2.07v0.786h1.52
		c0.655,0,1.205,0.55,1.205,1.258c0,0.655-0.55,1.206-1.205,1.206h-1.52v8.963c0,0.76-0.629,1.389-1.441,1.389
		c-0.76,0-1.389-0.629-1.389-1.389v-8.963h-1.048c-0.655,0-1.206-0.55-1.206-1.258c0-0.655,0.55-1.206,1.206-1.206h1.048v-0.786
		c0-2.673,1.598-4.298,4.036-4.298c1.441,0,2.804,0.524,2.804,1.415C427.13,588.344,426.606,588.737,426.134,588.737z"/>
	<path fill="#FFFFFF" d="M433.499,604.304c-4.062,0-6.526-3.014-6.526-6.657c0-3.617,2.464-6.63,6.526-6.63
		c4.062,0,6.526,3.014,6.526,6.63C440.024,601.29,437.561,604.304,433.499,604.304z M433.499,593.506
		c-2.332,0-3.617,1.94-3.617,4.141c0,2.228,1.284,4.167,3.617,4.167c2.306,0,3.591-1.939,3.591-4.167
		C437.089,595.446,435.805,593.506,433.499,593.506z"/>
	<path fill="#FFFFFF" d="M448.465,593.847c-1.127,0.105-2.202,0.577-2.883,1.546v7.364c0,0.76-0.629,1.389-1.389,1.389h-0.053
		c-0.76,0-1.363-0.629-1.363-1.389v-10.22c0-0.734,0.603-1.363,1.441-1.363c0.734,0,1.363,0.629,1.363,1.363v0.655
		c0.681-0.917,1.677-2.018,3.014-2.018c0.76,0,1.232,0.524,1.232,1.206C449.828,593.218,449.251,593.742,448.465,593.847z"/>
	<path fill="#FFFFFF" d="M461.727,602.889c-0.917,0.839-2.228,1.415-4.062,1.415c-3.853,0-6.552-2.804-6.552-6.657
		c0-3.826,2.699-6.63,6.552-6.63c1.939,0,3.564,0.681,4.272,1.704c0.131,0.157,0.183,0.367,0.183,0.577
		c0,0.734-0.655,1.206-1.31,1.206c-0.288,0-0.577-0.079-0.812-0.262c-0.655-0.498-1.389-0.734-2.201-0.734
		c-2.28,0-3.8,1.704-3.8,4.141c0,2.437,1.52,4.167,3.8,4.167c0.839,0,1.546-0.262,2.201-0.76c0.262-0.184,0.524-0.262,0.812-0.262
		c0.681,0,1.337,0.498,1.337,1.232C462.146,602.338,462.015,602.679,461.727,602.889z"/>
	<path fill="#FFFFFF" d="M475.408,598.564h-8.334c0.183,1.887,1.625,3.486,3.983,3.486c0.917,0,1.966-0.288,2.83-0.839
		c0.183-0.105,0.393-0.157,0.576-0.157c0.577,0,1.18,0.471,1.18,1.153c0,1.442-3.25,2.097-4.875,2.097c-3.8,0-6.63-2.647-6.63-6.657
		c0-3.669,2.673-6.63,6.421-6.63c2.962,0,5.111,1.782,5.897,4.508c0.157,0.524,0.315,1.127,0.315,1.677
		C476.771,597.935,476.168,598.564,475.408,598.564z M470.56,593.271c-2.306,0-3.38,1.834-3.512,3.354h7.024
		C474.019,595.158,473.023,593.271,470.56,593.271z"/>
	<path fill="#FFFFFF" d="M484.346,604.146c-0.839,0-1.546-0.707-1.546-1.546v-12.029l-2.096,2.176
		c-0.236,0.262-0.55,0.367-0.865,0.367c-0.681,0-1.31-0.577-1.31-1.31c0-0.341,0.131-0.681,0.393-0.943l3.905-3.957
		c0.315-0.341,0.786-0.524,1.31-0.524c0.97,0,1.808,0.76,1.808,1.756v14.466C485.945,603.439,485.238,604.146,484.346,604.146z"/>
</g>
</svg>
