<?xml version="1.0" encoding="UTF-8" standalone="no"?>
<svg width="120px" height="120px" viewBox="0 0 120 120" version="1.1" xmlns="http://www.w3.org/2000/svg" xmlns:xlink="http://www.w3.org/1999/xlink" xmlns:sketch="http://www.bohemiancoding.com/sketch/ns">
    <!-- Generator: Sketch 3.1.1 (8761) - http://www.bohemiancoding.com/sketch -->
    <title>shopify</title>
    <desc>Created with Sketch.</desc>
    <defs></defs>
    <g id="Page-1" stroke="none" stroke-width="1" fill="none" fill-rule="evenodd" sketch:type="MSPage">
        <g id="shopify" sketch:type="MSArtboardGroup" fill="#FFFFFF">
            <path d="M35.4474667,67.6159587 C36.1813333,68.0069118 37.5024,68.5487782 38.7648,68.5187049 C39.9098667,68.5187049 40.5264,67.8866185 40.5264,67.1041656 C40.5264,66.351786 40.0864,65.8399929 38.8528,65.1176866 C37.3264,64.2149405 36.1813333,62.950221 36.1813333,61.2950953 C36.1813333,58.37525 38.6181333,56.2985511 42.1706667,56.2985511 C43.7264,56.2985511 44.9301333,56.5998311 45.576,56.9907841 L44.6368,59.9407026 C44.0789333,59.669496 43.1685333,59.3687629 42.112,59.3687629 C40.9669333,59.3687629 40.2330667,59.9106293 40.2330667,60.7532289 C40.2330667,61.4153885 40.7616,61.8971083 41.7888,62.469048 C43.3744,63.4018675 44.6954667,64.6660402 44.6954667,66.4420059 C44.6954667,69.7528042 42.0826667,71.6189899 38.4421333,71.5889166 C36.7685333,71.5588433 35.2128,71.1071968 34.4496,70.5658772 L35.4474667,67.6159587 Z M45.5173333,71.3182568 L49.4517333,50.0985277 L53.5029333,50.0985277 L51.9466667,58.4359435 L52.0058667,58.4660168 C53.0917333,57.1411507 54.5013333,56.2684778 56.2917333,56.2684778 C58.4058667,56.2684778 59.6096,57.6830171 59.6096,60.0309226 C59.6096,60.7532289 59.4917333,61.8369617 59.3157333,62.7397078 L57.7306667,71.3182568 L53.6789333,71.3182568 L55.2058667,63.0109144 C55.3232,62.4389747 55.3818667,61.7467417 55.3818667,61.174802 C55.3818667,60.2715091 55.0293333,59.6394227 54.1194667,59.6394227 C52.8277333,59.6394227 51.448,61.3251686 50.9194667,64.0640271 L49.5690667,71.3182568 L45.5173333,71.3182568 Z M64.8058667,65.7196997 C64.8058667,67.2244589 65.3930667,68.4284849 66.7733333,68.4284849 C68.9162667,68.4284849 70.12,64.5156736 70.12,61.9572549 C70.12,60.7231555 69.6501333,59.4589829 68.2117333,59.4589829 C66.0096,59.4589829 64.8058667,63.3417209 64.8058667,65.7196997 L64.8058667,65.7196997 Z M74.2592,62.0775482 C74.2592,67.2244589 71.0298667,71.6189899 66.2448,71.6189899 C62.6042667,71.6189899 60.6666667,69.0304979 60.6666667,65.8099196 C60.6666667,60.7833022 63.896,56.2684778 68.7696,56.2684778 C72.5568,56.2684778 74.2592,59.0981031 74.2592,62.0775482 L74.2592,62.0775482 Z M79.0746667,67.8866185 C79.5146667,68.248045 80.0138667,68.4886315 80.7477333,68.4886315 C83.0085333,68.4886315 84.5642667,64.6660402 84.5642667,61.9873282 C84.5642667,60.8735221 84.1829333,59.7001161 82.9498667,59.7001161 C81.5408,59.7001161 80.2197333,61.4153885 79.7498667,64.0038805 L79.0746667,67.8866185 L79.0746667,67.8866185 Z M73.2906667,77.2175471 L76.1093333,62.0174015 C76.432,60.3015824 76.7552,58.0143703 76.9312,56.5096111 L80.5130667,56.5096111 L80.2778667,58.7366766 L80.3365333,58.7366766 C81.4229333,57.1717708 83.0085333,56.2684778 84.6229333,56.2684778 C87.5882667,56.2684778 88.792,58.7667499 88.792,61.5657551 C88.792,66.6224458 85.68,71.6189899 80.9242667,71.6189899 C79.9258667,71.6189899 79.0154667,71.3778567 78.5461333,71.0771235 L78.4576,71.0771235 L77.3424,77.2175471 L73.2906667,77.2175471 L73.2906667,77.2175471 Z M94.1648,54.793792 C93.0197333,54.793792 92.2565333,53.9511924 92.2565333,52.7170931 C92.2565333,51.3621536 93.2842667,50.3090409 94.576,50.3090409 C95.8090667,50.3090409 96.6016,51.1817138 96.6016,52.3857398 C96.5722667,53.9211191 95.4858667,54.793792 94.224,54.793792 L94.1648,54.793792 L94.1648,54.793792 Z M88.9098667,71.3182568 L91.64,56.5998311 L95.7210667,56.5998311 L92.9610667,71.3182568 L88.9098667,71.3182568 Z M96.4837333,71.3182568 L98.6272,59.7001161 L96.7482667,59.7001161 L97.3354667,56.5697577 L99.2144,56.5697577 L99.3317333,55.8775248 C99.6549333,54.1316323 100.3008,52.3857398 101.680533,51.1817138 C102.7664,50.218821 104.205333,49.7972478 105.643733,49.7972478 C106.642133,49.7972478 107.376,49.9476144 107.845333,50.1586744 L107.0528,53.409326 C106.7008,53.288486 106.2896,53.1982661 105.761067,53.1982661 C104.410667,53.1982661 103.5888,54.4624387 103.3536,55.8775248 L103.206933,56.5697577 L106.0256,56.5697577 L105.467733,59.7001161 L102.6784,59.7001161 L100.535467,71.3182568 L96.4837333,71.3182568 Z M111.045867,56.5998311 L111.691733,63.2214276 C111.867733,64.6961135 111.985067,65.749773 112.044267,66.7132125 L112.102933,66.7132125 C112.4256,65.7196997 112.718933,64.7868802 113.306667,63.1913543 L115.772267,56.5998311 L120,56.5998311 L115.0384,67.4956654 C113.2768,71.2274901 111.5744,73.9668954 109.7248,75.7428612 C108.2864,77.1273272 106.583467,77.8195601 105.761067,78 L104.645867,74.4781418 C105.321067,74.2375553 106.172267,73.8761287 106.935467,73.304189 C107.8752,72.6425761 108.667733,71.7392832 109.1376,70.8064637 C109.254933,70.5954038 109.284267,70.4149639 109.2256,70.1142308 L106.7888,56.5998311 L111.045867,56.5998311 Z M16.2912,48.2722575 C16.2896,48.1393882 16.2874667,48.005972 16.2816,47.8687283 C16.2432,46.8178028 16.104,45.932007 15.8677333,45.2157154 C16.1242667,45.2419612 16.36,45.3294472 16.5738667,45.4841881 C17.1706667,45.9172438 17.6005333,46.788823 17.9018667,47.7604644 L16.2912,48.2722575 L16.2912,48.2722575 Z M14.2282667,59.1041178 C14.0778667,59.0286611 13.8992,58.9488301 13.6976,58.8722799 C13.4981333,58.7962764 13.2757333,58.7235537 13.0341333,58.6634071 C12.7952,58.6032604 12.5381333,58.5545963 12.2666667,58.5256166 C11.9989333,58.4977304 11.7168,58.4884351 11.4250667,58.5053855 C11.1568,58.5228827 10.9130667,58.571 10.6997333,58.6491906 C10.488,58.7268344 10.304,58.833458 10.152,58.9657805 C10.0010667,59.0975563 9.8816,59.2555779 9.79786667,59.4371114 C9.7136,59.618098 9.66453333,59.8220498 9.656,60.0484198 C9.648,60.21519 9.6736,60.3759455 9.7312,60.5317799 C9.7888,60.6881611 9.87786667,60.8423552 10.0005333,60.9943621 C10.1237333,61.1463691 10.2794667,61.3000164 10.4682667,61.4547572 C10.6581333,61.6111384 10.8826667,61.7708004 11.1413333,61.9370238 C11.5045333,62.1748763 11.8752,62.4438958 12.2277333,62.7517372 C12.5856,63.0650464 12.9237333,63.4182711 13.2154667,63.8196131 C13.5088,64.226423 13.7546667,64.681897 13.92,65.1925965 C14.0858667,65.7071236 14.1706667,66.2757826 14.1434667,66.9013074 C14.1002667,67.9248936 13.8821333,68.8068619 13.5194667,69.5390103 C13.1621333,70.2613166 12.6693333,70.8294288 12.0752,71.2400662 C11.4944,71.6425018 10.8218667,71.8929305 10.0896,71.9924458 C9.37866667,72.0903208 8.61706667,72.0465778 7.83093333,71.8688718 C7.82453333,71.8677783 7.81866667,71.8661379 7.81226667,71.8644975 C7.80586667,71.863404 7.79946667,71.8617636 7.79413333,71.86067 C7.78773333,71.8590297 7.78133333,71.8573893 7.77493333,71.8562957 C7.76853333,71.8541086 7.76266667,71.8535618 7.75626667,71.8519214 C7.38826667,71.7595143 7.032,71.6414082 6.69813333,71.5025242 C6.36906667,71.3663741 6.05973333,71.2105397 5.77866667,71.0426759 C5.5008,70.8769993 5.24906667,70.6987466 5.032,70.515026 C4.81653333,70.3334925 4.6336,70.1448509 4.49066667,69.9562092 L5.35733333,67.0057439 C5.50293333,67.1320518 5.68266667,67.2769505 5.88586667,67.4229427 C6.09226667,67.5722157 6.3232,67.7242226 6.5712,67.8663874 C6.82186667,68.0096457 7.0896,68.1430618 7.36586667,68.2513258 C7.64426667,68.3606833 7.93173333,68.4454353 8.216,68.4869912 C8.46773333,68.5258131 8.6928,68.5181581 8.88906667,68.4727747 C9.08746667,68.4273913 9.25653333,68.3426393 9.39413333,68.2278139 C9.53333333,68.1124417 9.6416,67.9659027 9.71626667,67.7985857 C9.79146667,67.6296284 9.8352,67.4404399 9.8432,67.2375818 C9.85173333,67.0341768 9.83306667,66.8428012 9.784,66.6574402 C9.73333333,66.4720793 9.6528,66.2916394 9.536,66.1117463 C9.4192,65.9324 9.26773333,65.7525069 9.07626667,65.567146 C8.8864,65.3812382 8.6592,65.1920497 8.38933333,64.9897384 C8.05866667,64.7365758 7.7472,64.4620884 7.4688,64.1629957 C7.1936,63.8682772 6.94933333,63.5489533 6.74933333,63.2017433 C6.552,62.8589075 6.39626667,62.487092 6.29493333,62.0835628 C6.19466667,61.6822208 6.1488,61.246978 6.168,60.77346 C6.20213333,59.9822585 6.35626667,59.2517504 6.6144,58.5956054 C6.87573333,57.9318054 7.24533333,57.3352602 7.70933333,56.8223736 C8.18293333,56.2996447 8.7584,55.858934 9.4208,55.5188322 C10.1034667,55.169435 10.8832,54.9239274 11.7482667,54.8080084 C12.1488,54.7538765 12.5338667,54.7298178 12.8976,54.7276307 C13.2672,54.7259903 13.6138667,54.7478618 13.9338667,54.7899644 C14.2581333,54.8320671 14.5530667,54.8944009 14.8144,54.9698575 C15.0773333,55.045861 15.3061333,55.1366277 15.4944,55.2355963 L14.2282667,59.1041178 L14.2282667,59.1041178 Z M12.3818667,44.3638205 C13.0789333,44.1046432 13.6138667,44.1166726 14.0170667,44.3955342 C11.8672,45.4010764 10.928,47.9327025 10.5232,50.102902 L7.88533333,50.9405805 C8.47413333,48.7567112 9.7888,45.3294472 12.3818667,44.3638205 L12.3818667,44.3638205 Z M15.1493333,48.6342308 L11.8549333,49.6807821 C12.2917333,47.9266878 13.1306667,46.1365056 14.7338667,45.4377111 C15.0672,46.3322555 15.1589333,47.5559659 15.1493333,48.6342308 L15.1493333,48.6342308 Z M19.9738667,47.1032259 L18.9509333,47.4274708 C18.5066667,46.0823736 17.8997333,45.1249487 17.1376,44.5721465 C16.5733333,44.1620559 15.9536,43.9848968 15.2853333,44.0379352 C15.1461333,43.8481999 14.9925333,43.6830701 14.8250667,43.5441861 C14.0853333,42.9312373 13.1317333,42.8355495 11.9909333,43.2598566 C8.5696,44.5338714 7.1168,49.0798626 6.5936,51.3506711 L3.61226667,52.297707 C3.61226667,52.297707 2.90933333,52.5016588 2.74453333,52.7050637 C2.56373333,52.9265127 2.52853333,53.5268853 2.52853333,53.5268853 L0,73.5272783 L18.9866667,77.1743509 L20.4485333,47.0857287 C20.2394667,47.0441728 20.0256,47.090103 19.9738667,47.1032259 Z M26.0938667,49.6884371 C26.0938667,49.6884371 26.0661333,49.5342431 25.9818667,49.4784707 C25.8965333,49.4226984 25.8037333,49.4117627 25.8037333,49.4117627 L23.1237333,49.2072641 L21.1514667,47.1972733 C21.0778667,47.138767 20.9914667,47.1048662 20.9029333,47.0868222 L19.4405333,77.1748977 L29.7285333,74.8920599 L26.0938667,49.6884371 Z" id="Fill-2" sketch:type="MSShapeGroup"></path>
        </g>
    </g>
</svg>