<?xml version="1.0" encoding="UTF-8" standalone="no"?>
<svg width="60px" height="60px" viewBox="0 0 60 60" version="1.1" xmlns="http://www.w3.org/2000/svg" xmlns:xlink="http://www.w3.org/1999/xlink" xmlns:sketch="http://www.bohemiancoding.com/sketch/ns">
    <!-- Generator: Sketch 3.1.1 (8761) - http://www.bohemiancoding.com/sketch -->
    <title>skype</title>
    <desc>Created with Sketch.</desc>
    <defs></defs>
    <g id="Page-1" stroke="none" stroke-width="1" fill="none" fill-rule="evenodd" sketch:type="MSPage">
        <g id="skype" sketch:type="MSArtboardGroup" fill="#FFFFFF">
            <g id="Imported-Layers" sketch:type="MSLayerGroup">
                <path d="M57.3609375,34.78875 C57.34125,34.8928125 57.3271875,34.9978125 57.3075,35.1009375 L57.2071875,34.5065625 C57.2615625,34.5984375 57.3075,34.695 57.3609375,34.78875 C57.6646875,33.125625 57.825,31.4240625 57.825,29.7215625 C57.825,25.948125 57.08625,22.2871875 55.6275,18.8409375 C54.219375,15.511875 52.2046875,12.5221875 49.6359375,9.9553125 C47.07,7.3884375 44.079375,5.3728125 40.7521875,3.965625 C37.3059375,2.5078125 33.645,1.7690625 29.8715625,1.7690625 C28.093125,1.7690625 26.3128125,1.9359375 24.5784375,2.26875 C24.5746875,2.2696875 24.57,2.2696875 24.5653125,2.270625 C24.6628125,2.3221875 24.76125,2.368125 24.856875,2.4215625 L24.27,2.3296875 C24.3675,2.3109375 24.466875,2.29125 24.5653125,2.270625 C22.186875,1.0059375 19.5121875,0.33 16.805625,0.33 C12.38625,0.33 8.2284375,2.0521875 5.1028125,5.1778125 C1.978125,8.3034375 0.2578125,12.459375 0.2578125,16.880625 C0.2578125,19.6940625 0.9796875,22.4596875 2.3390625,24.90375 C2.356875,24.8015625 2.368125,24.7003125 2.3878125,24.5990625 L2.4890625,25.1840625 C2.4365625,25.093125 2.390625,24.9965625 2.3390625,24.90375 C2.0625,26.4871875 1.9171875,28.10625 1.9171875,29.7215625 C1.9171875,33.4940625 2.6578125,37.1559375 4.1165625,40.603125 C5.5228125,43.933125 7.539375,46.921875 10.104375,49.486875 C12.6721875,52.05375 15.66,54.0721875 18.9909375,55.4765625 C22.4371875,56.9371875 26.0990625,57.6759375 29.8715625,57.6759375 C31.5140625,57.6759375 33.16125,57.526875 34.768125,57.241875 C34.6734375,57.1884375 34.5778125,57.1415625 34.4821875,57.0871875 L35.079375,57.19125 C34.97625,57.21 34.8721875,57.223125 34.768125,57.241875 C37.2440625,58.6425 40.04625,59.3878125 42.9084375,59.3878125 C47.32875,59.3878125 51.481875,57.6675 54.6075,54.5409375 C57.7340625,51.4171875 59.454375,47.2603125 59.454375,42.84 C59.454375,40.0171875 58.7278125,37.2421875 57.3609375,34.78875 Z M29.983125,46.84125 C20.0521875,46.84125 15.609375,41.9596875 15.609375,38.29875 C15.609375,36.421875 16.995,35.1075 18.905625,35.1075 C23.154375,35.1075 22.0546875,41.2096875 29.983125,41.2096875 C34.0415625,41.2096875 36.2840625,39.005625 36.2840625,36.7490625 C36.2840625,35.3925 35.6146875,33.8896875 32.941875,33.2315625 L24.1096875,31.025625 C16.995,29.2415625 15.7040625,25.396875 15.7040625,21.7809375 C15.7040625,14.2753125 22.7709375,11.4571875 29.4084375,11.4571875 C35.521875,11.4571875 42.7275,14.835 42.7275,19.33875 C42.7275,21.268125 41.056875,22.3903125 39.1490625,22.3903125 C35.521875,22.3903125 36.189375,17.37 28.884375,17.37 C25.2571875,17.37 23.2490625,19.0115625 23.2490625,21.3609375 C23.2490625,23.705625 26.113125,24.45375 28.5984375,25.021875 L35.1365625,26.4721875 C42.298125,28.0678125 44.115,32.248125 44.115,36.1875 C44.115,42.286875 39.4321875,46.84125 29.983125,46.84125 Z" id="Fill-1" sketch:type="MSShapeGroup"></path>
                <path d="M24.856875,2.4215625 C24.76125,2.368125 24.6628125,2.3221875 24.5653125,2.270625 C24.466875,2.29125 24.3675,2.3109375 24.27,2.3296875 L24.856875,2.4215625" id="Fill-2" sketch:type="MSShapeGroup"></path>
                <path d="M57.3075,35.1009375 C57.3271875,34.9978125 57.34125,34.8928125 57.3609375,34.78875 C57.3075,34.695 57.2615625,34.5984375 57.2071875,34.5065625 L57.3075,35.1009375" id="Fill-3" sketch:type="MSShapeGroup"></path>
                <path d="M34.4821875,57.0871875 C34.5778125,57.1415625 34.6734375,57.1884375 34.768125,57.241875 C34.8721875,57.223125 34.97625,57.21 35.079375,57.19125 L34.4821875,57.0871875" id="Fill-4" sketch:type="MSShapeGroup"></path>
            </g>
        </g>
    </g>
</svg>