<?xml version="1.0" encoding="UTF-8" standalone="no"?>
<svg width="60px" height="60px" viewBox="0 0 60 60" version="1.1" xmlns="http://www.w3.org/2000/svg" xmlns:xlink="http://www.w3.org/1999/xlink" xmlns:sketch="http://www.bohemiancoding.com/sketch/ns">
    <!-- Generator: Sketch 3.3.3 (12072) - http://www.bohemiancoding.com/sketch -->
    <title>slack</title>
    <desc>Created with Sketch.</desc>
    <defs></defs>
    <g id="Page-1" stroke="none" stroke-width="1" fill="none" fill-rule="evenodd" sketch:type="MSPage">
        <g id="slack" sketch:type="MSArtboardGroup" fill="#FFFFFF">
            <path d="M46.7061905,35.3242857 L42.8480952,36.6161905 L44.1852381,40.6080952 C44.7266667,42.2247619 43.8552381,43.9742857 42.2385714,44.5152381 C41.8871429,44.6333333 41.5290476,44.6842857 41.1790476,44.6747619 C39.9180952,44.642381 38.7552381,43.8338095 38.3319048,42.5690476 L36.9947619,38.5766667 L29.0385714,41.2409524 L30.3757143,45.2333333 C30.9171429,46.8495238 30.0457143,48.5990476 28.4290476,49.1404762 C28.077619,49.2580952 27.72,49.3090476 27.3695238,49.3 C26.1090476,49.2671429 24.9461905,48.4585714 24.522381,47.1938095 L23.1852381,43.2014286 L19.3266667,44.4938095 C18.9747619,44.6114286 18.6171429,44.662381 18.2666667,44.6533333 C17.0061905,44.6204762 15.8433333,43.8119048 15.4195238,42.5471429 C14.8780952,40.9304762 15.75,39.1814286 17.3661905,38.64 L21.2247619,37.3480952 L18.6595238,29.69 L14.8014286,30.9819048 C14.45,31.0995238 14.0919048,31.1504762 13.7414286,31.1414286 C12.4814286,31.1085714 11.3180952,30.3 10.8947619,29.0352381 C10.3533333,27.4185714 11.2247619,25.6695238 12.8414286,25.1280952 L16.6990476,23.8361905 L15.3619048,19.8438095 C14.8204762,18.227619 15.6919048,16.4785714 17.3085714,15.9366667 C18.9252381,15.3957143 20.6742857,16.2671429 21.2152381,17.8833333 L22.552381,21.8757143 L30.5085714,19.2114286 L29.1714286,15.2190476 C28.63,13.602381 29.5019048,11.8533333 31.1180952,11.3119048 C32.7342857,10.7704762 34.4838095,11.642381 35.0252381,13.2585714 L36.362381,17.2509524 L40.2204762,15.9585714 C41.837619,15.417619 43.5861905,16.2890476 44.127619,17.9052381 C44.6690476,19.5219048 43.7971429,21.2709524 42.1809524,21.812381 L38.3228571,23.1042857 L40.887619,30.7628571 L44.7461905,29.4704762 C46.3628571,28.9295238 48.1119048,29.8009524 48.6528571,31.4171429 C49.1942857,33.0333333 48.3228571,34.7828571 46.7061905,35.3242857 Z M57.0552381,22.0414286 C50.9166667,1.58047619 42.05,-3.19380952 21.5890476,2.9447619 C1.12809524,9.08333333 -3.64619048,17.95 2.49238095,38.4109524 C8.63095238,58.8719048 17.497619,63.6461905 37.9585714,57.507619 C58.4195238,51.3690476 63.1938095,42.502381 57.0552381,22.0414286 Z M24.5128571,27.7295238 L27.0780952,35.387619 L35.0342857,32.7228571 L32.4695238,25.0647619 L24.5128571,27.7295238 Z" id="Fill-9" sketch:type="MSShapeGroup"></path>
        </g>
    </g>
</svg>