<?xml version="1.0" encoding="UTF-8" standalone="no"?>
<svg width="60px" height="60px" viewBox="0 0 60 60" version="1.1" xmlns="http://www.w3.org/2000/svg" xmlns:xlink="http://www.w3.org/1999/xlink">
    <!-- Generator: Sketch 3.6.1 (26313) - http://www.bohemiancoding.com/sketch -->
    <title>snapchat</title>
    <desc>Created with Sketch.</desc>
    <defs></defs>
    <g id="Page-1" stroke="none" stroke-width="1" fill="none" fill-rule="evenodd">
        <g id="snapchat" fill="#FFFFFF">
            <path d="M30.3786338,58.3174031 C30.2239264,58.3174031 30.0721124,58.3129781 29.9201281,58.3056597 L29.9197877,58.3056597 C29.8229467,58.3131482 29.7216806,58.3174031 29.6204145,58.3174031 C26.0658889,58.3174031 23.7844229,56.7046339 21.5783535,55.1447954 C20.0549367,54.0684813 18.6174686,53.0522461 16.9236865,52.7702328 C16.0972189,52.6333959 15.2746657,52.5639563 14.4796842,52.5639563 C13.0474921,52.5639563 11.9175665,52.7850398 11.0926306,52.9463848 C10.5914059,53.0444172 10.1589401,53.1286638 9.83029324,53.1286638 C9.48700964,53.1286638 9.11496305,53.0544587 8.95327766,52.5020052 C8.81269647,52.0234165 8.71108997,51.5598049 8.61339796,51.1113407 C8.36133895,49.9572474 8.18246385,49.2473635 7.69876925,49.1731584 C2.06122529,48.30244 0.447605122,47.1149885 0.0878125862,46.2725226 C0.036924238,46.1520244 0.00799106344,46.031356 0.00101306252,45.911879 C-0.0171978179,45.5881679 0.212055042,45.3024102 0.531851718,45.2501603 C9.19818848,43.823074 13.0845946,34.9654379 13.2459396,34.5893067 C13.2503647,34.5789248 13.2549599,34.5688832 13.2597254,34.5585013 C13.7902237,33.4835488 13.8940427,32.550539 13.5694806,31.785682 C12.9748187,30.384125 11.0351047,29.7680186 9.7511525,29.3607416 C9.43697226,29.2613477 9.13913076,29.1673999 8.90426146,29.0746436 C6.34214376,28.0616421 6.12888924,27.0220901 6.22964477,26.4921025 C6.40137167,25.5892172 7.60788505,24.9600058 8.58378401,24.9600058 C8.85133077,24.9600058 9.08688085,25.0074902 9.284988,25.0999062 C10.4375495,25.6399354 11.4764207,25.913439 12.3726683,25.913439 C13.6110082,25.913439 14.151548,25.3929822 14.2175837,25.324734 C14.1860976,24.7382415 14.1471229,24.1257092 14.1072972,23.4936044 C13.8491112,19.3963265 13.5293145,14.3051089 14.8255207,11.3990269 C18.7105653,2.68792877 26.9493719,2.01123288 29.3818009,2.01123288 C29.4440923,2.01123288 30.4482436,2.00051059 30.4482436,2.00051059 L30.5922287,2 C33.0302742,2 41.2869512,2.67788726 45.1742083,11.3937508 C46.4707549,14.3013647 46.1501073,19.3968371 45.8915809,23.4910515 L45.8808586,23.6690756 C45.8451176,24.2392293 45.8103978,24.7933847 45.7814646,25.323883 C45.8434156,25.3870254 46.3405556,25.8657843 47.463333,25.9086735 L47.4645244,25.9086735 C48.3177126,25.875996 49.2983771,25.6040242 50.374521,25.0999062 C50.6898926,24.9526874 51.0401542,24.9217119 51.2785976,24.9217119 C51.6428152,24.9217119 52.0119684,24.9921727 52.3184899,25.1199892 L52.3370412,25.127648 C53.2075893,25.4360416 53.7777431,26.0461912 53.7899971,26.6837422 C53.80123,27.2840205 53.3430647,28.1865653 51.094957,29.0746436 C50.8619599,29.1662086 50.5641184,29.2608371 50.2487467,29.3607416 C48.963433,29.7686994 47.0242295,30.384125 46.4299081,31.7855119 C46.1051758,32.5498582 46.209165,33.4823574 46.7393229,34.5578206 C46.7440883,34.5682025 46.7495346,34.578244 46.7536193,34.5893067 C46.9147941,34.9650975 50.7977963,43.8201807 59.4678773,45.248969 C59.7880144,45.3017294 60.0165865,45.5871467 59.9990564,45.9111983 C59.991738,46.0325474 59.9622942,46.1549177 59.9103847,46.2737139 C59.5528047,47.1102231 57.9405461,48.2961428 52.3009598,49.167542 C51.8402415,49.2383431 51.6617068,49.8386214 51.3866715,51.0975549 C51.2867669,51.5557202 51.1855008,52.0057162 51.046111,52.4790289 C50.9261234,52.8897098 50.6701499,53.0818601 50.2395562,53.0818601 L50.1694358,53.0818601 C49.8705731,53.0818601 49.4457661,53.0284188 48.9074388,52.9227276 C47.9526441,52.7360236 46.8821166,52.5639563 45.520215,52.5639563 C44.7248931,52.5639563 43.9018294,52.6333959 43.0748512,52.7702328 C41.3829413,53.0522461 39.9463241,54.066439 38.4258006,55.1413915 C36.2153061,56.7046339 33.9341806,58.3174031 30.3786338,58.3174031" id="Fill-1" transform="translate(30.000000, 30.158702) scale(-1, 1) translate(-30.000000, -30.158702) "></path>
        </g>
    </g>
</svg>