<?xml version="1.0" encoding="utf-8"?>
<!-- Generator: Adobe Illustrator 17.0.0, SVG Export Plug-In . SVG Version: 6.00 Build 0)  -->
<!DOCTYPE svg PUBLIC "-//W3C//DTD SVG 1.1//EN" "http://www.w3.org/Graphics/SVG/1.1/DTD/svg11.dtd">
<svg version="1.1" id="Calque_1" xmlns="http://www.w3.org/2000/svg" xmlns:xlink="http://www.w3.org/1999/xlink" x="0px" y="0px"
	 width="72px" height="40px" viewBox="0 0 72 40" enable-background="new 0 0 72 40" xml:space="preserve">
<path fill="#FFFFFF" d="M1.709,18.226c-0.147,0-0.262,0.113-0.282,0.275l-0.513,3.897l0.513,3.831
	c0.019,0.161,0.135,0.274,0.282,0.274c0.141,0,0.257-0.112,0.28-0.273l0,0v-0.001c0,0,0,0,0,0.001l0.608-3.832L1.99,18.5
	C1.967,18.339,1.851,18.226,1.709,18.226z M4.595,16.096c-0.024-0.167-0.144-0.283-0.292-0.283c-0.149,0-0.272,0.119-0.292,0.283
	c0,0.002-0.69,6.302-0.69,6.302l0.69,6.162c0.02,0.165,0.143,0.284,0.292,0.284c0.147,0,0.268-0.116,0.291-0.283l0.785-6.164
	L4.595,16.096z M15.465,10.283c-0.283,0-0.517,0.231-0.531,0.526l-0.549,11.594l0.549,7.493c0.014,0.293,0.248,0.524,0.531,0.524
	c0.281,0,0.514-0.231,0.531-0.525v0.002l0.621-7.493L15.997,10.81C15.98,10.515,15.747,10.283,15.465,10.283z M9.839,14.313
	c-0.217,0-0.395,0.174-0.412,0.405L8.808,22.4l0.619,7.432c0.017,0.23,0.195,0.404,0.412,0.404c0.215,0,0.392-0.174,0.411-0.404
	l0.703-7.432l-0.703-7.683C10.232,14.487,10.055,14.313,9.839,14.313z M21.183,30.419c0.351,0,0.636-0.283,0.651-0.646l0.539-7.367
	L21.833,6.971c-0.014-0.363-0.3-0.646-0.651-0.646c-0.354,0-0.64,0.284-0.651,0.646c0,0.001-0.478,15.435-0.478,15.435l0.478,7.37
	C20.543,30.135,20.829,30.419,21.183,30.419z M32.887,30.454c0.483,0,0.881-0.398,0.89-0.887v0.005v-0.005l0.376-7.156L33.777,4.584
	c-0.008-0.489-0.408-0.887-0.89-0.887c-0.483,0-0.883,0.398-0.89,0.887L31.66,22.406c0,0.011,0.336,7.166,0.336,7.166
	C32.004,30.056,32.403,30.454,32.887,30.454z M26.99,30.426c0.42,0,0.759-0.338,0.77-0.767v0.005l0.458-7.255L27.76,6.861
	c-0.011-0.43-0.35-0.766-0.77-0.766c-0.423,0-0.762,0.337-0.772,0.766l-0.407,15.548l0.408,7.254
	C26.228,30.089,26.567,30.426,26.99,30.426z M12.641,30.358c0.25,0,0.452-0.2,0.471-0.463l0.663-7.494l-0.663-7.129
	c-0.018-0.263-0.22-0.462-0.471-0.462c-0.253,0-0.455,0.2-0.472,0.465l-0.584,7.126l0.584,7.493
	C12.186,30.158,12.388,30.358,12.641,30.358z M7.06,29.947c0.183,0,0.33-0.144,0.352-0.343l0.744-7.205l-0.744-7.477
	c-0.022-0.2-0.169-0.344-0.352-0.344c-0.185,0-0.333,0.145-0.352,0.344c0,0.001-0.655,7.477-0.655,7.477l0.655,7.204
	C6.727,29.803,6.875,29.947,7.06,29.947z M29.927,6.602c-0.457,0-0.822,0.363-0.831,0.828l-0.371,14.98l0.371,7.208
	c0.009,0.459,0.374,0.822,0.831,0.822c0.455,0,0.819-0.363,0.83-0.827v0.006l0.416-7.208L30.757,7.428
	C30.747,6.966,30.383,6.602,29.927,6.602z M18.313,30.434c0.315,0,0.576-0.257,0.591-0.586l0.579-7.443L18.904,8.159
	c-0.015-0.329-0.276-0.586-0.591-0.586c-0.318,0-0.578,0.257-0.592,0.586c0,0.001-0.513,14.246-0.513,14.246l0.514,7.446
	C17.735,30.177,17.995,30.434,18.313,30.434z M24.785,29.732v-0.004l0.498-7.32L24.785,6.453c-0.012-0.396-0.324-0.707-0.71-0.707
	c-0.388,0-0.7,0.31-0.711,0.707l-0.442,15.955l0.443,7.324c0.01,0.392,0.323,0.702,0.71,0.702c0.386,0,0.697-0.31,0.71-0.705V29.732
	z M62.455,13.21c-1.183,0-2.311,0.24-3.338,0.67C58.429,6.102,51.907,0,43.95,0c-1.947,0-3.845,0.383-5.521,1.032
	c-0.651,0.252-0.825,0.511-0.831,1.015V29.44c0.007,0.528,0.416,0.968,0.932,1.02c0.022,0.002,23.77,0.014,23.924,0.014
	c4.767,0,8.63-3.865,8.63-8.632S67.221,13.21,62.455,13.21z M35.834,2.022c-0.518,0-0.944,0.426-0.951,0.948l-0.389,19.443
	l0.39,7.056c0.007,0.515,0.433,0.94,0.951,0.94c0.517,0,0.943-0.425,0.95-0.948v0.008l0.423-7.057L36.784,2.969
	C36.776,2.448,36.35,2.022,35.834,2.022z M7.885,35.961c-1.021-0.24-1.297-0.368-1.297-0.773c0-0.285,0.23-0.58,0.92-0.58
	c0.59,0,1.049,0.24,1.464,0.662l0.929-0.901c-0.607-0.634-1.343-1.012-2.346-1.012c-1.271,0-2.301,0.718-2.301,1.887
	c0,1.269,0.828,1.646,2.015,1.922c1.214,0.276,1.436,0.461,1.436,0.875c0,0.488-0.36,0.699-1.122,0.699
	c-0.617,0-1.196-0.212-1.647-0.737l-0.93,0.828C5.493,39.55,6.432,40,7.508,40c1.758,0,2.531-0.828,2.531-2.051
	C10.038,36.55,8.907,36.2,7.885,35.961z M13.812,33.358c-1.757,0-2.796,1.361-2.796,3.321c0,1.96,1.039,3.321,2.796,3.321
	s2.797-1.36,2.797-3.321C16.609,34.719,15.569,33.358,13.812,33.358z M13.812,38.721c-1.039,0-1.472-0.892-1.472-2.042
	c0-1.15,0.433-2.043,1.472-2.043c1.041,0,1.472,0.892,1.472,2.043C15.284,37.829,14.852,38.721,13.812,38.721z M21.808,37.075
	c0,1.03-0.507,1.666-1.325,1.666c-0.819,0-1.315-0.654-1.315-1.684v-3.598h-1.289v3.617c0,1.876,1.049,2.925,2.604,2.925
	c1.638,0,2.613-1.077,2.613-2.943v-3.598h-1.288V37.075z M28.652,36.183c0,0.359,0.018,1.168,0.018,1.408
	c-0.083-0.166-0.294-0.488-0.45-0.727l-2.283-3.405h-1.232V39.9h1.27v-2.834c0-0.359-0.018-1.168-0.018-1.408
	c0.083,0.165,0.295,0.487,0.45,0.727l2.365,3.514h1.15v-6.442h-1.27V36.183z M33.593,33.458h-2.015V39.9H33.5
	c1.657,0,3.295-0.957,3.295-3.22C36.795,34.323,35.433,33.458,33.593,33.458z M33.5,38.648h-0.634V34.71h0.681
	c1.362,0,1.923,0.653,1.923,1.969C35.471,37.857,34.853,38.648,33.5,38.648z M40.779,34.637c0.579,0,0.948,0.258,1.178,0.699
	l1.196-0.552c-0.405-0.837-1.141-1.426-2.356-1.426c-1.682,0-2.861,1.361-2.861,3.321c0,2.033,1.131,3.321,2.815,3.321
	c1.169,0,1.942-0.542,2.383-1.453l-1.085-0.645c-0.34,0.571-0.682,0.82-1.261,0.82c-0.966,0-1.528-0.884-1.528-2.042
	C39.26,35.483,39.813,34.637,40.779,34.637z M45.556,33.458h-1.288V39.9h3.871v-1.27h-2.583V33.458z M51.533,33.358
	c-1.758,0-2.797,1.361-2.797,3.321c0,1.96,1.039,3.321,2.797,3.321c1.757,0,2.797-1.36,2.797-3.321
	C54.33,34.719,53.29,33.358,51.533,33.358z M51.533,38.721c-1.041,0-1.472-0.892-1.472-2.042c0-1.15,0.432-2.043,1.472-2.043
	c1.038,0,1.471,0.892,1.471,2.043C53.004,37.829,52.571,38.721,51.533,38.721z M59.527,37.075c0,1.03-0.505,1.666-1.324,1.666
	c-0.82,0-1.316-0.654-1.316-1.684v-3.598H55.6v3.617c0,1.876,1.049,2.925,2.604,2.925c1.637,0,2.612-1.077,2.612-2.943v-3.598
	h-1.289V37.075z M64.441,33.458h-2.014V39.9h1.922c1.657,0,3.294-0.957,3.294-3.22C67.643,34.323,66.282,33.458,64.441,33.458z
	 M64.349,38.648h-0.634V34.71h0.682c1.36,0,1.922,0.653,1.922,1.969C66.318,37.857,65.701,38.648,64.349,38.648z"/>
</svg>
