<?xml version="1.0" encoding="UTF-8" standalone="no"?>
<svg width="60px" height="60px" viewBox="0 0 60 60" version="1.1" xmlns="http://www.w3.org/2000/svg" xmlns:xlink="http://www.w3.org/1999/xlink" xmlns:sketch="http://www.bohemiancoding.com/sketch/ns">
    <!-- Generator: Sketch 3.0.3 (7891) - http://www.bohemiancoding.com/sketch -->
    <title>spotify</title>
    <desc>Created with Sketch.</desc>
    <defs></defs>
    <g id="Page-1" stroke="none" stroke-width="1" fill="none" fill-rule="evenodd" sketch:type="MSPage">
        <g id="spotify" sketch:type="MSArtboardGroup" fill="#FFFFFF">
            <path d="M29.9771642,0 C13.4216418,0 0,13.3217778 0,29.7551111 C0,46.1897778 13.4216418,59.5106667 29.9771642,59.5106667 C46.5335821,59.5106667 59.9547761,46.1897778 59.9547761,29.7551111 C59.9547761,13.3217778 46.5335821,0 29.9771642,0 M43.7252239,42.9177778 C43.1865672,43.7942222 42.0367164,44.0688889 41.1564179,43.5351111 C34.1167164,39.264 25.2564179,38.2995556 14.821791,40.6657778 C13.8161194,40.8942222 12.8140299,40.2688889 12.5847761,39.2711111 C12.3546269,38.2733333 12.9819403,37.2782222 13.9898507,37.0506667 C25.4091045,34.4591111 35.2043284,35.5746667 43.1055224,40.3671111 C43.9867164,40.9013333 44.2638806,42.0435556 43.7252239,42.9177778 M47.3937313,34.8151111 C46.7158209,35.9071111 45.2771642,36.2493333 44.178806,35.5795556 C36.1226866,30.664 23.8383582,29.24 14.3073134,32.1115556 C13.0714925,32.4826667 11.7658209,31.7906667 11.390597,30.5662222 C11.0180597,29.3391111 11.7152239,28.0457778 12.9492537,27.6728889 C23.8365672,24.3933333 37.3714925,25.9817778 46.6244776,31.6257778 C47.7232836,32.2973333 48.0689552,33.7262222 47.3937313,34.8151111 M47.7098507,26.3786667 C38.0471642,20.6826667 22.1077612,20.1586667 12.8834328,22.9377778 C11.4022388,23.384 9.83597015,22.5537778 9.38686567,21.0835556 C8.93776119,19.6124444 9.77328358,18.0586667 11.2558209,17.6115556 C21.8449254,14.4213333 39.4477612,15.0373333 50.5719403,21.592 C51.9044776,22.3768889 52.3414925,24.0848889 51.5516418,25.4053333 C50.7613433,26.728 49.0392537,27.1635556 47.7098507,26.3786667" id="Imported-Layers" sketch:type="MSShapeGroup"></path>
        </g>
    </g>
</svg>