<?xml version="1.0" encoding="utf-8"?>
<!-- Generator: Adobe Illustrator 17.0.0, SVG Export Plug-In . SVG Version: 6.00 Build 0)  -->
<!DOCTYPE svg PUBLIC "-//W3C//DTD SVG 1.1//EN" "http://www.w3.org/Graphics/SVG/1.1/DTD/svg11.dtd">
<svg version="1.1" id="Calque_1" xmlns="http://www.w3.org/2000/svg" xmlns:xlink="http://www.w3.org/1999/xlink" x="0px" y="0px"
	 width="52px" height="42px" viewBox="-1.001 -1 52 42" enable-background="new -1.001 -1 52 42" xml:space="preserve">
<path fill="#FFFFFF" d="M18.513,28.24c-0.142,0.094-0.28,0.203-0.404,0.329c-0.942,0.947-0.942,2.484,0,3.431
	c0.941,0.949,2.469,0.949,3.479,0.012L36.94,16.569c1.883-1.895,4.939-1.895,6.823,0c1.885,1.894,1.885,4.968,0,6.863L29.205,38.144
	c1.886,1.894,4.939,1.894,6.823,0l11.146-11.281c3.767-3.79,3.767-9.936,0-13.726c-3.768-3.79-9.877-3.79-13.647,0L18.513,28.24z
	 M41.988,18.274c-0.943-0.947-2.469-0.947-3.412,0c-0.125,0.127-0.235,0.264-0.327,0.409L23.295,33.726
	c-1.885,1.895-4.938,1.895-6.823,0l-0.068-0.01c-0.941-0.947-2.469-0.947-3.411,0c-0.942,0.947-0.942,2.484,0,3.431
	c0.12,0.122,0.249,0.227,0.385,0.316c3.787,3.482,9.664,3.379,13.328-0.306l15.282-15.452C42.93,20.758,42.93,19.221,41.988,18.274z
	 M16.472,26.863l15.283-15.451c0.941-0.949,0.941-2.484,0-3.432c-0.943-0.948-2.469-0.948-3.412,0
	c-0.126,0.125-0.235,0.264-0.327,0.409L13.061,23.432c-1.885,1.896-4.939,1.896-6.823,0c-1.885-1.895-1.885-4.969,0-6.863
	L20.795,1.857c-1.884-1.895-4.939-1.895-6.824,0L2.826,13.137c-3.768,3.79-3.768,9.935,0,13.726
	C6.594,30.653,12.704,30.653,16.472,26.863z M7.875,18.274c-0.942,0.947-0.942,2.484,0,3.432c0.941,0.947,2.47,0.947,3.478,0.01
	L26.706,6.274c1.788-1.799,4.631-1.891,6.526-0.276l0.228,0.266c0.942,0.946,2.47,0.946,3.412,0
	c0.928-0.935,0.971-2.472,0.068-3.421c-3.768-3.791-9.876-3.791-13.645,0L8.28,17.946C8.136,18.038,8.001,18.147,7.875,18.274z"/>
</svg>
