<?xml version="1.0" encoding="UTF-8" standalone="no"?>
<svg width="60px" height="60px" viewBox="0 0 60 60" version="1.1" xmlns="http://www.w3.org/2000/svg" xmlns:xlink="http://www.w3.org/1999/xlink" xmlns:sketch="http://www.bohemiancoding.com/sketch/ns">
    <!-- Generator: Sketch 3.1.1 (8761) - http://www.bohemiancoding.com/sketch -->
    <title>stanford</title>
    <desc>Created with Sketch.</desc>
    <defs></defs>
    <g id="Page-1" stroke="none" stroke-width="1" fill="none" fill-rule="evenodd" sketch:type="MSPage">
        <g id="stanford" sketch:type="MSArtboardGroup" fill="#FFFFFF">
            <g id="Stanford_plain_block_-S-_logo" sketch:type="MSLayerGroup" transform="translate(10.000000, 0.000000)">
                <path d="M0,8.51261289 L0,30.4079726 L7.54693149,37.8530053 L25.5863082,37.8517596 L25.5863082,45.4549984 L16.3121082,45.4549984 L16.3121082,40.4964186 L0.016420102,40.4964186 L0.016420102,52.4665213 L7.59492871,60 L32.4530685,60 L40,52.5624416 L40,30.4142012 L32.3103399,23.0850202 L15.7538248,23.0850202 L15.7544563,14.9317969 L24.9162417,14.9311741 L24.9162417,20.5506073 L39.9993685,20.5506073 L40,8.52133292 L31.5543837,1.42108547e-14 L8.68749704,1.42108547e-14 L0,8.51261289 Z M0.993416171,8.95608845 L0.993416171,30.0211772 L7.95111862,36.8844597 C7.95111862,36.8844597 24.7741447,36.8844597 26.5797243,36.8838368 C26.5797243,38.3861725 26.5797243,44.9685456 26.5790928,46.4702585 C25.0021315,46.4702585 16.8735494,46.4702585 15.2946935,46.4715042 C15.295325,45.2027406 15.295325,41.5129243 15.295325,41.5129243 L1.00983627,41.5123015 L1.00983627,52.0710059 L7.98901116,59.033323 L32.0299351,59.033323 L38.9825852,52.1712862 L38.9825852,30.8364995 L31.8695233,24.1009031 L14.7357785,24.1009031 C14.73641,22.5780131 14.73641,15.4861414 14.7357785,13.9638742 L25.9096579,13.9638742 L25.9096579,19.5820617 L38.9825852,19.5820617 L38.9825852,8.96107132 L31.1280926,1.01650576 L9.0803164,1.01650576 L0.993416171,8.95608845 Z M9.49081895,2.07910308 L2.00514707,9.44752414 L2.00514707,29.6829648 L8.37298893,35.964497 L27.5901921,35.964497 L27.5895606,47.5353472 L14.2949619,47.5353472 L14.2949619,42.5761445 L2.01967255,42.5767674 L2.01967255,51.7228278 L8.4007768,58.1127375 L31.6232218,58.1127375 L37.9815905,51.8268452 L37.9828536,31.3086266 L31.4470215,25.1641233 L13.7354153,25.1635005 L13.7347838,13.0432887 L26.9207572,13.0432887 L26.9207572,18.6627219 L37.9815905,18.6627219 L37.9828536,9.44752414 L30.7194847,2.07910308 L9.49081895,2.07910308 Z" id="Shape" sketch:type="MSShapeGroup"></path>
            </g>
        </g>
    </g>
</svg>