<?xml version="1.0" encoding="UTF-8" standalone="no"?>
<svg width="120px" height="120px" viewBox="0 0 120 120" version="1.1" xmlns="http://www.w3.org/2000/svg" xmlns:xlink="http://www.w3.org/1999/xlink" xmlns:sketch="http://www.bohemiancoding.com/sketch/ns">
    <!-- Generator: Sketch 3.3.3 (12072) - http://www.bohemiancoding.com/sketch -->
    <title>stripe</title>
    <desc>Created with Sketch.</desc>
    <defs></defs>
    <g id="Page-1" stroke="none" stroke-width="1" fill="none" fill-rule="evenodd" sketch:type="MSPage">
        <g id="stripe" sketch:type="MSArtboardGroup" fill="#FFFFFF">
            <path d="M105.190088,58.2268617 C105.438053,54.2906915 106.5,52.4468085 108.517699,52.4468085 C110.499823,52.4468085 111.52646,54.3260638 111.667965,58.2268617 L105.190088,58.2268617 L105.190088,58.2268617 Z M119.915841,60.5672872 C119.915841,56.1702128 118.960088,52.6949468 117.083894,50.2481383 C115.172389,47.7659574 112.305133,46.4893617 108.659204,46.4893617 C101.190265,46.4893617 96.5530088,52.0212766 96.5530088,60.8864362 C96.5530088,65.8510638 97.7920354,69.5744681 100.234513,71.950266 C102.429027,74.0779255 105.579558,75.1417553 109.650265,75.1417553 C113.402655,75.1417553 116.871504,74.2553191 119.066283,72.8013298 L118.110531,66.7731383 C115.951327,67.9433511 113.437965,68.581383 110.606018,68.581383 C108.906903,68.581383 107.738761,68.2268617 106.889204,67.4821809 C105.969027,66.7021277 105.438053,65.4255319 105.260973,63.6170213 L119.809646,63.6170213 C119.844956,63.1914894 119.915841,61.2055851 119.915841,60.5672872 L119.915841,60.5672872 Z M84.800708,66.524734 C84.0929204,67.8723404 82.9953982,68.581383 81.7210619,68.581383 C80.8361947,68.581383 80.0575221,68.4042553 79.349469,68.0494681 L79.349469,54.9289894 C80.8361947,53.368883 82.1814159,53.1914894 82.6768142,53.1914894 C84.9069027,53.1914894 86.0044248,55.6026596 86.0044248,60.3191489 C86.0044248,63.0140957 85.6149558,65.106383 84.800708,66.524734 L84.800708,66.524734 Z M92.0928319,49.5034574 C90.5352212,47.4821809 88.3760177,46.4893617 85.6149558,46.4893617 C83.0662832,46.4893617 80.8361947,47.5531915 78.7476106,49.787234 L78.2875221,47.0212766 L70.5706195,47.0212766 L70.5706195,84.8226064 L79.349469,83.368883 L79.349469,74.5034574 C80.6946903,74.9289894 82.0752212,75.1417553 83.3139823,75.1417553 C85.5087611,75.1417553 88.6946018,74.5744681 91.1723894,71.8792553 C93.5442478,69.2906915 94.7476991,65.2837766 94.7476991,60 C94.7476991,55.3191489 93.8628319,51.7731383 92.0928319,49.5034574 L92.0928319,49.5034574 Z M58.3011504,47.0212766 L67.1153097,47.0212766 L67.1153097,74.6098404 L58.3011504,74.6098404 L58.3011504,47.0212766 Z M62.7257522,44.2906915 C65.2744248,44.2906915 67.3276991,42.1986702 67.3276991,39.6452128 C67.3276991,37.0566489 65.2744248,35 62.7257522,35 C60.1417699,35 58.0884956,37.0566489 58.0884956,39.6452128 C58.0884956,42.1986702 60.1417699,44.2906915 62.7257522,44.2906915 L62.7257522,44.2906915 Z M54.5134513,46.6401596 C52.0353982,46.6401596 50.0532743,47.9433511 49.2743363,50.2835106 L48.7436283,47.0212766 L41.0620354,47.0212766 L41.0620354,74.6098404 L49.840885,74.6098404 L49.840885,56.7021277 C50.9381416,55.3545213 52.4957522,54.8670213 54.619646,54.8670213 C55.0797345,54.8670213 55.5753982,54.8670213 56.1769912,54.9734043 L56.1769912,46.8529255 C55.5753982,46.7111702 55.0444248,46.6401596 54.5134513,46.6401596 L54.5134513,46.6401596 Z M37.6773451,53.5460106 L38.739292,47.0212766 L33.1327434,47.0212766 L33.1327434,39.1005319 L25.5950442,40.3430851 L24.5068142,47.0212766 L21.8556637,47.4521277 L20.8632743,53.5460106 L24.4956637,53.5460106 L24.4956637,66.3476064 C24.4956637,69.6808511 25.3452212,71.9859043 27.079646,73.4042553 C28.5310619,74.5744681 30.619646,75.1417553 33.5575221,75.1417553 C35.8231858,75.1417553 37.2037168,74.7518617 38.159469,74.5034574 L38.159469,67.5885638 C37.6284956,67.7303191 36.4247788,67.9787234 35.6107965,67.9787234 C33.8761062,67.9787234 33.1327434,67.0920213 33.1327434,65.0707447 L33.1327434,53.5460106 L37.6773451,53.5460106 L37.6773451,53.5460106 Z M12.5309735,57.4111702 C9.94699115,56.4537234 8.53115044,55.7093085 8.53115044,54.5388298 C8.53115044,53.5460106 9.34513274,52.9787234 10.7965487,52.9787234 C13.4514159,52.9787234 16.1771681,54.0069149 18.0530973,54.9289894 L19.1150442,48.368883 C17.6283186,47.6595745 14.5842478,46.4893617 10.3717699,46.4893617 C7.39831858,46.4893617 4.92053097,47.2694149 3.15053097,48.7234043 C1.3099115,50.2481383 0.354159292,52.4468085 0.354159292,55.106383 C0.354159292,59.9289894 3.2920354,61.9856383 8.07079646,63.7234043 C11.1504425,64.8226064 12.1770796,65.6029255 12.1770796,66.8085106 C12.1770796,67.9787234 11.1860177,68.6523936 9.38070796,68.6523936 C7.15061947,68.6523936 3.46911504,67.5531915 1.0619469,66.1345745 L0,72.7659574 C2.05327434,73.9361702 5.87628319,75.1417553 9.84079646,75.1417553 C12.9913274,75.1417553 15.6106195,74.3970745 17.3806195,72.9787234 C19.3630088,71.4183511 20.3893805,69.1132979 20.3893805,66.1345745 C20.3893805,61.2055851 17.3806195,59.1489362 12.5309735,57.4111702 L12.5309735,57.4111702 Z" sketch:type="MSShapeGroup"></path>
        </g>
    </g>
</svg>