<?xml version="1.0" encoding="UTF-8" standalone="no"?>
<svg width="100px" height="100px" viewBox="0 0 100 100" version="1.1" xmlns="http://www.w3.org/2000/svg" xmlns:xlink="http://www.w3.org/1999/xlink" xmlns:sketch="http://www.bohemiancoding.com/sketch/ns">
    <!-- Generator: Sketch 3.0.3 (7891) - http://www.bohemiancoding.com/sketch -->
    <title>tedx</title>
    <desc>Created with Sketch.</desc>
    <defs></defs>
    <g id="Page-1" stroke="none" stroke-width="1" fill="none" fill-rule="evenodd" sketch:type="MSPage">
        <g id="tedx" sketch:type="MSArtboardGroup" fill="#FFFFFF">
            <g id="Group" sketch:type="MSLayerGroup" transform="translate(0.000000, 35.000000)">
                <path d="M8.42584475,7.62693044 L0.301461187,7.62693044 L0.301461187,0.128253088 L25.47379,0.128253088 L25.47379,7.62693044 L17.3521461,7.62693044 L17.3521461,29.385288 L8.42584475,29.385288 L8.42584475,7.62693044" id="Fill-35" sketch:type="MSShapeGroup"></path>
                <path d="M26.8611872,0.128253088 L51.2973516,0.128253088 L51.2973516,7.62693044 L35.793242,7.62693044 L35.793242,11.2727237 L51.2973516,11.2727237 L51.2973516,18.2408173 L35.793242,18.2408173 L35.793242,21.8868871 L51.3014612,21.8868871 L51.3014612,29.385288 L26.8611872,29.385288 L26.8611872,0.128253088" id="Fill-36" sketch:type="MSShapeGroup"></path>
                <path d="M61.7321461,21.8868871 L65.2252968,21.8868871 C70.7894064,21.8868871 71.6028311,17.3369725 71.6028311,14.5886648 C71.6028311,12.7483493 71.0313242,7.62693044 64.5748858,7.62693044 L61.7321461,7.62693044 L61.7321461,21.8868871 L61.7321461,21.8868871 Z M52.8006393,0.128253088 L67.4581735,0.128253088 C77.1200913,0.128253088 80.5348858,7.34021062 80.5348858,14.7136381 C80.5348858,23.690153 75.8247489,29.385288 65.7140639,29.385288 L52.8006393,29.385288 L52.8006393,0.128253088 L52.8006393,0.128253088 Z" id="Fill-37" sketch:type="MSShapeGroup"></path>
                <path d="M93.3691324,18.1108672 L90.6444749,13.5509989 L87.9874886,18.1108672 L81.443105,18.1108672 L87.6559817,8.89104139 L81.673516,0.0718491874 L88.2200913,0.0718491874 L90.6444749,4.43126241 L93.1384475,0.0718491874 L99.683105,0.0718491874 L93.7025571,8.89104139 L99.9151598,18.1108672 L93.3691324,18.1108672" id="Fill-38" sketch:type="MSShapeGroup"></path>
            </g>
        </g>
    </g>
</svg>