<?xml version="1.0" encoding="UTF-8" standalone="no"?>
<svg width="60px" height="60px" viewBox="0 0 60 60" version="1.1" xmlns="http://www.w3.org/2000/svg" xmlns:xlink="http://www.w3.org/1999/xlink" xmlns:sketch="http://www.bohemiancoding.com/sketch/ns">
    <!-- Generator: Sketch 3.0.4 (8053) - http://www.bohemiancoding.com/sketch -->
    <title>treehouse</title>
    <desc>Created with Sketch.</desc>
    <defs></defs>
    <g id="Page-1" stroke="none" stroke-width="1" fill="none" fill-rule="evenodd" sketch:type="MSPage">
        <g id="treehouse" sketch:type="MSArtboardGroup" fill="#FFFFFF">
            <path d="M51.3179267,10.9356263 C49.3058973,9.8129236 46.0928117,11.6184641 44.1413007,14.9685993 L40.6082347,21.0348155 C39.3172225,23.5567074 39.4942592,26.5592749 41.1315403,28.8772479 L41.2346406,29.0234641 C42.8719218,31.3414371 45.0672861,33.4840047 45.79378,34.248329 C46.2206944,34.6977885 46.54711,35.2523831 46.7271589,35.8867074 C47.3237164,37.9926533 46.0781614,40.1773831 43.9444108,40.7668425 C41.8106601,41.3558966 39.5968117,40.1264371 38.9998435,38.0202209 C38.8499169,37.4915722 38.8166455,36.9581939 38.8840098,36.4461668 C38.9987482,35.5760317 38.7157359,34.1587344 37.4516968,32.7673831 C36.1875208,31.3760317 33.6039902,34.0040047 32.7686455,36.7065722 L32.7300342,36.8306263 C31.8945526,39.5330587 31.3672763,41.8914371 31.5250073,42.1184641 C31.6187971,42.2534641 31.7061516,42.3954912 31.7861125,42.5437344 C32.9582787,44.7204912 32.1206064,47.4229236 29.9152469,48.5798155 C27.7097506,49.7368425 24.9716381,48.9100858 23.799335,46.7335993 C22.6271687,44.5568425 23.4647042,41.8545452 25.6702005,40.6975182 C25.7691932,40.6454912 25.8692812,40.5976533 25.9701907,40.5535993 C26.1387384,40.4804912 26.6164499,39.3444101 27.0310416,38.0026533 C27.4461809,36.6604912 27.7823178,35.5727885 27.7823178,35.5727885 C27.8266797,35.4299506 27.865154,35.2888695 27.9002054,35.1487344 L30.1319902,27.2835993 L27.744802,32.1194101 C27.4619267,31.201302 26.9942103,31.1685993 25.96978,31.8919777 C25.352,32.328329 24.330445,33.1873831 23.8313741,33.5396804 C22.8944352,34.2015722 22.1104352,35.4867074 21.6955697,36.2742749 C21.4514425,36.7376533 21.1092812,37.160356 20.6722347,37.5102209 C18.9632078,38.8788695 16.4537506,38.6208966 15.0673056,36.9341398 C13.6807237,35.2476533 13.9421027,32.7710317 15.6507188,31.4025182 C16.1515697,31.001302 16.7217017,30.7398155 17.311687,30.6131939 C18.3157164,30.3979236 21.7303472,28.3392749 23.787423,26.8864371 C24.1557359,26.6264371 24.4647628,26.3804912 24.7161467,26.1522479 L30.2090758,22.0349506 L25.4252518,24.5861668 C25.4252518,24.5861668 24.9385037,24.5376533 24.3418093,24.6029236 C22.5908851,24.7948155 20.7877946,25.038329 20.4470024,25.466302 C20.2455941,25.7190047 20.0057115,25.9484641 19.7279022,26.1456263 C18.1312861,27.2807614 15.9045672,26.9234641 14.7543081,25.3475182 C13.603912,23.7714371 13.9664743,21.5734641 15.5629535,20.4385993 C16.2216724,19.970356 16.9874621,19.756302 17.7401076,19.7768425 C19.0207139,19.8118425 22.3900244,20.4861668 25.2087824,19.9931939 L25.9328117,19.8667074 C28.7518435,19.3735993 32.1267677,16.9517074 33.4715892,14.4571128 C33.4715892,14.4571128 34.7883423,12.1744101 36.4123423,9.358329 C38.0367531,6.54224792 37.9166748,3.45778846 36.144802,2.46900468 L32.935824,0.678464137 C31.3170269,-0.224779107 28.6668166,-0.226400728 27.0466504,0.675085758 L4.94568215,12.9722479 C3.32565281,13.8737344 2,16.1131939 2,17.9487344 L2,41.9792749 C2,43.8149506 3.32565281,46.0545452 4.94568215,46.9561668 L27.0466504,59.2529236 C28.6668166,60.1546804 31.3170269,60.1529236 32.935824,59.2495452 L54.9612127,46.9594101 C56.5805575,46.0560317 57.9052518,43.8149506 57.9052518,41.9792749 L57.9052518,17.9487344 C57.9052518,16.1131939 56.5805575,13.8719777 54.9612127,12.9687344 C54.9612127,12.9687344 53.329956,12.0584641 51.3179267,10.9356263" id="Imported-Layers" sketch:type="MSShapeGroup"></path>
        </g>
    </g>
</svg>