<?xml version="1.0" encoding="utf-8"?>
<!-- Generator: Adobe Illustrator 17.0.0, SVG Export Plug-In . SVG Version: 6.00 Build 0)  -->
<!DOCTYPE svg PUBLIC "-//W3C//DTD SVG 1.1//EN" "http://www.w3.org/Graphics/SVG/1.1/DTD/svg11.dtd">
<svg version="1.1" id="Calque_1" xmlns="http://www.w3.org/2000/svg" xmlns:xlink="http://www.w3.org/1999/xlink" x="0px" y="0px"
	 width="120px" height="26px" viewBox="0 0 120 26" enable-background="new 0 0 120 26" xml:space="preserve">
<g>
	<g>
		<path fill="#FFFFFF" d="M9.383,21.21c-0.381-0.224-0.642-0.522-0.782-0.896c-0.141-0.375-0.21-1.221-0.21-2.539v-5.831h5.418
			v-3.57H8.391V2.628H5.143C4.998,3.801,4.732,4.767,4.344,5.527c-0.387,0.76-0.9,1.411-1.539,1.952
			C2.166,8.021,1.397,8.437,0.5,8.727v3.218h2.524v7.975c0,1.039,0.109,1.832,0.328,2.379c0.218,0.548,0.611,1.064,1.178,1.551
			c0.567,0.485,1.25,0.86,2.053,1.122c0.802,0.262,1.725,0.394,2.768,0.394c0.919,0,1.775-0.092,2.566-0.276
			c0.79-0.184,1.674-0.506,2.65-0.964V20.54c-1.144,0.749-2.294,1.123-3.449,1.123C10.466,21.663,9.889,21.512,9.383,21.21z
			 M34.665,21.755c-0.163-0.073-0.281-0.19-0.354-0.352c-0.073-0.162-0.109-0.555-0.109-1.181V8.224l-7.892,0.151v3.234h0.983
			c0.486,0,0.813,0.048,0.983,0.142c0.169,0.096,0.299,0.249,0.39,0.461c0.091,0.212,0.136,0.603,0.136,1.173v6.535
			c-1.066,0.682-1.722,1.078-1.969,1.19c-0.628,0.268-1.223,0.402-1.783,0.402c-0.381,0-0.698-0.081-0.95-0.243
			c-0.253-0.162-0.427-0.371-0.522-0.628c-0.096-0.257-0.143-0.77-0.143-1.541V8.224l-7.858,0.151v3.234h0.932
			c0.553,0,0.914,0.042,1.084,0.126c0.169,0.084,0.29,0.21,0.365,0.377c0.073,0.167,0.11,0.57,0.11,1.206v6.904
			c0,0.927,0.112,1.686,0.336,2.279c0.224,0.592,0.565,1.108,1.025,1.549c0.459,0.441,1.027,0.794,1.705,1.056
			c0.678,0.262,1.419,0.394,2.227,0.394c1.008,0,2.01-0.182,3.007-0.545s1.987-0.907,2.973-1.633v1.976l7.387-0.201v-3.233h-0.892
			C35.217,21.864,34.827,21.828,34.665,21.755z M68.274,21.763c-0.201-0.089-0.344-0.218-0.428-0.385
			c-0.084-0.167-0.126-0.536-0.126-1.106v-6.937c0-0.77-0.045-1.357-0.135-1.759c-0.135-0.648-0.428-1.249-0.882-1.801
			c-0.454-0.554-1.046-0.992-1.774-1.316C64.2,8.135,63.387,7.973,62.49,7.973c-1.031,0-2.045,0.182-3.043,0.544
			c-0.998,0.363-2.04,0.958-3.127,1.785c-0.337-0.536-0.709-0.96-1.119-1.273c-0.409-0.313-0.918-0.567-1.529-0.763
			c-0.61-0.195-1.247-0.293-1.908-0.293c-1.042,0-2.067,0.184-3.077,0.553c-1.009,0.369-2,0.928-2.976,1.676V7.973h-1.585
			c-1.743,0.757-3.643,1.232-5.701,1.424v3.234h2.49v7.526c0,0.625-0.045,1.029-0.134,1.213c-0.09,0.183-0.222,0.312-0.396,0.384
			c-0.174,0.072-0.608,0.109-1.304,0.109h-0.656v3.233h9.826v-3.233h-0.454c-0.482,0-0.822-0.051-1.018-0.15
			c-0.196-0.1-0.328-0.229-0.395-0.384c-0.067-0.157-0.102-0.547-0.102-1.172v-6.54l0.389-0.251c0.742-0.49,1.204-0.781,1.383-0.87
			c0.338-0.167,0.681-0.29,1.03-0.368c0.349-0.078,0.681-0.117,0.996-0.117c0.63,0,1.069,0.217,1.316,0.652
			c0.157,0.29,0.236,0.876,0.236,1.756v5.737c0,0.636-0.044,1.043-0.135,1.221c-0.09,0.179-0.218,0.302-0.387,0.368
			c-0.168,0.067-0.634,0.106-1.396,0.117v3.233h9.203v-3.233c-0.745-0.011-1.184-0.045-1.318-0.101
			c-0.222-0.089-0.378-0.218-0.467-0.386c-0.089-0.168-0.133-0.576-0.133-1.225v-6.563c0.99-0.661,1.739-1.088,2.244-1.284
			c0.507-0.195,0.98-0.293,1.419-0.293c0.382,0,0.711,0.081,0.987,0.243c0.276,0.162,0.462,0.358,0.558,0.588
			c0.095,0.229,0.143,0.696,0.143,1.401v6.092c0,0.549-0.045,0.904-0.133,1.066c-0.089,0.162-0.228,0.28-0.417,0.353
			c-0.189,0.072-0.645,0.109-1.368,0.109v3.233h9.809v-3.233h-0.74C68.829,21.864,68.419,21.83,68.274,21.763z M81.636,7.973
			c-0.73,0-1.455,0.114-2.179,0.343c-0.723,0.229-1.551,0.635-2.482,1.215V0.5h-1.652c-1.9,0.791-3.957,1.267-6.171,1.425v3.234
			h2.457v19.939h3.705l0.909-1.407c0.842,0.648,1.65,1.112,2.426,1.39c0.774,0.279,1.582,0.42,2.425,0.42
			c2.066,0,3.826-0.824,5.28-2.472c1.454-1.648,2.181-3.828,2.181-6.543c0-2.681-0.723-4.826-2.17-6.434
			C85.119,8.666,83.543,7.973,81.636,7.973z M81.737,20.591c-0.55,0.76-1.29,1.139-2.221,1.139c-0.55,0-1.029-0.129-1.438-0.386
			c-0.409-0.256-0.696-0.578-0.858-0.963c-0.163-0.385-0.244-1.092-0.244-2.119v-5.094c0.572-0.402,1.108-0.704,1.607-0.905
			c0.499-0.201,0.968-0.302,1.405-0.302c0.785,0,1.419,0.346,1.901,1.039c0.595,0.86,0.892,2.077,0.892,3.652
			C82.78,18.328,82.433,19.641,81.737,20.591z M97.184,21.763c-0.269-0.1-0.443-0.262-0.521-0.485
			c-0.057-0.124-0.085-0.514-0.085-1.174V0.5h-1.632c-2.143,0.814-4.218,1.289-6.226,1.425v3.234h2.49v14.946
			c0,0.637-0.044,1.047-0.134,1.232c-0.09,0.184-0.23,0.318-0.421,0.402c-0.191,0.084-0.622,0.126-1.296,0.126h-0.639v3.233h10.415
			v-3.233h-0.589C97.807,21.864,97.353,21.83,97.184,21.763z M115.323,10.939c0-0.536-0.127-1.039-0.38-1.508
			c-0.253-0.469-0.596-0.829-1.028-1.08c-0.433-0.252-0.925-0.377-1.476-0.377c-0.608,0-1.239,0.17-1.898,0.511
			c-0.657,0.341-1.436,0.98-2.335,1.918V7.973h-1.582c-1.974,0.827-3.875,1.296-5.704,1.407v3.217h2.491v7.691
			c0,0.581-0.04,0.954-0.119,1.122c-0.079,0.168-0.195,0.285-0.347,0.351c-0.152,0.068-0.539,0.101-1.16,0.101h-0.865v3.233h10.382
			v-3.233h-0.74c-0.639,0-1.055-0.039-1.245-0.117c-0.191-0.078-0.328-0.202-0.413-0.369c-0.084-0.167-0.126-0.53-0.126-1.089
			v-6.552c0.675-0.368,1.158-0.552,1.45-0.552c0.191,0,0.433,0.044,0.726,0.134c0.562,0.19,0.93,0.302,1.104,0.335
			c0.174,0.034,0.374,0.051,0.599,0.051c0.843,0,1.498-0.285,1.966-0.855C115.089,12.279,115.323,11.643,115.323,10.939z
			 M118.583,20.046c-0.612-0.609-1.349-0.914-2.213-0.914c-0.875,0-1.618,0.305-2.229,0.914c-0.611,0.609-0.917,1.344-0.917,2.203
			c0,0.86,0.306,1.594,0.917,2.203c0.611,0.609,1.354,0.913,2.229,0.913c0.864,0,1.601-0.304,2.213-0.913
			c0.611-0.609,0.917-1.343,0.917-2.203C119.5,21.39,119.194,20.654,118.583,20.046z"/>
	</g>
</g>
</svg>
