<?xml version="1.0" encoding="utf-8"?>
<!-- Generator: Adobe Illustrator 17.0.0, SVG Export Plug-In . SVG Version: 6.00 Build 0)  -->
<!DOCTYPE svg PUBLIC "-//W3C//DTD SVG 1.1//EN" "http://www.w3.org/Graphics/SVG/1.1/DTD/svg11.dtd">
<svg version="1.1" id="Layer_1" xmlns="http://www.w3.org/2000/svg" xmlns:xlink="http://www.w3.org/1999/xlink" x="0px" y="0px"
	 width="50px" height="40px" viewBox="-0.39 0 50 40" enable-background="new -0.39 0 50 40" xml:space="preserve">
<path fill="#FFFFFF" d="M49.22,4.735c-1.811,0.803-3.757,1.346-5.8,1.59c2.085-1.25,3.686-3.229,4.44-5.587
	c-1.951,1.157-4.112,1.998-6.413,2.45C39.606,1.226,36.981,0,34.077,0C28.5,0,23.979,4.521,23.979,10.098
	c0,0.791,0.089,1.562,0.261,2.301C15.848,11.978,8.407,7.958,3.427,1.848C2.557,3.34,2.059,5.074,2.059,6.925
	c0,3.503,1.783,6.594,4.492,8.405c-1.655-0.053-3.212-0.507-4.574-1.263c-0.001,0.042-0.001,0.084-0.001,0.127
	c0,4.893,3.481,8.974,8.1,9.902c-0.847,0.231-1.739,0.354-2.66,0.354c-0.651,0-1.283-0.063-1.9-0.181
	c1.285,4.012,5.014,6.931,9.433,7.013c-3.456,2.709-7.81,4.323-12.541,4.323c-0.815,0-1.619-0.048-2.409-0.141
	C4.469,38.328,9.777,40,15.479,40C34.053,40,44.21,24.613,44.21,11.269c0-0.438-0.01-0.873-0.029-1.306
	C46.154,8.538,47.866,6.76,49.22,4.735z"/>
</svg>
