<?xml version="1.0" encoding="UTF-8" standalone="no"?>
<svg width="60px" height="60px" viewBox="0 0 60 60" version="1.1" xmlns="http://www.w3.org/2000/svg" xmlns:xlink="http://www.w3.org/1999/xlink" xmlns:sketch="http://www.bohemiancoding.com/sketch/ns">
    <!-- Generator: Sketch 3.1.1 (8761) - http://www.bohemiancoding.com/sketch -->
    <title>twitch</title>
    <desc>Created with Sketch.</desc>
    <defs></defs>
    <g id="Page-1" stroke="none" stroke-width="1" fill="none" fill-rule="evenodd" sketch:type="MSPage">
        <g id="twitch" sketch:type="MSArtboardGroup" fill="#FFFFFF">
            <g id="Twitch_GlitchIcon_white" sketch:type="MSLayerGroup">
                <path d="M3.82324,6e-05 L-0.08976,10.43506 L-0.08976,52.17006 L14.25124,52.17006 L14.25124,60.00006 L22.08084,60.00006 L29.90264,52.17006 L41.63864,52.17006 L57.28984,36.52446 L57.28984,6e-05 L3.82324,6e-05 Z M9.03644,5.21426 L52.07444,5.21426 L52.07444,33.91046 L42.94324,43.04226 L28.60004,43.04226 L20.78044,50.86146 L20.78044,43.04226 L9.03644,43.04226 L9.03644,5.21426 Z" id="Fill-1" sketch:type="MSShapeGroup"></path>
                <path d="M23.3832,31.3052 L28.6,31.3052 L28.6,15.6548 L23.3832,15.6548 L23.3832,31.3052 Z M37.7274,31.3052 L42.9432,31.3052 L42.9432,15.6548 L37.7274,15.6548 L37.7274,31.3052 Z" id="Fill-2" sketch:type="MSShapeGroup"></path>
            </g>
        </g>
    </g>
</svg>