<?xml version="1.0" encoding="UTF-8" standalone="no"?>
<svg width="160px" height="160px" viewBox="0 0 160 160" version="1.1" xmlns="http://www.w3.org/2000/svg" xmlns:xlink="http://www.w3.org/1999/xlink" xmlns:sketch="http://www.bohemiancoding.com/sketch/ns">
    <!-- Generator: Sketch 3.3.2 (12043) - http://www.bohemiancoding.com/sketch -->
    <title>uber</title>
    <desc>Created with Sketch.</desc>
    <defs></defs>
    <g id="Page-1" stroke="none" stroke-width="1" fill="none" fill-rule="evenodd" sketch:type="MSPage">
        <g id="uber" sketch:type="MSArtboardGroup" fill="#FFFFFF">
            <g id="Uber_Logo" sketch:type="MSLayerGroup" transform="translate(0.000000, 69.000000)">
                <path d="M138.650526,11.2501053 C137.720632,11.2501053 137.492632,11.7237895 137.492632,11.7237895 L137.492632,2.63621053 L151.124211,2.63621053 C156.877263,2.86505263 157.052632,10.9528421 151.124211,11.2501053 L138.650526,11.2501053 L138.650526,11.2501053 Z M158.122737,19.7151579 C157.405684,20.5046316 156.642526,20.1427368 156.438526,19.8993684 L151.491158,13.6711579 L151.806947,13.6711579 C161.280632,11.6362105 158.885895,0.373052632 151.124211,0.179789474 L134.913684,0.179789474 L134.913684,22.3204211 L137.492632,22.3204211 L137.492632,15.0658947 C137.492632,14.1448421 137.834737,13.6711579 138.861053,13.6711579 L148.254316,13.6711579 L154.728,21.7677895 C156.024211,22.8795789 158.34,23.3467368 159.806947,21.7677895 L158.122737,19.7151579 L158.122737,19.7151579 Z" id="Fill-1" sketch:type="MSShapeGroup"></path>
                <path d="M111.694526,0.179789474 L91.2734737,0.179789474 L91.2734737,22.3204211 L112.378737,22.3204211 L112.378737,19.7873684 L93.8524211,19.7873684 L93.8524211,13.5046316 C93.8524211,12.5835789 94.1945263,12.1098947 95.2208421,12.1098947 L106.220842,12.1098947 L106.220842,9.68884211 L95.0103158,9.68884211 C94.0804211,9.68884211 93.8524211,10.1625263 93.8524211,10.1625263 L93.8524211,2.63621053 L111.694526,2.63621053 L111.694526,0.179789474" id="Fill-2" sketch:type="MSShapeGroup"></path>
                <path d="M62.6490526,19.7873684 L48.5964211,19.7873684 L48.5964211,13.5046316 C48.5964211,12.5835789 48.9385263,12.1098947 49.9648421,12.1098947 L62.6490526,12.1098947 C67.4667368,12.7197895 67.3103158,19.2983158 62.6490526,19.7873684 L62.6490526,19.7873684 Z M48.5964211,2.63621053 L62.6490526,2.63621053 C67.1753684,3.16252632 67.0174737,9.26778947 62.6490526,9.68884211 L49.7543158,9.68884211 C48.8246316,9.68884211 48.5964211,10.1625263 48.5964211,10.1625263 L48.5964211,2.63621053 L48.5964211,2.63621053 Z M65.9648421,10.952 C70.3858947,7.68884211 68.4911579,0.899368421 62.9122105,0.179789474 L46.0174737,0.179789474 L46.0174737,22.3204211 L62.9122105,22.3204211 C68.3677895,21.6166316 71.0298947,14.6905263 65.9648421,10.952 L65.9648421,10.952 Z" id="Fill-3" sketch:type="MSShapeGroup"></path>
                <path d="M13.7543158,22.7762105 C15.6490526,22.7762105 23.4387368,21.5309474 23.4387368,14.2147368 L23.4387368,0.179789474 L20.8421053,0.179789474 L20.8421053,13.6534737 C20.8421053,20.1435789 13.6141053,19.8288421 13.6141053,19.8288421 L11.3332632,19.8288421 C11.3332632,19.8288421 4.10526316,20.1435789 4.10526316,13.6534737 L4.10526316,3.96926316 C4.10526316,1.96989474 2.52631579,0.179789474 0,0.179789474 L0,2.70673684 C1.01747368,2.70673684 1.50884211,3.65410526 1.50884211,4.39031579 L1.50884211,14.2147368 C1.50884211,21.5309474 9.29831579,22.7762105 11.1930526,22.7762105 L13.7543158,22.7762105" id="Fill-4" sketch:type="MSShapeGroup"></path>
            </g>
        </g>
    </g>
</svg>