<?xml version="1.0" encoding="UTF-8" standalone="no"?>
<svg width="60px" height="60px" viewBox="0 0 60 60" version="1.1" xmlns="http://www.w3.org/2000/svg" xmlns:xlink="http://www.w3.org/1999/xlink" xmlns:sketch="http://www.bohemiancoding.com/sketch/ns">
    <!-- Generator: Sketch 3.3.3 (12072) - http://www.bohemiancoding.com/sketch -->
    <title>ubuntu</title>
    <desc>Created with Sketch.</desc>
    <defs></defs>
    <g id="Page-1" stroke="none" stroke-width="1" fill="none" fill-rule="evenodd" sketch:type="MSPage">
        <g id="ubuntu" sketch:type="MSArtboardGroup" fill="#FFFFFF">
            <path d="M5.54567305,24.4555616 C2.48202565,24.4555616 0,26.9378314 0,30.0012347 C0,33.0631729 2.48202565,35.5451985 5.54567305,35.5451985 C8.60761124,35.5451985 11.0896369,33.0631729 11.0896369,30.0012347 C11.0896369,26.9378314 8.60761124,24.4555616 5.54567305,24.4555616 L5.54567305,24.4555616 Z M45.1330665,49.6552641 C42.481096,51.1869657 41.5717931,54.5760966 43.1037389,57.2266021 C44.6337313,59.8785727 48.0228623,60.7876313 50.6748328,59.2559297 C53.3265592,57.7259373 54.235862,54.3368064 52.7041604,51.6845917 C51.174168,49.0343303 47.7830837,48.1252717 45.1330665,49.6552641 L45.1330665,49.6552641 Z M17.5890524,30.0012347 C17.5890524,24.5219769 20.3106125,19.6812333 24.4749949,16.749928 L20.4214673,9.96067831 C15.5704684,13.203305 11.9610928,18.1583219 10.4611338,23.9615982 C12.2113709,25.3897702 13.3316398,27.5638928 13.3316398,30.0009905 C13.3316398,32.4366231 12.2113709,34.6107458 10.4611338,36.0389177 C11.9591394,41.8439032 15.5685151,46.7991643 20.4214673,50.041791 L24.4749949,43.2508321 C20.3106125,40.3212361 17.5890524,35.4807366 17.5890524,30.0012347 L17.5890524,30.0012347 Z M33.783873,13.8047049 C42.2444917,13.8047049 49.1858616,20.2916675 49.9144759,28.5645166 L57.8149601,28.4480458 C57.4262356,22.340529 54.7581496,16.8576086 50.6584732,12.8258125 C48.5502775,13.6223071 46.1151332,13.5004644 44.0103559,12.2871653 C41.901916,11.0704478 40.5799596,9.01792366 40.2185825,6.78983865 C38.1694768,6.22433237 36.0129347,5.91472012 33.7833847,5.91472012 C29.9505901,5.91472012 26.3268082,6.81498855 23.1093314,8.40748941 L26.961904,15.3112566 C29.0344504,14.3467705 31.3465311,13.8047049 33.783873,13.8047049 L33.783873,13.8047049 Z M33.783873,46.1960553 C31.3465311,46.1960553 29.0344504,45.6537455 26.9621482,44.6895035 L23.1095756,51.5930265 C26.3270524,53.1874808 29.9508343,54.0879934 33.783873,54.0879934 C36.0134231,54.0879934 38.1699652,53.778137 40.2188267,53.2109215 C40.5802037,50.9828365 41.9026485,48.9322657 44.0106,47.7133506 C46.1168424,46.4980981 48.5505216,46.378453 50.6587174,47.1749476 C54.7583938,43.1431515 57.4264798,37.6602311 57.8152043,31.5527143 L49.9127667,31.4362435 C49.1858616,39.7112902 42.2447359,46.1960553 33.783873,46.1960553 L33.783873,46.1960553 Z M45.1311132,10.3437868 C47.7830837,11.8752443 51.1724588,10.968139 52.7024512,8.31616845 C54.2341528,5.6641979 53.3270475,2.27482278 50.6748328,0.742876996 C48.0228623,-0.787115402 44.6337313,0.121943279 43.1015414,2.77391383 C41.5717931,5.42441933 42.4808518,8.81379445 45.1311132,10.3437868 L45.1311132,10.3437868 Z" id="Shape" sketch:type="MSShapeGroup"></path>
        </g>
    </g>
</svg>