<?xml version="1.0" encoding="utf-8"?>
<!-- Generator: Adobe Illustrator 17.1.0, SVG Export Plug-In . SVG Version: 6.00 Build 0)  -->
<!DOCTYPE svg PUBLIC "-//W3C//DTD SVG 1.1//EN" "http://www.w3.org/Graphics/SVG/1.1/DTD/svg11.dtd">
<svg version="1.1" id="Calque_1" xmlns="http://www.w3.org/2000/svg" xmlns:xlink="http://www.w3.org/1999/xlink" x="0px" y="0px"
	 viewBox="0 0 160 160" enable-background="new 0 0 160 160" xml:space="preserve">
<g>
	<polygon fill="#FFFFFF" points="25,74.386 27.489,74.386 33.591,87.752 39.619,74.386 42.126,74.386 33.805,92.71 33.371,92.71 	
		"/>
	<path fill="#FFFFFF" d="M45.333,74.386h2.339v18.325h-2.339V74.386z M46.495,67.234c0.532,0,0.987,0.192,1.364,0.577
		c0.376,0.385,0.566,0.848,0.566,1.391c0,0.532-0.189,0.989-0.566,1.374c-0.377,0.385-0.832,0.577-1.364,0.577
		c-0.521,0-0.971-0.192-1.348-0.577c-0.377-0.385-0.566-0.843-0.566-1.374c0-0.543,0.189-1.007,0.566-1.391
		C45.524,67.426,45.974,67.234,46.495,67.234"/>
	<path fill="#FFFFFF" d="M107.772,81.791c-0.295-1.195-0.724-2.15-1.287-2.866c-0.563-0.715-1.307-1.292-2.234-1.73
		c-0.926-0.438-1.899-0.656-2.92-0.656c-1.684,0-3.131,0.55-4.342,1.649c-0.884,0.801-1.552,2.002-2.005,3.602H107.772z
		 M107.772,86.482l1.86,0.993c-0.61,1.217-1.315,2.199-2.114,2.946c-0.8,0.747-1.7,1.316-2.699,1.705
		c-1,0.39-2.131,0.584-3.393,0.584c-2.799,0-4.987-0.931-6.566-2.794c-1.578-1.862-2.367-3.968-2.367-6.316
		c0-2.21,0.668-4.179,2.004-5.908c1.694-2.199,3.961-3.298,6.802-3.298c2.925,0,5.261,1.126,7.007,3.378
		c1.241,1.59,1.873,3.576,1.894,5.956H94.763c0.042,2.023,0.679,3.682,1.91,4.976c1.231,1.293,2.752,1.941,4.563,1.941
		c0.873,0,1.723-0.154,2.549-0.463c0.827-0.308,1.529-0.718,2.107-1.228C106.472,88.444,107.098,87.62,107.772,86.482"/>
	<path fill="#FFFFFF" d="M80.672,76.568c-1.227,0-2.361,0.307-3.399,0.919c-1.039,0.612-1.865,1.473-2.479,2.58
		c-0.614,1.108-0.92,2.279-0.92,3.515c0,1.224,0.309,2.397,0.928,3.515c0.619,1.119,1.45,1.989,2.493,2.612
		c1.044,0.623,2.164,0.934,3.36,0.934c1.206,0,2.349-0.309,3.431-0.927c1.08-0.618,1.911-1.454,2.494-2.508
		c0.582-1.055,0.873-2.242,0.873-3.563c0-2.013-0.653-3.696-1.959-5.049C84.188,77.245,82.581,76.568,80.672,76.568 M89.486,67.235
		v25.475h-2.174v-3.442c-0.924,1.141-1.961,1.999-3.111,2.576c-1.15,0.575-2.408,0.863-3.773,0.863
		c-2.426,0-4.498-0.893-6.215-2.679c-1.717-1.786-2.576-3.959-2.576-6.518c0-2.506,0.867-4.649,2.599-6.431
		c1.733-1.781,3.817-2.672,6.254-2.672c1.407,0,2.681,0.304,3.82,0.912c1.14,0.608,2.14,1.519,3.001,2.735v-10.82H89.486z"/>
	<path opacity="0.4" fill="#FFFFFF" d="M123.121,67.327c0,0,3.007,1.993,3.525,7.474c0,0,1.016,13.165-5.795,15.746
		c0,0,0.609,0.113,1.296,0.081c0,0,8.422-5.312,4.559-15.626C126.705,75.003,125.55,71.403,123.121,67.327"/>
	<path opacity="0.4" fill="#FFFFFF" d="M127.517,76.319c0,0-1.569-2.428,0.422-4.43c0,0,0.697-0.769,2.689-1.275
		c0,0,1.991-0.424,3.067-2.71c0,0,2.23,3.115,0.859,7.214c0,0-0.679,1.846-2.096,2.689c-1.068,0.635-2.686,0.836-4.379-0.822
		c0,0,5.118-2.804,5.309-5.178C133.389,71.807,131.817,75.34,127.517,76.319"/>
	<path fill="#FFFFFF" d="M65.472,87.163c-0.602,1.087-1.414,1.926-2.437,2.518c-1.023,0.591-2.147,0.887-3.371,0.887
		s-2.347-0.296-3.371-0.887c-1.023-0.592-1.835-1.431-2.437-2.518c-0.601-1.087-0.902-2.259-0.902-3.517
		c0-1.95,0.66-3.613,1.978-4.988c1.318-1.375,2.896-2.062,4.732-2.062c1.825,0,3.399,0.687,4.724,2.062
		c1.324,1.375,1.986,3.038,1.986,4.988C66.374,84.904,66.073,86.076,65.472,87.163 M68.613,83.598c0-2.419-0.79-4.513-2.37-6.282
		c-1.738-1.94-3.928-2.909-6.572-2.909c-2.653,0-4.849,0.975-6.587,2.925c-1.58,1.769-2.37,3.858-2.37,6.266
		c0,2.429,0.835,4.553,2.504,6.37c1.669,1.817,3.82,2.726,6.453,2.726c2.622,0,4.768-0.909,6.437-2.726
		c0.096-0.104,0.189-0.21,0.279-0.317l0.003,3.058h2.187v-8.278C68.601,84.158,68.613,83.881,68.613,83.598"/>
	<path fill="#FFFFFF" d="M128.822,83.685c0,1.262-0.301,2.438-0.904,3.529c-0.602,1.091-1.416,1.933-2.442,2.527
		c-1.025,0.593-2.151,0.891-3.377,0.891c-1.226,0-2.352-0.297-3.377-0.891c-1.025-0.593-1.839-1.436-2.442-2.527
		c-0.602-1.091-0.904-2.267-0.904-3.529c0-1.957,0.661-3.626,1.982-5.006s2.902-2.069,4.741-2.069c0.875,0,1.691,0.159,2.452,0.475
		c0.076-0.799,0.356-1.543,0.667-2.15c-0.957-0.347-1.993-0.522-3.111-0.522c-2.659,0-4.86,0.978-6.6,2.936
		c-1.583,1.775-2.374,3.872-2.374,6.289c0,2.438,0.836,4.569,2.508,6.393c1.673,1.823,3.828,2.736,6.466,2.736
		c2.627,0,4.777-0.912,6.449-2.736c1.673-1.823,2.509-3.954,2.509-6.393c0-1.305-0.231-2.515-0.688-3.632
		c-0.768,0.472-1.498,0.72-2.102,0.846C128.639,81.717,128.822,82.661,128.822,83.685"/>
</g>
<g>
</g>
<g>
</g>
<g>
</g>
<g>
</g>
<g>
</g>
<g>
</g>
</svg>
