<?xml version="1.0" encoding="UTF-8" standalone="no"?>
<svg width="160px" height="160px" viewBox="0 0 160 160" version="1.1" xmlns="http://www.w3.org/2000/svg" xmlns:xlink="http://www.w3.org/1999/xlink" xmlns:sketch="http://www.bohemiancoding.com/sketch/ns">
    <!-- Generator: Sketch 3.3.3 (12072) - http://www.bohemiancoding.com/sketch -->
    <title>viadeo</title>
    <desc>Created with Sketch.</desc>
    <defs></defs>
    <g id="Page-1" stroke="none" stroke-width="1" fill="none" fill-rule="evenodd" sketch:type="MSPage">
        <g id="viadeo" sketch:type="MSArtboardGroup" fill="#FFFFFF">
            <g sketch:type="MSLayerGroup" transform="translate(7.000000, 63.000000)" id="Shape">
                <path d="M5.32907052e-15,9.94269231 L3.30358182,9.94269231 L11.4026,27.9353846 L19.4034,9.94269231 L22.7308727,9.94269231 L11.6866364,34.6096154 L11.1106,34.6096154 L5.32907052e-15,9.94269231 Z" sketch:type="MSShapeGroup"></path>
                <path d="M26.9874364,9.94269231 L30.0919273,9.94269231 L30.0919273,34.6109615 L26.9874364,34.6109615 L26.9874364,9.94269231 L26.9874364,9.94269231 Z M28.5297273,0.315 C29.2358364,0.315 29.8397455,0.573461538 30.3401273,1.09173077 C30.8391818,1.61 31.0913636,2.23326923 31.0913636,2.96423077 C31.0913636,3.68038462 30.8405091,4.29557692 30.3401273,4.81384615 C29.8397455,5.33211538 29.2358364,5.59057692 28.5297273,5.59057692 C27.8382182,5.59057692 27.2409455,5.33211538 26.7405636,4.81384615 C26.2401818,4.29557692 25.9893273,3.67903846 25.9893273,2.96423077 C25.9893273,2.23326923 26.2401818,1.60865385 26.7405636,1.09173077 C27.2409455,0.573461538 27.8382182,0.315 28.5297273,0.315 L28.5297273,0.315 Z" sketch:type="MSShapeGroup"></path>
                <path d="M109.861018,19.9109615 C109.469473,18.3023077 108.900073,17.0167308 108.152818,16.0528846 C107.405564,15.0903846 106.418073,14.3136538 105.187691,13.7240385 C103.958636,13.1344231 102.6672,12.8409615 101.312055,12.8409615 C99.0769273,12.8409615 97.1563636,13.5813462 95.5490364,15.0607692 C94.3757273,16.1390385 93.4891091,17.7557692 92.8878545,19.9096154 L109.861018,19.9096154 L109.861018,19.9109615 Z M109.861018,26.2257692 L112.329745,27.5625 C111.520109,29.2007692 110.584382,30.5226923 109.523891,31.5282692 C108.462073,32.5338462 107.267527,33.2998077 105.941582,33.8234615 C104.614309,34.3484615 103.113164,34.6096154 101.438145,34.6096154 C97.7231091,34.6096154 94.8190364,33.3563462 92.7232727,30.8484615 C90.6288364,28.3419231 89.5816182,25.5069231 89.5816182,22.3461538 C89.5816182,19.3711538 90.4682364,16.7205769 92.2414727,14.3930769 C94.4898727,11.4328846 97.4988,9.95346154 101.269582,9.95346154 C105.151855,9.95346154 108.252364,11.4692308 110.569782,14.5007692 C112.216927,16.6411538 113.055764,19.3146154 113.083636,22.5184615 L92.5945273,22.5184615 C92.6502727,25.2417308 93.4957455,27.475 95.1296182,29.2169231 C96.7634909,30.9575 98.7822727,31.8298077 101.185964,31.8298077 C102.344673,31.8298077 103.472855,31.6225 104.569182,31.2065385 C105.666836,30.7919231 106.598582,30.24 107.365745,29.5534615 C108.135564,28.8669231 108.966436,27.7576923 109.861018,26.2257692 L109.861018,26.2257692 Z" sketch:type="MSShapeGroup"></path>
                <path d="M73.8919273,12.88 C72.2633636,12.88 70.7582364,13.2932692 69.3805273,14.1171154 C68.0014909,14.9409615 66.9051636,16.1 66.0902182,17.5901923 C65.2752727,19.0817308 64.8691273,20.6580769 64.8691273,22.3219231 C64.8691273,23.9696154 65.2792545,25.5486538 66.1008364,27.0536538 C66.9224182,28.56 68.0253818,29.7311538 69.4097273,30.5698077 C70.7954,31.4084615 72.2819455,31.8271154 73.8693636,31.8271154 C75.4700545,31.8271154 76.9871273,31.4111538 78.4232364,30.5792308 C79.8566909,29.7473077 80.9596545,28.6219231 81.7334545,27.2030769 C82.5059273,25.7828846 82.8921636,24.185 82.8921636,22.4067308 C82.8921636,19.6969231 82.0254545,17.4313462 80.2920364,15.61 C78.5586182,13.7913462 76.4256909,12.88 73.8919273,12.88 L73.8919273,12.88 Z M85.5905091,0.316346154 L85.5905091,34.6096154 L82.7050182,34.6096154 L82.7050182,29.9761538 C81.4786182,31.5121154 80.1022364,32.6671154 78.5758727,33.4438462 C77.0495091,34.2178846 75.3798,34.6055769 73.5680727,34.6055769 C70.3481091,34.6055769 67.598,33.4034615 65.3190727,30.9992308 C63.0401455,28.595 61.9000182,25.6698077 61.9000182,22.225 C61.9000182,18.8515385 63.0507636,15.9667308 65.3496,13.5678846 C67.6497636,11.1703846 70.4158,9.97096154 73.6503636,9.97096154 C75.5178364,9.97096154 77.2087818,10.3801923 78.7205455,11.1986538 C80.2336364,12.0171154 81.5609091,13.2434615 82.7036909,14.8803846 L82.7036909,0.315 L85.5905091,0.315 L85.5905091,0.316346154 Z" sketch:type="MSShapeGroup"></path>
                <path d="M130.233327,0.440192308 C130.233327,0.440192308 134.224436,3.12307692 134.911964,10.5013462 C134.911964,10.5013462 136.260473,28.2234615 127.220418,31.6978846 C127.220418,31.6978846 128.028727,31.85 128.940564,31.8069231 C128.940564,31.8069231 140.118855,24.6561538 134.9916,10.7719231 C134.990273,10.7732692 133.457273,5.92711538 130.233327,0.440192308" opacity="0.4" sketch:type="MSShapeGroup"></path>
                <path d="M136.068018,12.5448077 C136.068018,12.5448077 133.985527,9.27634615 136.628127,6.58134615 C136.628127,6.58134615 137.553236,5.54615385 140.197164,4.865 C140.197164,4.865 142.839764,4.29423077 144.267909,1.21692308 C144.267909,1.21692308 147.227727,5.41019231 145.408036,10.9280769 C145.408036,10.9280769 144.506818,13.4130769 142.626073,14.5478846 C141.208545,15.4026923 139.061018,15.6732692 136.813945,13.4413462 C136.813945,13.4413462 143.606927,9.66673077 143.860436,6.47096154 C143.861764,6.47096154 141.775291,11.2269231 136.068018,12.5448077" opacity="0.4" sketch:type="MSShapeGroup"></path>
                <path d="M53.7173818,27.1425 C52.9183636,28.6057692 51.8406182,29.7351923 50.4828182,30.5321154 C49.1250182,31.3276923 47.6331636,31.7261538 46.0085818,31.7261538 C44.384,31.7261538 42.8934727,31.3276923 41.5343455,30.5321154 C40.1765455,29.7351923 39.0988,28.6057692 38.2997818,27.1425 C37.5020909,25.6792308 37.1025818,24.1015385 37.1025818,22.4080769 C37.1025818,19.7830769 37.9785818,17.5444231 39.7279273,15.6934615 C41.4772727,13.8425 43.5717091,12.9176923 46.0085818,12.9176923 C48.4308545,12.9176923 50.5199818,13.8425 52.2786182,15.6934615 C54.0359273,17.5444231 54.9145818,19.7830769 54.9145818,22.4080769 C54.9145818,24.1015385 54.5150727,25.6792308 53.7173818,27.1425 M57.8863455,22.3434615 C57.8863455,19.0871154 56.8378,16.2682692 54.7407091,13.8869231 C52.4339091,11.2753846 49.5271818,9.97096154 46.0178727,9.97096154 C42.4966182,9.97096154 39.5819273,11.2834615 37.2751273,13.9084615 C35.1780364,16.2898077 34.1294909,19.1019231 34.1294909,22.3434615 C34.1294909,25.6132692 35.2377636,28.4725 37.4529818,30.9184615 C39.6682,33.3644231 42.5231636,34.5880769 46.0178727,34.5880769 C49.4979818,34.5880769 52.3463091,33.3644231 54.5615273,30.9184615 C54.6889455,30.7784615 54.8123818,30.6357692 54.9318364,30.4917308 L54.9358182,34.6082692 L57.8385636,34.6082692 L57.8385636,23.4648077 C57.8704182,23.0973077 57.8863455,22.7244231 57.8863455,22.3434615" sketch:type="MSShapeGroup"></path>
                <path d="M137.800109,22.4605769 C137.800109,24.1594231 137.4006,25.7425 136.600255,27.2111538 C135.801236,28.6798077 134.720836,29.8132692 133.359055,30.6128846 C131.9986,31.4111538 130.504091,31.8123077 128.876855,31.8123077 C127.249618,31.8123077 125.755109,31.4125 124.394655,30.6128846 C123.0342,29.8146154 121.9538,28.6798077 121.153455,27.2111538 C120.354436,25.7425 119.9536,24.1594231 119.9536,22.4605769 C119.9536,19.8261538 120.830927,17.5794231 122.584255,15.7217308 C124.337582,13.8640385 126.436,12.9365385 128.876855,12.9365385 C130.038218,12.9365385 131.121273,13.1505769 132.131327,13.5759615 C132.2322,12.5003846 132.603836,11.4988462 133.016618,10.6817308 C131.746418,10.2146154 130.371364,9.97903846 128.887473,9.97903846 C125.358255,9.97903846 122.436927,11.2955769 120.127473,13.9313462 C118.0264,16.3207692 116.976527,19.1436538 116.976527,22.3973077 C116.976527,25.6792308 118.086127,28.5478846 120.305327,31.0032692 C122.525855,33.4573077 125.386127,34.6863462 128.887473,34.6863462 C132.374218,34.6863462 135.227855,33.4586538 137.447055,31.0032692 C139.667582,28.5492308 140.777182,25.6805769 140.777182,22.3973077 C140.777182,20.6405769 140.470582,19.0117308 139.864018,17.5080769 C138.844673,18.1434615 137.875764,18.4773077 137.074091,18.6469231 C137.557218,19.8113462 137.800109,21.0821154 137.800109,22.4605769" sketch:type="MSShapeGroup"></path>
            </g>
        </g>
    </g>
</svg>