<?xml version="1.0" encoding="utf-8"?>
<!-- Generator: Adobe Illustrator 17.0.0, SVG Export Plug-In . SVG Version: 6.00 Build 0)  -->
<!DOCTYPE svg PUBLIC "-//W3C//DTD SVG 1.1//EN" "http://www.w3.org/Graphics/SVG/1.1/DTD/svg11.dtd">
<svg version="1.1" id="Calque_1" xmlns="http://www.w3.org/2000/svg" xmlns:xlink="http://www.w3.org/1999/xlink" x="0px" y="0px"
	 width="48px" height="40px" viewBox="-0.875 0 48 40" enable-background="new -0.875 0 48 40" xml:space="preserve">
<path fill="#FFFFFF" d="M46.227,9.254c-0.206,4.501-3.35,10.665-9.432,18.489C30.507,35.913,25.186,40,20.835,40
	c-2.696,0-4.978-2.487-6.842-7.465c-1.244-4.562-2.488-9.125-3.733-13.687c-1.384-4.975-2.868-7.465-4.456-7.465
	c-0.346,0-1.557,0.728-3.63,2.178L0,10.758c2.282-2.005,4.534-4.01,6.749-6.018c3.044-2.63,5.33-4.013,6.853-4.153
	c3.6-0.346,5.814,2.114,6.646,7.38c0.898,5.682,1.521,9.216,1.869,10.598c1.039,4.714,2.18,7.069,3.427,7.069
	c0.968,0,2.422-1.529,4.361-4.588c1.936-3.057,2.973-5.384,3.113-6.982c0.277-2.639-0.761-3.961-3.113-3.961
	c-1.108,0-2.249,0.255-3.423,0.758c2.273-7.444,6.616-11.059,13.025-10.853C44.261,0.148,46.502,3.23,46.227,9.254z"/>
</svg>
