<?xml version="1.0" encoding="utf-8"?>
<!-- Generator: Adobe Illustrator 17.0.0, SVG Export Plug-In . SVG Version: 6.00 Build 0)  -->
<!DOCTYPE svg PUBLIC "-//W3C//DTD SVG 1.1//EN" "http://www.w3.org/Graphics/SVG/1.1/DTD/svg11.dtd">
<svg version="1.1" id="Calque_1" xmlns="http://www.w3.org/2000/svg" xmlns:xlink="http://www.w3.org/1999/xlink" x="0px" y="0px"
	 width="36px" height="40px" viewBox="-0.466 0 36 40" enable-background="new -0.466 0 36 40" xml:space="preserve">
<path fill="#FFFFFF" d="M35.067,19.885c-1.03,0.238-2.027,0.342-2.924,0.342c-5.047,0-8.932-3.525-8.932-9.653
	c0-3.004,1.161-4.566,2.804-4.566c1.563,0,2.604,1.402,2.604,4.246c0,1.617-0.433,3.389-0.753,4.438c0,0,1.555,2.713,5.808,1.88
	c0.903-2.005,1.394-4.601,1.394-6.879C35.067,3.565,31.943,0,26.215,0c-5.888,0-9.333,4.526-9.333,10.495
	c0,5.913,2.764,10.988,7.322,13.3c-1.916,3.834-4.355,7.211-6.898,9.755C12.691,27.972,8.519,20.53,6.808,6.008H0
	c3.145,24.186,12.518,31.887,14.997,33.366c1.402,0.841,2.609,0.801,3.891,0.08c2.012-1.144,8.054-7.185,11.403-14.261
	c1.406-0.004,3.095-0.165,4.777-0.545L35.067,19.885L35.067,19.885z"/>
</svg>
