<?xml version="1.0" encoding="UTF-8" standalone="no"?>
<svg width="60px" height="60px" viewBox="0 0 60 60" version="1.1" xmlns="http://www.w3.org/2000/svg" xmlns:xlink="http://www.w3.org/1999/xlink" xmlns:sketch="http://www.bohemiancoding.com/sketch/ns">
    <!-- Generator: Sketch 3.0.3 (7891) - http://www.bohemiancoding.com/sketch -->
    <title>vk</title>
    <desc>Created with Sketch.</desc>
    <defs></defs>
    <g id="Page-1" stroke="none" stroke-width="1" fill="none" fill-rule="evenodd" sketch:type="MSPage">
        <g id="vk" sketch:type="MSArtboardGroup" fill="#FFFFFF">
            <g sketch:type="MSLayerGroup" transform="translate(0.000000, 13.000000)" id="Shape">
                <path d="M29.3565,34.0336957 L32.943,34.0336957 C32.943,34.0336957 34.026,33.9119565 34.5795,33.3078261 C35.088,32.7523913 35.0715,31.71 35.0715,31.71 C35.0715,31.71 35.001,26.775 37.2345,26.0552174 C39.4365,25.346087 42.264,30.7741304 45.2595,32.8604348 C47.526,34.4384783 49.248,34.0336957 49.248,34.0336957 L57.261,34.0413043 C57.261,34.0413043 61.452,33.7186957 59.4645,30.3754348 C59.3025,30.1015217 58.3065,27.9026087 53.5065,23.3815217 C48.4815,18.6504348 49.155,19.4158696 55.2075,11.2334783 C58.893,6.24978261 60.366,3.20782609 59.9055,1.90369565 C59.4675,0.661956522 56.775,0.876521739 56.775,0.876521739 L47.733,0.873478261 C47.733,0.873478261 47.064,0.808043478 46.5675,1.10934783 C46.083,1.40304348 45.771,2.16695652 45.771,2.16695652 C45.771,2.16695652 44.343,6.09456522 42.438,9.37543478 C38.421,16.2947826 36.8145,16.6615217 36.1575,16.2308696 C34.629,15.2295652 35.0115,12.2073913 35.0115,10.0602174 C35.0115,3.35391304 36.0135,0.556956522 33.0585,-0.167391304 C32.079,-0.407826087 31.356,-0.566086957 28.848,-0.591956522 C25.629,-0.625434783 22.905,-0.581304348 21.3615,0.184130435 C20.3355,0.693913043 19.5435,1.83065217 20.025,1.89608696 C20.622,1.97673913 21.972,2.26586957 22.6875,3.25347826 C23.6115,4.53021739 23.58,7.39565217 23.58,7.39565217 C23.58,7.39565217 24.111,15.2904348 22.3395,16.2704348 C21.123,16.9430435 19.455,15.5704348 15.8745,9.29173913 C14.04,6.07630435 12.654,2.45304348 12.654,2.45304348 C12.654,2.45304348 12.387,1.78804348 11.91,1.43347826 C11.337,1.00130435 10.5285,0.865869565 10.5285,0.865869565 L1.956,0.868913043 C1.956,0.868913043 0.669,0.905434783 0.1965,1.47304348 C-0.2235,1.97826087 0.1635,3.02217391 0.1635,3.02217391 C0.1635,3.02217391 6.8745,19.0734783 14.475,27.1006522 C21.444,34.4628261 29.3565,34.0336957 29.3565,34.0336957 L29.3565,34.0336957 Z" sketch:type="MSShapeGroup"></path>
            </g>
        </g>
    </g>
</svg>