<?xml version="1.0" encoding="UTF-8" standalone="no"?>
<svg width="60px" height="60px" viewBox="0 0 60 60" version="1.1" xmlns="http://www.w3.org/2000/svg" xmlns:xlink="http://www.w3.org/1999/xlink">
    <!-- Generator: Sketch 3.6.1 (26313) - http://www.bohemiancoding.com/sketch -->
    <title>whatsapp</title>
    <desc>Created with Sketch.</desc>
    <defs></defs>
    <g id="Page-1" stroke="none" stroke-width="1" fill="none" fill-rule="evenodd">
        <g id="whatsapp" fill="#FFFFFF">
            <path d="M43.5362994,35.9553787 C42.7934185,35.5835818 39.1410276,33.7866112 38.4600178,33.538414 C37.7791506,33.2905019 37.2838966,33.1667597 36.7886427,33.9102109 C36.2933888,34.6538046 34.8696406,36.3273181 34.4362578,36.8231423 C34.0030175,37.3188239 33.5696347,37.3811227 32.8267538,37.0090407 C32.0838729,36.6372438 29.6901455,35.8528779 26.8526285,33.3217226 C24.6442293,31.3518266 23.1531928,28.9191803 22.7199525,28.175444 C22.2865696,27.4317078 22.6736204,27.0296881 23.0455598,26.6593169 C23.3798634,26.3262964 23.7885833,25.7915533 24.1599525,25.3577428 C24.5314642,24.9240748 24.6552064,24.6140065 24.9028334,24.1184675 C25.1504604,23.6225007 25.0267181,23.1888328 24.8408197,22.8170359 C24.6552064,22.4452391 23.1694446,18.7884289 22.5504485,17.3008138 C21.9474191,15.8524027 21.3349807,16.0485655 20.8789308,16.0256133 C20.4461182,16.0040867 19.950294,15.9995248 19.4551827,15.9995248 C18.9599287,15.9995248 18.1550342,16.1854232 17.4740244,16.9290169 C16.7931571,17.6727532 14.8740125,19.4701515 14.8740125,23.126534 C14.8740125,26.7833442 17.5358955,30.3156994 17.9074072,30.8115236 C18.2789189,31.3074903 23.1457796,38.8110009 30.5982536,42.0288684 C32.3705613,42.7944164 33.7543926,43.2514642 34.8332878,43.5937511 C36.6128661,44.1592872 38.2323493,44.0794535 39.5123968,43.8881378 C40.9397089,43.6750104 43.9076685,42.0911672 44.5268072,40.3559252 C45.1458034,38.6202554 45.1458034,37.1329255 44.9600475,36.8231423 C44.7744342,36.5132165 44.2791803,36.3273181 43.5362994,35.9553787 M29.9813959,54.4632492 L29.9714167,54.4632492 C25.5370835,54.4615385 21.1878586,53.2701634 17.393763,51.018711 L16.4913573,50.4831126 L7.13855658,52.9365726 L9.63492723,43.8175705 L9.04743689,42.8825186 C6.57373329,38.9481437 5.26716959,34.4007603 5.26916543,29.7313454 C5.27458271,16.1064449 16.3603445,5.02153846 29.9912326,5.02153846 C36.5917672,5.02381942 42.7962697,7.59760024 47.4621206,12.2687259 C52.1276864,16.9395664 54.6956222,23.1483457 54.6930561,29.7513038 C54.6874963,43.3773448 43.601877,54.4632492 29.9813959,54.4632492 M51.0130086,8.719406 C45.399703,3.09954262 37.9346837,0.00327888328 29.9811108,0 C13.5933947,0 0.255752896,13.3367865 0.249195129,29.7294921 C0.247056727,34.9697178 1.61606178,40.0843481 4.21792694,44.5933828 L0,60 L15.7611642,55.8656133 C20.1038313,58.2342501 24.9932165,59.4827918 29.9692783,59.48436 L29.9813959,59.48436 L29.9815385,59.48436 C46.3675438,59.48436 59.7063261,46.1462905 59.7130264,29.7532997 C59.7160202,21.8089932 56.6263142,14.3391268 51.0130086,8.719406" id="Fill-1"></path>
        </g>
    </g>
</svg>