<?xml version="1.0" encoding="UTF-8" standalone="no"?>
<svg width="160px" height="160px" viewBox="0 0 160 160" version="1.1" xmlns="http://www.w3.org/2000/svg" xmlns:xlink="http://www.w3.org/1999/xlink" xmlns:sketch="http://www.bohemiancoding.com/sketch/ns">
    <!-- Generator: Sketch 3.3.3 (12072) - http://www.bohemiancoding.com/sketch -->
    <title>windowsphone</title>
    <desc>Created with Sketch.</desc>
    <defs></defs>
    <g id="Page-1" stroke="none" stroke-width="1" fill="none" fill-rule="evenodd" sketch:type="MSPage">
        <g id="windowsphone" sketch:type="MSArtboardGroup" fill="#FFFFFF">
            <path d="M65.8586202,79.082248 C64.761164,79.5475825 64.1793664,80.7543883 64.0515727,81.9083414 C63.8785655,83.2687267 64.0235478,84.8742266 65.0982105,85.833237 C66.1960404,86.8565899 68.0654901,86.6356039 68.9817185,85.4697782 C69.9259718,84.3070164 69.7955624,82.6727921 69.7047617,81.2626179 C69.554548,79.4460898 67.438479,78.2971157 65.8586202,79.082248 L65.8586202,79.082248 Z M69.7503489,72.8957883 C70.2925379,72.8957883 70.8369688,72.8957883 71.3813998,72.8984692 C71.3784105,77.8149295 71.3813998,82.7310068 71.3813998,87.6501481 L69.7503489,87.6501481 C69.7503489,87.1151091 69.7533382,86.5804532 69.7619325,86.0454142 C68.6043161,88.187868 65.4356306,88.5574547 63.7369462,86.9117407 C62.7101128,85.9377936 62.344294,84.455234 62.3073011,83.0653583 C62.2815182,81.4924127 62.6645255,79.8149105 63.7537612,78.6464038 C65.3168049,76.9742635 68.4425188,76.8815795 69.7645482,78.9167957 C69.7331603,76.9106869 69.7559539,74.9015141 69.7503489,72.8957883 L69.7503489,72.8957883 Z" id="Fill-1" sketch:type="MSShapeGroup"></path>
            <path d="M119.531219,72.8957883 L121.161896,72.8957883 C121.145081,75.0007089 121.199263,77.1083104 121.128266,79.213231 C122.149495,77.5851347 124.308162,76.9106869 126.015441,77.7739494 C127.223876,78.3323509 127.620709,79.8091656 127.669285,81.0565685 C127.714499,83.2545561 127.672275,85.4525436 127.6861,87.6501481 L126.055049,87.6501481 C126.043839,85.655912 126.072238,83.6616759 126.046455,81.6666738 C126.009836,80.6666833 125.734818,79.4575795 124.738998,79.0270972 C123.128126,78.2944347 121.332288,79.7333333 121.196274,81.4196444 C121.108462,83.4954576 121.190669,85.5743348 121.16227,87.6501481 L119.531219,87.6501481 C119.528603,82.7310068 119.531219,77.8149295 119.531219,72.8957883" id="Fill-2" sketch:type="MSShapeGroup"></path>
            <path d="M48.5870426,73.5966625 C49.1370786,73.0991567 50.1444814,73.3664847 50.3230936,74.1110199 C50.6661188,74.9482391 49.6108867,75.8467368 48.8564556,75.4105097 C48.1442487,75.1489266 48.0538216,74.0819126 48.5870426,73.5966625" id="Fill-3" sketch:type="MSShapeGroup"></path>
            <path d="M29.4800189,73.6862825 C30.101425,73.6924103 30.7254468,73.7008362 31.3468529,73.7153898 C32.3310885,77.660584 33.5563384,81.5387547 34.4553782,85.5046304 C35.4171938,81.5333928 36.6596324,77.6345406 37.72869,73.6893464 C38.2705053,73.6950913 38.8149363,73.6981552 39.359741,73.7039001 C40.3499552,77.6429664 41.5497958,81.5303289 42.431647,85.4927577 C43.3732846,81.5418186 44.4569153,77.6261148 45.4639444,73.6924103 C46.0681619,73.6950913 46.6723794,73.6950913 47.2765969,73.6950913 C45.9971654,78.3499685 44.7121289,83.0017817 43.4162562,87.6501481 L41.4642264,87.6501481 C40.4773752,83.8941517 39.3145274,80.1814332 38.4379076,76.3963295 C37.5896864,80.1871781 36.4070343,83.9002795 35.4026208,87.653212 C34.7617841,87.6501481 34.1209473,87.6501481 33.4797369,87.6562759 C32.1408926,83.0017817 30.8102689,78.3442236 29.4800189,73.6862825" id="Fill-4" sketch:type="MSShapeGroup"></path>
            <path d="M111.234345,75.2243759 C111.237334,77.1144383 111.231729,79.0041178 111.237334,80.8964781 C112.66698,80.8620089 114.371269,81.082612 115.494882,79.9635112 C116.487338,78.8731347 116.487338,76.8586001 115.352889,75.8723973 C114.164632,74.994581 112.607567,75.2653559 111.234719,75.2243759 L111.234345,75.2243759 L111.234345,75.2243759 Z M109.532671,73.6950913 C111.637157,73.8314362 113.86981,73.3201427 115.869295,74.1803414 C118.543994,75.4277443 118.643389,79.7187797 116.331519,81.393601 C114.884686,82.5567458 112.964791,82.4372525 111.234345,82.4169539 L111.234345,87.6501481 L109.532671,87.6501481 L109.532671,73.6950913 L109.532671,73.6950913 Z" id="Fill-5" sketch:type="MSShapeGroup"></path>
            <path d="M53.9906228,79.213231 C54.8638796,77.8440369 56.5124929,77.0734582 58.0863729,77.5008766 C59.5900039,77.7540339 60.460645,79.3181707 60.5118372,80.7743039 C60.5682608,83.0653583 60.5088479,85.3567957 60.5342572,87.6470842 C59.9898262,87.6470842 59.4450216,87.6501481 58.9005906,87.6501481 C58.883402,85.5743348 58.9289892,83.4985216 58.8863913,81.4257722 C58.860982,80.3729289 58.3699852,79.1289729 57.2497354,78.9137318 C55.6612823,78.4690788 54.1124379,79.9428296 54.0444307,81.5364567 C53.9510143,83.5712899 54.0388257,85.612634 54.0048221,87.6501481 L52.3763868,87.6501481 C52.3737712,84.3303788 52.3763868,81.0125245 52.3763868,77.6927553 L54.0130428,77.6927553 C54.0074378,78.1986869 53.9988435,78.7072994 53.9906228,79.213231" id="Fill-6" sketch:type="MSShapeGroup"></path>
            <path d="M76.9094107,79.0562046 C74.8557438,79.8589545 74.5583059,82.6264502 75.196527,84.501576 C75.8201751,86.4291716 78.3730594,87.0630223 79.9334875,85.9496664 C81.1161396,85.0243592 81.3485596,83.3384312 81.1815311,81.9171502 C81.0851253,80.8673708 80.6195378,79.791931 79.7096617,79.2365935 C78.8610668,78.7655141 77.8118135,78.7333428 76.9094107,79.0562046 L76.9094107,79.0562046 Z M76.3765634,77.6839465 C77.9534328,77.2013773 79.8396974,77.2714648 81.1785417,78.3411597 C83.1245929,79.9750009 83.2774222,83.0423788 82.3641831,85.2809634 C80.9517266,88.6099245 75.6931287,88.8715076 73.9425048,85.7405531 C72.4418632,83.0481237 73.196668,78.6724472 76.3765634,77.6839465 L76.3765634,77.6839465 Z" id="Fill-7" sketch:type="MSShapeGroup"></path>
            <path d="M98.5921123,78.3177972 C99.8625758,77.1374178 101.786207,77.2423574 103.295069,77.837909 C103.29208,78.4081832 103.295069,78.9776913 103.30329,79.5506464 C102.313449,78.9807553 101.031402,78.5123568 99.9619709,79.1377817 C99.1395326,79.5939245 99.1821305,81.0040987 100.029978,81.4085376 C100.985815,82.0040892 102.123627,82.280609 102.968859,83.0622944 C104.17692,84.1733524 103.924696,86.4586619 102.52345,87.2897532 C101.074,88.2028046 99.2101555,88.051906 97.6983039,87.3770752 C97.6930726,86.7608421 97.6870939,86.144226 97.6758839,85.5279929 C98.7057067,86.2813369 100.052772,86.7930134 101.297826,86.3096783 C102.095229,86.0515421 102.327649,84.8795885 101.74884,84.2832709 C100.790388,83.4433708 99.4713478,83.210512 98.5155109,82.3644841 C97.3552787,81.3675575 97.4292646,79.2859994 98.5921123,78.3177972" id="Fill-8" sketch:type="MSShapeGroup"></path>
            <path d="M132.854271,79.1902516 C130.865996,80.326587 130.698593,83.344559 131.782224,85.1844496 C132.956655,87.0254891 136.153366,86.9408481 137.043811,84.8592899 C137.713046,83.1844686 137.685022,80.9546928 136.397369,79.5939245 C135.466568,78.6931288 133.971905,78.6640214 132.854271,79.1902516 L132.854271,79.1902516 Z M132.54226,77.7191817 C134.119503,77.2040583 136.013988,77.2684008 137.378616,78.3147333 C139.347087,79.9313399 139.514115,83.0132715 138.606855,85.2602819 C137.208598,88.6359679 131.895818,88.8715076 130.154162,85.7053179 C128.712934,83.033187 129.42514,78.7448326 132.54226,77.7191817 L132.54226,77.7191817 Z" id="Fill-9" sketch:type="MSShapeGroup"></path>
            <path d="M142.773602,79.1810598 C143.828834,77.3760214 146.415721,76.8264288 148.066577,78.0853214 C149.076222,78.9344133 149.280617,80.3614392 149.309015,81.6203318 C149.32882,83.6295046 149.3064,85.6386774 149.31761,87.6470842 C148.770189,87.6470842 148.225385,87.6501481 147.683569,87.6501481 C147.655544,85.5946334 147.737751,83.5368207 147.643961,81.480923 C147.595758,80.4372715 147.164548,79.1753149 146.047287,78.9282855 C144.416236,78.4426524 142.793406,79.9750009 142.799384,81.6322046 C142.770986,83.6352495 142.802,85.6417413 142.79079,87.6470842 C142.245986,87.6501481 141.701555,87.6501481 141.159739,87.6501481 L141.159739,77.6927553 L142.793406,77.6927553 C142.787801,78.1898781 142.784812,78.6870009 142.773602,79.1810598" id="Fill-10" sketch:type="MSShapeGroup"></path>
            <path d="M153.972364,79.5360928 C153.331153,80.0707487 153.098733,80.9083509 152.852114,81.6754826 C154.596385,81.7045899 156.338041,81.6877383 158.082313,81.6877383 C158.006085,80.9546928 157.920889,80.1580708 157.398878,79.5969884 C156.545426,78.5881891 154.882613,78.6318501 153.972364,79.5360928 L153.972364,79.5360928 Z M152.207914,79.213231 C153.569552,77.2013773 156.729643,76.7505965 158.482509,78.4633339 C159.676371,79.6494582 159.801175,81.4659863 159.744752,83.0714862 C157.435498,83.0745501 155.129606,83.0684222 152.823715,83.0714862 C152.931331,84.187523 153.237737,85.4494796 154.273165,86.0396693 C155.79361,86.9408481 157.705284,86.3912554 159.052723,85.4031377 C159.032545,85.9527303 159.021335,86.5050039 159.00452,87.0568944 C157.450071,87.9289658 155.538023,88.2231032 153.84457,87.6156789 C152.710121,87.2028142 151.879088,86.1763973 151.515885,85.0224442 C150.914657,83.1147642 151.064871,80.8823075 152.207914,79.213231 L152.207914,79.213231 Z" id="Fill-11" sketch:type="MSShapeGroup"></path>
            <path d="M48.4764376,77.6927553 C49.0182529,77.6927553 49.5596945,77.6927553 50.1044992,77.6900743 C50.1104778,81.0102266 50.1044992,84.3303788 50.1074885,87.6501481 L48.4794269,87.6501481 C48.4734482,84.3303788 48.4764376,81.0125245 48.4764376,77.6927553" id="Fill-12" sketch:type="MSShapeGroup"></path>
            <path d="M83.3940059,77.7015641 C83.9642198,77.6958192 84.539665,77.6927553 85.1132419,77.6900743 C85.8247015,80.4051002 86.6415348,83.0944657 87.2431366,85.8363009 C88.0091514,83.1117003 88.8711982,80.4169729 89.6540279,77.6985001 C90.159224,77.6927553 90.6640464,77.6900743 91.1714845,77.6870104 C91.8777127,80.4893583 92.8141191,83.2396194 93.3387458,86.0829474 C93.8637461,83.2457472 94.7829638,80.4954862 95.4686404,77.6927553 L97.1030544,77.6927553 C96.1158295,81.0071627 95.1596189,84.3334428 94.1727677,87.6470842 C93.6055431,87.6501481 93.0405605,87.6501481 92.4766989,87.6562759 C91.770097,85.0595944 90.9648473,82.4924032 90.3266263,79.8788701 C89.5976044,82.4812965 88.7523725,85.0515516 87.9923364,87.6470842 C87.4389375,87.6470842 86.8885278,87.6501481 86.3381182,87.653212 C85.356872,84.3365067 84.3782414,81.0155885 83.3940059,77.7015641" id="Fill-13" sketch:type="MSShapeGroup"></path>
            <path d="M0.0676678845,69.5592359 L10.9458254,69.5592359 C10.9451721,73.1852884 10.9458254,76.8113409 10.9451721,80.4373934 L0.0676678845,80.4373934 L0.0676678845,69.5592359 Z M12.0240044,69.5592359 L22.9021619,69.5592359 C22.9021619,73.1852884 22.9028153,76.8113409 22.9015086,80.4373934 C19.2761094,80.4367401 15.6500569,80.4373934 12.0246577,80.4373934 C12.023351,76.8113409 12.0240044,73.1852884 12.0240044,69.5592359 Z M0.0676678845,81.515409 C3.6937204,81.5167157 7.31977291,81.5147557 10.9458254,81.5167157 C10.9464788,85.1427682 10.9458254,88.7681674 10.9458254,92.3942199 L0.0676678845,92.3942199 L0.0676678845,81.515409 Z M12.0898287,81.5162257 C15.7152278,81.514919 19.3412803,81.5155724 22.9673329,81.5155724 L22.9673329,92.3937299 L12.0891753,92.3937299 C12.0898287,88.7676774 12.088522,85.1416249 12.0898287,81.5162257 Z" id="Fill-1-Copy" sketch:type="MSShapeGroup"></path>
        </g>
    </g>
</svg>