<?xml version="1.0" encoding="UTF-8" standalone="no"?>
<svg width="160px" height="160px" viewBox="0 0 160 160" version="1.1" xmlns="http://www.w3.org/2000/svg" xmlns:xlink="http://www.w3.org/1999/xlink" xmlns:sketch="http://www.bohemiancoding.com/sketch/ns">
    <!-- Generator: Sketch 3.0.3 (7891) - http://www.bohemiancoding.com/sketch -->
    <title>windowsphone</title>
    <desc>Created with Sketch.</desc>
    <defs></defs>
    <g id="Page-1" stroke="none" stroke-width="1" fill="none" fill-rule="evenodd" sketch:type="MSPage">
        <g id="windowsphone" sketch:type="MSArtboardGroup" fill="#FFFFFF">
            <g id="Group" sketch:type="MSLayerGroup" transform="translate(0.000000, 69.000000)">
                <path d="M65.8586202,10.082248 C64.761164,10.5475825 64.1793664,11.7543883 64.0515727,12.9083414 C63.8785655,14.2687267 64.0235478,15.8742266 65.0982105,16.833237 C66.1960404,17.8565899 68.0654901,17.6356039 68.9817185,16.4697782 C69.9259718,15.3070164 69.7955624,13.6727921 69.7047617,12.2626179 C69.554548,10.4460898 67.438479,9.29711567 65.8586202,10.082248 L65.8586202,10.082248 Z M69.7503489,3.89578828 C70.2925379,3.89578828 70.8369688,3.89578828 71.3813998,3.89846922 C71.3784105,8.81492953 71.3813998,13.7310068 71.3813998,18.6501481 L69.7503489,18.6501481 C69.7503489,18.1151091 69.7533382,17.5804532 69.7619325,17.0454142 C68.6043161,19.187868 65.4356306,19.5574547 63.7369462,17.9117407 C62.7101128,16.9377936 62.344294,15.455234 62.3073011,14.0653583 C62.2815182,12.4924127 62.6645255,10.8149105 63.7537612,9.64640381 C65.3168049,7.97426346 68.4425188,7.88157954 69.7645482,9.91679572 C69.7331603,7.91068689 69.7559539,5.90151412 69.7503489,3.89578828 L69.7503489,3.89578828 Z" id="Fill-1" sketch:type="MSShapeGroup"></path>
                <path d="M119.531219,3.89578828 L121.161896,3.89578828 C121.145081,6.00070889 121.199263,8.10831044 121.128266,10.213231 C122.149495,8.5851347 124.308162,7.91068689 126.015441,8.77394945 C127.223876,9.33235088 127.620709,10.8091656 127.669285,12.0565685 C127.714499,14.2545561 127.672275,16.4525436 127.6861,18.6501481 L126.055049,18.6501481 C126.043839,16.655912 126.072238,14.6616759 126.046455,12.6666738 C126.009836,11.6666833 125.734818,10.4575795 124.738998,10.0270972 C123.128126,9.29443473 121.332288,10.7333333 121.196274,12.4196444 C121.108462,14.4954576 121.190669,16.5743348 121.16227,18.6501481 L119.531219,18.6501481 C119.528603,13.7310068 119.531219,8.81492953 119.531219,3.89578828" id="Fill-2" sketch:type="MSShapeGroup"></path>
                <path d="M48.5870426,4.5966625 C49.1370786,4.09915671 50.1444814,4.36648469 50.3230936,5.11101992 C50.6661188,5.94823907 49.6108867,6.84673684 48.8564556,6.41050966 C48.1442487,6.14892655 48.0538216,5.08191258 48.5870426,4.5966625" id="Fill-3" sketch:type="MSShapeGroup"></path>
                <path d="M29.4800189,4.68628249 C30.101425,4.69241035 30.7254468,4.70083616 31.3468529,4.71538983 C32.3310885,8.660584 33.5563384,12.5387547 34.4553782,16.5046304 C35.4171938,12.5333928 36.6596324,8.63454059 37.72869,4.68934642 C38.2705053,4.69509129 38.8149363,4.69815522 39.359741,4.70390009 C40.3499552,8.6429664 41.5497958,12.5303289 42.431647,16.4927577 C43.3732846,12.5418186 44.4569153,8.62611478 45.4639444,4.69241035 C46.0681619,4.69509129 46.6723794,4.69509129 47.2765969,4.69509129 C45.9971654,9.34996848 44.7121289,14.0017817 43.4162562,18.6501481 L41.4642264,18.6501481 C40.4773752,14.8941517 39.3145274,11.1814332 38.4379076,7.39632947 C37.5896864,11.1871781 36.4070343,14.9002795 35.4026208,18.653212 C34.7617841,18.6501481 34.1209473,18.6501481 33.4797369,18.6562759 C32.1408926,14.0017817 30.8102689,9.34422361 29.4800189,4.68628249" id="Fill-4" sketch:type="MSShapeGroup"></path>
                <path d="M111.234345,6.22437585 C111.237334,8.1144383 111.231729,10.0041178 111.237334,11.8964781 C112.66698,11.8620089 114.371269,12.082612 115.494882,10.9635112 C116.487338,9.8731347 116.487338,7.85860006 115.352889,6.87239726 C114.164632,5.99458103 112.607567,6.26535593 111.234719,6.22437585 L111.234345,6.22437585 L111.234345,6.22437585 Z M109.532671,4.69509129 C111.637157,4.83143622 113.86981,4.32014273 115.869295,5.18034136 C118.543994,6.42774428 118.643389,10.7187797 116.331519,12.393601 C114.884686,13.5567458 112.964791,13.4372525 111.234345,13.4169539 L111.234345,18.6501481 L109.532671,18.6501481 L109.532671,4.69509129 L109.532671,4.69509129 Z" id="Fill-5" sketch:type="MSShapeGroup"></path>
                <path d="M53.9906228,10.213231 C54.8638796,8.84403687 56.5124929,8.07345822 58.0863729,8.5008766 C59.5900039,8.7540339 60.460645,10.3181707 60.5118372,11.7743039 C60.5682608,14.0653583 60.5088479,16.3567957 60.5342572,18.6470842 C59.9898262,18.6470842 59.4450216,18.6501481 58.9005906,18.6501481 C58.883402,16.5743348 58.9289892,14.4985216 58.8863913,12.4257722 C58.860982,11.3729289 58.3699852,10.1289729 57.2497354,9.91373179 C55.6612823,9.4690788 54.1124379,10.9428296 54.0444307,12.5364567 C53.9510143,14.5712899 54.0388257,16.612634 54.0048221,18.6501481 L52.3763868,18.6501481 C52.3737712,15.3303788 52.3763868,12.0125245 52.3763868,8.69275528 L54.0130428,8.69275528 C54.0074378,9.19868689 53.9988435,9.70729944 53.9906228,10.213231" id="Fill-6" sketch:type="MSShapeGroup"></path>
                <path d="M76.9094107,10.0562046 C74.8557438,10.8589545 74.5583059,13.6264502 75.196527,15.501576 C75.8201751,17.4291716 78.3730594,18.0630223 79.9334875,16.9496664 C81.1161396,16.0243592 81.3485596,14.3384312 81.1815311,12.9171502 C81.0851253,11.8673708 80.6195378,10.791931 79.7096617,10.2365935 C78.8610668,9.76551412 77.8118135,9.73334285 76.9094107,10.0562046 L76.9094107,10.0562046 Z M76.3765634,8.68394648 C77.9534328,8.20137734 79.8396974,8.27146476 81.1785417,9.34115968 C83.1245929,10.9750009 83.2774222,14.0423788 82.3641831,16.2809634 C80.9517266,19.6099245 75.6931287,19.8715076 73.9425048,16.7405531 C72.4418632,14.0481237 73.196668,9.67244722 76.3765634,8.68394648 L76.3765634,8.68394648 Z" id="Fill-7" sketch:type="MSShapeGroup"></path>
                <path d="M98.5921123,9.3177972 C99.8625758,8.13741778 101.786207,8.24235742 103.295069,8.83790901 C103.29208,9.40818317 103.295069,9.97769135 103.30329,10.5506464 C102.313449,9.98075528 101.031402,9.51235682 99.9619709,10.1377817 C99.1395326,10.5939245 99.1821305,12.0040987 100.029978,12.4085376 C100.985815,13.0040892 102.123627,13.280609 102.968859,14.0622944 C104.17692,15.1733524 103.924696,17.4586619 102.52345,18.2897532 C101.074,19.2028046 99.2101555,19.051906 97.6983039,18.3770752 C97.6930726,17.7608421 97.6870939,17.144226 97.6758839,16.5279929 C98.7057067,17.2813369 100.052772,17.7930134 101.297826,17.3096783 C102.095229,17.0515421 102.327649,15.8795885 101.74884,15.2832709 C100.790388,14.4433708 99.4713478,14.210512 98.5155109,13.3644841 C97.3552787,12.3675575 97.4292646,10.2859994 98.5921123,9.3177972" id="Fill-8" sketch:type="MSShapeGroup"></path>
                <path d="M132.854271,10.1902516 C130.865996,11.326587 130.698593,14.344559 131.782224,16.1844496 C132.956655,18.0254891 136.153366,17.9408481 137.043811,15.8592899 C137.713046,14.1844686 137.685022,11.9546928 136.397369,10.5939245 C135.466568,9.69312875 133.971905,9.66402141 132.854271,10.1902516 L132.854271,10.1902516 Z M132.54226,8.71918168 C134.119503,8.20405828 136.013988,8.26840083 137.378616,9.31473327 C139.347087,10.9313399 139.514115,14.0132715 138.606855,16.2602819 C137.208598,19.6359679 131.895818,19.8715076 130.154162,16.7053179 C128.712934,14.033187 129.42514,9.74483259 132.54226,8.71918168 L132.54226,8.71918168 Z" id="Fill-9" sketch:type="MSShapeGroup"></path>
                <path d="M142.773602,10.1810598 C143.828834,8.37602141 146.415721,7.82642878 148.066577,9.08532144 C149.076222,9.93441332 149.280617,11.3614392 149.309015,12.6203318 C149.32882,14.6295046 149.3064,16.6386774 149.31761,18.6470842 C148.770189,18.6470842 148.225385,18.6501481 147.683569,18.6501481 C147.655544,16.5946334 147.737751,14.5368207 147.643961,12.480923 C147.595758,11.4372715 147.164548,10.1753149 146.047287,9.92828546 C144.416236,9.44265239 142.793406,10.9750009 142.799384,12.6322046 C142.770986,14.6352495 142.802,16.6417413 142.79079,18.6470842 C142.245986,18.6501481 141.701555,18.6501481 141.159739,18.6501481 L141.159739,8.69275528 L142.793406,8.69275528 C142.787801,9.18987809 142.784812,9.68700089 142.773602,10.1810598" id="Fill-10" sketch:type="MSShapeGroup"></path>
                <path d="M153.972364,10.5360928 C153.331153,11.0707487 153.098733,11.9083509 152.852114,12.6754826 C154.596385,12.7045899 156.338041,12.6877383 158.082313,12.6877383 C158.006085,11.9546928 157.920889,11.1580708 157.398878,10.5969884 C156.545426,9.58818912 154.882613,9.63185013 153.972364,10.5360928 L153.972364,10.5360928 Z M152.207914,10.213231 C153.569552,8.20137734 156.729643,7.75059649 158.482509,9.46333393 C159.676371,10.6494582 159.801175,12.4659863 159.744752,14.0714862 C157.435498,14.0745501 155.129606,14.0684222 152.823715,14.0714862 C152.931331,15.187523 153.237737,16.4494796 154.273165,17.0396693 C155.79361,17.9408481 157.705284,17.3912554 159.052723,16.4031377 C159.032545,16.9527303 159.021335,17.5050039 159.00452,18.0568944 C157.450071,18.9289658 155.538023,19.2231032 153.84457,18.6156789 C152.710121,18.2028142 151.879088,17.1763973 151.515885,16.0224442 C150.914657,14.1147642 151.064871,11.8823075 152.207914,10.213231 L152.207914,10.213231 Z" id="Fill-11" sketch:type="MSShapeGroup"></path>
                <path d="M48.4764376,8.69275528 C49.0182529,8.69275528 49.5596945,8.69275528 50.1044992,8.69007434 C50.1104778,12.0102266 50.1044992,15.3303788 50.1074885,18.6501481 L48.4794269,18.6501481 C48.4734482,15.3303788 48.4764376,12.0125245 48.4764376,8.69275528" id="Fill-12" sketch:type="MSShapeGroup"></path>
                <path d="M83.3940059,8.70156408 C83.9642198,8.69581921 84.539665,8.69275528 85.1132419,8.69007434 C85.8247015,11.4051002 86.6415348,14.0944657 87.2431366,16.8363009 C88.0091514,14.1117003 88.8711982,11.4169729 89.6540279,8.69850015 C90.159224,8.69275528 90.6640464,8.69007434 91.1714845,8.68701041 C91.8777127,11.4893583 92.8141191,14.2396194 93.3387458,17.0829474 C93.8637461,14.2457472 94.7829638,11.4954862 95.4686404,8.69275528 L97.1030544,8.69275528 C96.1158295,12.0071627 95.1596189,15.3334428 94.1727677,18.6470842 C93.6055431,18.6501481 93.0405605,18.6501481 92.4766989,18.6562759 C91.770097,16.0595944 90.9648473,13.4924032 90.3266263,10.8788701 C89.5976044,13.4812965 88.7523725,16.0515516 87.9923364,18.6470842 C87.4389375,18.6470842 86.8885278,18.6501481 86.3381182,18.653212 C85.356872,15.3365067 84.3782414,12.0155885 83.3940059,8.70156408" id="Fill-13" sketch:type="MSShapeGroup"></path>
                <path d="M22.7375944,12.3418971 L22.7346051,23.3417924 L10.4507177,21.5643295 L10.4339027,12.3215986 L22.7375944,12.3418971 L22.7375944,12.3418971 Z M10.4507177,1.87206185 L22.7346051,0.0344692239 L22.7346051,11.0841534 L10.4507177,11.1837312 L10.4507177,1.87206185 L10.4507177,1.87206185 Z M9.32785214,12.256107 L9.33495179,21.4230056 L0.0751411992,20.118537 L0.0743938678,12.1944454 L9.32785214,12.256107 L9.32785214,12.256107 Z M0.0676678845,3.33432293 L9.33233613,2.04096105 L9.33644645,11.2001998 L0.0762621964,11.2545846 L0.0676678845,3.33432293 L0.0676678845,3.33432293 Z" id="Fill-14" sketch:type="MSShapeGroup"></path>
            </g>
        </g>
    </g>
</svg>