<?xml version="1.0" encoding="utf-8"?>
<!-- Generator: Adobe Illustrator 17.0.0, SVG Export Plug-In . SVG Version: 6.00 Build 0)  -->
<!DOCTYPE svg PUBLIC "-//W3C//DTD SVG 1.1//EN" "http://www.w3.org/Graphics/SVG/1.1/DTD/svg11.dtd">
<svg version="1.1" id="Calque_1" xmlns="http://www.w3.org/2000/svg" xmlns:xlink="http://www.w3.org/1999/xlink" x="0px" y="0px"
	 width="40px" height="40px" viewBox="0 0 40 40" enable-background="new 0 0 40 40" xml:space="preserve">
<g>
	<g>
		<path fill="#FFFFFF" d="M2.843,19.999c0,6.791,3.946,12.66,9.67,15.441L4.329,13.017C3.377,15.15,2.843,17.512,2.843,19.999z"/>
		<path fill="#FFFFFF" d="M31.582,19.134c0-2.121-0.762-3.589-1.415-4.732c-0.869-1.414-1.685-2.61-1.685-4.024
			c0-1.577,1.196-3.045,2.881-3.045c0.076,0,0.148,0.009,0.222,0.014C28.533,4.55,24.466,2.843,20,2.843
			c-5.994,0-11.267,3.076-14.335,7.733c0.403,0.013,0.782,0.021,1.104,0.021c1.794,0,4.573-0.218,4.573-0.218
			c0.924-0.054,1.034,1.305,0.11,1.414c0,0-0.93,0.109-1.963,0.163l6.247,18.584l3.755-11.26l-2.673-7.324
			c-0.924-0.054-1.8-0.163-1.8-0.163c-0.925-0.055-0.816-1.468,0.109-1.414c0,0,2.833,0.218,4.519,0.218
			c1.794,0,4.573-0.218,4.573-0.218c0.925-0.054,1.034,1.305,0.109,1.414c0,0-0.931,0.109-1.964,0.163l6.2,18.443l1.712-5.718
			C31.017,22.306,31.582,20.602,31.582,19.134z"/>
		<path fill="#FFFFFF" d="M20.301,21.5l-5.148,14.958c1.537,0.452,3.163,0.699,4.847,0.699c1.998,0,3.914-0.345,5.697-0.973
			c-0.046-0.074-0.088-0.152-0.123-0.236L20.301,21.5z"/>
		<path fill="#FFFFFF" d="M35.055,11.768c0.074,0.546,0.115,1.133,0.115,1.764c0,1.74-0.326,3.697-1.305,6.145l-5.24,15.151
			c5.101-2.974,8.531-8.5,8.531-14.83C37.156,17.016,36.394,14.212,35.055,11.768z"/>
		<path fill="#FFFFFF" d="M20,0C8.972,0,0,8.971,0,19.999c0,11.029,8.972,20,20,20c11.028,0,20-8.972,20-20C40,8.971,31.028,0,20,0z
			 M20,39.083c-10.522,0-19.083-8.561-19.083-19.083C0.917,9.477,9.478,0.917,20,0.917c10.522,0,19.083,8.56,19.083,19.082
			C39.083,30.522,30.522,39.083,20,39.083z"/>
	</g>
</g>
</svg>
