<?xml version="1.0" encoding="UTF-8" standalone="no"?>
<svg width="80px" height="80px" viewBox="0 0 80 80" version="1.1" xmlns="http://www.w3.org/2000/svg" xmlns:xlink="http://www.w3.org/1999/xlink" xmlns:sketch="http://www.bohemiancoding.com/sketch/ns">
    <!-- Generator: Sketch 3.0.3 (7891) - http://www.bohemiancoding.com/sketch -->
    <title>yandex</title>
    <desc>Created with Sketch.</desc>
    <defs>
        <path id="path-1" d="M0.0111627907,-0.0434823529 L79.9173953,-0.0434823529 L79.9173953,31.8117647 L0.0111627907,31.8117647 L0.0111627907,-0.0434823529 Z"></path>
    </defs>
    <g id="Page-1" stroke="none" stroke-width="1" fill="none" fill-rule="evenodd" sketch:type="MSPage">
        <g id="yandex" sketch:type="MSArtboardGroup">
            <g id="Group" sketch:type="MSLayerGroup" transform="translate(0.000000, 24.000000)">
                <path d="M35.1700465,12.0269176 C33.3412093,12.0269176 31.4344186,13.3775059 31.4344186,13.3775059 L31.4344186,12.5091765 C31.4344186,12.3190588 31.3592558,12.2428235 31.1711628,12.2428235 L28.8370233,12.2428235 C28.6487442,12.2428235 28.535814,12.3572706 28.535814,12.5091765 L28.535814,31.0198588 C28.535814,31.2107294 28.6113488,31.3251765 28.7994419,31.3251765 L31.1711628,31.3251765 C31.3214884,31.3251765 31.4344186,31.2107294 31.4344186,31.0198588 L31.4344186,15.1753412 C31.4344186,15.1753412 32.5352558,14.4696471 33.872186,14.4696471 C35.1451163,14.4696471 36.1501395,15.1087059 36.1501395,16.4197647 L36.1501395,31.0198588 C36.1501395,31.2107294 36.2628837,31.3251765 36.4511628,31.3251765 L38.7849302,31.3251765 C38.9732093,31.3251765 39.0483721,31.1727059 39.0483721,31.0198588 L39.0483721,15.5900235 C39.0483721,13.2660706 37.6362791,12.0269176 35.1700465,12.0269176" id="Fill-1" fill="#FFFFFF" sketch:type="MSShapeGroup"></path>
                <path d="M45.0135814,21.9087059 C45.0135814,18.0237176 46.1374884,14.1767529 48.4323721,14.1767529 C49.2094884,14.1767529 49.9562791,14.4355765 50.6913488,15.0264471 L50.6913488,28.7134118 C50.1164651,29.0296471 49.3931163,29.3216 48.6117209,29.3216 C46.1162791,29.3216 45.0135814,26.3269647 45.0135814,21.9087059 L45.0135814,21.9087059 Z M53.3266977,2.74183529 L50.9925581,2.74183529 C50.8044651,2.74183529 50.6913488,2.85609412 50.6913488,3.00856471 L50.6913488,12.3469176 C49.7953488,11.9990588 48.9795349,11.8153412 48.320186,11.8153412 C44.5293023,11.8153412 41.9268837,15.4817882 41.9268837,22.5323294 C41.9268837,28.5724235 44.4584186,31.8117647 47.7622326,31.8117647 C49.1549767,31.8117647 50.3043721,31.0044235 51.1460465,30.2471529 L51.6556279,31.1211294 C51.7415814,31.2720941 51.811907,31.3240471 51.9845581,31.3240471 L53.3266977,31.3251765 C53.4772093,31.3251765 53.5903256,31.2107294 53.5903256,31.0198588 L53.5903256,3.00856471 C53.5903256,2.81788235 53.5147907,2.74183529 53.3266977,2.74183529 L53.3266977,2.74183529 Z" id="Fill-2" fill="#FFFFFF" sketch:type="MSShapeGroup"></path>
                <path d="M62.0809302,20.0626824 C61.2212093,20.0626824 59.6565581,20.2776471 59.6565581,20.2776471 C59.6565581,20.2776471 59.6773953,19.6466824 59.752186,19.0413176 C60.0887442,15.8256941 60.8466977,14.1991529 62.1553488,14.1991529 C63.2933953,14.1991529 64.0725581,15.8633412 64.259907,18.7764706 C64.2969302,19.3818353 64.2969302,20.0626824 64.2969302,20.0626824 L62.0809302,20.0626824 L62.0809302,20.0626824 Z M62.267907,11.8535529 C58.3808372,11.8535529 56.4621395,16.9984 56.4621395,22.5972706 C56.4621395,28.4576 59.1985116,31.7423059 62.7166512,31.7423059 C64.2634419,31.7423059 65.8026047,31.1264 66.812093,30.5588706 C66.9666977,30.4719059 66.9946047,30.3491765 66.9575814,30.1978353 L66.6623256,28.9596235 C66.6254884,28.8082824 66.5503256,28.7328 66.3633488,28.7328 C66.2809302,28.7328 65.0059535,29.1102118 63.7652093,29.1102118 C60.8859535,29.1102118 59.5655814,26.5206588 59.5655814,23.0814118 L59.5655814,22.2452706 C59.5655814,22.2452706 60.9966512,22.4457412 61.8563721,22.4457412 L67.288186,22.4457412 L67.288186,20.8572235 C67.288186,14.9936941 65.2587907,11.8535529 62.267907,11.8535529 L62.267907,11.8535529 Z" id="Fill-3" fill="#FFFFFF" sketch:type="MSShapeGroup"></path>
                <mask id="mask-2" sketch:name="Clip 5" fill="white">
                    <use xlink:href="#path-1"></use>
                </mask>
                <g id="Clip-5"></g>
                <path d="M22.0245581,28.3258353 C21.356093,28.9792 20.5549767,29.3216 19.8342326,29.3216 C19.1136744,29.3216 18.5568372,28.9848471 18.1101395,28.3610353 C17.5666977,27.6020706 17.3131163,26.4335059 17.3131163,25.1386353 C17.3131163,23.0906353 18.0602791,20.9891765 19.6444651,20.9891765 C20.4282791,20.9891765 21.2894884,21.2474353 22.0245581,21.8388706 L22.0245581,28.3258353 L22.0245581,28.3258353 Z M24.1026977,14.2580706 C23.2396279,12.5374118 21.7019535,11.7854118 19.9410233,11.7854118 C18.8096744,11.7854118 17.044093,12.2230588 15.8647442,12.7593412 C15.6340465,12.8641882 15.488,12.9564235 15.488,13.1403294 C15.488,13.2495059 15.5417674,13.3748706 15.6009302,13.4832941 L16.3955349,15.2043294 C16.4775814,15.3985882 16.6085581,15.4430118 16.7168372,15.4430118 C16.8344186,15.4430118 16.9298605,15.3867294 17.0353488,15.3182118 C18.1856744,14.5744941 19.0282791,14.1656471 19.6952558,14.1656471 C20.5774884,14.1656471 21.1769302,14.7580235 21.5464186,15.6485647 C21.8904186,16.4784941 22.023814,17.6252235 22.023814,18.9502118 C22.023814,19.1192471 22.0245581,19.3396706 22.0245581,19.3396706 C21.2997209,18.8807529 20.044093,18.6277647 19.4173023,18.6277647 C16.0448372,18.6277647 14.2260465,21.8695529 14.2260465,25.3364706 C14.2260465,29.0718118 16.3516279,31.8117647 18.9060465,31.8117647 C20.3287442,31.8117647 21.6165581,30.9669647 22.4790698,29.9019294 C22.4790698,29.9019294 22.9380465,31.0095059 22.9981395,31.1424 C23.0586047,31.2751059 23.1222326,31.3240471 23.2948837,31.3240471 L24.659907,31.3251765 C24.8100465,31.3251765 24.9231628,31.2107294 24.9231628,31.0198588 L24.9231628,20.2819765 C24.9231628,17.6436706 24.7914419,15.6306824 24.1026977,14.2580706 L24.1026977,14.2580706 Z" id="Fill-4" fill="#FFFFFF" sketch:type="MSShapeGroup" mask="url(#mask-2)"></path>
                <path d="M79.6152558,12.2403765 L77.5348837,12.2403765 C77.3023256,12.2403765 77.184,12.3634824 77.124093,12.5231059 C76.992186,12.8730353 76.1129302,15.216 75.752186,16.1867294 C75.4952558,16.88 74.8029767,18.8658824 74.8029767,18.8658824 L74.7224186,18.8653176 C74.72,18.8581647 74.2128372,17.4209882 73.9384186,16.7009882 C73.7162791,16.1174588 72.5573953,13.0285176 72.4107907,12.6477176 C72.3324651,12.4431059 72.2448372,12.2403765 71.9467907,12.2403765 L69.6690233,12.2403765 C69.4186047,12.2403765 69.2770233,12.5180235 69.3577674,12.6904471 C69.4388837,12.8634353 73.068093,21.2269176 73.068093,21.2269176 C73.068093,21.2269176 69.1706047,30.592 69.0567442,30.8020706 C68.9428837,31.0125176 69.0859535,31.3238588 69.3635349,31.3238588 L71.3596279,31.3238588 C71.6993488,31.3238588 71.8333023,31.1437176 71.9352558,30.8536471 C72.2221395,30.0402824 72.6493023,28.9095529 73.2543256,27.1617882 C73.6548837,26.0035765 74.2885581,23.9708235 74.2885581,23.9708235 L74.3583256,23.9708235 C74.3583256,23.9708235 75.0526512,26.0425412 75.3106977,26.72 C75.9627907,28.4327529 76.7972093,30.6703059 76.8855814,30.9065412 C76.9776744,31.1536941 77.1067907,31.3238588 77.3402791,31.3238588 L79.603907,31.3238588 C79.827907,31.3238588 79.9313488,31.0652235 79.8260465,30.8399059 C79.5739535,30.3030588 77.4243721,25.0181647 75.9317209,21.5437176 C75.9317209,21.5437176 79.8059535,12.8939294 79.8813023,12.6800941 C79.9568372,12.4660706 79.9345116,12.2403765 79.6152558,12.2403765" id="Fill-6" fill="#FFFFFF" sketch:type="MSShapeGroup" mask="url(#mask-2)"></path>
                <path d="M16.583814,-0.0434823529 L13.9596279,-0.0434823529 C13.7272558,-0.0434823529 13.5821395,0.0719058824 13.5486512,0.239247059 C13.5153488,0.407341176 9.61339535,12.4444235 9.32986047,13.4471529 C9.12874419,14.1579294 8.47311628,16.6639059 8.31590698,17.2656941 L6.95888372,13.5171765 C6.62902326,12.4854588 3.46865116,3.55218824 3.376,3.19548235 C3.32502326,2.99934118 3.23590698,2.75538824 2.896,2.75538824 L0.334139535,2.75538824 C0.0837209302,2.75538824 -0.0580465116,3.03341176 0.0228837209,3.20583529 C0.087255814,3.34381176 4.7147907,15.7995294 6.58418605,20.5577412 L6.58418605,31.0198588 C6.58418605,31.2107294 6.65972093,31.3251765 6.84781395,31.3251765 L9.27423256,31.3251765 C9.42455814,31.3251765 9.53748837,31.2107294 9.53748837,31.0198588 L9.53748837,20.6403765 C11.095814,16.2366118 16.7882791,0.572047059 16.8502326,0.396611765 C16.9255814,0.182211765 16.9034419,-0.0434823529 16.583814,-0.0434823529" id="Fill-7" fill="#FFFFFF" sketch:type="MSShapeGroup" mask="url(#mask-2)"></path>
            </g>
        </g>
    </g>
</svg>