<?xml version="1.0" encoding="UTF-8" standalone="no"?>
<svg width="100px" height="100px" viewBox="0 0 100 100" version="1.1" xmlns="http://www.w3.org/2000/svg" xmlns:xlink="http://www.w3.org/1999/xlink" xmlns:sketch="http://www.bohemiancoding.com/sketch/ns">
    <!-- Generator: Sketch 3.0.3 (7891) - http://www.bohemiancoding.com/sketch -->
    <title>yelp</title>
    <desc>Created with Sketch.</desc>
    <defs></defs>
    <g id="Page-1" stroke="none" stroke-width="1" fill="none" fill-rule="evenodd" sketch:type="MSPage">
        <g id="yelp" sketch:type="MSArtboardGroup" fill="#FFFFFF">
            <path d="M96.824756,57.1417134 C96.6096858,58.6272998 93.5931345,62.490525 92.2094464,63.0462184 C91.7319766,63.2382234 91.2726033,63.191974 90.9113688,62.9060687 C90.676114,62.7217719 90.4283308,62.3468716 87.1779167,57.0316959 L86.2118407,55.4487056 C85.841558,54.8810995 85.91116,54.1319996 86.3747094,53.562992 C86.8222504,53.0087001 87.4869496,52.7991763 88.0660384,53.0248173 C88.0959673,53.0416352 90.4993249,53.8390868 90.4993249,53.8390868 C95.9707393,55.6498203 96.1489205,55.7170922 96.3827832,55.89298 C96.7363615,56.1781845 96.8950541,56.6224589 96.824756,57.1417134 L96.824756,57.1417134 Z M85.8610465,49.0578813 C85.4747553,48.4622453 85.4789315,47.7643 85.875663,47.2793822 C85.8937595,47.260462 87.3999471,45.1953568 87.3999471,45.1953568 C90.7290115,40.6110616 90.9071927,40.3721064 91.1473196,40.2137373 C91.5336108,39.9516574 92.0013364,39.936241 92.4676699,40.1632834 C93.7887161,40.8114756 96.4642176,44.813449 96.6249983,46.3487885 C96.6270863,46.3684094 96.6249983,46.3852274 96.6249983,46.4034468 C96.6556231,46.9248035 96.4670017,47.3501577 96.0918468,47.6066316 C95.8454557,47.7678037 95.6067208,47.8490905 89.3843006,49.3662105 C88.3869037,49.6051657 87.8363517,49.7404101 87.5287108,49.8553328 C87.5370631,49.8469239 87.5628158,49.8034775 87.5628158,49.8034775 C86.9412698,49.9779638 86.2619541,49.6759413 85.8610465,49.0578813 L85.8610465,49.0578813 Z M82.0419839,46.6844469 C81.7461754,46.7783472 80.8392611,47.0593472 79.7256289,45.2437084 C79.7256289,45.2437084 72.2058271,33.3316885 72.029038,32.9658979 C71.9211548,32.5517557 72.0547907,32.0836558 72.4160252,31.7052517 C73.5407937,30.5371044 79.6100895,28.8230741 81.1977115,29.2210991 C81.7190306,29.3514383 82.0746969,29.6814907 82.2013726,30.1460868 C82.2897671,30.6597353 83.0303326,41.7119371 83.1382157,44.1932868 C83.2398346,46.3116488 82.3384885,46.5926489 82.0419839,46.6844469 L82.0419839,46.6844469 Z M83.0331166,58.7989831 C83.0171082,64.5927698 83.0059719,64.7826726 82.9106171,65.0622712 C82.7505325,65.4932314 82.3823378,65.7805382 81.872155,65.8737377 C80.4098167,66.1260071 75.8230438,64.425291 74.8674082,63.2823706 C74.6725225,63.0462184 74.5583752,62.7897445 74.5340145,62.5297669 C74.5138299,62.3482731 74.5381906,62.1695823 74.6008324,61.9985997 C74.7003633,61.7098914 74.8715843,61.4842505 78.9968958,56.6091447 C78.9996798,56.6091447 80.2003146,55.1740123 80.2003146,55.1740123 C80.6109665,54.6575608 81.3431797,54.4942864 82.0231914,54.7577678 C82.6851066,55.0149424 83.0874062,55.586753 83.0484291,56.2132219 C83.047037,56.2398504 83.0331166,58.7989831 83.0331166,58.7989831 L83.0331166,58.7989831 Z M70.5576513,55.0934262 C70.1052382,55.077309 69.7043306,54.8061194 69.4676838,54.3527353 C69.2964628,54.0240843 69.1781394,53.4753984 69.1043613,52.8138921 C68.8997313,50.815358 69.1509946,47.8049434 69.7426117,46.8477212 C70.0210198,46.4062498 70.4288876,46.1750029 70.8799087,46.1932223 C71.1778053,46.1967261 71.4415969,46.2934293 77.3278394,48.7390408 C77.3320155,48.7390408 79.0490973,49.4425921 79.0490973,49.4425921 C79.6671632,49.6759413 80.0492782,50.3255349 80.0096051,51.0627221 C79.9678439,51.7802883 79.558584,52.3415877 78.9523505,52.4978546 C78.9412141,52.5034606 76.5065356,53.2854956 76.5065356,53.2854956 C71.029553,55.0569873 70.8485878,55.1074412 70.5576513,55.0934262 L70.5576513,55.0934262 Z M68.6888372,65.5317725 C67.7164971,65.5317725 66.9077216,64.7616502 66.9077216,63.7385577 C66.9077216,62.7182682 67.7164971,61.9488466 68.6888372,61.9488466 C69.6542172,61.9488466 70.4692568,62.7182682 70.4692568,63.7385577 C70.4692568,64.7616502 69.6542172,65.5317725 68.6888372,65.5317725 L68.6888372,65.5317725 Z M65.0945891,58.7702524 C64.8405418,62.2662856 63.7352618,64.3489094 61.5045172,65.5198598 C59.7331459,66.4420445 57.5309381,66.5331418 55.8827624,65.7490045 C55.8827624,65.7490045 55.6899648,65.6544035 55.6857887,65.6544035 C55.6857887,65.6544035 55.4741985,65.530371 55.4700224,65.5282688 L55.2890572,65.4049371 C55.2208472,65.3369645 55.0677228,65.2332538 55.0677228,65.2332538 L54.453137,64.820513 L54.247811,65.4736104 L54.2283225,65.5506927 L54.2150981,65.7132663 L54.247811,66.2640545 L54.247811,69.6823046 L54.1280955,70.5281077 C53.9881955,71.0109233 53.6116486,71.4117513 53.1000738,71.6359908 C52.5035845,71.8959684 51.7992121,71.8707414 51.1783621,71.5561055 C50.4426688,71.2022276 50.1057951,70.5281077 50.1057951,69.4461524 L50.1057951,49.6927592 C50.1057951,48.4321131 50.4043877,48.0081604 50.9305789,47.7089409 C52.0045381,47.0915816 53.1940365,47.4069184 53.6332252,48.0943524 C53.6471456,48.1146741 53.7487646,48.2520208 53.7487646,48.2520208 L53.7612929,48.2842552 L53.7947019,48.3900682 L53.8956248,48.5596493 L54.0125562,49.0319536 L54.4322564,48.8441531 L54.5686763,48.7733775 C54.6334062,48.7348363 54.8053232,48.5932852 54.8053232,48.5932852 C56.3303033,47.552674 57.9165333,47.235235 59.770731,47.6150406 C64.0324624,48.448931 65.6270446,51.7872958 65.0945891,58.7702524 L65.0945891,58.7702524 Z M44.8933001,64.1926426 C44.8933001,65.1043161 44.4610716,65.8372988 43.7309464,66.1547377 C43.1469855,66.4315333 42.4913345,66.4357378 41.9247741,66.1729572 C41.4131993,65.9375058 41.0450047,65.5114508 40.9023205,65.0083136 C40.8911842,64.9767799 40.7826051,64.2571114 40.7826051,64.2571114 L40.7826051,44.1302194 C40.7826051,43.0952142 41.0450047,42.5206006 41.6755989,42.1449996 C42.332642,41.751179 43.0815596,41.6776005 43.7462589,41.94879 C44.2654899,42.1625183 44.647605,42.5675508 44.7645364,43.0335484 C44.7645364,43.0517678 44.8933001,44.0286109 44.8933001,44.0286109 L44.8933001,64.1926426 L44.8933001,64.1926426 Z M35.9188162,58.1374767 C35.6919136,58.3848409 35.2986622,58.4829456 34.5281679,58.4829456 L26.1432131,58.4829456 L26.0450743,58.5495167 C25.6838398,58.7905741 25.7353453,59.3728959 25.8467085,59.9664297 C25.8369642,59.8928511 26.000529,60.5494523 26.000529,60.5494523 C26.3701157,61.5417118 27.1844593,62.2662856 28.2270975,62.5339714 C29.5989532,62.882944 31.1427259,62.4113404 32.4756045,61.2417916 C33.4027033,60.4100034 33.8182274,60.3090956 34.3158818,60.4100034 C35.1789468,60.5284298 35.7705639,61.2992529 35.7705639,62.2824028 C35.7705639,63.6131237 34.0534822,65.7244783 30.2378997,66.2640545 C27.5582221,66.6284436 25.3587984,66.039815 23.8700113,64.5605354 C21.8988822,62.6033455 21.1471804,59.141649 21.6921642,54.5496455 C22.1383131,50.709545 24.0767293,48.3872652 27.3069588,47.8238636 C29.8829294,47.3592675 32.0579924,47.7341678 33.5955009,48.9072204 C35.0404388,50.0059937 35.9216003,51.7999093 36.1429347,54.0962614 C36.3426925,56.1515561 36.3781895,57.6203245 35.9188162,58.1374767 L35.9188162,58.1374767 Z M18.9491488,50.7403779 L13.9273633,66.6375533 C12.916046,69.8644991 11.8678397,70.624811 10.1765107,70.9618709 C8.37312249,71.331866 6.88851149,71.125846 6.10409677,70.3949656 C5.67047622,69.9899331 5.47698261,69.4608681 5.55076075,68.8596261 C5.65516377,67.9248279 6.31359884,67.3193814 7.36041316,67.1897429 C7.43906344,67.1897429 8.46012501,67.2128676 8.46012501,67.2128676 C8.94664309,67.2331893 9.36495121,67.0818277 9.66563192,66.8008276 C9.97188079,66.5086156 10.1431017,66.0762539 10.1563261,65.5591017 C10.1563261,65.5464882 10.0964684,65.1827999 10.0964684,65.1827999 C10.0964684,65.1057176 9.91967927,64.6299095 9.91967927,64.6299095 C9.90506285,64.5927698 3.37152164,51.2063755 3.37152164,51.2063755 C2.84393836,49.6675323 3.28451912,48.4734572 4.60486936,47.9689185 C5.61897073,47.5652875 6.60940741,48.0516068 6.94976127,48.7348363 C6.95254535,48.7369386 12.3230369,58.9517462 12.3230369,58.9517462 L14.9602572,49.9352181 C15.6632376,47.5113299 16.7838301,47.4861029 17.679608,47.7341678 C18.2475604,47.8869309 18.6498601,48.1826467 18.8948592,48.6199136 C19.1899717,49.1636943 19.2101563,49.8952755 18.9491488,50.7403779 L18.9491488,50.7403779 Z M98.3580885,53.4095281 C97.7163579,52.9190043 97.6119548,52.8454257 93.7601793,51.5707646 C97.0962039,50.7452831 97.2402801,50.6555874 97.8305052,50.2666721 C99.1682559,49.3521956 99.8830686,47.83928 99.7786656,46.1988283 L99.7661372,46.0194368 C99.4946894,43.3867255 96.1231677,38.4170187 93.8569261,37.3021282 C92.3618748,36.581759 90.6962986,36.684769 89.3870846,37.5705148 C88.7697148,37.9832555 88.6868884,38.0386147 86.154767,41.5199321 C85.9083759,37.4506868 85.4322981,30.2771267 85.3160628,29.6044084 L85.289614,29.4537475 L85.2506369,29.3037874 C84.8198004,27.7278045 83.5920208,26.5442407 81.9633337,26.1343029 C79.2530312,25.4524749 72.0735833,27.4888494 70.1476955,29.4880842 C69.0152707,30.6751518 68.5823461,32.2735586 68.9728135,33.7752621 L69.0514637,34.0723794 L69.1850996,34.3498757 C69.3667609,34.7324843 69.853975,35.5418485 74.0217437,42.1246779 L75.5550761,44.5590774 C71.8264961,43.0209349 71.6796358,43.0174312 70.9056614,43.0118252 C69.4349708,42.9466556 67.9628882,43.7392019 67.0775506,45.1385962 L67.058758,45.1638231 C66.6007768,45.9066163 66.3181926,46.9156938 66.1427955,47.973123 C64.9407687,46.341781 63.1325083,45.0362869 60.3881008,44.4925063 C58.4455086,44.0993865 56.6212398,44.3362394 54.904158,45.0362869 C53.3283684,44.0258079 51.1672258,43.9080822 49.3589654,44.9479927 C48.8021493,45.2675339 48.3845372,45.6473394 48.0539276,46.0544742 L48.0539276,43.8197879 L47.8827067,42.4925707 L47.8284171,42.2536155 C47.4671826,40.8135778 46.3876554,39.5998818 44.9413255,39.0021435 L44.9260131,38.9951361 C43.3411752,38.3511484 41.5628437,38.505313 40.0524799,39.4141835 C38.4432813,40.3721064 37.6205855,41.960002 37.6205855,44.1302194 L37.6205855,48.6836817 C37.0470649,47.7874247 36.3399084,47.0095941 35.4998121,46.3684094 C33.2433147,44.6452694 30.215627,44.0636483 26.7494467,44.6901173 C24.7386444,45.0411922 23.0598438,45.9262372 21.7262692,47.2191178 C21.7060846,47.1777737 21.684508,47.1280205 21.6622353,47.0859756 C20.9884878,45.8666736 19.890168,45.0292795 18.4828153,44.6571821 C16.1379234,44.00899 13.1582611,44.813449 11.9263054,49.0354574 C11.9263054,49.0354574 11.7265476,49.7214899 11.4544037,50.6555874 C10.9163801,49.6605248 9.52155574,46.9451252 9.46448209,46.8617362 C8.20398959,44.9430874 5.68787672,44.112 3.43555549,45.0124615 C1.2604925,45.837943 0,47.7643 0,50.0312207 C0,50.7452831 0.123891588,51.4880763 0.383507106,52.2427822 L0.448933001,52.429882 C0.448933001,52.429882 4.91738241,61.5949687 6.21128388,64.2480017 C4.13157565,64.8001913 2.65114078,66.3635607 2.41170984,68.503646 C2.38456506,68.709666 2.37342873,68.9121822 2.37342873,69.1146985 C2.37342873,70.4762524 2.93233292,71.7775419 3.96313877,72.7326618 C5.52640004,74.185313 7.95690243,74.6660263 10.809193,74.0780985 C13.9071788,73.464243 15.6917744,71.5827339 16.9397386,67.5954762 L18.8419617,61.5816545 C19.4614196,64.1141588 20.5861882,65.7693262 21.6545791,66.8260546 C23.1920876,68.3578903 26.0033131,70.0487959 30.6603839,69.4153195 C34.1189081,68.9297009 36.5153055,67.3691345 37.8071189,65.5380793 L37.8913373,65.9788499 C38.2623161,67.2864462 39.262497,68.4475861 40.6086,69.0677483 C42.0159528,69.7222472 43.645336,69.711736 45.0742654,69.0376161 C45.820399,68.7103667 46.4516892,68.1939152 46.9451675,67.5506283 L46.9451675,69.4461524 C46.9451675,72.5798987 48.7450757,73.9127219 49.8190348,74.4291734 C51.2187313,75.1376299 52.8961399,75.1943905 54.3577822,74.5560088 C55.7352061,73.9554675 56.7583557,72.8111456 57.1620474,71.4194595 L57.2232972,71.2078336 L57.4098306,69.91215 L57.4098306,69.3585589 C59.2814288,69.5484616 61.2351574,69.2436361 62.9564152,68.3445761 C63.7157732,67.9472518 64.3832565,67.4693415 64.9762657,66.9192541 L66.2388463,66.9192541 C66.9292983,67.2829425 67.7102329,67.5099849 68.5503292,67.5099849 C69.3932096,67.5099849 70.1734482,67.2829425 70.8625082,66.9192541 L74.5263583,66.9192541 C76.9540766,68.294823 80.5030834,69.3368357 82.4039144,69.0095862 C84.0402578,68.7159727 85.3265031,67.6564413 85.8742709,66.1694535 L85.8986316,66.0951741 C86.1311024,65.418952 86.1679914,65.2935181 86.1860879,61.4730385 C88.2671882,64.8576527 88.3757674,64.9473485 88.9604243,65.4119446 C90.2139566,66.3971966 91.8656124,66.6137279 93.3892006,65.9970694 C95.8377995,65.0069121 99.5761237,60.2229036 99.9526706,57.5957983 C99.9853836,57.3638506 100,57.1326037 100,56.906262 C100,55.5306931 99.4104709,54.2574335 98.3580885,53.4095281 L98.3580885,53.4095281 Z M69.2052842,63.2725601 C69.2052842,62.9838518 68.956805,62.9495151 68.7403427,62.9495151 L68.3255147,62.9495151 L68.3255147,63.6243357 L68.6505561,63.6243357 C68.9303562,63.6243357 69.2052842,63.60962 69.2052842,63.2725601 L69.2052842,63.2725601 Z M61.4592759,51.6506499 C60.808497,51.1222857 59.9398639,50.9912458 58.8018709,51.2582309 C57.1091499,51.6135103 56.4444506,52.8867699 56.2662695,56.1200224 C56.2662695,56.1501546 56.2335565,56.9609204 56.2335565,56.9609204 C56.2335565,56.9609204 56.2662695,58.0477809 56.2704456,58.0547884 C56.3574481,59.9201803 56.7994209,62.395924 59.5667971,62.395924 C62.2367304,62.395924 62.8025948,60.2123924 62.8311316,56.9279852 C62.8701087,54.1249921 62.4392722,52.4445977 61.4592759,51.6506499 L61.4592759,51.6506499 Z M69.2296449,64.7868771 L68.6644765,63.8843133 L68.3255147,63.8843133 L68.3255147,64.7868771 L68.0088255,64.7868771 L68.0088255,62.6895375 L68.7946323,62.6895375 C69.2853265,62.6895375 69.5205813,62.8864478 69.5205813,63.286575 C69.5205813,63.6691836 69.2825424,63.826852 68.9700294,63.8611886 L69.5693027,64.7868771 L69.2296449,64.7868771 L69.2296449,64.7868771 Z M68.6888372,62.206722 C67.8689255,62.206722 67.2230188,62.8717321 67.2230188,63.7385577 C67.2230188,64.6074855 67.8689255,65.2724957 68.6888372,65.2724957 C69.5017888,65.2724957 70.1539597,64.6074855 70.1539597,63.7385577 C70.1539597,62.8717321 69.5017888,62.206722 68.6888372,62.206722 L68.6888372,62.206722 Z M27.4426827,51.4032858 C26.6554839,51.5889841 25.9622479,52.0087323 25.4513691,52.6576252 C25.3587984,52.8005778 25.2634436,52.9442312 25.1764411,53.0829794 C24.895249,53.5475755 24.7998942,53.8790294 24.7114996,54.2490245 C24.5702076,54.9504736 24.6613862,55.1845235 24.8500077,55.3225709 L31.8470983,55.3225709 C31.941061,55.3225709 32.0280635,55.1382741 31.8951237,54.2034759 C31.6160196,52.0563832 29.903114,50.7992408 27.4426827,51.4032858 L27.4426827,51.4032858 Z M93.3919846,65.9970694 L93.3892006,65.9970694 C93.3850244,65.9970694 93.3836324,66.0005731 93.3794563,66.0005731 L93.3919846,65.9970694 L93.3919846,65.9970694 Z M60.3755725,44.4911048 C60.3811406,44.4925063 60.3839247,44.4925063 60.3881008,44.4925063 C60.395061,44.4946085 60.3978451,44.4946085 60.4034133,44.4946085 L60.3755725,44.4911048 L60.3755725,44.4911048 Z" id="Fill-3" sketch:type="MSShapeGroup"></path>
        </g>
    </g>
</svg>