<?xml version="1.0" encoding="utf-8"?>
<!-- Generator: Adobe Illustrator 17.0.0, SVG Export Plug-In . SVG Version: 6.00 Build 0)  -->
<!DOCTYPE svg PUBLIC "-//W3C//DTD SVG 1.1//EN" "http://www.w3.org/Graphics/SVG/1.1/DTD/svg11.dtd">
<svg version="1.1" id="Calque_1" xmlns="http://www.w3.org/2000/svg" xmlns:xlink="http://www.w3.org/1999/xlink" x="0px" y="0px"
	 width="98px" height="40px" viewBox="-0.373 0 98 40" enable-background="new -0.373 0 98 40" xml:space="preserve">
<path fill="#FFFFFF" d="M89.509,18.818v1.772h-3.467v-1.772c0-1.77,0.58-2.655,1.738-2.655
	C88.93,16.164,89.509,17.048,89.509,18.818z M74.911,16.164c-0.571,0-1.149,0.271-1.729,0.843v11.666
	c0.58,0.58,1.158,0.854,1.729,0.854c1,0,1.509-0.854,1.509-2.583v-8.168C76.42,17.048,75.911,16.164,74.911,16.164z M97.254,20
	c0,4.475-0.006,9.219-1.005,13.566c-0.702,3.052-3.199,5.303-6.203,5.639C82.93,40,75.727,40.003,68.556,40
	c-7.171,0.004-14.375,0-21.491-0.795c-3.005-0.336-5.5-2.587-6.202-5.639c-0.999-4.347-0.999-9.091-0.999-13.566
	s0.012-9.219,1.011-13.566c0.702-3.052,3.197-5.303,6.202-5.639C54.193,0,61.396-0.003,68.568,0c7.171-0.004,14.374,0,21.49,0.795
	c3.005,0.336,5.501,2.587,6.203,5.639C97.259,10.781,97.254,15.525,97.254,20z M56.233,6.728h-12.09v3.615h4.079v22.072h3.857
	V10.343h4.154C56.233,10.343,56.233,6.728,56.233,6.728z M66.712,13.275h-3.47v14.629c-0.77,1.086-1.496,1.622-2.193,1.622
	c-0.463,0-0.726-0.274-0.811-0.811c-0.032-0.113-0.032-0.536-0.032-1.349V13.275h-3.467V28.41c0,1.351,0.116,2.267,0.306,2.846
	c0.347,0.969,1.117,1.423,2.236,1.423c1.274,0,2.583-0.77,3.962-2.351v2.088h3.47L66.712,13.275L66.712,13.275z M79.888,19.05
	c0-1.813-0.118-3.078-0.35-3.848c-0.463-1.433-1.391-2.16-2.772-2.16c-1.275,0-2.465,0.697-3.584,2.075V6.728h-3.467v25.687h3.467
	V30.56c1.158,1.434,2.351,2.119,3.584,2.119c1.381,0,2.309-0.728,2.772-2.151c0.231-0.811,0.35-2.087,0.35-3.857V19.05z
	 M92.977,19.514c0-2.045-0.347-3.542-1.072-4.51c-0.972-1.31-2.353-1.962-4.092-1.962c-1.77,0-3.151,0.652-4.154,1.962
	c-0.737,0.968-1.072,2.465-1.072,4.51v6.703c0,2.034,0.378,3.543,1.115,4.501c1.003,1.307,2.384,1.961,4.198,1.961
	c1.811,0,3.235-0.685,4.194-2.075c0.422-0.613,0.694-1.309,0.811-2.078c0.031-0.347,0.073-1.117,0.073-2.234v-0.507H89.44
	c0,1.391-0.045,2.161-0.077,2.35c-0.198,0.927-0.696,1.391-1.549,1.391c-1.191,0-1.77-0.884-1.77-2.656v-3.393h6.935v-3.963H92.977z
	 M8.755,21.9v10.513H4.867V21.9c-0.352-1.862-1.129-4.591-2.376-8.211C1.673,11.281,0.819,8.864,0,6.457h4.09L6.849,16.65
	L9.501,6.457h3.929L8.755,21.9z M22.729,30.699c-0.969,1.319-2.334,1.98-4.09,1.98c-1.746,0-3.11-0.661-4.079-1.98
	c-0.746-0.968-1.098-2.493-1.098-4.549v-6.774c0-2.067,0.352-3.579,1.098-4.556c0.969-1.323,2.333-1.982,4.079-1.982
	c1.756,0,3.12,0.66,4.09,1.982c0.735,0.977,1.088,2.489,1.088,4.556v6.774C23.817,28.206,23.464,29.731,22.729,30.699z
	 M20.312,18.673c0-1.79-0.543-2.682-1.673-2.682s-1.673,0.892-1.673,2.682v8.137c0,1.79,0.543,2.684,1.673,2.684
	s1.673-0.895,1.673-2.684V18.673z M33.273,32.413v-2.11c-1.395,1.599-2.726,2.376-4.003,2.376c-1.129,0-1.907-0.458-2.256-1.437
	c-0.194-0.586-0.311-1.511-0.311-2.876V13.07h3.493v14.241c0,0.821,0,1.248,0.042,1.363c0.077,0.543,0.352,0.82,0.823,0.82
	c0.701,0,1.436-0.543,2.213-1.64V13.07h3.506v19.343C36.78,32.413,33.273,32.413,33.273,32.413z"/>
</svg>
