<?xml version="1.0" encoding="UTF-8" standalone="no"?>
<svg width="18px" height="10px" viewBox="0 0 18 10" version="1.1" xmlns="http://www.w3.org/2000/svg" xmlns:xlink="http://www.w3.org/1999/xlink" xmlns:sketch="http://www.bohemiancoding.com/sketch/ns">
    <!-- Generator: Sketch 3.3.2 (12043) - http://www.bohemiancoding.com/sketch -->
    <title>icon-views</title>
    <desc>Created with Sketch.</desc>
    <defs></defs>
    <g id="Page-1" stroke="none" stroke-width="1" fill="none" fill-rule="evenodd" sketch:type="MSPage">
        <g id="Desktop-HD" sketch:type="MSArtboardGroup" transform="translate(-236.000000, -433.000000)" fill="#D8D8D8">
            <g id="block" sketch:type="MSLayerGroup" transform="translate(100.000000, 263.000000)">
                <path d="M145,178 C148.865993,178 151.234204,175.636223 151.234204,175.636223 C151.657141,175.284847 151.659238,174.701381 151.234204,174.363777 C151.234204,174.363777 148.865993,172 145,172 C141.134007,172 138.765796,174.363777 138.765796,174.363777 C138.342859,174.715153 138.340762,175.298619 138.765796,175.636223 C138.765796,175.636223 141.134007,178 145,178 L145,178 L145,178 Z M139.469903,178.570868 C138.483824,178.028957 137.773683,177.471748 137.352908,177.051761 L137.521858,177.202307 C136.094272,176.068378 136.096629,173.981144 137.487729,172.825419 L137.352908,172.948239 C137.773683,172.528252 138.483824,171.971043 139.469903,171.429132 C141.093276,170.536989 142.948654,170 145,170 C147.051346,170 148.906724,170.536989 150.530097,171.429132 C151.516176,171.971043 152.226317,172.528252 152.647092,172.948239 L152.478142,172.797693 C153.905728,173.931622 153.903371,176.018856 152.512271,177.174581 L152.647092,177.051761 C152.226317,177.471748 151.516176,178.028957 150.530097,178.570868 C148.906724,179.463011 147.051346,180 145,180 C142.948654,180 141.093276,179.463011 139.469903,178.570868 Z M145,178 C146.656854,178 148,176.656854 148,175 C148,173.343146 146.656854,172 145,172 C143.343146,172 142,173.343146 142,175 C142,176.656854 143.343146,178 145,178 L145,178 L145,178 Z" id="icon-views" sketch:type="MSShapeGroup"></path>
            </g>
        </g>
    </g>
</svg>